<svg width="137" height="35" viewBox="0 0 137 35" fill="none" xmlns="http://www.w3.org/2000/svg">
    <path fill-rule="evenodd" clip-rule="evenodd"
          d="M44.8792 26.8418C52.3431 26.8418 58.3542 20.8049 58.3542 13.4209C58.3542 5.98701 52.293 0 44.8792 0C37.4655 0 31.4043 5.98701 31.4043 13.371C31.4043 20.8049 37.4154 26.8418 44.8792 26.8418ZM44.8792 20.7051C48.9368 20.7051 52.1928 17.4122 52.1928 13.4209C52.1928 9.37965 48.8867 6.13668 44.8792 6.13668C40.8217 6.13668 37.5657 9.42954 37.5657 13.4209C37.5657 17.4122 40.8217 20.7051 44.8792 20.7051Z"
          fill="#13A546"/>
    <path fill-rule="evenodd" clip-rule="evenodd"
          d="M51.3916 26.4426L57.4528 33.4773C58.5549 34.7745 60.5085 34.9242 61.8109 33.8266C63.1133 32.729 63.2636 30.7832 62.1615 29.486L56.2506 22.601C54.9482 24.1975 53.2951 25.4947 51.3916 26.4426Z"
          fill="#13A546"/>
    <path d="M85.2 22.3724C85.2 23.2704 84.8994 24.0188 84.3484 24.5676C83.7473 25.1663 83.046 25.4158 82.1944 25.4158C81.2427 25.4158 80.4412 25.0665 79.8401 24.368L72.9773 16.1858L70 18.8633V22.3203C70 23.1685 69.7714 23.8691 69.1703 24.4678C68.5692 25.0665 67.8178 25.3659 67.0163 25.3659C66.2148 25.3659 65.4634 25.0665 64.8623 24.4678C64.2612 23.8691 64.0107 23.1207 64.0107 22.3225V4.66079C64.0107 3.81263 64.3113 3.11415 64.8623 2.51545C65.4634 1.91675 66.2148 1.6174 67.0664 1.6174C67.918 1.6174 68.6193 1.91675 69.1703 2.51545C69.7714 3.11415 69.9904 3.86252 69.9904 4.66079V12.1446L79.7399 2.36577C80.2909 1.81696 80.9421 1.5675 81.7436 1.5675C82.5451 1.5675 83.2464 1.86686 83.7473 2.41566C84.2983 2.96447 84.5488 3.61307 84.5488 4.41133C84.5488 5.2096 84.2983 5.90809 83.7473 6.407L77.4356 12.5936L84.5989 20.5264C84.9996 20.9255 85.2 21.5741 85.2 22.3724Z"
          fill="#2C2B67"/>
    <path d="M96.8461 22.456V7.33878H92.6884C91.937 7.33878 91.2858 7.08932 90.7348 6.59041C90.2339 6.09149 89.9834 5.4429 89.9834 4.69452C89.9834 3.94614 90.2339 3.34744 90.7348 2.79863C91.2858 2.24983 91.937 2.00037 92.6884 2.00037H107.215C107.967 2.00037 108.568 2.24983 109.119 2.79863C109.67 3.29755 109.92 3.94614 109.92 4.69452C109.92 5.393 109.67 6.0416 109.119 6.59041C108.618 7.08932 107.967 7.33878 107.215 7.33878H103.008V22.5059C103.008 23.354 102.707 24.0525 102.106 24.6512C101.505 25.2499 100.753 25.5493 99.9519 25.5493C99.1003 25.5493 98.399 25.2499 97.7979 24.6512C97.1968 24.0525 96.8461 23.3041 96.8461 22.456Z"
          fill="#2C2B67"/>
    <path d="M117.164 29.1368L117.464 29.0869C119.067 29.037 120.119 28.4882 120.67 27.3906L121.522 25.3949L113.507 5.63775C113.357 5.38829 113.307 4.98916 113.307 4.54014C113.307 3.69198 113.607 2.99349 114.158 2.44468C114.759 1.84598 115.461 1.54663 116.262 1.54663C117.715 1.54663 118.667 2.19522 119.067 3.44252L124.678 18.2604L130.238 3.44252C130.739 2.19522 131.691 1.54663 133.093 1.54663C133.945 1.54663 134.696 1.84598 135.247 2.44468C135.848 3.04338 136.099 3.74187 136.099 4.54014C136.099 4.88938 135.999 5.28851 135.848 5.68764L126.381 28.8873C124.928 32.5793 122.123 34.4752 117.915 34.5251C117.565 34.5251 117.314 34.5251 117.264 34.4752C116.462 34.4253 115.811 34.1758 115.26 33.6769C114.709 33.178 114.509 32.5294 114.509 31.7311C114.509 30.9828 114.759 30.3841 115.26 29.8851C115.861 29.4361 116.462 29.1867 117.164 29.1368Z"
          fill="#2C2B67"/>
    <path d="M27.6672 22.9502V28.538C27.6672 29.2864 27.4168 29.8851 26.9158 30.4339C26.4149 30.9827 25.7637 31.1823 25.0123 31.1823C24.2609 31.1823 23.6097 30.9328 23.0587 30.4339C22.5578 29.935 22.3073 29.2864 22.3073 28.538V25.0078H6.3277V28.538C6.3277 29.2864 6.07723 29.8851 5.57631 30.4339C5.07538 30.9827 4.42417 31.1823 3.67278 31.1823C2.92139 31.1823 2.27019 30.9328 1.71916 30.4339C1.21824 29.935 0.967773 29.2864 0.967773 28.538V23.8482C0.967773 21.5532 1.71916 20.256 3.17185 19.8569C4.47427 17.4621 5.42603 13.3211 5.97705 7.43383L6.17742 5.1887C6.27761 4.14097 6.62826 3.3427 7.27946 2.79389C7.93067 2.19519 8.73439 1.99402 9.73625 1.99402L21.4082 1.99405C22.5603 1.99405 23.4594 2.19519 24.0605 2.84379C24.7117 3.44249 25.0123 4.34054 25.0123 5.48805V19.807C26.8156 19.9567 27.6672 21.0044 27.6672 22.9502ZM18.9954 19.9962V6.99917H11.4306L11.2869 9.22993C10.9863 14.2191 10.1187 18.0005 8.86643 19.9962H18.9954Z"
          fill="#2C2B67"/>
</svg>
