<svg width="763" height="150" viewBox="0 0 763 150" fill="none" xmlns="http://www.w3.org/2000/svg">
<path d="M0 51.4299C0 33.4251 6.35246e-06 24.426 3.50371 17.5518C6.58112 11.5036 11.5036 6.58777 17.5519 3.50371C24.4261 0 33.4318 0 51.4299 0L98.5701 0C116.575 0 125.574 0 132.448 3.50371C138.496 6.58111 143.412 11.5036 146.496 17.5518C150 24.426 150 33.4251 150 51.4299V98.5701C150 116.575 150 125.574 146.496 132.448C143.419 138.496 138.496 143.412 132.448 146.496C125.574 150 116.568 150 98.5701 150H51.4299C33.4251 150 24.4261 150 17.5519 146.496C11.5036 143.419 6.58778 138.496 3.50371 132.448C6.35246e-06 125.574 0 116.568 0 98.5701L0 51.4299Z" fill="#FFB401"/>
<path d="M27.641 24.8413C32.6368 18.4534 40.1771 14.3169 49.9155 14.3169C61.9387 14.3169 69.479 19.6857 75.0143 24.8746C80.5497 19.679 88.0899 14.3169 100.113 14.3169C109.852 14.3169 117.385 18.4601 122.388 24.8413C127.29 31.1094 129.588 39.3025 129.588 47.4356C129.588 66.9525 114.055 81.3803 98.8675 92.371L78.1916 107.725C74.4148 110.529 73.4556 115.771 75.9935 119.728C78.7645 124.058 84.6129 125.163 88.776 122.139L108.16 108.078L113.295 115.158L93.9117 129.22C85.6786 135.195 74.1151 133.01 68.6264 124.444C63.6106 116.617 65.509 106.239 72.9694 100.697L93.6852 85.3103L93.7052 85.2903C108.999 74.2263 120.829 62.1365 120.829 47.4289C120.829 40.8279 118.951 34.6531 115.487 30.2235C112.116 25.9138 107.101 23.0562 100.106 23.0562C89.4555 23.0562 83.6937 28.4316 78.125 34.0736C77.3057 34.9062 76.18 35.3791 75.0076 35.3791C73.8353 35.3791 72.7163 34.9128 71.8903 34.0736C66.3217 28.425 60.5599 23.0562 49.9089 23.0562C42.9148 23.0562 37.899 25.9204 34.5285 30.2235C31.0648 34.6464 29.1864 40.8279 29.1864 47.4289C29.1864 61.6969 40.5767 75.1122 55.1844 85.237C57.1694 86.6159 57.6623 89.3402 56.2901 91.3252C54.9113 93.3102 52.1869 93.8031 50.2019 92.431C35.0681 81.9398 20.4404 66.2397 20.4404 47.4289C20.4404 39.3025 22.7385 31.1094 27.641 24.8413Z" fill="white"/>
<path d="M58.8037 42.2091C58.8037 41.8628 59.0835 41.583 59.4299 41.583H66.9302C67.2766 41.583 67.5563 41.8628 67.5563 42.2091V53.9193C67.5563 54.2656 67.8361 54.5454 68.1825 54.5454H81.8443C82.1907 54.5454 82.4705 54.2656 82.4705 53.9193V42.2091C82.4705 41.8628 82.7502 41.583 83.0966 41.583H90.5969C90.9433 41.583 91.2231 41.8628 91.2231 42.2091V75.6343C91.2231 75.9806 90.9433 76.2604 90.5969 76.2604H83.0966C82.7502 76.2604 82.4705 75.9806 82.4705 75.6343V63.9241C82.4705 63.5778 82.1907 63.298 81.8443 63.298H68.1825C67.8361 63.298 67.5563 63.5778 67.5563 63.9241V75.6343C67.5563 75.9806 67.2766 76.2604 66.9302 76.2604H59.4299C59.0835 76.2604 58.8037 75.9806 58.8037 75.6343V42.2091Z" fill="white"/>
<path d="M120.927 98.759C118.103 98.759 115.818 101.05 115.818 103.868C115.818 106.692 118.109 108.977 120.927 108.977C123.745 108.977 126.036 106.686 126.036 103.868C126.036 101.044 123.751 98.759 120.927 98.759ZM107.065 103.868C107.065 96.2144 113.274 90.0063 120.927 90.0063C128.581 90.0063 134.789 96.2144 134.789 103.868C134.789 111.528 128.581 117.73 120.927 117.73C113.274 117.73 107.065 111.528 107.065 103.868Z" fill="white"/>
<path d="M188.267 102.627V39.1392H195.431V67.3443H232.077V39.1392H239.241V102.627H232.077V74.0482H195.431V102.627H188.267Z" fill="black"/>
<path d="M269.99 103.625C265.214 103.625 261.098 102.331 257.659 99.7262C254.211 97.1298 252.483 93.4999 252.483 88.8367C252.483 83.939 254.298 80.1616 257.928 77.4956C261.558 74.8384 266.421 73.5011 272.534 73.5011C277.371 73.5011 282.147 74.1697 286.871 75.4984V74.0482C286.871 69.9407 285.664 66.7885 283.241 64.6175C280.818 62.4466 277.406 61.3524 272.986 61.3524C268.383 61.3524 263.642 62.4726 258.744 64.713L256.66 58.9991C262.461 56.3418 268.149 55.0045 273.715 55.0045C280.367 55.0045 285.412 56.7326 288.868 60.1801C292.133 63.4452 293.766 68.039 293.766 73.97V102.635H286.871V95.6535C282.694 100.968 277.067 103.625 269.99 103.625ZM271.353 98.0068C275.712 98.0068 279.394 96.8258 282.425 94.4725C285.447 92.1105 286.958 89.0886 286.958 85.4066V81.0473C282.364 79.7187 277.797 79.05 273.264 79.05C268.965 79.05 265.613 79.9097 263.199 81.6378C260.776 83.3572 259.569 85.7019 259.569 88.6717C259.569 91.52 260.707 93.7865 262.973 95.4712C265.231 97.1558 268.027 98.0068 271.353 98.0068Z" fill="black"/>
<path d="M308.363 102.627V39.1392H361.334V102.627H347.362V51.7394H322.335V102.627H308.363Z" fill="black"/>
<path d="M417.806 96.3658C412.752 101.263 406.482 103.712 398.979 103.712C391.476 103.712 385.232 101.272 380.248 96.4092C375.255 91.5463 372.762 85.5371 372.762 78.4076C372.762 71.3303 375.29 65.3472 380.335 60.4408C385.389 55.5345 391.659 53.0943 399.161 53.0943C406.664 53.0943 412.908 55.5258 417.892 60.3974C422.877 65.2603 425.378 71.2609 425.378 78.399C425.378 85.485 422.851 91.4681 417.806 96.3658ZM399.161 91.8328C402.974 91.8328 406.022 90.5476 408.323 87.9772C410.615 85.4068 411.77 82.2199 411.77 78.4076C411.77 74.717 410.581 71.5561 408.184 68.9249C405.796 66.2937 402.73 64.9824 398.979 64.9824C395.167 64.9824 392.11 66.2677 389.818 68.8381C387.516 71.4085 386.37 74.5955 386.37 78.4076C386.37 82.0983 387.56 85.2592 389.957 87.8904C392.345 90.5129 395.41 91.8328 399.161 91.8328Z" fill="black"/>
<path d="M479.532 54.0058V102.627H465.742V65.7984H449.138V102.627H435.357V54.0058H479.532Z" fill="black"/>
<path d="M491.862 117.146V54.0061H505.643V60.9879C509.516 55.7255 514.561 53.0943 520.796 53.0943C526.849 53.0943 532.042 55.3608 536.401 59.8937C540.76 64.4267 542.931 70.5922 542.931 78.399C542.931 86.1362 540.769 92.267 536.445 96.7653C532.12 101.263 526.901 103.521 520.796 103.521C514.752 103.521 509.698 101.107 505.643 96.2703V117.129L491.862 117.146ZM508.873 88.0727C511.14 90.5824 513.936 91.8328 517.262 91.8328C520.588 91.8328 523.401 90.5824 525.694 88.0727C527.995 85.5631 529.142 82.2806 529.142 78.234C529.142 74.3089 527.995 71.0872 525.694 68.5776C523.393 66.0679 520.588 64.8088 517.262 64.8088C513.936 64.8088 511.14 66.0592 508.873 68.5776C506.607 71.0872 505.469 74.3697 505.469 78.4163C505.469 82.3414 506.607 85.5631 508.873 88.0727Z" fill="black"/>
<path d="M566.88 103.538C562.104 103.538 558.126 102.21 554.948 99.5436C551.778 96.8864 550.181 93.1958 550.181 88.4804C550.181 83.3396 551.952 79.4666 555.486 76.8702C559.021 74.2737 563.788 72.9711 569.78 72.9711C573.827 72.9711 577.795 73.6398 581.66 74.9684V74.1521C581.66 68.2298 578.186 65.2599 571.23 65.2599C567.053 65.2599 562.581 66.1369 557.805 67.8911L554.358 57.3663C560.289 54.7698 566.576 53.4672 573.228 53.4672C580.548 53.4672 586.019 55.2822 589.649 58.912C593.157 62.4203 594.911 67.5871 594.911 74.4213V102.635H581.581V97.3727C577.882 101.48 572.984 103.538 566.88 103.538ZM571.048 94.012C574.252 94.012 576.849 93.2131 578.846 91.6066C580.843 90.0088 581.842 87.9681 581.842 85.4845V83.0357C579.245 81.8286 576.31 81.2294 573.037 81.2294C570.015 81.2294 567.67 81.8199 566.011 82.9923C564.344 84.1733 563.51 85.884 563.51 88.1157C563.51 89.9306 564.205 91.3635 565.594 92.4229C567.001 93.491 568.816 94.012 571.048 94.012Z" fill="black"/>
<path d="M606.792 54.0058H633.46C638.419 54.0058 642.361 55.1 645.296 57.2709C648.232 59.4419 649.699 62.4118 649.699 66.1632C649.699 71.2432 647.129 74.8991 641.988 77.1395C648.336 79.076 651.514 83.1574 651.514 89.3837C651.514 93.4912 649.899 96.7302 646.66 99.0922C643.429 101.454 638.992 102.627 633.373 102.627H606.792V54.0058ZM630.1 73.5097C631.975 73.5097 633.417 73.0581 634.407 72.1463C635.405 71.2432 635.909 70.0622 635.909 68.612C635.909 67.3442 635.432 66.2848 634.494 65.4424C633.556 64.6001 632.149 64.1746 630.273 64.1746H620.391V73.5097H630.1ZM620.4 91.8326H631.281C635.458 91.8326 637.542 90.2 637.542 86.9349C637.542 83.7913 635.336 82.2196 630.916 82.2196H620.391L620.4 91.8326Z" fill="black"/>
<path d="M661.214 102.627V54.0058H675.004V73.9612L692.423 54.0058H708.297L690.426 73.9612L710.564 102.627H694.23L681.265 84.1213L675.004 90.9294V102.627H661.214Z" fill="black"/>
<path d="M728.242 117.415C723.883 117.415 719.81 116.295 715.998 114.054L720.627 104.077C722.745 105.345 724.708 105.979 726.523 105.979C728.703 105.979 730.3 104.919 731.325 102.809L712.273 54.0058H726.879L737.942 87.1173L748.554 54.0058H762.882L744.195 103.808C742.319 108.827 740.209 112.352 737.847 114.376C735.502 116.399 732.298 117.415 728.242 117.415Z" fill="black"/>
</svg>
