<svg width="75" height="109" viewBox="0 0 75 109" fill="none" xmlns="http://www.w3.org/2000/svg">
<path d="M33.8578 0.293457C24.9379 0.303151 16.3861 3.82436 10.0787 10.0845C3.77139 16.3447 0.223634 24.8325 0.213867 33.6857V105.856C0.213867 106.427 0.442553 106.975 0.849614 107.379C1.25668 107.783 1.80877 108.01 2.38444 108.01C2.96011 108.01 3.51221 107.783 3.91927 107.379C4.32633 106.975 4.55502 106.427 4.55502 105.856V33.6857C4.55502 25.9722 7.64226 18.5747 13.1376 13.1205C18.6329 7.66628 26.0862 4.60213 33.8578 4.60213C41.6294 4.60213 49.0826 7.66628 54.578 13.1205C60.0733 18.5747 63.1605 25.9722 63.1605 33.6857V47.6889C63.1568 48.0222 63.2311 48.3519 63.3776 48.6519L69.0341 59.876L64.1156 63.1312C63.8204 63.3292 63.5789 63.5963 63.4123 63.9089C63.2458 64.2215 63.1593 64.57 63.1605 64.9236V82.1583C63.1605 82.7296 62.9319 83.2776 62.5248 83.6816C62.1177 84.0856 61.5656 84.3126 60.99 84.3126H45.7959C45.2203 84.3126 44.6682 84.5396 44.2611 84.9436C43.854 85.3476 43.6254 85.8956 43.6254 86.4669V105.856C43.6254 106.427 43.854 106.975 44.2611 107.379C44.6682 107.783 45.2203 108.01 45.7959 108.01C46.3716 108.01 46.9237 107.783 47.3308 107.379C47.7378 106.975 47.9665 106.427 47.9665 105.856V88.6213H60.99C62.717 88.6213 64.3733 87.9404 65.5944 86.7283C66.8156 85.5163 67.5017 83.8724 67.5017 82.1583V66.0761L73.0475 62.4138C73.4877 62.1226 73.8055 61.682 73.9414 61.1746C74.0773 60.6672 74.0219 60.128 73.7855 59.6584L67.4908 47.1869V33.6857C67.4811 24.8344 63.9348 16.3482 57.6298 10.0883C51.3248 3.82847 42.7758 0.306001 33.8578 0.293457Z" fill="#684C9E"/>
<path d="M33.8578 0.293457C24.9379 0.303151 16.3861 3.82436 10.0787 10.0845C3.77139 16.3447 0.223634 24.8325 0.213867 33.6857V105.856C0.213867 106.427 0.442553 106.975 0.849614 107.379C1.25668 107.783 1.80877 108.01 2.38444 108.01C2.96011 108.01 3.51221 107.783 3.91927 107.379C4.32633 106.975 4.55502 106.427 4.55502 105.856V33.6857C4.55502 25.9722 7.64226 18.5747 13.1376 13.1205C18.6329 7.66628 26.0862 4.60213 33.8578 4.60213C41.6294 4.60213 49.0826 7.66628 54.578 13.1205C60.0733 18.5747 63.1605 25.9722 63.1605 33.6857V47.6889C63.1568 48.0222 63.2311 48.3519 63.3776 48.6519L69.0341 59.876L64.1156 63.1312C63.8204 63.3292 63.5789 63.5963 63.4123 63.9089C63.2458 64.2215 63.1593 64.57 63.1605 64.9236V82.1583C63.1605 82.7296 62.9319 83.2776 62.5248 83.6816C62.1177 84.0856 61.5656 84.3126 60.99 84.3126H45.7959C45.2203 84.3126 44.6682 84.5396 44.2611 84.9436C43.854 85.3476 43.6254 85.8956 43.6254 86.4669V105.856C43.6254 106.427 43.854 106.975 44.2611 107.379C44.6682 107.783 45.2203 108.01 45.7959 108.01C46.3716 108.01 46.9237 107.783 47.3308 107.379C47.7378 106.975 47.9665 106.427 47.9665 105.856V88.6213H60.99C62.717 88.6213 64.3733 87.9404 65.5944 86.7283C66.8156 85.5163 67.5017 83.8724 67.5017 82.1583V66.0761L73.0475 62.4138C73.4877 62.1226 73.8055 61.682 73.9414 61.1746C74.0773 60.6672 74.0219 60.128 73.7855 59.6584L67.4908 47.1869V33.6857C67.4811 24.8344 63.9348 16.3482 57.6298 10.0883C51.3248 3.82847 42.7758 0.306001 33.8578 0.293457Z" stroke="#684C9E"/>
<path d="M54.4791 31.8911C54.5533 30.3433 54.3159 28.7964 53.7808 27.3407C53.2457 25.8851 52.4237 24.5499 51.3627 23.4132C50.3017 22.2765 49.0231 21.3611 47.6015 20.7206C46.18 20.08 44.6441 19.7271 43.0835 19.6824C39.6745 19.6721 36.3845 20.926 33.8586 23.1983C31.3327 20.926 28.0427 19.6721 24.6336 19.6824C23.0731 19.7271 21.5372 20.08 20.1157 20.7206C18.6941 21.3611 17.4155 22.2765 16.3545 23.4132C15.2935 24.5499 14.4715 25.8851 13.9364 27.3407C13.4013 28.7964 13.1639 30.3433 13.2381 31.8911C13.2381 36.5724 15.7929 45.6637 32.9079 53.9342C33.204 54.0775 33.5292 54.1519 33.8586 54.1519C34.188 54.1519 34.5131 54.0775 34.8093 53.9342C51.9243 45.6637 54.4791 36.5724 54.4791 31.8911ZM33.8586 49.5933C23.4963 44.3798 17.5793 37.9598 17.5793 31.8911C17.5005 30.9086 17.6222 29.9204 17.9373 28.9857C18.2524 28.051 18.7543 27.189 19.413 26.4514C20.0716 25.7138 20.8735 25.1157 21.7706 24.6929C22.6676 24.2702 23.6414 24.0315 24.6336 23.9911C26.0673 23.9873 27.4829 24.3088 28.7722 24.9313C30.0614 25.5537 31.1902 26.4605 32.0722 27.5824C32.2825 27.8557 32.5535 28.0772 32.864 28.2297C33.1746 28.3822 33.5164 28.4615 33.8629 28.4615C34.2094 28.4615 34.5513 28.3822 34.8618 28.2297C35.1724 28.0772 35.4434 27.8557 35.6537 27.5824C36.5329 26.4596 37.6599 25.552 38.9479 24.9294C40.236 24.3068 41.6508 23.9858 43.0835 23.9911C44.0758 24.0315 45.0496 24.2702 45.9466 24.6929C46.8437 25.1157 47.6456 25.7138 48.3042 26.4514C48.9629 27.189 49.4648 28.051 49.7799 28.9857C50.0949 29.9204 50.2167 30.9086 50.1379 31.8911C50.1379 37.962 44.2209 44.3798 33.8586 49.5933Z" fill="#684C9E"/>
<path d="M54.4791 31.8911C54.5533 30.3433 54.3159 28.7964 53.7808 27.3407C53.2457 25.8851 52.4237 24.5499 51.3627 23.4132C50.3017 22.2765 49.0231 21.3611 47.6015 20.7206C46.18 20.08 44.6441 19.7271 43.0835 19.6824C39.6745 19.6721 36.3845 20.926 33.8586 23.1983C31.3327 20.926 28.0427 19.6721 24.6336 19.6824C23.0731 19.7271 21.5372 20.08 20.1157 20.7206C18.6941 21.3611 17.4155 22.2765 16.3545 23.4132C15.2935 24.5499 14.4715 25.8851 13.9364 27.3407C13.4013 28.7964 13.1639 30.3433 13.2381 31.8911C13.2381 36.5724 15.7929 45.6637 32.9079 53.9342C33.204 54.0775 33.5292 54.1519 33.8586 54.1519C34.188 54.1519 34.5131 54.0775 34.8093 53.9342C51.9243 45.6637 54.4791 36.5724 54.4791 31.8911ZM33.8586 49.5933C23.4963 44.3798 17.5793 37.9598 17.5793 31.8911C17.5005 30.9086 17.6222 29.9204 17.9373 28.9857C18.2524 28.051 18.7543 27.189 19.413 26.4514C20.0716 25.7138 20.8735 25.1157 21.7706 24.6929C22.6676 24.2702 23.6414 24.0315 24.6336 23.9911C26.0673 23.9873 27.4829 24.3088 28.7722 24.9313C30.0614 25.5537 31.1902 26.4605 32.0722 27.5824C32.2825 27.8557 32.5535 28.0772 32.864 28.2297C33.1746 28.3822 33.5164 28.4615 33.8629 28.4615C34.2094 28.4615 34.5513 28.3822 34.8618 28.2297C35.1724 28.0772 35.4434 27.8557 35.6537 27.5824C36.5329 26.4596 37.6599 25.552 38.9479 24.9294C40.236 24.3068 41.6508 23.9858 43.0835 23.9911C44.0758 24.0315 45.0496 24.2702 45.9466 24.6929C46.8437 25.1157 47.6456 25.7138 48.3042 26.4514C48.9629 27.189 49.4648 28.051 49.7799 28.9857C50.0949 29.9204 50.2167 30.9086 50.1379 31.8911C50.1379 37.962 44.2209 44.3798 33.8586 49.5933Z" stroke="#684C9E"/>
</svg>
