<svg width="83" height="112" viewBox="0 0 83 112" fill="none" xmlns="http://www.w3.org/2000/svg">
<path d="M2.43529 111.035C3.02565 111.035 3.59182 110.803 4.00926 110.388C4.4267 109.974 4.66122 109.412 4.66122 108.826V36.8567C4.52655 28.7828 7.5338 20.9683 13.0572 15.0394C18.5806 9.11043 26.1946 5.52367 34.315 5.02549C38.5302 4.82013 42.7435 5.46717 46.699 6.92732C50.6546 8.38748 54.2698 10.6303 57.3254 13.5196C60.3809 16.4089 62.813 19.8844 64.4738 23.7351C66.1347 27.5857 66.9898 31.7313 66.9871 35.92V49.1756C66.9878 49.6119 67.1179 50.0383 67.3611 50.4018L77.9187 66.1208C78.0937 66.3814 78.2108 66.676 78.2624 66.9851C78.3139 67.2941 78.2987 67.6105 78.2176 67.9132C78.1366 68.216 77.9916 68.4981 77.7923 68.741C77.593 68.9839 77.344 69.1819 77.0617 69.322L68.2181 73.7118C67.8484 73.8952 67.5374 74.177 67.32 74.5259C67.1026 74.8747 66.9874 75.2767 66.9871 75.6869V84.524C66.9871 85.1099 66.7526 85.6719 66.3352 86.0862C65.9177 86.5005 65.3516 86.7333 64.7612 86.7333H49.1797C48.5894 86.7333 48.0232 86.966 47.6058 87.3804C47.1883 87.7947 46.9538 88.3566 46.9538 88.9426V108.826C46.9538 109.412 47.1883 109.974 47.6058 110.388C48.0232 110.803 48.5894 111.035 49.1797 111.035C49.7701 111.035 50.3363 110.803 50.7537 110.388C51.1711 109.974 51.4057 109.412 51.4057 108.826V91.1518H64.7612C66.5323 91.1518 68.2308 90.4535 69.4831 89.2106C70.7354 87.9676 71.439 86.2818 71.439 84.524V77.0522L79.0539 73.2744C79.9009 72.854 80.6481 72.2597 81.246 71.5307C81.8439 70.8018 82.2787 69.955 82.5216 69.0466C82.7646 68.1381 82.81 67.1888 82.655 66.2615C82.5 65.3343 82.1481 64.4504 81.6226 63.6685L71.439 48.5128V35.92C71.4423 31.1333 70.4656 26.3959 68.5679 21.9954C66.6703 17.5948 63.8914 13.623 60.4 10.3209C56.9086 7.0188 52.7775 4.4554 48.2574 2.78631C43.7374 1.11723 38.9227 0.37727 34.1058 0.611365C24.8422 1.16305 16.1495 5.23822 9.8361 11.9891C3.52271 18.74 0.0746987 27.6469 0.209368 36.8567V108.826C0.209368 109.412 0.443884 109.974 0.861326 110.388C1.27877 110.803 1.84494 111.035 2.43529 111.035Z" fill="#684C9E"/>
<path d="M2.43529 111.035C3.02565 111.035 3.59182 110.803 4.00926 110.388C4.4267 109.974 4.66122 109.412 4.66122 108.826V36.8567C4.52655 28.7828 7.5338 20.9683 13.0572 15.0394C18.5806 9.11043 26.1946 5.52367 34.315 5.02549C38.5302 4.82013 42.7435 5.46717 46.699 6.92732C50.6546 8.38748 54.2698 10.6303 57.3254 13.5196C60.3809 16.4089 62.813 19.8844 64.4738 23.7351C66.1347 27.5857 66.9898 31.7313 66.9871 35.92V49.1756C66.9878 49.6119 67.1179 50.0383 67.3611 50.4018L77.9187 66.1208C78.0937 66.3814 78.2108 66.676 78.2624 66.9851C78.3139 67.2941 78.2987 67.6105 78.2176 67.9132C78.1366 68.216 77.9916 68.4981 77.7923 68.741C77.593 68.9839 77.344 69.1819 77.0617 69.322L68.2181 73.7118C67.8484 73.8952 67.5374 74.177 67.32 74.5259C67.1026 74.8747 66.9874 75.2767 66.9871 75.6869V84.524C66.9871 85.1099 66.7526 85.6719 66.3352 86.0862C65.9177 86.5005 65.3516 86.7333 64.7612 86.7333H49.1797C48.5894 86.7333 48.0232 86.966 47.6058 87.3804C47.1883 87.7947 46.9538 88.3566 46.9538 88.9426V108.826C46.9538 109.412 47.1883 109.974 47.6058 110.388C48.0232 110.803 48.5894 111.035 49.1797 111.035C49.7701 111.035 50.3363 110.803 50.7537 110.388C51.1711 109.974 51.4057 109.412 51.4057 108.826V91.1518H64.7612C66.5323 91.1518 68.2308 90.4535 69.4831 89.2106C70.7354 87.9676 71.439 86.2818 71.439 84.524V77.0522L79.0539 73.2744C79.9009 72.854 80.6481 72.2597 81.246 71.5307C81.8439 70.8018 82.2787 69.955 82.5216 69.0466C82.7646 68.1381 82.81 67.1888 82.655 66.2615C82.5 65.3343 82.1481 64.4504 81.6226 63.6685L71.439 48.5128V35.92C71.4423 31.1333 70.4656 26.3959 68.5679 21.9954C66.6703 17.5948 63.8914 13.623 60.4 10.3209C56.9086 7.0188 52.7775 4.4554 48.2574 2.78631C43.7374 1.11723 38.9227 0.37727 34.1058 0.611365C24.8422 1.16305 16.1495 5.23822 9.8361 11.9891C3.52271 18.74 0.0746987 27.6469 0.209368 36.8567V108.826C0.209368 109.412 0.443884 109.974 0.861326 110.388C1.27877 110.803 1.84494 111.035 2.43529 111.035Z" stroke="#684C9E"/>
<path d="M51.4069 35.92C52.5834 35.9257 53.7366 36.2454 54.7458 36.8457C55.0838 37.0394 55.4673 37.1415 55.8576 37.1417C56.248 37.1419 56.6315 37.0402 56.9698 36.8468C57.308 36.6534 57.5891 36.3752 57.7848 36.0399C57.9805 35.7047 58.0839 35.3243 58.0847 34.9369V27.0829C58.0847 25.3251 57.3811 23.6393 56.1288 22.3963C54.8765 21.1534 53.178 20.4551 51.4069 20.4551H20.2439C18.4729 20.4551 16.7744 21.1534 15.522 22.3963C14.2697 23.6393 13.5662 25.3251 13.5662 27.0829V58.0127C13.5662 59.7705 14.2697 61.4564 15.522 62.6993C16.7744 63.9423 18.4729 64.6406 20.2439 64.6406H24.9184C24.7673 65.3673 24.6927 66.1077 24.6958 66.8498C24.6958 69.7795 25.8684 72.5892 27.9556 74.6608C30.0428 76.7324 32.8737 77.8962 35.8254 77.8962C38.7772 77.8962 41.608 76.7324 43.6953 74.6608C45.7825 72.5892 46.955 69.7795 46.955 66.8498C46.9581 66.1077 46.8835 65.3673 46.7325 64.6406H51.4069C53.178 64.6406 54.8765 63.9423 56.1288 62.6993C57.3811 61.4564 58.0847 59.7705 58.0847 58.0127V50.1588C58.0839 49.7713 57.9805 49.3909 57.7848 49.0557C57.5891 48.7205 57.308 48.4422 56.9698 48.2488C56.6315 48.0555 56.248 47.9538 55.8576 47.954C55.4673 47.9542 55.0838 48.0562 54.7458 48.25C53.7366 48.8502 52.5834 49.1699 51.4069 49.1756C49.6358 49.1756 47.9373 48.4774 46.685 47.2344C45.4327 45.9914 44.7291 44.3056 44.7291 42.5478C44.7291 40.79 45.4327 39.1042 46.685 37.8612C47.9373 36.6183 49.6358 35.92 51.4069 35.92ZM51.4069 53.5942C52.1546 53.5972 52.9006 53.5232 53.6328 53.3733V58.0127C53.6328 58.5987 53.3983 59.1606 52.9809 59.5749C52.5634 59.9892 51.9972 60.222 51.4069 60.222H43.4937C43.1034 60.2228 42.7201 60.3254 42.3823 60.5197C42.0446 60.7139 41.7642 60.9929 41.5694 61.3286C41.3746 61.6643 41.2721 62.045 41.2723 62.4324C41.2725 62.8198 41.3754 63.2004 41.5705 63.5359C42.1756 64.5374 42.4978 65.6821 42.5032 66.8498C42.5032 68.6076 41.7996 70.2934 40.5473 71.5364C39.295 72.7794 37.5965 73.4776 35.8254 73.4776C34.0544 73.4776 32.3558 72.7794 31.1035 71.5364C29.8512 70.2934 29.1476 68.6076 29.1476 66.8498C29.1531 65.6821 29.4752 64.5374 30.0803 63.5359C30.2755 63.2004 30.3783 62.8198 30.3785 62.4324C30.3787 62.045 30.2763 61.6643 30.0814 61.3286C29.8866 60.9929 29.6062 60.7139 29.2685 60.5197C28.9307 60.3254 28.5475 60.2228 28.1571 60.222H20.2439C19.6536 60.222 19.0874 59.9892 18.67 59.5749C18.2525 59.1606 18.018 58.5987 18.018 58.0127V27.0829C18.018 26.497 18.2525 25.935 18.67 25.5207C19.0874 25.1064 19.6536 24.8736 20.2439 24.8736H51.4069C51.9972 24.8736 52.5634 25.1064 52.9809 25.5207C53.3983 25.935 53.6328 26.497 53.6328 27.0829V31.7224C52.9006 31.5724 52.1546 31.4984 51.4069 31.5014C48.4551 31.5014 45.6243 32.6653 43.5371 34.7369C41.4499 36.8085 40.2773 39.6181 40.2773 42.5478C40.2773 45.4775 41.4499 48.2872 43.5371 50.3588C45.6243 52.4304 48.4551 53.5942 51.4069 53.5942Z" fill="#684C9E"/>
<path d="M51.4069 35.92C52.5834 35.9257 53.7366 36.2454 54.7458 36.8457C55.0838 37.0394 55.4673 37.1415 55.8576 37.1417C56.248 37.1419 56.6315 37.0402 56.9698 36.8468C57.308 36.6534 57.5891 36.3752 57.7848 36.0399C57.9805 35.7047 58.0839 35.3243 58.0847 34.9369V27.0829C58.0847 25.3251 57.3811 23.6393 56.1288 22.3963C54.8765 21.1534 53.178 20.4551 51.4069 20.4551H20.2439C18.4729 20.4551 16.7744 21.1534 15.522 22.3963C14.2697 23.6393 13.5662 25.3251 13.5662 27.0829V58.0127C13.5662 59.7705 14.2697 61.4564 15.522 62.6993C16.7744 63.9423 18.4729 64.6406 20.2439 64.6406H24.9184C24.7673 65.3673 24.6927 66.1077 24.6958 66.8498C24.6958 69.7795 25.8684 72.5892 27.9556 74.6608C30.0428 76.7324 32.8737 77.8962 35.8254 77.8962C38.7772 77.8962 41.608 76.7324 43.6953 74.6608C45.7825 72.5892 46.955 69.7795 46.955 66.8498C46.9581 66.1077 46.8835 65.3673 46.7325 64.6406H51.4069C53.178 64.6406 54.8765 63.9423 56.1288 62.6993C57.3811 61.4564 58.0847 59.7705 58.0847 58.0127V50.1588C58.0839 49.7713 57.9805 49.3909 57.7848 49.0557C57.5891 48.7205 57.308 48.4422 56.9698 48.2488C56.6315 48.0555 56.248 47.9538 55.8576 47.954C55.4673 47.9542 55.0838 48.0562 54.7458 48.25C53.7366 48.8502 52.5834 49.1699 51.4069 49.1756C49.6358 49.1756 47.9373 48.4774 46.685 47.2344C45.4327 45.9914 44.7291 44.3056 44.7291 42.5478C44.7291 40.79 45.4327 39.1042 46.685 37.8612C47.9373 36.6183 49.6358 35.92 51.4069 35.92ZM51.4069 53.5942C52.1546 53.5972 52.9006 53.5232 53.6328 53.3733V58.0127C53.6328 58.5987 53.3983 59.1606 52.9809 59.5749C52.5634 59.9892 51.9972 60.222 51.4069 60.222H43.4937C43.1034 60.2228 42.7201 60.3254 42.3823 60.5197C42.0446 60.7139 41.7642 60.9929 41.5694 61.3286C41.3746 61.6643 41.2721 62.045 41.2723 62.4324C41.2725 62.8198 41.3754 63.2004 41.5705 63.5359C42.1756 64.5374 42.4978 65.6821 42.5032 66.8498C42.5032 68.6076 41.7996 70.2934 40.5473 71.5364C39.295 72.7794 37.5965 73.4776 35.8254 73.4776C34.0544 73.4776 32.3558 72.7794 31.1035 71.5364C29.8512 70.2934 29.1476 68.6076 29.1476 66.8498C29.1531 65.6821 29.4752 64.5374 30.0803 63.5359C30.2755 63.2004 30.3783 62.8198 30.3785 62.4324C30.3787 62.045 30.2763 61.6643 30.0814 61.3286C29.8866 60.9929 29.6062 60.7139 29.2685 60.5197C28.9307 60.3254 28.5475 60.2228 28.1571 60.222H20.2439C19.6536 60.222 19.0874 59.9892 18.67 59.5749C18.2525 59.1606 18.018 58.5987 18.018 58.0127V27.0829C18.018 26.497 18.2525 25.935 18.67 25.5207C19.0874 25.1064 19.6536 24.8736 20.2439 24.8736H51.4069C51.9972 24.8736 52.5634 25.1064 52.9809 25.5207C53.3983 25.935 53.6328 26.497 53.6328 27.0829V31.7224C52.9006 31.5724 52.1546 31.4984 51.4069 31.5014C48.4551 31.5014 45.6243 32.6653 43.5371 34.7369C41.4499 36.8085 40.2773 39.6181 40.2773 42.5478C40.2773 45.4775 41.4499 48.2872 43.5371 50.3588C45.6243 52.4304 48.4551 53.5942 51.4069 53.5942Z" stroke="#684C9E"/>
</svg>
