<svg width="93" height="113" viewBox="0 0 93 113" fill="none" xmlns="http://www.w3.org/2000/svg">
<path fill-rule="evenodd" clip-rule="evenodd" d="M79.8186 63.8651L79.819 63.8633C79.8216 63.8651 79.8221 63.8659 79.8186 63.8651ZM46.5698 110.686C46.5922 110.664 46.6124 110.627 46.6314 110.601C46.7926 110.383 46.9671 110.175 47.1576 109.983L47.7765 109.389C47.7899 109.377 47.8011 109.37 47.8149 109.359C47.8304 109.346 47.8368 109.335 47.8532 109.322C47.9459 109.248 48.0278 109.162 48.1217 109.09L48.2752 108.962C48.6885 108.616 49.1186 108.283 49.544 107.949C49.7569 107.782 49.9745 107.621 50.1896 107.457C50.889 106.923 51.6075 106.408 52.2734 105.834C52.2897 105.819 52.2953 105.81 52.3126 105.798C52.3307 105.783 52.3333 105.783 52.3492 105.766L53.0013 105.137L53.337 104.76C53.487 104.577 53.6305 104.393 53.7693 104.199C54.3675 103.361 54.9303 102.149 54.9347 100.814V100.657C54.9355 99.3866 54.4145 98.1417 53.7215 97.3335C53.6559 97.2571 53.5805 97.1931 53.5094 97.1141C53.4594 97.0587 53.2905 96.9333 53.2314 96.8916C52.2488 96.1951 51.1011 95.6983 49.8323 95.9619C49.4371 96.044 49.0927 96.1904 48.7514 96.3755C48.6398 96.436 48.5484 96.5 48.4475 96.5649C48.2954 96.6619 48.1631 96.7778 48.0226 96.8869C48.0084 96.8981 48.0045 96.9045 47.9903 96.9161L47.7614 97.1257C47.5976 97.2824 47.4222 97.4602 47.2813 97.6389C47.2447 97.6857 47.2102 97.7282 47.1714 97.7754C47.0615 97.909 46.9559 98.061 46.8555 98.2061L46.6629 98.5067C46.6422 98.5407 46.5935 98.6364 46.5702 98.6605C46.5508 98.6403 46.509 98.5591 46.4905 98.5282C46.3125 98.2315 46.1004 97.9352 45.8871 97.6728L45.7897 97.5577C45.7143 97.4606 45.6242 97.3756 45.5401 97.2867C45.4397 97.1811 45.2837 97.0235 45.1656 96.9282C45.1273 96.8972 45.0911 96.8667 45.0531 96.835C44.5023 96.3759 43.6477 95.8915 42.6513 95.8915C42.1022 95.8915 41.6131 96.0075 41.1536 96.1904C40.9545 96.2698 40.7451 96.3686 40.5697 96.47C40.3865 96.576 40.2154 96.6834 40.0408 96.798C39.9262 96.8732 39.8327 96.9518 39.7301 97.0286C39.6426 97.0943 39.4706 97.267 39.4039 97.3537C39.3922 97.3687 39.3913 97.367 39.378 97.3825C39.3039 97.4671 39.2371 97.5564 39.1716 97.6487C38.3505 98.8013 38.0355 100.291 38.2992 101.745C38.3867 102.227 38.5359 102.636 38.7117 103.051C38.8914 103.474 39.2267 104.028 39.515 104.397C39.5788 104.479 39.64 104.56 39.7042 104.639C39.768 104.718 39.831 104.802 39.9021 104.873C39.9529 104.924 40.0038 104.993 40.0559 105.048L40.2137 105.212C40.3184 105.327 40.4572 105.446 40.536 105.534C40.5765 105.579 40.6567 105.646 40.7089 105.69L40.9894 105.937C41.0105 105.954 41.0282 105.97 41.048 105.988C41.1989 106.125 41.5346 106.377 41.7087 106.513C42.2703 106.95 42.8521 107.376 43.4176 107.812C43.4589 107.844 43.4986 107.874 43.5413 107.908L43.7852 108.096C43.8261 108.127 43.8645 108.157 43.905 108.189C44.0649 108.317 44.2291 108.441 44.3868 108.57L44.6252 108.764C44.7937 108.895 44.9588 109.039 45.1221 109.178L45.1803 109.23C45.1945 109.244 45.1941 109.245 45.2087 109.256L45.5475 109.562C45.6975 109.698 45.8444 109.836 45.9828 109.983C46.0017 110.003 46.0211 110.015 46.0397 110.035L46.1444 110.15C46.2215 110.248 46.3094 110.338 46.3883 110.44L46.5698 110.686ZM82.1287 60.5297L82.1334 60.5288C82.1662 60.5658 82.2235 60.6237 82.2618 60.616C82.3696 60.595 82.4825 60.5919 82.5928 60.5885C82.7704 60.5834 82.9424 60.5786 83.1001 60.5095C83.1785 60.4756 83.2117 60.4412 83.2186 60.4047C83.2255 60.4219 83.2315 60.4352 83.2333 60.4343C83.3389 60.3875 83.4134 60.3875 83.4647 60.3871C83.6341 60.3871 83.6875 60.3871 83.7061 60.1123C84.1004 60.0968 84.2202 60.0367 84.3555 59.9684C84.4284 59.9319 84.5072 59.892 84.6551 59.8581C85.005 59.7778 85.0499 59.7511 85.1688 59.6803C85.2123 59.6545 85.2684 59.6214 85.3701 59.5712C85.7424 59.3737 87.0134 58.6509 87.4845 58.2361C88.049 57.8316 88.7115 57.2527 89.1808 56.7829C89.2933 56.6777 89.3523 56.6309 89.3864 56.6034C89.4174 56.5785 89.4338 56.566 89.4519 56.542C89.4691 56.5192 89.479 56.4982 89.4984 56.4561C89.5183 56.4127 89.551 56.341 89.6174 56.2152C90.1643 55.4362 90.7797 54.6985 91.2111 53.8495C91.2374 53.8353 91.2693 53.8065 91.3098 53.7584C91.4262 53.6189 91.5055 53.4591 91.565 53.2916C91.6223 53.1315 91.6615 52.9631 91.699 52.7995C91.7305 52.6621 91.7529 52.6286 91.7805 52.5874C91.8059 52.5496 91.8348 52.5066 91.8705 52.4203C91.9951 52.0892 92.2149 51.6066 92.3015 51.2849C92.3382 51.1505 92.3528 51.0135 92.3662 50.883C92.3826 50.7275 92.3981 50.5807 92.4506 50.4754C92.5748 50.2259 92.6295 49.0854 92.6286 47.919C92.6278 46.6565 92.5614 45.3498 92.4476 45.1054L92.3541 44.9053C92.3364 44.8581 92.3295 44.834 92.3235 44.813C92.3132 44.7769 92.305 44.7473 92.2701 44.67C92.2321 44.5858 92.1951 44.5382 92.161 44.5141C92.1727 44.5102 92.18 44.5064 92.1791 44.5042C92.1494 44.4201 92.1438 44.3209 92.1378 44.2217C92.1317 44.116 92.1253 44.0095 92.0934 43.9039C92.0546 43.7738 92.0313 43.7334 92.0089 43.6956C91.983 43.6505 91.9598 43.6106 91.8809 43.2378L91.8658 43.1674C91.8417 43.054 91.8335 43.0137 91.8231 42.9926C91.771 42.8793 91.7344 42.8432 91.7033 42.8531L91.3275 42.099L91.3193 42.0891C91.2857 42.0479 91.256 42.0191 91.2292 42.0002C91.0698 41.8031 90.9629 41.545 90.8573 41.2887C90.7884 41.1216 90.7194 40.955 90.6349 40.8004C90.5539 40.6522 90.4418 40.538 90.3307 40.4238C90.2436 40.3349 90.157 40.246 90.0932 40.1477C89.8665 39.7577 89.6885 39.4537 89.3148 39.1651L88.1874 38.0632C88.1025 37.9855 88.0512 37.9211 88.0068 37.8652C87.9107 37.7446 87.8409 37.657 87.5892 37.5556L87.4875 37.5208C87.3586 37.4594 87.2479 37.3529 87.1371 37.2464C87.0181 37.1322 86.8988 37.0175 86.744 36.9385L86.3631 36.7294C86.1881 36.6208 85.8304 36.3687 85.664 36.2974C85.6183 36.2781 85.5804 36.2691 85.539 36.2592C85.5037 36.251 85.4653 36.2416 85.4261 36.2265L85.3752 36.2068L85.2709 36.16C85.077 36.0715 84.9473 36.0127 84.6762 35.9861C84.6585 35.7211 84.6055 35.7134 84.4249 35.6867C84.3598 35.6773 84.2655 35.6631 84.1293 35.5979L84.1198 35.5931L83.4113 35.402C83.257 35.3256 83.0971 35.3054 82.9342 35.2857C82.8402 35.2741 82.745 35.262 82.6549 35.2384L82.6364 35.2337C82.5971 35.2105 82.5489 35.1843 82.4894 35.1547C82.1433 34.9829 81.549 34.9902 81.0693 34.9962C80.9534 34.9975 80.8443 34.9988 80.7482 34.9975L80.5422 34.5427C80.4914 34.398 80.4905 34.1992 80.4896 33.9999C80.4892 33.8033 80.4884 33.6057 80.4427 33.4374L80.4401 33.4275C80.4026 33.3494 80.3651 33.2712 80.325 33.1943C80.2879 33.1024 80.2255 32.9122 80.1793 32.8366C80.1169 32.7344 80.0612 32.694 80.0134 32.6872C80.0065 32.6253 80.0001 32.5334 79.9932 32.4317C79.9755 32.18 79.9539 31.8687 79.9035 31.7394C79.7923 31.4547 79.6863 31.1241 79.5527 30.8535L79.0368 29.2711C78.9855 29.1062 78.911 28.9803 78.8377 28.8558C78.761 28.7261 78.6847 28.5973 78.6463 28.4294L78.6438 28.4186C78.2365 27.5473 77.7986 26.3518 77.2909 25.5659L76.9685 24.9287C76.8914 24.714 76.7845 24.5516 76.6729 24.382C76.6164 24.2961 76.5582 24.2081 76.507 24.1179C76.413 23.9517 76.06 23.4854 75.929 23.329C75.8691 23.2573 75.8484 23.1968 75.8234 23.1212C75.7984 23.0469 75.7696 22.9602 75.7023 22.8378C75.6028 22.6553 73.7013 20.15 73.2862 19.7098L72.8458 19.2134C72.8251 19.1704 72.8096 19.1331 72.7962 19.0996C72.7484 18.9824 72.7165 18.9029 72.5678 18.7848L72.1825 18.4245C71.9028 18.1381 71.6235 17.8474 71.3365 17.5678C70.9456 17.0817 71.0589 17.2122 70.5047 16.7498C70.3685 16.614 70.2293 16.4801 70.0914 16.3457C69.9474 16.2027 69.797 16.0987 69.6475 15.9952C69.5005 15.8935 69.354 15.7917 69.2225 15.6569C69.1781 15.6113 69.1643 15.595 69.1441 15.5705L69.1148 15.5358L67.9115 14.5738C67.7184 14.3969 67.4715 14.2337 67.24 14.0993C67.1672 14.0499 67.0952 14.0001 67.0215 13.9529L66.8086 13.8039C66.7836 13.779 66.759 13.7536 66.7353 13.727L66.2445 13.4363C66.0259 12.72 65.6264 11.0873 65.3484 10.5033C65.2859 10.3701 65.2635 10.316 65.2575 10.3023C65.0472 9.88317 64.8498 9.35454 64.6606 8.91481L64.8489 9.62723C64.1727 8.72156 62.4458 5.82892 60.9529 5.06626L60.565 4.73259C60.3728 4.55438 60.2706 4.51487 60.0207 4.36371L60.003 4.34997C59.9922 4.33193 59.9733 4.30574 59.9396 4.26709C59.9353 4.26451 59.7922 4.10047 59.7319 4.05108C59.7142 4.03734 59.6979 4.02489 59.6875 4.01845C59.5884 3.95532 59.5009 3.92054 59.4147 3.88618C59.3044 3.84195 59.1949 3.79815 59.0725 3.69036L59.0647 3.68349C58.8764 3.57141 58.6325 3.40565 58.4433 3.31332C58.2864 3.23903 58.2308 3.23603 58.0442 3.22658L58.0188 3.22529C57.8149 3.21455 57.5912 3.22185 57.3874 3.25277C57.2089 3.27983 57.043 3.32621 56.9137 3.39577L56.8573 3.4224C56.8474 3.42068 56.8349 3.42197 56.8202 3.42498C56.7883 3.37988 56.7056 3.39706 56.5655 3.55939C56.3935 3.62208 56.3547 3.68779 56.3815 3.73331C56.3707 3.74962 56.3638 3.76422 56.3625 3.77625C56.2935 3.85913 56.228 4.01544 56.1832 4.10476L56.1647 4.13225C56.1505 4.15243 56.1358 4.17347 56.1276 4.18936C56.1099 4.22157 56.0815 4.26537 56.0686 4.29844C55.9841 4.51959 55.9513 4.89405 55.9789 5.2406C56.0039 5.55709 56.0806 5.85855 56.216 6.01444L56.2224 6.02174L58.5976 7.9065L58.632 7.93742C58.6846 7.9881 58.7264 8.03834 58.7661 8.08686C58.8471 8.18434 58.9221 8.27453 59.0591 8.35526C59.2173 8.4566 59.3876 8.55366 59.5367 8.66702C59.9961 9.21798 60.4568 9.8428 60.9563 10.3521L61.3196 10.8846L61.3287 10.8928C61.4864 11.0362 61.5351 11.132 61.6149 11.2883C61.6373 11.3325 61.6623 11.3814 61.6976 11.4463L61.8053 11.6215C61.8381 11.7048 61.8416 11.7538 61.8454 11.8074C61.8489 11.8551 61.8528 11.9058 61.8713 11.9827L61.8747 11.996C61.9596 12.1789 62.1122 12.5594 62.2096 12.7105C62.2212 12.7333 62.2299 12.7436 62.2389 12.7539C62.2454 12.7621 62.2536 12.7728 62.2721 12.8355C62.2937 12.9094 62.2993 12.9957 62.304 13.0803C62.307 13.1365 62.3105 13.1928 62.3182 13.2482C62.3798 13.6841 62.4527 13.6557 62.5518 13.6166C62.5841 13.6037 62.4798 13.6454 62.4979 13.7137C62.5712 13.9911 62.5984 14.7615 62.591 15.5315C62.5837 16.3641 62.5367 17.1903 62.466 17.3879C62.4656 17.3892 62.4734 17.3926 62.4854 17.3965C62.4561 17.4124 62.4268 17.4459 62.3984 17.5043C62.3242 17.658 62.235 18.0024 62.1769 18.1823C62.1195 18.2772 62.0829 18.3936 62.0389 18.4975L61.7105 19.1103L61.5907 19.289C61.5575 19.3384 61.545 19.3538 61.5381 19.3637C61.5269 19.3779 61.5235 19.3826 61.4972 19.4272C61.3326 19.7034 61.0839 19.9284 60.8326 20.156L60.7115 20.2664C60.6934 20.2831 60.6676 20.3076 60.6589 20.314C60.3775 20.5313 59.897 20.9904 59.6367 21.2497C59.5888 21.2983 59.5449 21.3391 59.5052 21.376C59.3919 21.4812 59.3083 21.5589 59.2035 21.7432L58.7247 22.4856C58.6829 22.5101 58.6437 22.5595 58.6187 22.6145C58.5976 22.6613 58.5846 22.712 58.5868 22.7553C58.5661 22.8288 58.5631 22.882 58.5601 22.9396C58.5579 22.9803 58.5553 23.0246 58.5428 23.083C58.5002 23.2835 58.4596 23.3492 58.4256 23.4042C58.3291 23.5596 58.2722 23.6511 58.3304 25.1275C58.3523 25.6845 58.4148 25.8129 58.5838 26.1607C58.6295 26.2556 58.6553 26.3028 58.7109 26.3913C58.7695 26.4961 58.8204 26.4733 58.8669 26.4497L58.8674 26.4514C58.8337 26.4725 58.7717 26.5124 58.7756 26.5223C58.882 26.7881 59.0367 27.0844 59.16 27.3481L59.1669 27.3575C59.1897 27.3889 59.204 27.4142 59.2139 27.4348L58.6019 27.2167C58.5609 27.1982 58.5346 27.1888 58.5084 27.1802C58.4894 27.1737 58.4704 27.1673 58.4463 27.1566L57.8886 26.8916L57.8464 26.8671L56.2875 26.0456C56.2461 26.0254 56.2181 26.0147 56.1905 26.0048C56.1694 25.9971 56.1479 25.9889 56.1268 25.9795L55.9819 25.9039L55.969 25.8957C55.9587 25.8889 55.9479 25.882 55.9363 25.876L55.3682 25.6218C55.3213 25.5956 55.3126 25.5921 55.2928 25.5831L55.2187 25.5488C55.1734 25.5269 55.1536 25.5183 55.1385 25.5123C55.1247 25.5067 55.1161 25.5028 55.0717 25.4783C55.0648 25.4745 55.0584 25.4732 55.0523 25.474C55.0295 25.4504 54.992 25.4238 54.9351 25.3925C53.7848 24.7075 52.6281 24.0282 51.4829 23.3355L51.1528 23.1951C51.0645 23.1551 51.0127 23.1264 50.9735 23.1045C50.8188 23.0186 50.8171 23.0177 50.2559 23.0057C49.1324 22.9821 49.06 23.0289 48.9259 23.1152C48.885 23.1414 48.8363 23.1727 48.7152 23.2079C48.6191 23.2359 48.523 23.2586 48.432 23.2797C48.1308 23.3509 47.8868 23.4085 47.5606 23.6807C47.3192 23.8628 46.9055 24.1377 46.7016 24.3305C46.687 24.3446 46.6189 24.4181 46.5961 24.4434L46.4874 24.5426C46.3474 24.6671 46.2789 24.7286 46.1728 24.9652L46.0353 25.17C45.8823 25.3422 45.7367 25.5582 45.6117 25.785C45.4798 26.0246 45.3703 26.2784 45.301 26.506C45.2716 26.6022 45.2406 26.6928 45.2135 26.7726C45.1234 27.038 45.073 27.1858 45.0613 27.6457C45.0575 27.7955 45.0566 27.9463 45.0583 28.097C45.0596 28.249 45.0635 28.3989 45.0687 28.5475C45.0743 28.6857 45.1695 29.0306 45.2027 29.1882L45.2342 29.2444C45.3048 29.4098 45.3591 29.5575 45.4479 29.7099C45.5078 29.8379 45.5664 29.9955 45.644 30.1115L45.8151 30.5353C45.8854 30.6787 45.9177 30.7766 45.9401 30.8445C45.9957 31.012 46.0099 31.0562 46.1711 31.085V31.0876C46.1233 31.0867 46.0845 31.0828 46.0194 31.0592C45.8194 30.9407 45.8 30.9317 45.5755 30.8398C44.8713 30.4924 43.4202 29.6438 42.7754 29.4583L42.6763 29.4166C41.8518 28.9322 41.023 28.4534 40.1964 27.972C40.2236 27.9239 40.1339 27.8338 39.8266 27.7157L39.8228 27.7135C39.7176 27.6044 39.6448 27.5714 39.6017 27.5808L39.119 27.2575C38.9931 27.1879 38.9173 27.1574 38.8539 27.1316C38.7595 27.0934 38.6962 27.0681 38.5186 26.9161C38.4238 26.8349 38.1846 26.7022 38.0669 26.6271C38.0118 26.5725 37.9592 26.5128 37.9058 26.4527C37.7515 26.2792 37.5929 26.101 37.3701 26.004L37.0386 25.8494L34.0295 22.794C33.9933 22.7412 33.9808 22.7257 33.9731 22.7162C33.9688 22.7111 33.9675 22.7089 33.9489 22.6789L33.6942 22.2482L33.686 22.2396C33.6291 22.179 33.5779 22.1339 33.5317 22.0927C33.4511 22.0214 33.3852 21.963 33.3167 21.8308C33.2451 21.6929 33.1723 21.5972 33.1033 21.5061C33.0232 21.4005 32.9486 21.3017 32.8947 21.154C32.8124 20.9247 32.4883 20.2878 32.3448 20.0581L31.9414 19.1129C31.9069 19.0373 31.8781 19.003 31.8539 18.9746C31.8186 18.9321 31.8009 18.9102 31.7837 18.3992L31.7802 18.2914H31.535L31.5316 18.0861C31.5251 17.6546 31.5169 17.098 31.4074 16.827L31.404 16.8185C31.3368 16.6527 31.2906 16.5385 31.2911 16.2091C31.2915 15.9648 31.282 15.7015 31.2721 15.4318C31.2514 14.8607 31.2294 14.2573 31.301 13.7712C31.3178 13.6566 31.2062 13.6128 31.2419 13.6269C31.3462 13.6682 31.4367 13.7034 31.4773 13.176C31.4902 13.006 31.5014 12.8205 31.5126 12.6362L31.5316 12.3322C31.7117 12.2133 31.7376 12.1248 31.7815 11.9762C31.7975 11.9212 31.8173 11.856 31.8526 11.7744C31.9587 11.5631 32.028 11.305 32.1082 11.0787C32.2664 10.846 32.4271 10.4702 32.5612 10.2091L32.6133 10.134L33.5697 8.94916C33.964 8.62193 34.4415 8.05938 34.8139 7.67547C35.1182 7.49253 35.4272 7.31432 35.7332 7.13439L35.7849 7.10948C35.7866 7.10734 35.7853 7.10175 35.781 7.09488C35.8095 7.09789 35.8383 7.0893 35.8629 7.07384C35.884 7.06096 35.9017 7.0412 35.912 7.01887L35.9151 7.02403L38.4764 5.63482C38.5247 5.60991 38.5376 5.58801 38.5488 5.56826C38.5552 5.55752 38.5376 5.58758 38.6522 5.56268C38.6893 5.55452 38.7341 5.55065 38.7794 5.54722C38.8289 5.54335 38.8789 5.53906 38.9341 5.52746L39.1659 5.47937C39.2724 5.47121 39.3586 5.42311 39.4099 5.36857C39.4495 5.34753 39.4767 5.33036 39.4939 5.31618C39.7155 5.25993 39.8249 5.2114 39.9094 5.17447C39.9637 5.15042 40.0059 5.13153 40.0628 5.12079C40.1335 5.10705 40.2072 5.10104 40.28 5.09503C40.4296 5.08257 40.5761 5.07055 40.7326 4.99583L41.0933 4.89019C41.482 4.85927 41.5906 4.81633 41.6993 4.77338C41.8557 4.71198 42.0121 4.65014 43.3374 4.62953L43.4477 4.62781V4.39506C44.4898 4.38132 45.5113 4.37187 46.5318 4.36972C47.5886 4.368 48.6462 4.37402 49.7276 4.39205L49.8995 4.3972C50.2671 4.41052 50.7546 4.42812 51.0326 4.2323C51.0826 4.19795 51.1563 4.11979 51.2071 4.07084L51.7566 3.24333L51.7614 3.22658C51.7713 3.19094 51.7786 3.14971 51.7842 3.10806C51.7902 3.0634 51.7932 3.02775 51.7958 2.99812C51.8036 2.90794 51.8062 2.70353 51.8023 2.5133C51.7989 2.3587 51.7902 2.21184 51.7751 2.13926C51.7252 1.89663 51.6907 1.81848 51.6269 1.81075C51.5704 1.6991 51.5191 1.58487 51.4515 1.47966L50.4055 0.965201V0.714844H42.9814V0.906369L42.7233 0.903793C42.2199 0.897351 41.5743 0.889192 41.2553 1.0279C41.1269 1.08372 41.0898 1.14299 41.095 1.19752C41.0679 1.16746 41.0312 1.13869 40.9868 1.14642C40.9067 1.16059 40.7761 1.16274 40.6567 1.16489C40.5856 1.16617 40.5179 1.16746 40.4684 1.17047C40.1796 1.18765 40.1257 1.23188 40.062 1.28427C40.0245 1.31519 39.9805 1.35126 39.7241 1.38776C39.5301 1.4234 39.3362 1.4599 39.1427 1.49726L39.1293 1.50371C39.0461 1.54493 39.0194 1.59002 39.022 1.63511C39.0026 1.60763 38.978 1.58186 38.9539 1.5883L37.4761 2.06368L37.3511 2.0946C37.2916 2.1092 37.2584 2.11779 37.239 2.1238C37.1597 2.1354 37.0955 2.17319 37.0533 2.21742C37.0188 2.23717 36.9929 2.25392 36.9744 2.26809C36.9274 2.27367 36.8774 2.27582 36.8171 2.27797L36.615 2.28742V2.54464C36.484 2.55452 36.3172 2.57127 36.2176 2.60476C36.0896 2.64857 35.8452 2.79242 35.7112 2.8607C35.6112 2.91181 35.5267 2.95088 35.4505 2.98653C35.2552 3.07757 35.1096 3.14585 34.8372 3.34295L34.2696 3.65687C34.2342 3.67576 34.2054 3.68736 34.1773 3.69852C34.1424 3.71226 34.108 3.72601 34.0649 3.74962C33.9722 3.8003 33.8171 3.94115 33.7197 4.02489C33.5912 4.12237 33.5257 4.13998 33.4705 4.15458C33.3714 4.18077 33.2943 4.20138 33.1202 4.40365L32.5698 4.87344L32.5284 4.89191C32.2565 5.0319 32.0289 5.25349 31.8031 5.4725C31.663 5.60863 31.5238 5.7439 31.3794 5.85383C31.2006 5.98609 31.0795 6.17805 30.9515 6.3554C30.6386 6.70152 30.5688 6.67834 30.3882 7.01372C30.3804 7.02789 30.3765 7.03734 30.3722 7.04807L30.3688 7.05666L29.8645 7.654C29.8331 7.69351 29.8219 7.70467 29.8167 7.70983C29.8059 7.72013 29.7999 7.72571 29.7913 7.74074C29.7835 7.75363 29.7801 7.76136 29.7745 7.77767C29.7689 7.79271 29.7589 7.81976 29.7382 7.86871C29.718 7.91638 29.7051 7.95031 29.6943 7.97951C29.6611 8.06668 29.6456 8.10791 29.5491 8.19465C29.3521 8.37244 29.3086 8.45832 29.2262 8.6215C29.2004 8.67304 29.1698 8.73316 29.131 8.80229C29.0224 8.98308 28.803 9.38159 28.7181 9.59974C28.7026 9.6341 28.688 9.66717 28.669 9.6998C28.6354 9.71913 28.6022 9.78955 28.547 9.94844C28.5319 9.99224 28.5242 10.0262 28.5164 10.0601C28.5087 10.0957 28.5005 10.1318 28.4789 10.1851L28.0303 11.5391C27.8458 12.0471 27.8411 12.1712 27.8264 12.7423C27.5984 12.7543 27.5799 12.7814 27.5282 12.8583C27.5092 12.8866 27.4795 12.9308 27.3291 13.0103C27.1015 13.1335 26.6735 13.4775 26.4425 13.6458L26.4352 13.654C26.2947 13.8133 26.1637 13.8717 26.034 13.9293C25.9314 13.9752 25.8284 14.0207 25.7189 14.1066C25.6672 14.1487 25.6103 14.2088 25.5603 14.2556L25.4815 14.3273L25.2867 14.5008C23.7252 15.6792 22.2849 17.0139 20.9303 18.4241L20.3312 19.0111C20.2791 19.0524 20.2709 19.0558 20.2675 19.0566C20.2515 19.0622 20.2416 19.0665 20.2235 19.0833C20.2093 19.0966 20.2045 19.1052 20.1938 19.1236L20.1627 19.1747C20.1132 19.2538 20.0821 19.319 20.0528 19.3804C20.0089 19.4732 19.9688 19.5569 19.8654 19.6647C19.4749 20.0748 18.9788 20.7894 18.6095 21.2583C18.5595 21.3129 18.5142 21.355 18.4724 21.3932C18.3785 21.4799 18.3 21.5521 18.2207 21.7019L17.5156 22.6909C17.4312 22.7918 17.3855 22.9116 17.3402 23.0302C17.3045 23.1238 17.2691 23.217 17.2165 23.2861L17.1851 23.3222C17.0489 23.4858 16.9459 23.6717 16.8446 23.8542C16.7248 24.0707 16.6076 24.2815 16.4528 24.4202C16.383 24.4842 16.2895 24.6075 16.224 24.6839L16.218 24.6959C16.1723 24.7857 16.1688 24.8063 16.1637 24.8411C16.1615 24.8561 16.1581 24.8767 16.1387 24.9325L16.1227 24.9849L15.8219 25.5586C15.6788 25.7738 15.3241 26.5017 15.2457 26.7233C15.2246 26.7851 15.2164 26.8164 15.2108 26.8388C15.2052 26.8607 15.2026 26.8701 15.1724 26.9302L15.1203 27.0131L15.0634 27.1145C15.0401 27.1621 15.0263 27.1999 15.0125 27.2381C15.003 27.2648 14.9931 27.2918 14.9767 27.327L14.5587 28.0077C14.5259 28.0614 14.5117 28.1013 14.4966 28.146C14.4876 28.1713 14.4781 28.1992 14.4613 28.2344L13.7351 30.187C13.6756 30.3064 13.6506 30.4331 13.6256 30.5611C13.6041 30.6723 13.5817 30.7844 13.5368 30.8801C13.5286 30.8977 13.5411 30.8934 13.5368 30.8947C13.464 30.9188 13.4187 30.9338 13.3683 31.3512C13.364 31.3864 13.3614 31.4302 13.3588 31.474C13.3558 31.5277 13.3524 31.5831 13.3455 31.6226L13.0666 32.3458C12.9804 32.5266 12.9623 32.7297 12.9451 32.9311C12.9348 33.0475 12.9244 33.1634 12.9003 33.2686C12.8766 33.3734 12.8589 33.3829 12.8395 33.3927C12.7895 33.4185 12.7352 33.4473 12.6788 33.5666C12.6089 33.7152 12.5969 33.8797 12.5848 34.0437C12.5745 34.1898 12.5637 34.3362 12.5094 34.4453L12.5038 34.4569L12.3784 34.9971L12.2029 35.0014C11.6259 35.0143 10.9626 35.0293 10.5575 35.2028C10.0886 35.3316 9.26668 35.5042 8.85251 35.6717C8.70942 35.7323 8.64176 35.7241 8.60728 35.7202C8.55772 35.7142 8.52841 35.7108 8.48359 35.7512C8.43747 35.7932 8.43747 35.8319 8.43747 35.9264V35.9861C8.34697 35.9916 8.24784 35.9989 8.16897 36.0135C7.92461 36.0599 7.88711 36.0956 7.86298 36.1342L5.62533 37.5316C5.55163 37.5685 5.50853 37.5801 5.47319 37.5895C5.41587 37.6046 5.3732 37.6162 5.29821 37.6733C5.2827 37.6853 5.27063 37.6969 5.26028 37.7076C5.20038 37.7669 5.14607 37.8567 5.08488 37.9249L3.50102 39.4606C3.47042 39.4859 3.44327 39.5091 3.41526 39.537C3.28381 39.671 3.19718 39.8247 3.11314 39.9742C3.04763 40.0901 2.98341 40.2039 2.90368 40.2954C2.74336 40.4805 1.92622 41.8688 1.74779 42.3124C1.69608 42.4219 1.65772 42.4636 1.61893 42.5048C1.56894 42.5589 1.51808 42.6139 1.44956 42.7573C1.36939 42.9286 1.28794 43.1902 1.2207 43.3753L1.21898 43.3864C1.18278 43.6239 1.31337 43.6827 1.26768 43.6621C1.18493 43.6243 1.09184 43.5831 1.00608 43.976C0.990561 44.0473 0.985821 44.1302 0.981511 44.2105C0.978925 44.2616 0.975908 44.3118 0.970305 44.3531C0.96341 44.4029 1.01858 44.4651 1.06081 44.5059L1.05909 44.518C1.00435 44.487 0.928069 44.4712 0.841873 44.6653C0.822479 44.7095 0.772916 44.892 0.766021 44.9418C0.75697 45.0114 0.755246 45.0895 0.753522 45.1677C0.752229 45.2467 0.750074 45.3253 0.740162 45.3858C0.720768 45.5001 0.80524 45.5194 0.778088 45.5134C0.678532 45.4911 0.593628 45.4722 0.553547 45.9866C0.521655 46.3937 0.5195 46.8463 0.516914 47.2788C0.510018 48.2222 0.569493 49.1648 0.569493 50.1053C0.586733 50.3355 0.622935 50.4063 0.663878 50.487C0.703959 50.5665 0.750936 50.6584 0.785846 51.0698L0.788432 51.0981C0.793172 51.1595 0.798344 51.2218 0.816014 51.2862C0.895315 51.5791 0.971167 51.5464 1.04616 51.5138C1.09012 51.4945 0.9591 51.552 0.989268 51.68C1.05047 51.9291 1.28794 52.4362 1.39353 52.7025C1.40215 52.7244 1.40947 52.7488 1.41551 52.7733C1.42327 52.8038 1.42887 52.8313 1.43361 52.8558C1.45387 52.9674 1.46507 53.1332 1.47283 53.2577L1.48059 53.3719L1.58144 53.3754C1.74176 53.3805 1.74305 53.3857 1.75684 53.4411C1.7771 53.5222 1.80899 53.6481 1.912 53.8443C2.02147 54.053 2.09775 54.1703 2.16369 54.2716C2.25247 54.4082 2.32272 54.516 2.43133 54.7912C2.47658 54.9063 2.48046 54.911 2.50373 54.9424C3.05582 55.7154 3.01014 55.7059 3.58291 56.2307C3.61696 56.2869 3.62773 56.3277 3.63851 56.3672C3.65143 56.4175 3.66393 56.4664 3.70229 56.5313C3.7303 56.5785 3.73418 56.5828 3.77728 56.6292L3.81478 56.6695C3.84624 56.7039 3.87425 56.7297 3.89925 56.7533L3.93157 56.7838C4.25481 57.1037 4.67286 57.5864 5.0991 57.8101L5.66584 58.2559C5.69816 58.2945 5.71411 58.3177 5.72574 58.3353C5.76755 58.3971 5.77832 58.413 5.91408 58.4903C6.89499 59.1607 7.31865 59.2869 8.57021 59.8825C8.55599 59.913 8.59478 59.9525 8.72494 60.0135C8.7508 60.0255 8.80855 60.038 8.97749 60.0745L8.98827 60.0771C9.08308 60.0977 9.27056 60.1063 9.4102 60.1118C9.427 60.3455 9.47614 60.3541 9.6537 60.3845C9.72179 60.3961 9.82264 60.4133 9.9709 60.4842C10.1493 60.5692 10.3799 60.5808 10.5993 60.5919C10.6949 60.5967 10.7885 60.6014 10.8682 60.6117C11.0647 60.637 11.0919 60.5524 11.0837 60.5782C11.0514 60.6826 11.0238 60.7723 11.5315 60.8071C11.7638 60.823 12.0318 60.8307 12.2853 60.838L12.3917 60.841C12.4184 61.2194 12.4723 61.4203 12.5262 61.6213C12.5861 61.8437 12.646 62.0675 12.665 62.5557L12.6693 62.6631H12.9136C12.9365 63.2179 12.9809 63.2986 13.0438 63.4133C13.0705 63.4618 13.1015 63.5177 13.1369 63.6486C13.1563 63.7199 13.1593 63.7788 13.1627 63.8367C13.1666 63.9054 13.1705 63.9733 13.1942 64.0626L13.2334 64.2065C13.2541 64.3108 13.3106 64.4066 13.3726 64.4753L13.3739 64.4895C13.3778 64.5307 13.3821 64.5809 13.4015 64.6651C13.4502 64.8785 13.5403 65.0344 13.6265 65.1834C13.6911 65.2951 13.7532 65.4033 13.7872 65.524C13.8062 65.5909 13.8096 65.6459 13.8131 65.7009C13.8174 65.7696 13.8217 65.8387 13.848 65.9302C13.879 66.038 13.9101 66.0809 13.9282 66.1037C14.0553 66.4223 14.204 66.8702 14.3518 67.1639C14.413 67.2825 14.4634 67.2923 14.5014 67.2996C14.5289 67.3048 14.4609 67.2919 14.4962 67.4916C14.5091 67.565 14.5186 67.7145 14.5255 67.824L14.5367 67.9966L14.6371 68.0005C14.6988 68.0031 14.7488 68.0035 14.788 68.0039C14.7884 68.0666 14.8031 68.1564 14.8604 68.2826C15.2401 69.0268 16.7662 72.1015 17.4066 72.7719C17.4682 72.8444 17.507 72.9428 17.545 73.0407C17.5803 73.1313 17.6156 73.2223 17.6708 73.3056L18.0384 73.8266C18.1328 74.0112 18.2518 74.1228 18.3828 74.2457C18.5172 74.3719 18.6659 74.5115 18.8056 74.7614C19.0159 75.1071 19.196 75.3158 19.4878 75.6083L20.1968 76.4783C20.2032 76.501 20.2244 76.5152 20.2468 76.5302L20.2765 76.5517C20.2929 76.5629 20.308 76.5715 20.3218 76.5779C20.3205 76.5809 20.3205 76.5831 20.3222 76.5839C20.3774 76.6269 20.4217 76.6599 20.4704 76.7093C20.9669 77.3032 21.5445 78.0247 22.1707 78.4683C22.1982 78.4884 22.2224 78.5017 22.2431 78.5108L22.3159 78.5821C22.6663 79.03 22.9219 79.255 23.3416 79.6526C23.4399 79.7458 23.5274 79.818 23.6024 79.8794C23.8054 80.0464 23.8903 80.1168 23.7075 80.3457C22.3693 81.6353 18.9655 84.5086 17.9552 86.5437C17.8897 86.6596 17.7893 86.7678 17.6889 86.8761C17.5687 87.0057 17.4475 87.1359 17.3687 87.2913C17.3226 87.3824 17.2842 87.4644 17.2459 87.5468C17.1355 87.7826 17.0235 88.0222 16.8515 88.2335L16.8446 88.2416C16.8265 88.2635 16.7938 88.3035 16.7782 88.3267C16.4352 88.857 16.0956 89.5986 15.7896 90.1719C15.4866 90.6615 15.1155 91.7286 14.8677 92.3088C14.7871 92.481 14.7798 92.5879 14.7794 92.6532C14.7707 92.6459 14.7552 92.6347 14.7169 92.6356L14.5371 92.6403L14.4242 93.3008C14.4009 93.3368 14.3652 93.3849 14.3488 93.4219C14.3027 93.5249 14.2889 93.6327 14.2747 93.7431C14.2622 93.8418 14.2488 93.9436 14.2087 94.0325C14.1773 94.084 14.1187 94.1661 14.098 94.2184C14.0493 94.3443 14.0411 94.4692 14.0333 94.5921C14.0277 94.6784 14.0221 94.7638 14.0019 94.8373C13.97 94.9511 13.9075 95.082 13.8433 95.2169C13.7571 95.3972 13.6683 95.5836 13.6321 95.773C13.6123 95.8769 13.6088 95.9602 13.6062 96.0375C13.6023 96.1414 13.5989 96.2346 13.5433 96.3609C13.5252 96.4017 13.5144 96.4111 13.5054 96.4184C13.4468 96.4682 13.4153 96.4953 13.3894 96.8852C13.3843 96.9642 13.3817 97.048 13.3795 97.13C13.3726 97.3778 13.3657 97.6122 13.258 97.833C13.1412 98.0726 13.133 98.5999 13.127 98.9976C13.1252 99.1032 13.124 99.199 13.1201 99.2801C13.1071 99.5717 13.1011 99.5777 13.0895 99.588C13.0645 99.6108 13.0339 99.6387 12.999 99.7272C12.9292 99.9028 12.9279 100.08 12.9274 100.273L12.9261 100.389L12.9149 100.88C12.9093 101.117 12.9033 101.354 12.9003 101.593L12.6292 101.573C12.6266 105.328 12.6292 109.083 12.6292 112.838H16.5808L16.5666 101.657L16.6024 99.8174H16.8269L17.0398 97.8497C17.1019 97.6981 17.1161 97.5379 17.1303 97.3791C17.1441 97.2266 17.1579 97.0742 17.2187 96.9483C17.2364 96.9247 17.273 96.8672 17.2997 96.7701C17.3213 96.6903 17.3269 96.613 17.332 96.5352L17.3372 96.4626C17.3536 96.287 17.3898 96.2123 17.4303 96.1285C17.4618 96.0637 17.4954 95.9937 17.5277 95.8791C17.551 95.7953 17.5549 95.7408 17.5587 95.6828C17.5609 95.6506 17.5635 95.6167 17.5691 95.581L17.5924 95.4333C17.623 95.3994 17.6579 95.3418 17.6975 95.2525L18.3345 93.4274L18.3405 93.4167C18.3474 93.4051 18.3543 93.3935 18.3591 93.3832C18.4319 93.2286 18.431 93.126 18.4302 93.0577C18.4302 93.0534 18.4302 93.0521 18.6004 93.0457L18.7008 93.0418L18.7086 92.9284C18.7185 92.7859 18.7332 92.5832 18.7814 92.4651C19.1305 91.8102 19.8046 90.7134 20.0528 90.0792C20.0856 89.9972 20.0942 89.9542 20.102 89.9177C20.1076 89.8907 20.1123 89.8688 20.1382 89.8176C20.4778 89.3642 21.1604 88.5581 21.413 88.1128C21.457 88.0351 21.4656 88.0003 21.4759 87.9565C21.482 87.9307 21.4893 87.8998 21.5139 87.8423L21.6897 87.5979C21.9711 87.3094 22.2388 86.98 22.5012 86.6785C22.5301 86.7614 22.5698 86.7627 22.6749 86.5643C22.6857 86.5433 22.6883 86.5235 22.6943 86.4754L22.7034 86.4041H22.8559L26.2085 82.0956C26.371 82.1807 26.7671 82.3885 27.2967 82.6634L27.3187 82.6749L27.3338 82.6754L27.3351 82.6831L27.804 82.9257H27.8092V82.9283L27.87 82.9597C28.3789 83.2225 28.9465 83.5136 29.4965 83.7915C30.049 84.071 30.5873 84.3394 31.0372 84.5563C31.4708 84.7654 31.8807 84.9758 32.2849 85.1841C32.8969 85.4989 33.4981 85.8081 34.1459 86.0941L34.1631 86.1018L34.3187 86.1138L34.3204 86.1701L34.3859 86.198C34.6583 86.3135 34.9423 86.4256 35.2419 86.5329C35.538 86.639 35.85 86.7404 36.181 86.8357C36.2004 86.8413 36.2219 86.8421 36.2417 86.8447L36.3185 86.8597L36.3124 86.8739L36.7369 86.9864L37.0653 87.0693L37.077 87.0697C37.1037 87.0706 37.1313 87.0723 37.1602 87.0753C37.1877 87.0779 37.2166 87.0818 37.2472 87.0873L37.3459 87.1075L37.3364 87.1354L37.4567 87.1638C37.717 87.2252 37.9876 87.2862 38.2648 87.3459C38.5393 87.4051 38.8229 87.4635 39.1121 87.5202L39.1353 87.5249C39.5801 87.6121 40.04 87.6958 40.5041 87.7736C40.9416 87.8466 41.3825 87.9136 41.8173 87.9724L41.8958 87.9827C42.4418 88.0553 42.9732 88.1141 43.4697 88.1536C43.9352 88.191 44.3769 88.212 44.7812 88.2133C45.9035 88.2163 47.7804 88.1742 49.722 88.0454C51.1213 87.9526 52.5574 87.8152 53.774 87.6172L53.8663 87.6022L53.8671 87.5331L54.0667 87.5284C54.1723 87.5249 54.2778 87.5193 54.3709 87.5095C54.4627 87.4996 54.6149 87.4545 54.711 87.4317L54.7205 87.4279C54.8291 87.3802 54.942 87.345 55.0584 87.3192C55.1777 87.2926 55.3023 87.275 55.4316 87.2634L55.4441 87.2621L55.7022 87.1865L56.0169 87.0912L56.0332 87.0324C56.038 87.0148 56.0328 87.0504 56.047 87.0517L56.122 87.0586L56.1427 87.0521C56.5353 86.9293 56.9517 86.7915 57.3792 86.6437C57.8244 86.4896 58.2769 86.326 58.723 86.1593L58.7954 86.1323V86.11L58.8635 86.1065C59.0548 86.0344 59.2453 85.9605 59.4363 85.8871L59.4367 85.8828H59.447L59.4669 85.8751C60.3021 85.55 61.0899 85.2219 61.7381 84.9307C62.3725 84.646 62.8746 84.3952 63.1578 84.2162L63.2914 84.1346C63.4168 84.0629 63.537 83.9967 63.6642 83.9285L63.8982 83.8095L63.8999 83.7859H63.9465L64.1844 83.6708L64.1921 83.6107C64.1973 83.5699 64.1887 83.5703 64.1921 83.5699C64.2438 83.5673 64.3175 83.563 64.4261 83.5102L64.6209 83.3985C64.7028 83.356 64.761 83.35 64.802 83.3453C64.9386 83.3303 64.9907 83.3247 65.0213 83.1168H65.3627L65.3717 83.0155C65.3821 82.903 65.3911 82.8841 65.3997 82.8849C65.4109 82.8858 65.426 82.8892 65.4411 82.8927C65.5777 82.9232 65.7156 82.9532 65.7708 82.6762H66.0514V82.4074C66.2414 82.4147 66.2548 82.4383 66.3044 82.5247C66.3238 82.5586 66.347 82.5994 66.3781 82.647L66.3854 82.6582L66.6362 82.894H66.6983L66.7004 82.9541C67.7175 83.9113 69.4755 85.8098 70.5305 86.5166C70.5418 86.5248 70.5646 86.5394 70.5737 86.5484C70.6163 86.5793 70.6336 86.5901 70.6443 86.5974C70.6525 86.6025 70.6551 86.6042 70.6913 86.6339L71.6994 87.8496C71.7623 87.9239 71.792 88.0055 71.8235 88.0913C71.8511 88.1674 71.88 88.2464 71.9312 88.3327C71.9455 88.3563 71.9868 88.4121 72.0032 88.4285C72.0131 88.4409 72.0217 88.4499 72.0299 88.4581L72.0791 88.5105L72.6734 89.2379C72.707 89.2955 72.7355 89.3298 72.76 89.3483C72.7557 89.3543 72.7544 89.3607 72.7583 89.3672C72.9065 89.6253 73.0794 89.8962 73.2216 90.1595C73.269 90.26 73.3112 90.369 73.3724 90.4622C73.5595 90.8247 73.7327 91.1523 73.8978 91.5199H73.9228V91.5762C73.9642 91.6685 74.0055 91.772 74.0508 91.8609C74.0586 91.8763 74.0642 91.8845 74.0698 91.8931L74.1301 92.0022L74.1521 92.0537C74.2909 92.347 74.3124 92.3457 74.3844 92.341C74.393 92.3405 74.3542 92.3444 74.4016 92.4123L74.4258 92.4479L74.7589 93.1668C74.7671 93.1822 74.7718 93.1891 74.7774 93.1981L74.7869 93.2132C74.8541 93.3381 74.8753 93.4347 74.8977 93.5395C74.9257 93.6696 74.9567 93.8118 75.0658 94.0286C75.133 94.1892 75.1838 94.3013 75.2567 94.4469C75.3498 94.6329 75.3873 94.8463 75.4041 94.9442C75.411 94.9833 75.4153 95.0086 75.4243 95.0279C75.439 95.058 75.4653 95.0932 75.4838 95.122C75.5351 95.2242 75.5485 95.3251 75.5614 95.4264C75.5756 95.5355 75.5898 95.6454 75.6433 95.7691C75.7183 95.9821 75.8251 96.3596 75.9169 96.5451C76.0092 96.7263 76.0312 97.2124 76.0471 97.5714L76.0618 97.8557L76.1122 97.8862C76.1617 97.9158 76.2005 97.9356 76.2316 97.9515C76.2721 97.9721 76.2936 97.9833 76.2975 97.9923C76.3126 98.0301 76.3156 98.1207 76.3216 98.3139L76.3281 98.5162C76.3315 98.6441 76.3359 98.779 76.3781 98.9018C76.4061 98.983 76.4315 99.0311 76.4591 99.0568C76.4776 99.1187 76.4884 99.275 76.5009 99.4489C76.5195 99.7078 76.541 100.004 76.6082 100.169C76.644 100.257 76.6733 100.289 76.6957 100.314C76.7147 100.335 76.7194 100.34 76.7281 100.912L76.7569 112.763L80.4853 112.762V112.651C80.4853 112.478 80.4879 112.154 80.4918 111.692C80.5155 108.86 80.5806 101.042 80.3802 100.592C80.3466 100.516 80.319 100.285 80.2974 100.007C80.2625 99.5584 80.2457 99.0053 80.2418 98.7403L80.2401 98.6304H80.0065L80.0069 98.4148C80.0091 98.0125 80.0117 97.5272 79.9014 97.2047L79.729 96.6503C79.7328 96.6215 79.7307 96.5902 79.7229 96.561C79.713 96.5241 79.6949 96.4888 79.6708 96.4639L79.6445 96.4107C79.6074 96.333 79.5876 96.2003 79.5665 96.0594C79.5415 95.8902 79.5143 95.7103 79.4493 95.5647C79.3725 95.3929 79.2988 95.4054 79.2484 95.414C79.1808 95.426 79.3368 95.3981 79.3165 95.1851C79.2928 94.9227 79.076 94.2485 79.0006 93.9483L78.9963 93.9393C78.9885 93.9221 78.9804 93.9101 78.973 93.8989L78.9709 93.8959L78.8463 93.4584C78.7963 93.156 78.7597 93.074 78.6912 93.0659C78.6494 92.9289 78.5692 92.6008 78.5145 92.4917C78.4455 92.3526 78.433 92.2577 78.4244 92.1933C78.4003 92.0099 78.3929 91.9584 78.1024 91.9416C77.8296 91.2635 77.5564 90.4794 77.2478 89.8292C77.1414 89.5462 76.9741 89.2268 76.8371 88.9571C76.7828 88.8605 76.7556 88.7917 76.7332 88.7338C76.6854 88.6118 76.6531 88.5298 76.4824 88.3683C76.2772 88.1742 76.2535 88.1205 76.2169 88.0372C76.1777 87.9475 76.1255 87.8285 75.9148 87.555C75.8307 87.4008 75.7502 87.2308 75.6532 87.0856L75.5726 86.9461C75.5489 86.8997 75.5398 86.8761 75.5321 86.8563C75.5187 86.8215 75.5084 86.7949 75.4739 86.7399L75.4407 86.6914C75.3713 86.5931 75.2881 86.5089 75.2058 86.4256C75.0925 86.3105 74.9791 86.1958 74.9231 86.0576C74.8395 85.8523 74.8434 85.8321 74.8447 85.8261C74.8498 85.7978 74.8537 85.781 74.8313 85.7432C74.8201 85.723 74.8102 85.7149 74.7917 85.7011C74.7766 85.6895 74.7417 85.6625 74.6598 85.5818C74.5792 85.5015 74.4598 85.4212 74.3671 85.3417C74.2672 85.2532 74.2159 85.1575 74.1628 85.0591C74.1228 84.9848 74.0818 84.9088 74.0228 84.8303C73.6405 84.4017 73.0186 83.6966 72.6975 83.2435C72.6893 83.2345 72.6747 83.2212 72.6626 83.2096L72.6523 83.2001C72.6411 83.1898 72.6294 83.1812 72.6182 83.1731L72.6096 83.1662L71.7308 82.2657C71.4231 81.8857 70.8564 81.5322 70.493 81.2574L70.3409 81.1144L69.7401 80.5299C69.7104 80.4917 69.7057 80.4694 69.7022 80.4539C69.6759 80.332 69.6729 80.3212 69.326 80.2753C69.31 80.0511 69.354 80.0138 69.4867 79.9017C69.5233 79.8703 69.566 79.8347 69.6121 79.7926C70.044 79.3623 70.3043 79.1438 70.6939 78.704C70.7245 78.674 70.7141 78.6791 70.7189 78.6765C70.7297 78.6709 70.7495 78.6602 70.8055 78.616C71.3481 78.1432 72.0394 77.5012 72.4557 76.9489C72.507 76.8828 72.5148 76.8635 72.5187 76.8527C72.5238 76.8399 72.5139 76.8656 72.5437 76.8351C73.0384 76.4044 72.9035 76.5152 73.3772 75.8646C73.5349 75.6984 73.6909 75.5305 73.8482 75.3639L74.3025 74.6339C74.4822 74.4625 74.6576 74.2882 74.8343 74.1138L74.8421 74.1001C74.9498 73.9069 75.1119 73.7072 75.2472 73.5401C75.3618 73.3988 75.4584 73.2799 75.4989 73.1927C75.5269 73.1322 75.5398 73.0836 75.5528 73.0355C75.5657 72.9862 75.5791 72.9363 75.6157 72.8719L76.3272 71.7584C76.3557 71.7357 76.419 71.6841 76.4406 71.6652C76.5048 71.6081 76.6052 71.4763 76.6668 71.4046L76.6733 71.3921C76.7082 71.3243 76.7207 71.2749 76.7341 71.2199C76.7453 71.1748 76.7578 71.125 76.7892 71.0554C76.978 70.7003 77.1672 70.3516 77.3594 69.9982C77.4866 69.7598 77.596 69.5181 77.7038 69.2802C77.8831 68.8829 78.0589 68.4939 78.3093 68.1469L78.3171 68.1362C78.4386 67.857 78.7649 67.2219 78.8291 66.9728C78.8502 66.893 78.8571 66.8436 78.8623 66.8028C78.8687 66.7538 78.8739 66.7191 78.9148 66.6315L79.1321 66.1737C79.192 66.0526 79.229 65.9104 79.267 65.7649C79.3049 65.6189 79.3441 65.469 79.4066 65.3483C79.6247 64.9283 79.6824 64.6359 79.7277 64.4053C79.7518 64.2833 79.7721 64.1803 79.8121 64.0897C79.8712 64.0862 79.9143 64.0158 79.9583 63.7105C79.9738 63.6023 79.9785 63.4593 79.9819 63.3334H80.2246L80.2289 63.2265C80.2336 63.1084 80.241 62.9731 80.2509 62.834C80.2591 62.7193 80.269 62.6064 80.2806 62.5046C80.3005 62.3307 80.3233 62.2989 80.3496 62.2616C80.3841 62.2131 80.4233 62.1581 80.4634 62.0005C80.4927 61.8854 80.4965 61.7699 80.5 61.6548C80.5043 61.5221 80.5086 61.3898 80.559 61.2777C80.5888 61.2357 80.6194 61.1863 80.6435 61.1408C80.6504 61.1279 80.6582 61.1137 80.6642 61.097C80.7107 60.9711 80.7155 60.9213 80.7176 60.8372C80.8866 60.8333 81.0534 60.8268 81.2197 60.8204L81.5662 60.8084C81.6895 60.8054 81.8231 60.8019 81.939 60.7633C82.2019 60.6753 82.1705 60.5937 82.1287 60.5297ZM28.6655 9.93814L28.6651 9.93985C28.6229 9.9055 28.5918 9.88059 28.6397 9.91881C28.6474 9.92525 28.6561 9.93169 28.6655 9.93814ZM70.4469 90.4347C70.4431 90.5838 70.4327 90.7311 70.4125 90.8745L70.1108 93.0087L70.2224 89.9929L70.4452 89.9942C70.4487 90.1406 70.4508 90.2879 70.4469 90.4347ZM5.27752 43.3856H5.19909C5.19909 43.4418 5.1965 43.4865 5.17495 43.5779L5.17236 43.5895L4.79267 44.344C4.74268 44.4505 4.73621 44.5068 4.73018 44.5643C4.7207 44.6511 4.71122 44.7396 4.61683 44.9242L4.51857 45.1497C4.50995 45.1956 4.50822 45.2325 4.5065 45.2695C4.50435 45.3176 4.50176 45.3661 4.48969 45.4279C4.43841 45.6912 4.38669 45.732 4.34273 45.7663C4.31687 45.7869 4.29877 45.8011 4.26041 46.7501C4.25179 46.964 4.22636 47.6614 4.23024 48.3579C4.23412 49.0446 4.26601 49.7308 4.36772 49.9387C4.56425 50.3402 4.51814 50.5248 4.49573 50.615C4.48538 50.6562 4.5065 50.5725 4.59787 50.5875L4.68967 50.6026L4.69182 50.7206C4.6957 50.9435 4.69958 51.1539 4.77931 51.318C4.89568 51.543 5.02669 51.7732 5.13013 52.0029C5.14392 52.0321 5.15254 52.0557 5.16116 52.0785C5.17021 52.1021 5.17883 52.1253 5.19521 52.1567L5.22063 52.2018C5.23486 52.2267 5.24865 52.2365 5.26072 52.2451C5.33484 52.2975 5.38699 52.3349 5.40553 52.7252H5.66972L5.68092 52.8244C5.68652 52.876 5.65075 52.9107 5.62274 52.9318C5.67273 52.9176 5.72187 52.9335 5.76152 53.0108L5.81582 53.0988C5.88478 53.2272 5.91494 53.3187 5.92701 53.3831C5.95675 53.384 5.99338 53.3861 6.03777 53.3913L6.13776 53.402V53.6335H6.34463V53.8731H6.55581V54.1101C6.81957 54.1355 6.82302 54.1977 6.83897 54.5426L6.84026 54.5653L6.91439 54.5748C7.02903 54.5898 7.08937 54.5975 7.13936 54.6349C7.2053 54.6843 7.2122 54.7358 7.21694 54.8354H7.53026V55.0493H7.7673L7.76687 55.2546H8.00434L8.01468 55.3546C8.02977 55.4993 8.06037 55.4929 8.08967 55.4865C8.11208 55.4817 8.13449 55.477 8.15906 55.4753C8.27068 55.4667 8.36765 55.4993 8.40558 55.7068H8.67451L8.68529 55.8064C8.69736 55.9185 8.70985 55.9361 8.72149 55.9348C8.73399 55.9335 8.74907 55.9301 8.76416 55.9266C8.90207 55.8957 9.04041 55.8648 9.0973 56.1353C9.50156 56.1508 9.52872 56.1972 9.58561 56.2959C9.60629 56.3307 9.63431 56.3797 9.80023 56.457L9.81704 56.4626C9.82911 56.4664 9.84074 56.4703 9.8554 56.4772L9.96487 56.5257C10.1291 56.6077 10.1321 56.6841 10.1045 56.7417C10.1239 56.7133 10.1713 56.6429 10.2338 56.6571C10.4489 56.7043 10.582 56.6953 10.6648 56.6897C10.863 56.676 10.9096 56.673 10.9337 56.8834L11.7629 56.9306L11.769 38.7516L11.0057 38.7962C10.9958 38.8645 10.985 38.8984 10.9126 38.9397C10.879 38.959 10.8333 38.9736 10.7536 38.9989C10.6682 39.0264 10.5385 39.0676 10.3441 39.1402C10.2394 39.1793 10.1782 39.1857 10.1183 39.1926C10.0515 39.1999 9.98685 39.2068 9.82609 39.2879C9.6287 39.3876 9.50286 39.4241 9.42442 39.4365C9.42269 39.4627 9.42011 39.4945 9.41451 39.5336L9.40158 39.6272L9.30633 39.6298H9.21582C9.13609 39.6289 9.06326 39.628 8.9874 39.6564C8.9262 39.6792 8.93655 39.6195 8.93224 39.6448C8.92664 39.677 8.91802 39.7247 8.82234 39.808L8.81415 39.8153L8.57065 39.9557C8.53875 39.9763 8.50988 39.9888 8.48445 39.9956L8.4698 40.1743H8.21638V40.3757H7.95995C7.92245 40.5934 7.82548 40.6291 7.71386 40.6209C7.68886 40.6192 7.66516 40.6136 7.64188 40.6084C7.6268 40.605 7.61215 40.6016 7.60223 40.6011C7.59361 40.6011 7.58456 40.6235 7.57336 40.7484L7.56431 40.8502H7.26607V41.0653H7.0342V41.2839H6.81181L6.81138 41.512H6.59331V41.8147H6.37609V42.0445L6.27309 42.053C6.12656 42.0651 6.13087 42.0921 6.13604 42.1183C6.16147 42.2519 6.18732 42.3846 5.90503 42.4314V42.6864L5.80634 42.6985C5.66584 42.7152 5.67359 42.7474 5.68135 42.7783C5.68868 42.8084 5.69601 42.8385 5.69644 42.8732C5.69773 42.9883 5.64429 43.082 5.38958 43.1051V43.3873L5.27752 43.3856ZM82.2075 38.8787C81.9149 38.7512 81.8843 38.7378 81.1874 38.7662C81.1878 38.9603 81.1857 39.105 81.184 39.2128C81.1827 39.3086 81.1814 39.3738 81.1831 39.4155C81.2042 39.4159 81.2283 39.4172 81.2564 39.4211L81.3525 39.4348C81.3374 44.883 81.3137 50.3329 81.3137 55.7806L81.3068 55.7987C81.1598 56.1834 81.1654 56.326 81.1809 56.7103C81.1848 56.8134 81.19 56.9332 81.193 57.0814L81.3128 57.0912C81.4688 57.1054 81.5714 57.1149 81.5826 57.0045L81.5925 56.9057L81.7903 56.9049C81.8843 56.9057 81.9632 56.9066 82.0657 56.8808C82.0912 56.8744 82.1153 56.8959 82.1343 56.9203C82.1325 56.8774 82.1593 56.8336 82.2368 56.7924C82.4558 56.6768 82.5148 56.6816 82.5946 56.6876C82.6622 56.6927 82.7527 56.6996 83.2087 56.4999C83.332 56.4458 83.4203 56.4295 83.4824 56.4269C83.4819 56.3891 83.4819 56.3402 83.4837 56.2775L83.4867 56.1723L83.5923 56.1697L83.6918 56.1693C83.7651 56.1697 83.8099 56.1701 83.9125 56.1383L83.9151 56.1379C83.9685 56.1027 84.0392 56.061 84.1306 56.0121C84.2818 55.9309 84.3767 55.9146 84.4361 55.9112C84.431 55.906 84.4262 55.8966 84.4284 55.8781L84.4469 55.708H84.712C84.7499 55.4993 84.8473 55.4667 84.9593 55.4749C84.983 55.4766 85.0059 55.4813 85.0283 55.486C85.058 55.4925 85.0886 55.4985 85.1033 55.3546L85.1136 55.2541H85.3511V55.0493H85.6653V54.8367H85.901C85.9053 54.7367 85.9122 54.6847 85.9778 54.6349C86.0277 54.5967 86.0885 54.589 86.204 54.5744L86.2777 54.5645L86.279 54.5417C86.2954 54.196 86.2984 54.1342 86.5626 54.1084V53.8714H86.7738V53.6326H86.9828V53.4012L87.0828 53.3904C87.2026 53.3775 87.2237 53.3664 87.2233 53.3561C87.222 53.3449 87.2181 53.329 87.2142 53.3144C87.2069 53.2848 87.1996 53.2556 87.1992 53.2199C87.1979 53.1053 87.2522 53.0125 87.5112 52.9898V52.7235H87.7142C87.7383 52.4414 87.8249 52.2868 87.9443 52.0734C87.9715 52.0248 88.0008 51.972 88.0391 51.899C88.1452 51.6894 88.2516 51.4833 88.3615 51.2763C88.4193 51.1338 88.4236 50.886 88.4266 50.7125L88.4287 50.6004L88.5938 50.5751C88.6205 50.5712 88.6046 50.621 88.6184 50.5953C88.6205 50.591 88.6166 50.5776 88.6175 50.5386C88.6184 50.4858 88.6201 50.411 88.63 50.3062C88.6847 49.7261 88.7675 49.7093 88.842 49.6943C88.8532 49.6922 88.8218 49.6982 88.8442 49.4199C88.8752 49.0321 88.9084 47.9002 88.8808 46.973C88.8632 46.3804 88.8227 45.8758 88.7442 45.7195C88.7209 45.677 88.6787 45.6122 88.6636 45.5692C88.5942 45.3661 88.6003 45.2909 88.6059 45.2261C88.6102 45.1767 88.6136 45.1368 88.5042 44.9212L88.3887 44.6459C88.3257 44.4969 88.3094 44.4806 88.2994 44.4707C88.2598 44.4308 88.2503 44.4213 88.1736 44.0993C88.1141 43.8506 88.0745 43.8146 88.0447 43.7884C87.9814 43.7325 87.9391 43.6952 87.9223 43.3877H87.7284V43.0974C87.5228 43.0583 87.4883 42.9609 87.4974 42.8483C87.4995 42.8196 87.506 42.7942 87.5116 42.7693C87.5163 42.75 87.5211 42.7302 87.5211 42.7212C87.5211 42.7114 87.4888 42.7023 87.3224 42.6989L87.2129 42.6963V42.4318C86.9302 42.3846 86.9561 42.2514 86.9819 42.1179C86.9871 42.0913 86.9923 42.0646 86.8449 42.053L86.7419 42.0449V41.8134H86.5273V41.5094H86.3083V41.2831H86.0838V41.0653H85.8523V40.8502H85.6187V40.6333L85.5726 40.6325C85.2731 40.6273 85.1925 40.6256 85.1615 40.3757H84.9016V40.1747H84.6478L84.6327 39.9849C84.5594 39.9776 84.4517 39.9385 84.2965 39.8118C84.2823 39.8002 84.2732 39.7895 84.2637 39.7788L84.2581 39.7719C84.0388 39.5851 83.9957 39.6044 83.9802 39.6117C83.934 39.6328 83.9035 39.6448 83.8479 39.5997C83.8073 39.5662 83.8035 39.5357 83.7966 39.4589L83.7944 39.4395H83.791C83.6897 39.4404 83.6186 39.4412 83.5091 39.4069C83.4694 39.4047 83.4255 39.3923 83.3845 39.3747C83.3302 39.3511 83.2824 39.3128 83.2557 39.2733C83.1251 39.2046 83.0708 39.1995 83.0122 39.1943C82.951 39.1887 82.8859 39.1827 82.7743 39.1406C82.692 39.1106 82.5635 39.035 82.4795 38.9929C82.3679 38.9483 82.2812 38.9105 82.2093 38.8791L82.2075 38.8787ZM16.9541 63.5975C16.9584 63.5937 16.9618 63.5902 16.964 63.5877L16.9549 63.5924L16.9532 63.5932L16.9541 63.5975ZM62.1527 24.0462C62.1006 24.1222 62.0402 24.2107 62.0501 24.4499L62.067 24.9046C62.2661 24.9325 62.2738 24.9879 62.2911 25.1228C62.2967 25.1644 62.304 25.2228 62.3462 25.3031L62.5247 25.651C62.5419 25.6802 62.5531 25.7068 62.5591 25.7304L62.7384 25.7476V26.0207C62.9436 26.0598 62.9768 26.1564 62.9673 26.2693C62.9651 26.2943 62.9595 26.3192 62.9539 26.3441C62.9466 26.3771 62.9388 26.4115 63.0746 26.4291L63.1685 26.4415L63.1716 26.5365C63.1737 26.609 63.1741 26.6734 63.1741 26.728C63.1746 26.9075 63.1746 26.9199 63.3763 26.9229L63.4862 26.9247V27.1995L63.5551 27.2008C63.5969 27.2004 63.6142 27.1991 63.6487 27.2283L63.653 27.2317C63.7241 27.2974 63.7034 27.3283 63.6676 27.382C63.6672 27.3824 63.665 27.3859 63.6974 27.4464L63.8254 27.6968C63.8344 27.7114 63.8452 27.7281 63.8525 27.7427C63.9055 27.8432 63.9159 27.9184 63.9236 27.9759C63.9279 28.0077 63.9301 28.0219 64.0572 28.0326L64.1598 28.0412V28.3018H64.3503L64.3537 28.4096C64.3624 28.6613 64.4115 28.7424 64.4757 28.8481L64.5227 28.9271C64.5994 29.0636 64.6214 29.1538 64.6287 29.2127C64.6317 29.2109 64.6356 29.2101 64.6412 29.2105L64.8356 29.2251V29.4961L64.8619 29.4982C64.9291 29.5038 64.9558 29.5064 64.9864 29.5296L64.9881 29.5304C65.0791 29.6017 65.0554 29.6399 65.0037 29.6962L65.0062 29.6945C65.0106 29.6906 65.0144 29.6876 65.0149 29.6889C65.0558 29.7533 65.0959 29.8091 65.1325 29.8607C65.2566 30.0333 65.3515 30.166 65.3765 30.4331C65.4864 30.449 65.542 30.4649 65.5769 30.583C65.5975 30.653 65.5954 30.7586 65.5911 30.9613L65.5863 31.219C65.5851 31.3328 65.5859 31.4264 65.5868 31.5019C65.5907 31.8914 65.5911 31.9382 65.3605 31.9675V32.2492H65.0842V32.5485H64.8584V32.7503H64.5865L64.5878 32.7683C64.5929 32.8328 64.5951 32.8658 64.5399 32.9092C64.5037 32.938 64.4723 32.9405 64.4102 32.9444C64.3714 32.947 64.3119 32.9508 64.2214 32.9637C63.4939 33.0681 63.1517 32.9401 62.8574 32.8302C62.7682 32.7971 62.6837 32.7649 62.5979 32.7447C62.3458 32.6846 62.2738 32.6455 62.2066 32.6095C62.1553 32.582 62.1075 32.5562 61.9342 32.5167C61.8523 32.4978 61.692 32.4905 61.5795 32.4853L61.4205 32.478V32.2088C61.0395 32.1135 60.6546 32.0302 60.2805 31.9125C60.1849 31.8893 60.1073 31.8433 60.0547 31.7935C60.0099 31.7871 59.9672 31.7854 59.9284 31.7837C59.7496 31.7764 59.6203 31.7708 59.5694 31.5625C59.1975 31.5496 59.1445 31.5028 59.0725 31.4393C59.0557 31.4247 59.0367 31.4079 59.0044 31.392C58.929 31.3551 58.8191 31.3199 58.6928 31.2795C58.4821 31.2121 58.2278 31.1309 57.977 30.9914C57.8722 30.9334 57.8567 30.8737 57.8752 30.8204C57.8507 30.8535 57.8097 30.8982 57.758 30.8879C57.6787 30.872 57.6227 30.8724 57.5542 30.8733H57.458L57.3585 30.8715L57.349 30.7728C57.346 30.7397 57.3447 30.7114 57.3443 30.6878C57.3141 30.6835 57.2775 30.6757 57.2331 30.6637C57.1861 30.6508 56.9469 30.6358 56.8491 30.6298L56.7262 30.6225L56.7228 30.5211C56.7172 30.3489 56.7008 30.3464 56.6513 30.3391C56.5797 30.3283 56.4823 30.3141 56.347 30.2463C56.2164 30.181 56.1268 30.1596 56.0651 30.1445C55.9156 30.108 55.8626 30.0951 55.8311 29.9277C55.5053 29.9113 55.3988 29.8504 55.1846 29.728C55.1208 29.6915 55.0471 29.6494 54.9687 29.6086L54.9239 29.5824L54.3809 29.3067C54.2425 29.2359 54.1744 29.2333 54.1378 29.232C54.0951 29.2307 54.068 29.229 54.0318 29.2011C53.9843 29.1637 53.9757 29.1246 53.9658 29.0302C53.7258 29.0134 53.6297 28.9614 53.4917 28.8867L53.4236 28.8506C53.2849 28.7781 53.2112 28.7729 53.1707 28.7703C53.1211 28.7669 53.0905 28.7648 53.053 28.7265C53.0082 28.681 53.0077 28.6355 53.0082 28.523V28.502H52.7371L52.7211 28.3272C52.6979 28.3212 52.672 28.3109 52.6431 28.2941L52.1492 28.0489C52.079 28.0313 52.0501 28.0317 52.004 28.0322C51.9786 28.0326 51.9488 28.0326 51.91 28.0317L51.8019 28.0283V27.8385H51.5403L51.5312 27.7363C51.5204 27.6092 51.5032 27.6057 51.4605 27.5976C51.3963 27.5851 51.3097 27.5684 51.1907 27.5022L51.1463 27.4739C51.0787 27.4413 50.9442 27.3859 50.8882 27.3485C50.8352 27.4 50.7977 27.4176 50.73 27.3142C50.7102 27.285 50.7098 27.263 50.7072 27.2094L50.7046 27.1561H50.4503L50.4382 27.0578C50.421 26.9152 50.3809 26.9148 50.2159 26.9126C50.1684 26.9122 50.1141 26.9113 50.0564 26.9092L49.953 26.9053L49.9487 26.8027C49.943 26.6584 49.9417 26.6331 49.9366 26.6335C49.9172 26.6344 49.8896 26.6369 49.8564 26.6404C49.8112 26.6451 49.756 26.6507 49.687 26.6541V26.9337H49.4491V27.1462H49.2237V27.3743H49.0156V27.6272H48.813L48.8053 27.7165C48.7932 27.8514 48.7803 27.9969 48.7897 28.0974C48.7975 28.1795 48.8005 28.2396 48.8018 28.2838C48.829 28.2838 48.8621 28.286 48.9027 28.2915L48.9958 28.3048L48.9988 28.3989C49.0009 28.4672 49.0005 28.5273 49.0001 28.5793C48.9992 28.7317 48.9988 28.7768 49.138 28.7914L49.2384 28.8017V29.0705C49.4116 29.0954 49.4289 29.1478 49.4828 29.3114C49.5047 29.378 49.5358 29.4725 49.606 29.6056L49.6332 29.6567C49.6858 29.7619 49.6918 29.8345 49.6952 29.886C49.6952 29.8886 49.6957 29.8894 49.8107 29.9006L49.912 29.9105V30.1694H50.1021L50.106 30.2772C50.115 30.5332 50.1603 30.5834 50.2318 30.662C50.2796 30.7144 50.3365 30.7766 50.4016 30.8879C50.4766 31.0158 50.4581 31.0953 50.4464 31.1447C50.4322 31.2052 50.4628 31.0764 50.5589 31.085L50.6606 31.0944V31.3628L50.6994 31.3658C50.7636 31.3705 50.7904 31.3723 50.8201 31.3929C50.9214 31.462 50.9033 31.5019 50.849 31.5548C50.883 31.608 50.9024 31.6364 50.9205 31.6626C51.005 31.7858 51.052 31.8545 51.1119 32.0812C51.1364 32.1749 51.1394 32.2161 51.139 32.2693H51.3338V32.5472C51.3692 32.5489 51.3911 32.5489 51.4045 32.5485C51.4454 32.548 51.464 32.548 51.4967 32.5755L51.5015 32.5794C51.5752 32.6477 51.5532 32.6777 51.5131 32.7327C51.5131 32.7344 51.5166 32.743 51.5446 32.7954C51.564 32.8315 51.5726 32.8542 51.5812 32.8774C51.5881 32.8959 51.5954 32.9152 51.6105 32.9448L51.6704 33.0427C51.7303 33.1527 51.7501 33.2347 51.7652 33.2974C51.7773 33.3485 51.7829 33.3704 51.9049 33.3803L52.0079 33.3884V33.6547L52.2966 33.6543L52.2893 35.5038L52.1798 35.506C52.0251 35.509 51.9936 35.5141 51.9932 35.5193C51.9936 35.5287 51.998 35.5467 52.0023 35.5644C52.0083 35.5906 52.0148 35.6163 52.0174 35.6438C52.0264 35.7597 51.988 35.8628 51.7532 35.9023C51.7381 36.2171 51.6687 36.2304 51.5002 36.2605C51.4519 36.2691 51.3886 36.2806 51.308 36.3249C51.1696 36.4009 51.0171 36.4404 50.8593 36.4601C50.7098 36.4786 50.5529 36.479 50.3977 36.476C50.1986 36.476 49.9344 36.4387 49.7289 36.4232L49.7155 36.4193C49.6146 36.3889 49.5629 36.3562 49.5125 36.324C49.4297 36.2716 49.35 36.2214 48.9225 36.1999L48.8165 36.1948L48.816 35.9491L48.0924 35.8942L48.0769 35.8091C48.0605 35.7177 48.1114 35.7159 48.0864 35.7168C48.026 35.7185 47.9222 35.722 47.7338 35.6344L47.3158 35.4845C47.2852 35.478 47.2697 35.4759 47.2572 35.4742C47.2201 35.4695 47.1994 35.4664 47.1253 35.4377L46.2267 35.2122L46.2138 35.1414C46.1957 35.04 46.1241 35.0168 45.9616 34.9649C45.8397 34.9258 45.6776 34.8734 45.463 34.7729C45.4014 34.7424 45.3363 34.7068 45.2807 34.6668C45.182 34.6213 45.0863 34.6166 45.0066 34.6123C44.8295 34.6033 44.701 34.5964 44.6493 34.3924L44.1033 34.3456L44.1007 34.2456C44.0959 34.0678 44.0761 34.0652 44.0253 34.0592C43.9533 34.0506 43.8576 34.0386 43.7279 33.9738L43.5882 33.8964L43.5473 33.8793L42.4974 33.5761L42.4854 33.5078C42.4651 33.3932 42.4582 33.3923 42.4341 33.3897C42.366 33.3824 42.266 33.3717 42.1095 33.2892C41.9484 33.2094 41.7669 33.1321 41.6152 33.0384C41.523 32.9899 41.4527 32.9775 41.401 32.968C41.2588 32.9427 41.1903 32.9302 41.1592 32.7426H40.8597V32.5485C40.7675 32.5395 40.6929 32.5218 40.6244 32.4935C40.5334 32.4557 40.4576 32.4003 40.368 32.3204L39.5616 31.8824C39.4586 31.8257 39.3784 31.8026 39.3185 31.7854C39.1715 31.7433 39.1009 31.7231 39.0694 31.5509H38.7216L38.7117 31.45C38.7009 31.3383 38.6914 31.3199 38.6828 31.3207C38.6725 31.3216 38.6565 31.3255 38.641 31.3289C38.5035 31.3598 38.3656 31.3907 38.31 31.1129H38.0385L38.0299 31.0103C38.02 30.8896 38.0135 30.887 37.9075 30.8462C37.8295 30.8166 37.7174 30.7736 37.5528 30.6929C37.4791 30.6568 37.4278 30.6525 37.3933 30.65C37.2347 30.6375 37.2046 30.6349 37.1964 30.3545H36.8641V30.1531H36.6184L36.6107 30.0501C36.602 29.9337 36.5947 29.9139 36.5883 29.9143C36.5779 29.9152 36.5628 29.9182 36.5482 29.9212C36.4133 29.95 36.2758 29.9788 36.2211 29.6979H35.962L35.9526 29.5966C35.9396 29.4561 35.9116 29.4622 35.8845 29.4682C35.8625 29.4729 35.8401 29.478 35.8146 29.4798C35.7013 29.4888 35.6017 29.4553 35.5625 29.2371H35.3057V29.028H34.9906L34.9902 28.8193H34.7497L34.7484 28.7094C34.7462 28.5303 34.7393 28.4968 34.732 28.4968C34.723 28.4968 34.707 28.5002 34.6911 28.5037C34.5553 28.5337 34.4174 28.5638 34.3691 28.2688H34.1157V28.0588H33.8791V27.8445H33.6464V27.6289H33.4149V27.4129H33.1124V27.1931H32.8857V26.9723H32.6603V26.6769H32.4392L32.4388 26.451H32.2181V26.2251H31.9987V25.9971H31.7837V25.7639H31.5686V25.5307H31.2799V25.2804C31.029 25.2456 31.0265 25.1709 31.0165 24.8565L31.0157 24.8273H30.8023V24.5851H30.5981V24.3193C30.3158 24.2643 30.3446 24.1274 30.3727 23.9934C30.3757 23.9792 30.3787 23.965 30.3795 23.9534C30.3791 23.9474 30.358 23.941 30.2459 23.9328L30.1421 23.9251V23.6567C29.865 23.5979 29.8956 23.4587 29.9257 23.3239C29.9287 23.3097 29.9322 23.2951 29.9331 23.2822C29.9335 23.2758 29.9141 23.2689 29.8042 23.2599L29.7012 23.2517V22.9099C29.4529 22.8927 29.4305 22.8245 29.3629 22.6166C29.3387 22.5423 29.306 22.4423 29.2396 22.3091L29.2142 22.2533C29.1892 22.1988 29.1771 22.1696 29.1672 22.1442C29.1564 22.1172 29.1474 22.094 29.1263 22.0536L28.9914 21.8093C28.9758 21.7754 28.9672 21.7522 28.959 21.7294C28.9513 21.7079 28.9435 21.686 28.9271 21.6538L28.8957 21.601C28.8267 21.5976 28.7948 21.5242 28.7453 21.2811C28.7254 21.1858 28.7254 21.1209 28.7263 21.0458C28.6375 21.0402 28.5996 21.0367 28.5604 20.9753C28.5367 20.938 28.5367 20.9088 28.5367 20.859C28.5367 20.816 28.5358 20.7439 28.5108 20.6206C28.491 20.5249 28.5548 20.4613 28.5854 20.4313L28.5837 20.4235C28.5238 20.451 28.4479 20.4437 28.3707 20.281C28.2643 20.0559 28.2751 19.8696 28.2837 19.7261C28.2897 19.6248 28.2932 19.5625 28.1772 19.5531L28.0755 19.5449L28.0738 19.4028C28.0716 19.1786 28.0691 18.9141 27.9816 18.7346C27.9583 18.6929 27.9161 18.6307 27.901 18.5881C27.8648 18.4859 27.86 18.4254 27.8527 18.3275L27.851 18.3051C27.8462 18.2407 27.8441 18.1712 27.8424 18.1033C27.8376 17.9114 27.8329 17.7344 27.723 17.5957C27.6993 17.5661 27.6816 17.5498 27.6683 17.5373C27.6118 17.4845 27.5928 17.4665 27.5859 17.3587H27.5329V17.6412H27.2761C27.2304 17.9281 27.0959 17.9019 26.961 17.8757C26.9343 17.8706 26.9076 17.8654 26.8951 18.0118L26.8865 18.114H26.6524V18.3219H26.4132V18.5349H26.1809V18.7505H25.8741L25.8745 18.9656H25.6314C25.5879 19.2671 25.4521 19.24 25.3177 19.2134C25.3017 19.2104 25.2858 19.2069 25.2789 19.2069C25.2703 19.2069 25.2629 19.24 25.2604 19.4277L25.2591 19.5376H25.0294V19.7592H24.8057V19.9825H24.5829V20.2062H24.3592V20.43H24.0627V20.6537H23.8394V20.8718L23.7356 20.8796C23.5692 20.8916 23.5683 20.9083 23.5601 21.1055L23.5489 21.3361H23.3408V21.5692H23.1262V21.8029H22.9115V22.036H22.6973V22.2714H22.4866V22.5123L22.3762 22.5136C22.1982 22.5161 22.1646 22.5226 22.1651 22.5294C22.1651 22.5385 22.1689 22.5548 22.1724 22.5711C22.1776 22.5943 22.1832 22.6179 22.1849 22.6407C22.1939 22.7532 22.1599 22.8528 21.9392 22.8927V23.2243H21.7324V23.4579L21.6306 23.4673C21.4841 23.4811 21.4901 23.5098 21.4957 23.5382C21.5005 23.5601 21.5048 23.5824 21.5065 23.6052C21.5147 23.7168 21.482 23.8143 21.2686 23.8521V24.1205H21.0682V24.3678L20.9643 24.3756C20.8523 24.3837 20.8307 24.3906 20.8303 24.3962C20.8312 24.4061 20.8346 24.4215 20.8376 24.437C20.8669 24.5714 20.8971 24.7092 20.6157 24.7659V25.112C20.5273 25.1129 20.4386 25.115 20.3502 25.1146C20.345 25.1378 20.3347 25.1636 20.3174 25.1928C20.2506 25.3319 20.1239 25.6415 20.0494 25.7532C20.102 25.8043 20.1235 25.8412 20.0214 25.9129C19.9916 25.9344 19.9666 25.9361 19.9063 25.94L19.861 25.943V26.2105L19.7598 26.22C19.6494 26.2303 19.6305 26.2397 19.6313 26.2487C19.6322 26.2599 19.6361 26.2758 19.6395 26.2917C19.671 26.4287 19.7024 26.5674 19.427 26.6258V26.6472C19.4266 26.8079 19.4262 26.8585 19.3331 27.0385L18.9711 27.7139C18.9189 27.826 18.9275 27.8565 18.9306 27.8685C18.9426 27.9123 18.9487 27.939 18.9064 27.9849L18.9043 27.9871C18.8685 28.024 18.8448 28.0244 18.7939 28.0227L18.7439 28.0223V28.3139H18.4759C18.4681 28.4238 18.4578 28.5608 18.4431 28.6385L18.4405 28.6535C18.2531 29.0405 18.0621 29.5103 17.8578 29.877C17.8518 29.8886 17.8453 29.8976 17.8393 29.9066L17.832 29.9178C17.7923 29.9977 17.7708 30.09 17.7583 30.1892C17.7449 30.294 17.7419 30.4082 17.7393 30.525L17.7376 30.616L17.648 30.6324C17.5393 30.6521 17.5182 30.7243 17.4838 30.8415C17.4622 30.9149 17.4368 31.0004 17.3932 31.0987L17.3174 31.3869C17.2812 31.5522 17.245 31.6089 17.2053 31.6703C17.1799 31.7102 17.1519 31.7532 17.1204 31.8558C17.0816 31.9829 17.0769 32.2444 17.0743 32.3939L17.0748 32.4909L16.9799 32.506C16.9506 32.5107 16.9252 32.5133 16.9028 32.5145C16.8989 32.5502 16.892 32.594 16.8791 32.6477C16.8657 32.7035 16.8584 32.898 16.8537 33.0127L16.8472 33.1793H16.5989C16.5791 33.4945 16.527 33.607 16.4744 33.7208C16.4304 33.8157 16.3856 33.9123 16.3654 34.1915C16.3309 34.6699 16.2904 34.7618 16.2412 34.8725C16.2111 34.9408 16.177 35.0177 16.1374 35.2492C16.1257 35.3179 16.1236 35.3509 16.1223 35.375C16.1188 35.4355 16.1175 35.4591 16.0615 35.5948C15.9542 35.8547 15.9421 36.1192 15.9314 36.3631C15.921 36.592 15.9115 36.805 15.8305 36.9982C15.6667 37.3899 15.6642 37.8747 15.6624 38.3415C15.662 38.4467 15.6616 38.551 15.6594 38.652C15.6504 39.0711 15.603 39.1759 15.5551 39.2815C15.5219 39.3545 15.4887 39.4284 15.4741 39.6856C15.4409 40.2761 15.4448 40.9232 15.4487 41.5467C15.45 41.7735 15.4512 41.9976 15.4508 42.2145L15.4775 55.9597C15.4866 56.6172 15.5172 56.6614 15.5538 56.7151C15.5814 56.755 15.6111 56.7979 15.6392 56.9195C15.6866 57.1247 15.6801 57.3845 15.6732 57.6516C15.665 57.9772 15.6564 58.3147 15.7491 58.5376C15.7555 58.5534 15.7275 58.547 15.7361 58.5492C15.8159 58.5668 15.8611 58.5775 15.893 58.9915C15.8973 59.0464 15.8986 59.1186 15.9003 59.1937C15.9033 59.3286 15.9064 59.4754 15.9305 59.5686C15.9676 59.7121 15.9844 59.7365 15.9973 59.7546C16.04 59.8155 16.0559 59.8387 16.1283 60.5645C16.1507 60.7908 16.1749 60.8389 16.2029 60.8951C16.2451 60.9797 16.2951 61.0798 16.3529 61.5281C16.3645 61.6187 16.3684 61.6844 16.3692 61.7312C16.3929 61.7329 16.4205 61.736 16.4537 61.742L16.5442 61.7583L16.5455 61.8498C16.5554 62.478 16.5709 62.4806 16.5899 62.484C16.6326 62.4913 16.6787 62.4995 16.7304 62.5609C16.833 62.6828 16.855 62.8692 16.8765 63.0513C16.8903 63.1694 16.9041 63.2862 16.9386 63.3588L16.9308 63.3631C17.0166 63.3592 17.0424 63.4348 17.0941 63.7474C17.1282 63.9544 17.1553 64.0081 17.1864 64.069C17.2234 64.1425 17.2657 64.2254 17.3213 64.4839L17.4195 64.8059L17.423 64.8111C17.4299 64.821 17.4368 64.8309 17.4432 64.8433C17.5109 64.9524 17.5579 65.0958 17.6083 65.2148C17.6997 65.3951 17.7454 65.5476 17.7954 65.7133C17.8518 65.9019 17.9143 66.1093 18.0591 66.3944L18.2776 66.8479C18.3039 66.8934 18.3336 66.9406 18.3569 66.987C18.4246 67.1274 18.4315 67.2224 18.4362 67.2872C18.4375 67.3035 18.4379 67.3069 18.6082 67.3125L18.7133 67.316L18.7164 67.4203C18.7258 67.7639 18.7901 67.8691 18.9163 68.0761C18.9555 68.1405 19.0004 68.2139 19.0482 68.2998C19.1439 68.4501 19.2223 68.6266 19.3046 68.7859C19.3921 68.9444 19.4098 69.0436 19.4206 69.1067C19.4227 69.1183 19.4232 69.1196 19.5357 69.1303L19.6374 69.1398V69.491C19.8214 69.5202 19.8378 69.5834 19.8753 69.7298C19.8903 69.7886 19.911 69.8694 19.9714 69.978L20.0283 70.0776C20.08 70.179 20.0856 70.249 20.0895 70.2996C20.0899 70.3048 20.0899 70.3065 20.2106 70.3172L20.3127 70.3263V70.5874C20.5691 70.6118 20.6226 70.7067 20.6204 70.8223C20.62 70.8592 20.6122 70.8892 20.6045 70.9193C20.6002 70.9365 20.5959 70.9537 20.595 70.9635C20.5941 70.9721 20.6148 70.982 20.7321 70.9932L20.8333 71.0031V71.3367C21.1143 71.3895 21.0855 71.5257 21.057 71.6605C21.054 71.6742 21.051 71.6884 21.0501 71.6996C21.0497 71.7069 21.0691 71.715 21.1863 71.7245L21.2889 71.7327V71.977H21.4919V72.2398C21.7767 72.2866 21.75 72.4202 21.7233 72.5537C21.7181 72.5803 21.7125 72.6074 21.8608 72.6194L21.9638 72.6276V72.8608H22.1715V73.1777H22.4543V73.4319C22.74 73.4766 22.7167 73.608 22.693 73.7402C22.6883 73.766 22.6835 73.7926 22.8365 73.8038L22.94 73.8115V74.0378H23.1542V74.2723H23.3675L23.3671 74.5055H23.5851V74.7326H23.8049V75.0328H24.0265V75.2596H24.3208V75.4867H24.5415V75.7066H24.7703V75.9273H24.9949V76.1468H25.2237V76.3671H25.4491V76.5852H25.6823V76.8725H25.9172V77.0859H26.2249V77.3002H26.452L26.4589 77.4041C26.4693 77.5566 26.4947 77.5518 26.5197 77.5471C26.6533 77.5214 26.7878 77.4947 26.8369 77.7812H27.0925V77.989H27.3347V78.1977H27.57L27.5773 78.3012C27.5881 78.4532 27.6187 78.4537 27.7743 78.4541C27.826 78.4541 27.8863 78.4545 27.9544 78.4567L28.0596 78.4601L28.0622 78.5649C28.0665 78.7255 28.0751 78.7577 28.085 78.7573C28.0958 78.7568 28.1156 78.7521 28.135 78.7474C28.1622 78.7409 28.1897 78.7341 28.2186 78.7319C28.3324 78.7229 28.4315 78.759 28.4703 78.9668H28.7323L28.7435 79.066C28.7591 79.2039 28.7897 79.197 28.8194 79.1901C28.8435 79.1845 28.8677 79.179 28.8944 79.1768C29.0073 79.1674 29.1051 79.2017 29.1448 79.4126H29.4042L29.4154 79.5118C29.431 79.6531 29.4702 79.6535 29.6266 79.6535C29.6771 79.6535 29.7361 79.6539 29.8012 79.6561L29.9094 79.6595V79.8497H30.1701L30.1852 80.0382C30.2214 80.0451 30.2645 80.0597 30.3149 80.0863C30.5425 80.2066 30.6868 80.2633 30.7791 80.2989C30.8536 80.3281 30.8997 80.3462 30.9377 80.3766C31.0075 80.4333 31.0174 80.4844 31.0196 80.5948H31.2937L31.3023 80.697C31.3135 80.8297 31.3648 80.8288 31.5092 80.8263C31.5639 80.8254 31.6272 80.8241 31.7001 80.8258L31.7979 80.8284L31.8151 80.9967C31.841 81.0032 31.8707 81.0152 31.9035 81.0345L32.3461 81.251C32.4676 81.2973 32.5827 81.3673 32.6982 81.4279C32.7637 81.4622 32.8228 81.4957 32.8762 81.5262C33.0831 81.6435 33.2107 81.7156 33.5628 81.7225L33.6606 81.7242L33.6714 81.8212C33.6826 81.9204 33.683 81.9204 33.6878 81.9204C33.7511 81.92 33.8498 81.9196 34.005 81.9582C34.3196 82.036 34.6441 82.2803 34.7506 82.3602L34.7575 82.3653C34.8652 82.4461 34.9333 82.4465 34.9807 82.4465C35.1074 82.4469 35.1742 82.4473 35.2203 82.6479C35.4138 82.6569 35.5539 82.6805 35.6595 82.7089C35.7862 82.7428 35.8642 82.7836 35.9263 82.8162C36.0181 82.8643 36.1107 82.8802 36.203 82.8965C36.3012 82.9137 36.3995 82.9309 36.5094 82.9816L36.7365 83.1078C36.7994 83.1258 36.8891 83.1366 36.9809 83.143C37.0869 83.1503 37.1886 83.1525 37.2632 83.1538L37.3563 83.1555L37.3713 83.2465C37.3869 83.3397 37.4338 83.3436 37.5528 83.3526C37.7562 83.368 38.0919 83.3938 38.6458 83.6635L39.3026 83.7889C39.7879 83.8151 39.8986 83.8709 40.0085 83.9263C40.0809 83.9628 40.1533 83.9993 40.4102 84.0242C40.5421 84.0371 40.6821 84.0388 40.8205 84.0401C40.9153 84.041 41.0097 84.0423 41.0963 84.0461C41.1623 84.0491 41.2105 84.05 41.2489 84.0504C41.3566 84.0521 41.4109 84.053 41.4605 84.0942C41.5234 84.1458 41.5213 84.1968 41.5178 84.2991V84.3055C42.166 84.3222 42.2884 84.3854 42.4005 84.4429C42.4448 84.4657 42.4875 84.4876 42.5897 84.5035C42.803 84.5361 43.0637 84.5288 43.3301 84.5211C43.6667 84.5116 44.0128 84.5017 44.3032 84.5679C44.4502 84.6014 44.5204 84.6323 44.5467 84.6709C45.0221 84.8217 47.4834 84.7478 48.5346 84.716L48.9156 84.7053C49.1966 84.6993 49.1979 84.6971 49.2009 84.6937C49.2186 84.6731 49.2393 84.6486 49.2987 84.6224C49.5177 84.5254 49.737 84.5241 49.9603 84.5232C50.0318 84.5232 50.1038 84.5228 50.1792 84.5185C50.4219 84.5052 50.452 84.6349 50.4408 84.5855C50.4253 84.5155 50.4051 84.4253 50.6904 84.3566C50.7882 84.333 50.9895 84.3162 51.2162 84.3051C51.514 84.29 51.8648 84.2836 52.079 84.281V84.0457L52.2923 84.041C52.4526 84.0375 52.653 84.0332 52.7806 84.0156C52.8789 84.0023 52.956 84.0611 52.9935 84.0964L53.0047 84.0946C52.972 84.0367 52.9414 83.9628 53.1181 83.8842C53.2629 83.8198 53.4193 83.8121 53.6137 83.8022C53.9102 83.7872 54.3028 83.7674 54.8536 83.5145C54.9713 83.4591 55.2277 83.3968 55.3656 83.353L55.3786 83.3517C55.4721 83.3431 55.5639 83.3363 55.654 83.332L55.835 83.3251C55.8802 83.113 55.9738 83.116 56.1453 83.1224C56.2336 83.1254 56.3586 83.1301 56.5319 83.043C56.637 82.9893 56.9598 82.909 57.0947 82.869C57.2421 82.7913 57.471 82.7003 57.6171 82.6775C57.6554 82.6715 57.6783 82.6698 57.6994 82.6681C57.7287 82.6659 57.7541 82.6638 57.8063 82.6488C57.8722 82.6299 57.8787 82.6247 57.8852 82.6196C57.8972 82.6097 57.9097 82.5998 57.933 82.5882C58.1075 82.5015 58.2248 82.4787 58.3028 82.4637C58.3502 82.4546 58.3575 82.4529 58.3631 82.2949L58.3666 82.1927L58.5308 82.1841C58.6243 82.1794 58.7376 82.1734 58.8113 82.1596C58.9747 82.1296 59.0083 82.0956 59.0389 82.0643C59.1083 81.9939 59.1703 81.9312 59.5552 81.9149C59.5931 81.7379 59.6586 81.7276 59.7914 81.7074C59.8371 81.7006 59.8983 81.6911 59.9793 81.6516C60.2327 81.5237 60.5163 81.3575 60.7766 81.2552L60.9128 81.181C60.9365 81.1668 60.9516 81.1535 60.9649 81.1415C61.0335 81.0805 61.0779 81.0414 61.417 81.0272C61.4537 80.8228 61.5084 80.8181 61.6433 80.8069C61.6855 80.8035 61.745 80.7983 61.8286 80.7567L62.0269 80.6442C62.1398 80.5909 62.2174 80.5858 62.2708 80.5828C62.2768 80.5823 62.2639 80.5832 62.2661 80.4041L62.2678 80.2942H62.5527C62.5958 80.0863 62.6962 80.0563 62.8104 80.0675C62.8363 80.07 62.8587 80.0752 62.8811 80.0799C62.9121 80.0868 62.9436 80.0941 62.9587 79.9597L62.9694 79.8635L63.0664 79.8609C63.141 79.8587 63.2056 79.8596 63.2599 79.8605C63.4047 79.8626 63.4435 79.863 63.4539 79.7213L63.4616 79.6178H63.7305C63.7896 79.3387 63.9288 79.3696 64.0646 79.4001C64.0792 79.4035 64.0939 79.407 64.1064 79.4078C64.112 79.4074 64.118 79.3859 64.1262 79.2752L64.1339 79.1717H64.3835V78.9724H64.6481C64.6817 78.7238 64.7662 78.7229 65.0584 78.7208L65.1148 78.7203V78.4386H65.3622V78.2342H65.6226C65.6596 78.0169 65.7579 77.9839 65.8699 77.9916C65.8954 77.9933 65.916 77.9976 65.9363 78.0015C65.9639 78.0075 65.9919 78.0131 66.0053 77.8653L66.0143 77.764H66.2462V77.5549H66.4858V77.3457H66.7228V77.1387L66.9681 77.128C67.1521 77.122 67.1724 77.1211 67.1836 76.9597L67.1909 76.8557H67.4163V76.5659H67.6477V76.3494H67.8779V76.1296H68.1037V75.9097H68.3308V75.6898H68.558V75.4691H68.8562V75.2428H69.076V75.0161H69.2954V74.715H69.516V74.487H69.7332V74.2547H69.9487V74.0279L70.0535 74.0211C70.2065 74.0112 70.2021 73.9863 70.1978 73.9618C70.1746 73.83 70.1513 73.6973 70.4418 73.6513V73.4027H70.7254V73.1627H70.9357V72.8569L71.0378 72.8479C71.1848 72.835 71.1792 72.8071 71.174 72.7805C71.1473 72.6456 71.1206 72.5125 71.408 72.4674V72.2085H71.6123V71.9706L71.7136 71.9611C71.8575 71.9474 71.8511 71.919 71.845 71.8911C71.8403 71.8683 71.8356 71.846 71.8334 71.822C71.8248 71.7095 71.858 71.6115 72.0735 71.5729V71.3071H72.276L72.2769 71.2358C72.2799 70.8734 72.2803 70.833 72.5975 70.8248V70.5779L72.6958 70.5659C72.8341 70.5487 72.8272 70.5152 72.8199 70.4834C72.8152 70.4607 72.8096 70.4375 72.8079 70.4109C72.7992 70.2988 72.8328 70.2026 73.0384 70.1652V69.8947L73.1384 69.8839C73.2496 69.8724 73.2677 69.8616 73.2669 69.8513C73.266 69.841 73.2621 69.8256 73.2582 69.8097C73.2531 69.7873 73.2479 69.765 73.2453 69.7397C73.2332 69.6254 73.263 69.5241 73.4729 69.4794V69.1273L73.5763 69.1196C73.687 69.111 73.6858 69.1432 73.6862 69.1282C73.6883 69.0771 73.6918 68.9998 73.7495 68.8808L73.8857 68.6416C73.9551 68.4922 74.0361 68.3457 74.112 68.1993L74.1305 68.1555C74.14 68.1319 74.1504 68.1078 74.1572 68.0941C74.2529 67.9051 74.3335 67.8601 74.3947 67.8253C74.4352 67.8025 74.4564 67.7905 74.4654 67.3984L74.468 67.3022L74.6059 67.2855C74.6421 67.2812 74.6529 67.2941 74.6589 67.3009C74.6611 67.243 74.6705 67.1446 74.7529 66.978L75.002 66.4756C75.0761 66.3382 75.0908 66.2166 75.102 66.1209C75.1235 65.9396 75.1377 65.8198 75.3364 65.773C75.3493 65.4694 75.3955 65.3934 75.4536 65.2964L75.4808 65.2495C75.5015 65.2118 75.536 65.1091 75.5799 64.9781C75.6579 64.7458 75.7644 64.4289 75.8984 64.1743C75.904 64.1635 75.9113 64.1528 75.9182 64.142L75.9247 64.1326C76.0105 63.9664 76.0187 63.7474 76.0273 63.5134L76.0337 63.3373H76.2833C76.316 62.8121 76.3815 62.6919 76.4449 62.5755C76.4798 62.5107 76.5143 62.4475 76.5393 62.2693C76.5712 62.0533 76.613 61.8313 76.6505 61.6153L76.6582 61.5998C76.7052 61.5084 76.7582 61.4873 76.8099 61.5002C76.7806 61.4719 76.747 61.428 76.7582 61.3701C76.7677 61.3215 76.7703 61.2584 76.7729 61.197C76.7746 61.1562 76.7763 61.1159 76.7798 61.0772C76.8009 60.8518 76.8371 60.7968 76.8815 60.7294C76.9048 60.6942 76.9319 60.6534 76.9621 60.5344C76.9785 60.47 76.9819 60.4112 76.9849 60.3523C76.9879 60.2974 76.9909 60.242 77.0017 60.1814L77.003 60.1793C76.9974 60.1505 76.9991 60.1183 77.0065 60.0882C77.0129 60.0608 77.0246 60.0346 77.0396 60.0127L77.2978 58.8257L77.3038 58.8128C77.3306 58.757 77.3551 58.7175 77.3771 58.6904L77.39 58.6123C77.3987 58.5586 77.4012 58.4311 77.403 58.3392L77.4094 58.0613C77.4125 57.8973 77.4159 57.7264 77.4267 57.5825C77.4594 57.1406 77.5146 57.1196 77.5848 57.0925C77.5887 57.0912 77.5767 57.0955 77.5861 57.0659C77.6228 56.9534 77.6202 56.7782 77.6185 56.6245L77.618 56.4849C77.6706 52.7995 77.6611 49.1137 77.6516 45.4284C77.6478 43.8373 77.6435 42.2463 77.6443 40.6557C77.6443 40.4994 77.6361 40.3813 77.6228 40.2902C77.6103 40.2061 77.5939 40.1489 77.5758 40.1077C77.4262 39.7676 77.4422 39.2669 77.4581 38.7683C77.4728 38.3071 77.487 37.8481 77.3685 37.5608C77.3512 37.5183 77.3349 37.4891 77.3211 37.4633C77.2707 37.3705 77.2379 37.3108 77.2267 37.0283C77.212 36.6676 77.1638 36.5319 77.1172 36.4013C77.0703 36.2695 77.0246 36.1419 77.0095 35.8405C77.0017 35.685 76.9991 35.5596 76.997 35.4566C76.9905 35.1482 76.9888 35.052 76.8336 34.7089C76.7543 34.5337 76.7517 34.3985 76.7487 34.252C76.7474 34.1726 76.7457 34.0897 76.7289 33.9969C76.7022 33.8488 76.6983 33.8458 76.6923 33.8406C76.6656 33.8183 76.6324 33.7908 76.5875 33.6843L76.544 33.5581C76.5156 33.4829 76.4893 33.4387 76.4656 33.3975C76.4221 33.3236 76.3837 33.2579 76.3471 33.0943C76.3281 33.0097 76.3152 32.8804 76.3061 32.7516C76.3005 32.6734 76.2962 32.591 76.2928 32.5188H76.0424L76.0402 32.3874C76.0376 32.2139 76.0333 31.9533 75.9781 31.8137C75.8657 31.6011 75.7838 31.2988 75.6993 31.0665C75.6286 30.9231 75.611 30.8196 75.598 30.7436C75.5877 30.6839 75.5834 30.6581 75.4696 30.6379L75.3795 30.622L75.3769 30.4992C75.3743 30.3768 75.3713 30.2334 75.3515 30.1226C75.3446 30.0866 75.3394 30.0599 75.3338 30.0385C75.3282 30.0174 75.3209 29.9968 75.311 29.9719C75.1183 29.6558 75.0067 29.378 74.8425 29.0229C74.7317 28.8107 74.7063 28.6394 74.6869 28.5084C74.6701 28.3929 74.6598 28.3263 74.5503 28.3177L74.4473 28.3096V28.0322C74.3202 28.0309 74.2672 28.027 74.2219 27.9854C74.1771 27.9441 74.1753 27.9098 74.1732 27.8548C74.1719 27.8196 74.1693 27.7625 74.1267 27.6676L74.0745 27.5684L74.0478 27.5241L73.7875 27.041C73.6922 26.8598 73.6918 26.8147 73.6909 26.6528V26.6326C73.4129 26.5734 73.4453 26.4338 73.4772 26.2964C73.481 26.2797 73.4849 26.2629 73.4858 26.2526C73.4858 26.2444 73.466 26.2354 73.3591 26.2251L73.2578 26.2157V25.943C73.0966 25.9215 73.0811 25.879 73.0156 25.7004C72.988 25.6252 72.9475 25.5153 72.8643 25.3551C72.8091 25.2486 72.804 25.1764 72.8001 25.1262C72.7997 25.1223 72.8005 25.1309 72.6781 25.1215L72.5751 25.1133V24.7822C72.3165 24.756 72.264 24.6581 72.2665 24.5413C72.2674 24.507 72.2743 24.4769 72.2816 24.4473C72.2855 24.431 72.2894 24.4151 72.2902 24.4026C72.2907 24.3957 72.27 24.3884 72.1562 24.3799L72.0528 24.3721V24.1231H71.8511V23.8615C71.6326 23.8225 71.6002 23.7237 71.6089 23.6112C71.6106 23.5889 71.6153 23.5669 71.6196 23.545C71.6252 23.518 71.6308 23.4901 71.4865 23.4772L71.3843 23.4682V23.2311H71.1787V22.897C70.893 22.8494 70.9197 22.7162 70.9464 22.5823C70.9516 22.5561 70.9568 22.5294 70.8059 22.5179L70.7025 22.5101V22.2821H70.4155V22.0459H70.2034V21.8097H69.991V21.5735H69.7789V21.3429H69.5673L69.5561 21.1235C69.5466 20.9191 69.5458 20.9032 69.3755 20.8925L69.2712 20.886V20.6662H69.051V20.439H68.8312V20.2122H68.5343V19.9894H68.3063V19.7708H68.0783V19.5518H67.8516L67.8503 19.441C67.8486 19.2482 67.8408 19.2151 67.8322 19.2151C67.8249 19.2151 67.8102 19.2181 67.7955 19.2207C67.6628 19.2456 67.5283 19.2705 67.4839 18.9716H67.2426V18.7591H67.006V18.5486H66.6927V18.3378H66.4548V18.1265H66.2169V17.9157H66.0548C66.0471 18.1767 66.0354 18.4782 65.9169 18.7037C65.8497 18.8312 65.7863 18.811 65.7355 18.7947L65.7238 18.7913C65.7363 18.8011 65.8238 18.8578 65.8061 18.9733C65.7876 19.0931 65.7859 19.2379 65.7842 19.3663L65.782 19.5234L65.6842 19.5342C65.5816 19.5453 65.5657 19.6368 65.542 19.7751C65.5075 19.9761 65.4609 20.2462 65.2088 20.5489C65.1963 20.5639 65.1864 20.5717 65.1765 20.5803L65.1709 20.5846L65.0718 20.7009C64.9998 20.819 65.011 20.853 65.0162 20.8676C65.0317 20.9139 65.0407 20.9436 64.9955 20.9942C64.9593 21.035 64.9295 21.0363 64.8545 21.0398L64.8226 21.041V21.3726L64.7231 21.3837C64.5843 21.3992 64.5908 21.4288 64.5968 21.4576C64.602 21.4808 64.6072 21.5035 64.6089 21.5306C64.6166 21.6435 64.5809 21.7402 64.3628 21.7771V22.0309H64.1529V22.2671H63.9348V22.4925H63.7129V22.7154H63.4827V22.928H63.1703V23.2131H62.9203C62.8755 23.5034 62.7432 23.4789 62.6096 23.4536C62.5841 23.4489 62.5583 23.4441 62.5466 23.6052L62.5397 23.7022L62.4428 23.7091C62.3893 23.713 62.3424 23.7147 62.3074 23.716C62.2962 23.7714 62.2704 23.8568 62.1967 23.9852C62.1833 24.0084 62.1682 24.0307 62.1527 24.0531V24.0462ZM64.9968 29.7031C64.9938 29.7065 65.0002 29.7001 65.0062 29.6945L64.9968 29.7031ZM59.2975 44.1379C59.3738 44.1152 59.4561 44.1023 59.5668 44.0963C59.6168 43.8811 59.741 43.8807 59.9625 43.8803C60.0349 43.8803 60.1224 43.8798 60.2262 43.8652C60.3456 43.8481 60.396 43.9099 60.409 43.9168C60.4029 43.9052 60.3978 43.8919 60.3956 43.873C60.384 43.7892 60.437 43.7098 60.8163 43.6574C60.9188 43.6432 61.0343 43.6428 61.1507 43.6428C61.3067 43.6424 61.4657 43.6424 61.5799 43.6046C61.5843 43.6033 61.5899 43.6054 61.595 43.6106C61.6101 43.5586 61.6821 43.5148 61.8661 43.4732C62.1476 43.4092 62.4574 43.4246 62.7526 43.4392C62.866 43.4448 62.9776 43.4504 63.0776 43.4513L63.2069 43.4508C63.322 43.45 63.4521 43.4487 63.5405 43.4568L63.5866 43.4607C63.6512 43.4659 63.6624 43.4672 63.7517 43.4955C63.784 43.5058 63.8267 43.5311 63.8581 43.5466C63.9822 43.6054 63.9667 43.6668 63.9542 43.7158C63.9521 43.7235 63.9512 43.7278 63.9512 43.7291C63.9577 43.7222 64.0072 43.626 64.1279 43.6402L65.2976 43.7106L65.3144 43.7948C65.3329 43.8863 65.2907 43.888 65.3109 43.8871C65.3726 43.8841 65.4773 43.8798 65.6678 43.9683L65.7161 43.9949C65.7312 44.0022 65.7406 44.0087 65.7501 44.0147L65.7557 44.019C65.9695 44.0997 66.3268 44.2096 66.5155 44.3058C66.6517 44.3715 66.7043 44.3668 66.7276 44.3647C66.7685 44.3599 66.7944 44.3587 66.8332 44.3921C66.8771 44.4304 66.8771 44.457 66.8776 44.5214L66.878 44.5579H67.2232L67.2327 44.6588C67.243 44.7675 67.2521 44.7851 67.2607 44.7842L67.3012 44.7765C67.321 44.7722 67.3413 44.7675 67.368 44.7649C67.4831 44.7537 67.5861 44.7838 67.6296 44.9998H67.8981V45.2772H68.1326L68.1399 45.3807C68.1507 45.5293 68.1748 45.525 68.1994 45.5207C68.333 45.4966 68.4674 45.4726 68.5127 45.7693H68.7528V45.9939H69.048V46.2357C69.3449 46.2791 69.3208 46.4122 69.2967 46.5462C69.2928 46.5715 69.288 46.5968 69.4333 46.6084L69.5363 46.6166V46.8549H69.7393V47.1903L69.7862 47.1933C69.8475 47.1972 69.8729 47.1989 69.9013 47.2178C70.0104 47.2887 69.9884 47.3269 69.9336 47.3797L70.4819 48.4803C70.4879 48.4898 70.5129 48.5258 70.515 48.5323C70.5219 48.5422 70.5293 48.5525 70.5362 48.5649L70.543 48.5756C70.5512 48.5877 70.5599 48.6001 70.5663 48.6139C70.653 48.7929 70.6637 48.9961 70.6741 49.2091L70.687 49.2086C70.7904 49.2048 70.837 49.203 70.8926 49.2821C70.9197 49.3207 70.9344 49.3718 70.9615 49.4646C70.987 49.5513 71.0245 49.6814 71.0951 49.879C71.2675 50.3604 71.2115 51.5056 71.1731 52.2932C71.1624 52.5165 71.1525 52.7111 71.1503 52.8463L71.1486 52.9558H70.9598V53.2066H70.6771V53.4222H70.4228C70.4064 53.5227 70.3944 53.5639 70.3457 53.5987C70.3056 53.627 70.2771 53.6262 70.2336 53.6253C70.1957 53.6245 70.1263 53.6223 69.9823 53.6897C69.8931 53.7314 69.6751 53.8134 69.4613 53.8465C69.3488 53.8641 69.2359 53.8679 69.1381 53.8469C69.0226 53.822 68.9286 53.7632 68.8777 53.6549L68.8747 53.6481H68.8502C68.6166 53.6498 68.4136 53.6515 68.3373 53.4192H68.077V53.2019H67.8684V52.9485H67.6796L67.6775 52.839C67.6744 52.6724 67.6675 52.4616 67.6576 52.2511C67.649 52.0686 67.6378 51.884 67.6249 51.729C67.6158 51.6194 67.5913 51.549 67.5628 51.4674C67.5171 51.336 67.4624 51.1784 67.4348 50.8353C67.4133 50.5682 67.4577 50.5785 67.4404 50.5746C67.399 50.5648 67.3482 50.5523 67.296 50.4402C67.24 50.32 67.231 50.2509 67.2211 50.174C67.215 50.1272 67.2086 50.0765 67.184 50.0009C67.1607 49.9288 67.1719 49.9382 67.1676 49.9344C67.1525 49.9215 67.131 49.9034 67.0922 49.8309L66.9935 49.6153C66.9694 49.5655 66.9573 49.5243 66.9517 49.4903C66.9129 49.4912 66.8612 49.4916 66.7918 49.4912L66.6806 49.4899V49.2314H66.478V48.9128H66.2682V48.6821H66.0505V48.4619H65.8242V48.2497H65.5838V48.0453H65.3403L65.3303 47.9444C65.3166 47.8018 65.2747 47.8022 65.123 47.8035C65.07 47.804 65.0075 47.8044 64.9369 47.8027L64.842 47.7997L64.8205 47.6292C64.78 47.624 64.7309 47.6103 64.6722 47.5832C64.4938 47.5004 64.3391 47.4432 64.1749 47.4059C64.0081 47.3681 63.8288 47.3483 63.6017 47.341L63.4935 47.3372V47.1031L63.1922 47.0963C62.9768 47.0911 62.7613 47.086 62.5488 47.0847H62.5238C62.2493 47.083 62.1307 47.0821 62.0829 47.1001C62.073 47.104 62.0626 47.1233 62.045 47.1577C62.0277 47.1912 62.0066 47.2324 61.9747 47.2822L61.9437 47.3303L61.8868 47.3333C61.823 47.3367 61.7519 47.338 61.6799 47.3389C61.4877 47.3419 61.2886 47.3453 61.1266 47.4067C61.0671 47.4295 61.0537 47.4424 61.0417 47.454C61.0024 47.4922 60.9675 47.5266 60.774 47.5746C60.7219 47.5875 60.6852 47.591 60.6512 47.5935C60.6249 47.5957 60.5999 47.5978 60.5762 47.6051C60.5296 47.6193 60.4909 47.627 60.459 47.6318C60.4585 47.6567 60.4572 47.6863 60.4542 47.7207L60.4456 47.8229H60.1663C60.1155 48.0968 59.981 48.0689 59.8465 48.0406C59.8181 48.0346 59.7892 48.0286 59.7767 48.1758L59.7681 48.2781H59.4651V48.4941H59.2363V48.7191H59.0186V48.9557H58.8066L58.8062 49.0029C58.8027 49.2881 58.8014 49.3804 58.5596 49.4178V49.6913L58.3769 49.7076C58.3683 49.7085 58.3623 49.7072 58.3584 49.705C58.3562 49.7587 58.3429 49.8369 58.2903 49.9503L57.9459 50.8383C57.8955 50.9826 57.8778 51.7985 57.8675 52.2653L57.8576 52.6385H57.6093L57.6106 52.7218C57.6158 53.0052 57.6171 53.1001 57.3606 53.1392V53.3853H57.1133C57.0878 53.597 57.0495 53.6 56.9107 53.6103C56.8758 53.6129 56.8245 53.6167 56.7482 53.6524C56.687 53.6811 56.6918 53.6571 56.6905 53.6635C56.6754 53.7391 56.6702 53.764 56.3793 53.816C56.3134 53.8271 55.6686 53.828 55.6031 53.8168C55.2963 53.7645 55.2928 53.7383 55.2838 53.6562C55.2829 53.6468 55.2859 53.6777 55.2385 53.6584C55.1872 53.6386 55.1006 53.6124 55.0558 53.5862L55.0609 53.5781C55.0036 53.6348 54.9653 53.664 54.8907 53.5592C54.8704 53.5308 54.8679 53.5055 54.8631 53.4458L54.8588 53.3934H54.6119V53.1504C54.3589 53.1083 54.3597 53.0185 54.3628 52.7325L54.3632 52.6445C54.2757 52.635 54.2326 52.6265 54.1938 52.556C54.1692 52.5114 54.1684 52.4641 54.1671 52.3761C54.1667 52.3314 54.1654 52.2713 54.1606 52.1863C54.1473 51.9566 54.1296 51.5795 54.1352 51.2111C54.1408 50.8349 54.1723 50.4686 54.2589 50.2715C54.3817 49.9992 54.3567 49.9872 54.4145 49.6278C54.4438 49.4135 54.4951 49.3173 54.5433 49.2267C54.5899 49.1399 54.6325 49.0588 54.6369 48.8264L54.6386 48.7311L54.7325 48.7178C54.8252 48.7045 54.8256 48.7672 54.8256 48.7358C54.8252 48.677 54.8243 48.5752 54.9131 48.3927L54.9976 48.2476C55.0135 48.2162 55.0178 48.2059 55.0256 48.187C55.0653 48.0955 55.1165 47.9723 55.1648 47.8937C55.2295 47.7761 55.248 47.694 55.2609 47.6361C55.2937 47.4905 55.3066 47.4334 55.4988 47.4003V47.1237H55.7781L55.779 47.0851C55.7859 46.7841 55.7876 46.7016 56.035 46.6655V46.4096H56.2496V46.1799H56.4677V45.9501H56.687V45.7324H56.9189V45.5155H57.1495V45.3034H57.3977V45.0311L57.5046 45.0264L57.655 45.0221C57.8205 45.0187 57.8563 45.0178 57.8683 44.8731L57.877 44.7709H58.1455C58.1532 44.6769 58.1571 44.6399 58.2011 44.6013C58.2411 44.5656 58.2683 44.5669 58.3123 44.5691C58.3394 44.5704 58.3907 44.5721 58.5028 44.5163L59.004 44.2689C59.1195 44.2062 59.2009 44.1641 59.2958 44.1358L59.2975 44.1379ZM55.0713 53.5695C55.0721 53.5686 55.0726 53.5682 55.0713 53.5695V53.5695ZM26.0749 44.5588H26.2443C26.277 44.3745 26.3538 44.3544 26.5063 44.3153C26.5658 44.2998 26.6438 44.2796 26.7429 44.2277C27.0407 44.0722 27.6497 43.8828 27.9919 43.7532C28.141 43.6879 28.3427 43.678 28.5315 43.669C28.6164 43.6647 28.6992 43.6608 28.766 43.6522C29 43.6222 29.0681 43.5844 29.1267 43.5513C29.2142 43.5028 29.2866 43.4624 29.5861 43.4564C29.6995 43.4543 29.8391 43.4457 29.9869 43.4367C30.4321 43.4096 30.9562 43.3778 31.3169 43.4908C31.3475 43.4998 31.3924 43.5256 31.4225 43.5402C31.5876 43.6144 31.782 43.6243 31.9832 43.6342C32.0612 43.6381 32.1405 43.6419 32.2229 43.6501C32.4155 43.6686 32.5228 43.7128 32.6405 43.7613C32.8051 43.8292 32.9934 43.9065 33.5326 43.9172L33.6253 43.9189L33.6403 44.0104C33.6584 44.1195 33.6903 44.1259 33.7554 44.1383C33.8326 44.1534 33.9338 44.1731 34.07 44.244L34.6126 44.5175C34.7277 44.5734 34.779 44.5686 34.8053 44.5665C34.8497 44.5631 34.8768 44.5605 34.9195 44.5966C34.9643 44.6348 34.9678 44.673 34.9764 44.7726H35.2479V44.9766L35.2867 44.9779C35.6737 44.9882 35.7116 44.9895 35.7198 45.3064H35.9672V45.5181H36.2004V45.7341H36.4301V45.9531H36.6516V46.1811H36.8697V46.4126H37.0817V46.6582C37.3994 46.6668 37.4007 46.7046 37.4123 47.0928L37.4132 47.1276H37.6183V47.399L37.6687 47.4007C37.7278 47.4016 37.7528 47.402 37.7885 47.4445C37.8256 47.4875 37.8204 47.5111 37.8131 47.5527C37.8097 47.5716 37.801 47.6172 37.873 47.761L38.1488 48.3017C38.2294 48.4554 38.248 48.5623 38.2609 48.6383C38.2691 48.6873 38.2725 48.7058 38.3837 48.7217L38.4777 48.735L38.4794 48.8299C38.4859 49.1786 38.5264 49.2305 38.5686 49.2851C38.6229 49.3546 38.6794 49.4281 38.7082 49.7042C38.7121 49.7428 38.7147 49.7841 38.7164 49.8261C38.7195 49.8867 38.7229 49.949 38.7324 49.9971C38.7367 50.0185 38.7393 50.0379 38.7401 50.0555C38.747 50.0683 38.7531 50.0829 38.7595 50.0993L38.8056 50.1886C38.8962 50.3732 38.9474 50.694 38.9707 51.0406C39.0005 51.482 38.9867 51.9724 38.9526 52.2692C38.9401 52.3783 38.9393 52.4418 38.9388 52.4804C38.938 52.535 38.9375 52.5633 38.9134 52.5985C38.8707 52.6608 38.8388 52.6578 38.7746 52.6531L38.7535 52.6518L38.7539 52.7334C38.7569 53.019 38.7574 53.11 38.5044 53.1521V53.3956H38.254C38.2199 53.6094 38.1557 53.6167 38.0148 53.6322C37.9808 53.6361 37.9372 53.6408 37.8838 53.6605C37.9553 53.7352 37.8769 53.7567 37.5144 53.8198C37.3563 53.8469 36.8602 53.8405 36.6404 53.8014C36.5538 53.7859 36.5219 53.7803 36.5038 53.7726C36.493 53.7692 36.4831 53.7649 36.474 53.7593C36.3667 53.7112 36.3206 53.6764 36.3163 53.6498L36.2672 53.6386C36.1193 53.6064 36.04 53.5888 36.0051 53.3883H35.7552V53.1431C35.4983 53.104 35.5 53.0104 35.5048 52.7261L35.5061 52.6295C35.285 52.5973 35.2863 52.5504 35.2966 52.2164C35.2992 52.1313 35.3026 52.0205 35.3009 51.8784C35.2992 51.7174 35.2932 51.5529 35.2876 51.3884L35.2781 51.0831H35.0372L35.0359 50.9732C35.0328 50.7331 35.0156 50.5429 34.9768 50.3677C34.9385 50.1946 34.8773 50.0318 34.7855 49.8438C34.7605 49.7918 34.7467 49.748 34.7406 49.7111L34.5553 49.6952V49.4216C34.314 49.3838 34.3131 49.2919 34.3105 49.0089L34.3101 48.9578H34.0963V48.7229H33.8787V48.4966H33.6528V48.2806H33.4115V48.0711L33.3662 48.0706C33.0809 48.0672 32.9865 48.0659 32.9469 47.8267H32.6689L32.6603 47.7245C32.6573 47.6867 32.656 47.6554 32.656 47.6296C32.6129 47.6262 32.5547 47.618 32.4784 47.6C32.4065 47.5824 32.1306 47.4892 32.0681 47.4561C32.0401 47.4411 32.0306 47.4278 32.0199 47.4106C32.0194 47.4097 32.0181 47.4085 31.8919 47.381L31.0717 47.3299V47.0911L29.4284 47.1186V47.3303L28.1561 47.752C27.9811 47.8422 27.9415 47.8448 27.7842 47.8473V48.0483H27.5295V48.2527H27.2929V48.467H27.0632V48.6852H26.8455V48.9162H26.6373V49.2353H26.4331V49.4856L26.3296 49.4933C26.2189 49.5015 26.1977 49.511 26.1986 49.5208C26.1995 49.5354 26.2042 49.5539 26.2085 49.5719C26.2163 49.6033 26.2236 49.6351 26.2249 49.6703C26.2292 49.7914 26.1792 49.8931 25.9275 49.9223C25.8926 50.3689 25.8461 50.4252 25.7844 50.4986C25.7706 50.5154 25.7547 50.5338 25.7379 50.5708C25.659 50.7413 25.6495 50.8989 25.6409 51.0479C25.6319 51.202 25.6232 51.3493 25.5513 51.5069C25.5358 51.54 25.5233 51.5525 25.5116 51.564L25.5103 51.5653C25.5077 51.5679 25.5155 51.5606 25.5021 51.6216C25.4401 51.9063 25.4392 52.2567 25.4388 52.5745C25.4388 52.6668 25.4384 52.757 25.4371 52.8407L25.4349 52.9502H25.2466V53.2045H25.0384V53.4218H24.7863L24.7785 53.4853C24.7708 53.5506 24.7665 53.5785 24.7328 53.6086C24.6527 53.6816 24.6238 53.6498 24.5712 53.6017C24.5686 53.5991 24.5617 53.5927 24.5005 53.6223C24.4402 53.6515 24.3902 53.664 24.3493 53.6665L24.3299 53.8164L24.2342 53.819C24.0316 53.8237 23.833 53.8271 23.6515 53.813C23.4606 53.7979 23.2839 53.7636 23.1322 53.6927C22.9882 53.6253 22.9188 53.6275 22.8809 53.6283C22.8374 53.6296 22.8085 53.63 22.7689 53.6017C22.7202 53.5673 22.7081 53.5257 22.6917 53.4252H22.4379V53.2096H22.2297V52.9593H21.9664L21.9642 52.8498C21.9547 52.3061 21.9513 51.823 21.956 51.3395C21.9608 50.8538 21.9733 50.3698 21.9957 49.8257L22 49.7188H22.2413C22.2426 49.632 22.2422 49.5599 22.2418 49.4994C22.2396 49.1476 22.2392 49.0849 22.4659 49.0545C22.4788 48.7285 22.5318 48.631 22.64 48.4301C22.6706 48.373 22.7064 48.3068 22.7469 48.2235C22.765 48.1883 22.7818 48.157 22.802 48.1235L23.0602 47.6382C23.1318 47.5102 23.146 47.4338 23.155 47.3861C23.1809 47.2448 23.1865 47.2161 23.3757 47.1959V46.8596H23.5808V46.6209L23.6838 46.6127C23.8282 46.6011 23.8235 46.5762 23.8183 46.5522C23.8131 46.5268 23.808 46.5006 23.8075 46.4706C23.8062 46.3538 23.8601 46.255 24.1446 46.2327V45.9999H24.3635V45.7736H24.6057C24.6497 45.4816 24.7828 45.5031 24.9156 45.5246C24.9401 45.5284 24.9647 45.5323 24.9751 45.3863L24.9824 45.2828H25.2207V45.0041H25.4836C25.5233 44.758 25.6103 44.7584 25.8948 44.7597H25.9633V44.5622H26.0753L26.0749 44.5588Z" fill="#684C9E"/>
</svg>
