<svg width="106" height="106" viewBox="0 0 106 106" fill="none" xmlns="http://www.w3.org/2000/svg">
<g clip-path="url(#clip0_9_1706)">
<path d="M20.6967 105.85H12.6466C12.1129 105.85 11.601 105.638 11.2235 105.261C10.8461 104.883 10.6341 104.372 10.6341 103.839C10.6341 103.305 10.8461 102.794 11.2235 102.416C11.601 102.039 12.1129 101.827 12.6466 101.827H20.6967C21.2305 101.827 21.7424 101.616 22.1198 101.238C22.4972 100.861 22.7093 100.35 22.7093 99.8163V37.4712C22.699 31.2778 24.4805 25.2133 27.8393 20.0082C31.1981 14.803 35.9909 10.679 41.6407 8.13275C47.2905 5.58649 53.5565 4.72652 59.684 5.65639C65.8116 6.58626 71.5396 9.26632 76.1782 13.3739L83.6749 5.8824C84.0545 5.51606 84.5629 5.31335 85.0905 5.31793C85.6182 5.32251 86.123 5.53402 86.4961 5.9069C86.8693 6.27978 87.0809 6.7842 87.0855 7.31151C87.0901 7.83882 86.8872 8.34684 86.5206 8.72614L79.024 16.2176C84.2315 22.0745 87.1086 29.6365 87.1103 37.4712V48.9347L94.8223 60.4886C95.1079 60.9164 95.2186 61.4372 95.1318 61.9441C95.0449 62.4509 94.7671 62.9052 94.3554 63.2137L87.1103 68.6438V81.7161C87.1103 83.3163 86.4742 84.8509 85.3419 85.9824C84.2097 87.1139 82.674 87.7495 81.0727 87.7495H66.985V99.8163C66.985 100.35 67.197 100.861 67.5744 101.238C67.9519 101.616 68.4638 101.827 68.9975 101.827H85.0978C85.6315 101.827 86.1434 102.039 86.5209 102.416C86.8983 102.794 87.1103 103.305 87.1103 103.839C87.1103 104.372 86.8983 104.883 86.5209 105.261C86.1434 105.638 85.6315 105.85 85.0978 105.85H68.9975C67.3962 105.85 65.8606 105.214 64.7283 104.083C63.596 102.951 62.9599 101.416 62.9599 99.8163V85.7384C62.9599 85.205 63.172 84.6935 63.5494 84.3163C63.9268 83.9391 64.4387 83.7272 64.9725 83.7272H81.0727C81.6065 83.7272 82.1184 83.5154 82.4958 83.1382C82.8732 82.761 83.0852 82.2495 83.0852 81.7161V67.6382C83.0852 67.326 83.158 67.0181 83.2977 66.7388C83.4374 66.4595 83.6403 66.2166 83.8903 66.0293L90.4169 61.1382L83.4233 50.6542C83.2035 50.3234 83.0859 49.9352 83.0852 49.538V37.4712C83.0856 30.702 80.6319 24.1618 76.1782 19.0613L70.4828 24.7528C73.7564 28.7538 75.3659 33.8591 74.9784 39.0127C74.591 44.1662 72.2361 48.9738 68.401 52.4411C64.5658 55.9083 59.5438 57.7698 54.3737 57.6406C49.2036 57.5114 44.281 55.4014 40.6241 51.747C36.9671 48.0926 34.8556 43.1734 34.7264 38.0069C34.5971 32.8404 36.4599 27.8219 39.9296 23.9895C43.3992 20.157 48.2101 17.8038 53.3673 17.4166C58.5245 17.0293 63.6333 18.6378 67.637 21.9091L73.3325 16.2176C69.2572 12.6748 64.2474 10.3792 58.9016 9.60521C53.5558 8.83119 48.1001 9.61142 43.1861 11.8527C38.2721 14.094 34.1077 17.7015 31.1904 22.2444C28.273 26.7873 26.7261 32.0734 26.7343 37.4712V99.8163C26.7343 101.416 26.0982 102.951 24.966 104.083C23.8337 105.214 22.298 105.85 20.6967 105.85ZM54.9098 21.3822C51.257 21.371 47.7083 22.5974 44.8429 24.8613C41.9774 27.1251 39.9644 30.2926 39.1324 33.8469C38.3004 37.4012 38.6985 41.1323 40.2618 44.4314C41.8251 47.7305 44.4612 50.4026 47.7399 52.0118C51.0186 53.6209 54.7462 54.072 58.3145 53.2914C61.8828 52.5108 65.081 50.5447 67.3871 47.7139C69.6932 44.883 70.971 41.3547 71.012 37.7047C71.053 34.0547 69.8548 30.4986 67.6129 27.6167L63.296 31.9306C64.6768 34.0153 65.2336 36.5381 64.8584 39.0098C64.4832 41.4816 63.2028 43.7259 61.2655 45.3077C59.3282 46.8894 56.872 47.6958 54.3735 47.5704C51.8749 47.445 49.512 46.3968 47.743 44.629C45.974 42.8613 44.925 40.5 44.7996 38.0032C44.6741 35.5063 45.481 33.0519 47.0639 31.1159C48.6467 29.18 50.8927 27.9004 53.3661 27.5255C55.8395 27.1506 58.3641 27.707 60.4503 29.0868L64.7712 24.777C61.9556 22.5768 58.484 21.3817 54.9098 21.3822ZM56.3327 38.8931C55.9531 39.2595 55.4447 39.4622 54.917 39.4576C54.3894 39.453 53.8846 39.2415 53.5114 38.8686C53.1383 38.4957 52.9267 37.9913 52.9221 37.464C52.9175 36.9367 53.1203 36.4287 53.4869 36.0494L57.4959 32.0412C56.6905 31.6476 55.8064 31.4413 54.9098 31.4378C53.7157 31.4378 52.5484 31.7917 51.5555 32.4547C50.5626 33.1176 49.7887 34.0599 49.3318 35.1624C48.8748 36.2648 48.7552 37.4779 48.9882 38.6483C49.2212 39.8187 49.7962 40.8937 50.6406 41.7375C51.4849 42.5813 52.5607 43.1559 53.7319 43.3887C54.9031 43.6215 56.1171 43.502 57.2203 43.0454C58.3235 42.5887 59.2665 41.8154 59.9299 40.8232C60.5933 39.831 60.9474 38.6645 60.9474 37.4712C60.9439 36.5753 60.7375 35.6918 60.3436 34.8869L56.3327 38.8931Z" fill="#684C9E"/>
</g>
<defs>
<clipPath id="clip0_9_1706">
<rect width="104.93" height="104.93" fill="white" transform="matrix(-1 0 0 1 105.363 0.869629)"/>
</clipPath>
</defs>
</svg>
