<svg width="93" height="94" viewBox="0 0 93 94" fill="none" xmlns="http://www.w3.org/2000/svg">
<path d="M46.4834 0.829102C37.3165 0.829102 28.3555 3.5474 20.7335 8.64025C13.1115 13.7331 7.17088 20.9718 3.66286 29.4409C0.154848 37.91 -0.763009 47.2291 1.02536 56.2199C2.81373 65.2106 7.22801 73.4691 13.71 79.9511C20.1919 86.4331 28.4505 90.8473 37.4412 92.6357C46.432 94.4241 55.7511 93.5062 64.2202 89.9982C72.6893 86.4902 79.928 80.5496 85.0208 72.9276C90.1137 65.3056 92.832 56.3446 92.832 47.1777C92.8185 34.8894 87.9311 23.1083 79.2419 14.4191C70.5528 5.72999 58.7717 0.842538 46.4834 0.829102ZM46.4834 5.24325C55.6731 5.25934 64.6035 8.291 71.9037 13.8728C79.204 19.4547 84.4705 27.2782 86.8949 36.1423H75.0518C69.5282 36.1583 64.1105 34.6272 59.4124 31.7223C54.7143 28.8174 50.9236 24.6549 48.4697 19.7062C48.2658 19.3642 47.9766 19.0809 47.6303 18.8843C47.284 18.6876 46.8926 18.5842 46.4944 18.5842C46.0962 18.5842 45.7048 18.6876 45.3585 18.8843C45.0123 19.0809 44.723 19.3642 44.5191 19.7062C42.0636 24.6582 38.2694 28.823 33.5671 31.7281C28.8647 34.6333 23.4423 36.1625 17.915 36.1423H6.07182C8.4962 27.2782 13.7628 19.4547 21.063 13.8728C28.3633 8.291 37.2937 5.25934 46.4834 5.24325ZM46.4834 89.1121C40.4053 89.1542 34.3918 87.8653 28.8648 85.336C23.3379 82.8067 18.4316 79.0983 14.4903 74.4712C10.549 69.844 7.66828 64.4102 6.05039 58.5513C4.4325 52.6924 4.11664 46.5504 5.12498 40.5565H17.915C23.5874 40.5766 29.1744 39.1745 34.1651 36.4783C39.1558 33.7821 43.391 29.8778 46.4834 25.1224C49.5758 29.8778 53.811 33.7821 58.8017 36.4783C63.7924 39.1745 69.3793 40.5766 75.0518 40.5565H87.8418C88.8501 46.5504 88.5342 52.6924 86.9164 58.5513C85.2985 64.4102 82.4178 69.844 78.4765 74.4712C74.5352 79.0983 69.6289 82.8067 64.1019 85.336C58.575 87.8653 52.5614 89.1542 46.4834 89.1121Z" fill="#684C9E"/>
<path d="M46.4834 0.829102C37.3165 0.829102 28.3555 3.5474 20.7335 8.64025C13.1115 13.7331 7.17088 20.9718 3.66286 29.4409C0.154848 37.91 -0.763009 47.2291 1.02536 56.2199C2.81373 65.2106 7.22801 73.4691 13.71 79.9511C20.1919 86.4331 28.4505 90.8473 37.4412 92.6357C46.432 94.4241 55.7511 93.5062 64.2202 89.9982C72.6893 86.4902 79.928 80.5496 85.0208 72.9276C90.1137 65.3056 92.832 56.3446 92.832 47.1777C92.8185 34.8894 87.9311 23.1083 79.2419 14.4191C70.5528 5.72999 58.7717 0.842538 46.4834 0.829102ZM46.4834 5.24325C55.6731 5.25934 64.6035 8.291 71.9037 13.8728C79.204 19.4547 84.4705 27.2782 86.8949 36.1423H75.0518C69.5282 36.1583 64.1105 34.6272 59.4124 31.7223C54.7143 28.8174 50.9236 24.6549 48.4697 19.7062C48.2658 19.3642 47.9766 19.0809 47.6303 18.8843C47.284 18.6876 46.8926 18.5842 46.4944 18.5842C46.0962 18.5842 45.7048 18.6876 45.3585 18.8843C45.0123 19.0809 44.723 19.3642 44.5191 19.7062C42.0636 24.6582 38.2694 28.823 33.5671 31.7281C28.8647 34.6333 23.4423 36.1625 17.915 36.1423H6.07182C8.4962 27.2782 13.7628 19.4547 21.063 13.8728C28.3633 8.291 37.2937 5.25934 46.4834 5.24325ZM46.4834 89.1121C40.4053 89.1542 34.3918 87.8653 28.8648 85.336C23.3379 82.8067 18.4316 79.0983 14.4903 74.4712C10.549 69.844 7.66828 64.4102 6.05039 58.5513C4.4325 52.6924 4.11664 46.5504 5.12498 40.5565H17.915C23.5874 40.5766 29.1744 39.1745 34.1651 36.4783C39.1558 33.7821 43.391 29.8778 46.4834 25.1224C49.5758 29.8778 53.811 33.7821 58.8017 36.4783C63.7924 39.1745 69.3793 40.5766 75.0518 40.5565H87.8418C88.8501 46.5504 88.5342 52.6924 86.9164 58.5513C85.2985 64.4102 82.4178 69.844 78.4765 74.4712C74.5352 79.0983 69.6289 82.8067 64.1019 85.336C58.575 87.8653 52.5614 89.1542 46.4834 89.1121Z" stroke="#684C9E"/>
<path d="M27.2668 74.3091C26.8647 74.7253 26.6423 75.2828 26.6473 75.8615C26.6523 76.4402 26.8844 76.9938 27.2937 77.403C27.7029 77.8122 28.2564 78.0443 28.8351 78.0493C29.4138 78.0544 29.9713 77.8319 30.3876 77.4299C34.66 73.1675 40.4487 70.7737 46.4838 70.7737C52.5189 70.7737 58.3075 73.1675 62.58 77.4299C62.9962 77.8319 63.5538 78.0544 64.1324 78.0493C64.7111 78.0443 65.2647 77.8122 65.6739 77.403C66.0831 76.9938 66.3152 76.4402 66.3203 75.8615C66.3253 75.2828 66.1028 74.7253 65.7008 74.3091C60.6 69.2202 53.689 66.3623 46.4838 66.3623C39.2786 66.3623 32.3676 69.2202 27.2668 74.3091Z" fill="#684C9E"/>
<path d="M27.2668 74.3091C26.8647 74.7253 26.6423 75.2828 26.6473 75.8615C26.6523 76.4402 26.8844 76.9938 27.2937 77.403C27.7029 77.8122 28.2564 78.0443 28.8351 78.0493C29.4138 78.0544 29.9713 77.8319 30.3876 77.4299C34.66 73.1675 40.4487 70.7737 46.4838 70.7737C52.5189 70.7737 58.3075 73.1675 62.58 77.4299C62.9962 77.8319 63.5538 78.0544 64.1324 78.0493C64.7111 78.0443 65.2647 77.8122 65.6739 77.403C66.0831 76.9938 66.3152 76.4402 66.3203 75.8615C66.3253 75.2828 66.1028 74.7253 65.7008 74.3091C60.6 69.2202 53.689 66.3623 46.4838 66.3623C39.2786 66.3623 32.3676 69.2202 27.2668 74.3091Z" stroke="#684C9E"/>
<path d="M65.519 43.2459C65.1276 42.9325 64.6411 42.7617 64.1396 42.7617C63.6381 42.7617 63.1516 42.9325 62.7602 43.2459C62.4711 43.4776 55.6446 49.0196 55.5121 56.1639C55.4899 57.2866 55.6933 58.4023 56.1104 59.4449C56.5274 60.4875 57.1496 61.4357 57.9399 62.2334C58.7491 63.0555 59.7138 63.7084 60.7778 64.1541C61.8418 64.5998 62.9838 64.8293 64.1374 64.8293C65.291 64.8293 66.433 64.5998 67.497 64.1541C68.561 63.7084 69.5257 63.0555 70.3349 62.2334C71.1252 61.4357 71.7474 60.4875 72.1644 59.4449C72.5815 58.4023 72.7849 57.2866 72.7627 56.1639C72.6346 49.0196 65.8082 43.4776 65.519 43.2459ZM67.1876 59.1368C66.3712 59.9299 65.2778 60.3735 64.1396 60.3735C63.0014 60.3735 61.908 59.9299 61.0916 59.1368C60.7134 58.7568 60.4153 58.3047 60.2151 57.8072C60.015 57.3098 59.9167 56.7773 59.9263 56.2412C60.309 53.0782 61.8021 50.1538 64.1396 47.9889C66.4788 50.1543 67.9721 53.0808 68.3529 56.2456C68.3625 56.7817 68.2642 57.3142 68.0641 57.8117C67.8639 58.3091 67.5658 58.7612 67.1876 59.1413V59.1368Z" fill="#684C9E"/>
<path d="M65.519 43.2459C65.1276 42.9325 64.6411 42.7617 64.1396 42.7617C63.6381 42.7617 63.1516 42.9325 62.7602 43.2459C62.4711 43.4776 55.6446 49.0196 55.5121 56.1639C55.4899 57.2866 55.6933 58.4023 56.1104 59.4449C56.5274 60.4875 57.1496 61.4357 57.9399 62.2334C58.7491 63.0555 59.7138 63.7084 60.7778 64.1541C61.8418 64.5998 62.9838 64.8293 64.1374 64.8293C65.291 64.8293 66.433 64.5998 67.497 64.1541C68.561 63.7084 69.5257 63.0555 70.3349 62.2334C71.1252 61.4357 71.7474 60.4875 72.1644 59.4449C72.5815 58.4023 72.7849 57.2866 72.7627 56.1639C72.6346 49.0196 65.8082 43.4776 65.519 43.2459ZM67.1876 59.1368C66.3712 59.9299 65.2778 60.3735 64.1396 60.3735C63.0014 60.3735 61.908 59.9299 61.0916 59.1368C60.7134 58.7568 60.4153 58.3047 60.2151 57.8072C60.015 57.3098 59.9167 56.7773 59.9263 56.2412C60.309 53.0782 61.8021 50.1538 64.1396 47.9889C66.4788 50.1543 67.9721 53.0808 68.3529 56.2456C68.3625 56.7817 68.2642 57.3142 68.0641 57.8117C67.8639 58.3091 67.5658 58.7612 67.1876 59.1413V59.1368Z" stroke="#684C9E"/>
</svg>
