<svg width="90" height="96" viewBox="0 0 90 96" fill="none" xmlns="http://www.w3.org/2000/svg">
<path d="M36.3538 21.0473V22.9607C36.3584 25.671 37.3211 28.2925 39.0717 30.3616C40.8224 32.4308 43.2482 33.8143 45.9204 34.2678V40.1805H43.1083C42.6008 40.1805 42.1142 40.3821 41.7554 40.7409C41.3966 41.0998 41.195 41.5864 41.195 42.0939C41.195 42.6013 41.3966 43.088 41.7554 43.4468C42.1142 43.8056 42.6008 44.0072 43.1083 44.0072H52.5105C53.0179 44.0072 53.5046 43.8056 53.8634 43.4468C54.2222 43.088 54.4238 42.6013 54.4238 42.0939C54.4238 41.5864 54.2222 41.0998 53.8634 40.7409C53.5046 40.3821 53.0179 40.1805 52.5105 40.1805H49.747V34.2678C52.4192 33.8143 54.845 32.4308 56.5956 30.3616C58.3463 28.2925 59.309 25.671 59.3136 22.9607V21.0473H59.5266C60.034 21.0473 60.5207 20.8458 60.8795 20.4869C61.2383 20.1281 61.4399 19.6415 61.4399 19.134C61.4399 18.6266 61.2383 18.1399 60.8795 17.7811C60.5207 17.4223 60.034 17.2207 59.5266 17.2207H57.4003C57.149 17.2206 56.9001 17.27 56.6679 17.3661C56.4357 17.4622 56.2247 17.6031 56.047 17.7808C55.8693 17.9585 55.7284 18.1695 55.6323 18.4017C55.5362 18.6339 55.4868 18.8827 55.487 19.134V22.9607C55.4821 24.6528 54.9159 26.2956 53.8772 27.6314C52.8384 28.9672 51.3858 29.9206 49.747 30.3423V19.134C49.747 18.6266 49.5454 18.1399 49.1866 17.7811C48.8278 17.4223 48.3411 17.2207 47.8337 17.2207C47.3262 17.2207 46.8396 17.4223 46.4807 17.7811C46.1219 18.1399 45.9204 18.6266 45.9204 19.134V30.3423C44.2815 29.9206 42.8289 28.9672 41.7902 27.6314C40.7514 26.2956 40.1853 24.6528 40.1804 22.9607V19.134C40.1805 18.8827 40.1311 18.6339 40.035 18.4017C39.9389 18.1695 39.798 17.9585 39.6203 17.7808C39.4426 17.6031 39.2316 17.4622 38.9994 17.3661C38.7672 17.27 38.5184 17.2206 38.2671 17.2207H36.3538C35.8463 17.2207 35.3596 17.4223 35.0008 17.7811C34.642 18.1399 34.4404 18.6266 34.4404 19.134C34.4404 19.6415 34.642 20.1281 35.0008 20.4869C35.3596 20.8458 35.8463 21.0473 36.3538 21.0473Z" fill="#684C9E"/>
<path d="M63.137 61.2266H32.5239C32.0165 61.2266 31.5298 61.4281 31.171 61.787C30.8122 62.1458 30.6106 62.6324 30.6106 63.1399C30.6106 63.6473 30.8122 64.134 31.171 64.4928C31.5298 64.8516 32.0165 65.0532 32.5239 65.0532H63.137C63.6445 65.0532 64.1311 64.8516 64.49 64.4928C64.8488 64.134 65.0504 63.6473 65.0504 63.1399C65.0504 62.6324 64.8488 62.1458 64.49 61.787C64.1311 61.4281 63.6445 61.2266 63.137 61.2266Z" fill="#684C9E"/>
<path d="M57.4003 76.5322H38.2671C37.7596 76.5322 37.273 76.7338 36.9142 77.0926C36.5553 77.4514 36.3538 77.9381 36.3538 78.4455C36.3538 78.953 36.5553 79.4397 36.9142 79.7985C37.273 80.1573 37.7596 80.3589 38.2671 80.3589H57.4003C57.9077 80.3589 58.3944 80.1573 58.7532 79.7985C59.112 79.4397 59.3136 78.953 59.3136 78.4455C59.3136 77.9381 59.112 77.4514 58.7532 77.0926C58.3944 76.7338 57.9077 76.5322 57.4003 76.5322Z" fill="#684C9E"/>
<path d="M86.0816 41.4484C87.2045 41.0544 88.1774 40.3215 88.8658 39.3509C89.5543 38.3803 89.9244 37.2198 89.9251 36.0298V21.3699C89.9243 20.1799 89.5541 19.0195 88.8657 18.049C88.1772 17.0784 87.2044 16.3454 86.0816 15.9514L80.3585 13.9483V5.73996C80.3568 4.21814 79.7515 2.75912 78.6755 1.68303C77.5994 0.606939 76.1404 0.00166114 74.6185 0H5.73899C4.21716 0.00166114 2.75815 0.606939 1.68205 1.68303C0.605962 2.75912 0.000684574 4.21814 -0.000976562 5.73996V89.9261C0.000684574 91.4479 0.605962 92.9069 1.68205 93.983C2.75815 95.0591 4.21716 95.6644 5.73899 95.666H74.6185C76.1404 95.6644 77.5994 95.0591 78.6755 93.983C79.7515 92.9069 80.3568 91.4479 80.3585 89.9261V81.7177L86.0816 79.7148C87.2045 79.3208 88.1774 78.5879 88.8658 77.6173C89.5543 76.6467 89.9244 75.4862 89.9251 74.2962V59.6363C89.9243 58.4463 89.5541 57.2859 88.8657 56.3154C88.1772 55.3448 87.2044 54.6118 86.0816 54.2178L80.3585 52.2147V43.4513L86.0816 41.4484ZM84.8185 19.5648C85.1927 19.6958 85.5169 19.9399 85.7462 20.2633C85.9755 20.5867 86.0986 20.9734 86.0984 21.3699V36.0299C86.0986 36.4264 85.9755 36.8131 85.7462 37.1364C85.5168 37.4598 85.1926 37.7039 84.8184 37.8349L80.3585 39.3968V18.0028L84.8185 19.5648ZM3.82566 26.7865H15.3056V68.8795H3.82566V26.7865ZM5.73899 3.82664H15.3056V22.9598H3.82566V5.73996C3.826 5.23262 4.02769 4.74616 4.38644 4.38741C4.74518 4.02867 5.23165 3.82698 5.73899 3.82664ZM3.82566 89.9261V72.7062H15.3056V91.8394H5.73899C5.23165 91.839 4.74518 91.6373 4.38644 91.2786C4.02769 90.9199 3.826 90.4334 3.82566 89.9261ZM76.5318 89.9261C76.5315 90.4334 76.3298 90.9199 75.9711 91.2786C75.6123 91.6373 75.1259 91.839 74.6185 91.8394H19.1322V3.82664H74.6185C75.1259 3.82698 75.6123 4.02867 75.9711 4.38741C76.3298 4.74616 76.5315 5.23262 76.5318 5.73996V89.9261ZM84.8184 57.8312C85.1926 57.9622 85.5169 58.2063 85.7462 58.5297C85.9755 58.8531 86.0986 59.2398 86.0984 59.6363V74.2963C86.0986 74.6928 85.9755 75.0795 85.7462 75.4028C85.5168 75.7262 85.1926 75.9703 84.8184 76.1013L80.3585 77.6632V56.2692L84.8184 57.8312Z" fill="#684C9E"/>
</svg>
