<svg width="599" height="810" viewBox="0 0 599 810" fill="none" xmlns="http://www.w3.org/2000/svg">
<g opacity="0.3">
<path d="M588.038 505.944C582.838 333.52 319.881 37.8559 299.082 15C278.469 37.8559 15.3262 333.52 10.1265 505.944C5.29817 667.216 139.376 797.951 299.082 798.683C458.788 797.951 592.866 667.033 588.038 505.944Z" stroke="#A185DA" stroke-opacity="0.8" stroke-width="20" stroke-miterlimit="10"/>
<path d="M520.998 575.244C517.099 443.594 316.167 217.778 300.382 200.225C284.597 217.778 83.6653 443.594 79.7655 575.244C76.0514 698.3 178.374 798.317 300.382 798.866C422.39 798.317 524.712 698.3 520.998 575.244Z" stroke="#A185DA" stroke-opacity="0.8" stroke-width="20" stroke-miterlimit="10"/>
<path d="M441.151 657.341C438.736 573.414 310.601 429.513 300.573 418.359C290.544 429.513 162.409 573.414 159.994 657.341C157.58 735.782 222.948 799.596 300.573 799.961C378.383 799.596 443.565 735.965 441.151 657.341Z" stroke="#A185DA" stroke-opacity="0.8" stroke-width="20" stroke-miterlimit="10"/>
<path d="M441.151 250.506C438.736 334.433 310.601 478.334 300.573 489.488C290.544 478.334 162.409 334.433 159.994 250.506C157.58 172.065 222.948 108.251 300.573 107.886C378.383 108.251 443.565 171.882 441.151 250.506Z" stroke="#A185DA" stroke-opacity="0.8" stroke-width="20" stroke-miterlimit="10"/>
</g>
</svg>
