<svg width="22" height="22" viewBox="0 0 22 22" fill="none" xmlns="http://www.w3.org/2000/svg">
<path d="M18.6209 3.36816C16.6493 1.38967 13.9311 0.169922 10.9354 0.169922C7.93012 0.169922 5.21197 1.38967 3.24035 3.36816C1.26873 5.34665 0.0532227 8.07427 0.0532227 11.09C0.0532227 14.1058 1.26873 16.8334 3.24035 18.8023C5.21197 20.7808 7.93012 22.0005 10.9354 22.0005C13.9407 22.0005 16.6588 20.7808 18.6209 18.8023C20.5925 16.8238 21.808 14.0962 21.808 11.09C21.808 8.07427 20.5925 5.34665 18.6209 3.36816Z" fill="white"/>
<path d="M5.61411 5.98032L10.0359 11.0226C10.2847 11.3107 10.6484 11.474 11.0313 11.474C11.4141 11.474 11.7778 11.3107 12.0267 11.0226L16.3719 6.07637C16.4102 6.03795 16.4484 5.99953 16.4963 5.98032C16.3144 5.90349 16.1039 5.85547 15.8933 5.85547H6.16923C5.96824 5.85547 5.76725 5.89389 5.59497 5.97072C5.60454 5.98032 5.61411 5.98032 5.61411 5.98993V5.98032Z" fill="#8F72C6"/>
<path d="M17.1752 7.7002C17.1561 7.74822 17.1274 7.79624 17.0891 7.84426L12.7439 12.7905C12.3132 13.2803 11.6911 13.5588 11.0402 13.5588C10.3894 13.5588 9.76729 13.2803 9.3366 12.7905L4.91481 7.75782C4.90524 7.74822 4.89567 7.73861 4.89567 7.72901C4.76168 7.95951 4.67554 8.21883 4.67554 8.50696V15.326C4.67554 16.1616 5.3455 16.8339 6.17818 16.8339H15.9023C16.7349 16.8339 17.4049 16.1616 17.4049 15.326V8.50696C17.4049 8.20922 17.3188 7.9403 17.1752 7.7098V7.7002Z" fill="#8F72C6"/>
</svg>
