<svg width="495" height="671" viewBox="0 0 495 671" fill="none" xmlns="http://www.w3.org/2000/svg">
<g opacity="0.3">
<path d="M487.207 418.854C482.888 275.612 264.435 29.9876 247.156 11C230.032 29.9876 11.4248 275.612 7.10507 418.854C3.09393 552.831 114.48 661.44 247.156 662.048C379.832 661.44 491.219 552.679 487.207 418.854Z" fill="#9274CE" stroke="#8162BE" stroke-width="14" stroke-miterlimit="10"/>
<path d="M431.514 476.425C428.274 367.056 261.349 179.458 248.236 164.876C235.122 179.458 68.1974 367.056 64.9577 476.425C61.8722 578.654 146.877 661.744 248.236 662.2C349.594 661.744 434.599 578.654 431.514 476.425Z" fill="#9274CE" stroke="#8162BE" stroke-width="14" stroke-miterlimit="10"/>
<path d="M365.18 544.627C363.175 474.905 256.725 355.359 248.395 346.093C240.064 355.359 133.614 474.905 131.609 544.627C129.603 609.793 183.908 662.806 248.395 663.11C313.036 662.806 367.186 609.945 365.18 544.627Z" fill="#9274CE" stroke="#8162BE" stroke-width="14" stroke-miterlimit="10"/>
<path d="M365.18 206.648C363.175 276.371 256.725 395.917 248.395 405.183C240.064 395.917 133.614 276.371 131.609 206.648C129.603 141.483 183.908 88.4692 248.395 88.1654C313.036 88.4692 367.186 141.331 365.18 206.648Z" fill="#9274CE" stroke="#8162BE" stroke-width="14" stroke-miterlimit="10"/>
</g>
</svg>
