<svg width="274" height="52" viewBox="0 0 274 52" fill="none" xmlns="http://www.w3.org/2000/svg">
<path d="M36.798 31.9242C36.6859 28.2532 34.6519 23.6206 31.9838 19.0783C27.389 11.2556 20.9407 3.74234 19.1067 1.66644C17.2776 3.74234 10.8147 11.2651 6.21993 19.0878C3.55185 23.6253 1.51786 28.2532 1.40567 31.9242L1.39592 32.3622C1.37153 37.1377 3.33235 41.4514 6.47845 44.6034C9.62455 47.7553 13.9559 49.7503 18.6775 49.8836L19.1067 49.8931L19.536 49.8836C24.2576 49.7503 28.5889 47.7506 31.7301 44.5986C34.8762 41.4419 36.8322 37.1282 36.8127 32.3574L36.8029 31.9194L36.798 31.9242ZM32.9593 18.5308C35.7054 23.2063 37.8028 28.0057 37.9199 31.8908L37.9297 32.3527C37.9541 37.4234 35.8713 42.0085 32.5301 45.3604C29.1889 48.7123 24.5844 50.8358 19.5604 50.9787L19.1019 50.9882L18.6385 50.9787C13.6145 50.8358 9.00508 48.7171 5.66388 45.3652C2.32267 42.0133 0.244786 37.4282 0.264296 32.3527L0.274052 31.8908C0.391116 28.0104 2.48851 23.2111 5.22976 18.5403C10.3708 9.78913 17.8142 1.41409 18.6726 0.466602L19.0921 0L19.5165 0.466602C20.3798 1.41885 27.8183 9.78912 32.9544 18.5308H32.9593Z" fill="white"/>
<path d="M32.5596 36.3088C32.4426 32.2712 29.2477 26.7101 25.9699 22.025C23.1653 18.0208 20.2972 14.6641 19.1851 13.3929C17.6632 15.126 12.8831 20.7395 9.45899 26.5672C7.43476 30.0192 5.88854 33.5282 5.80562 36.3088L5.80074 36.642C5.78611 40.2511 7.26404 43.5125 9.63947 45.8979C12.0149 48.2833 15.2878 49.7926 18.8583 49.8974L19.1851 49.9021L19.5119 49.8974C23.0823 49.7926 26.3552 48.2833 28.7307 45.8979C31.1061 43.5125 32.584 40.2511 32.5694 36.642L32.5645 36.3088H32.5596ZM26.8967 21.4061C30.272 26.2292 33.5547 31.9808 33.6815 36.2802L33.6864 36.642C33.7059 40.551 32.1011 44.0839 29.5306 46.6645C26.9552 49.2451 23.4091 50.8829 19.5363 50.9924L19.1802 50.9972L18.8241 50.9924C14.9464 50.8829 11.4003 49.2451 8.8249 46.6645C6.24949 44.0791 4.64961 40.5463 4.66912 36.6373L4.674 36.2802C4.7618 33.2901 6.36655 29.6097 8.47371 26.0245C12.4051 19.3349 18.0974 12.9263 18.7558 12.193L19.1802 11.7217L19.6046 12.193C20.107 12.7501 23.5555 16.6305 26.8967 21.4061Z" fill="white"/>
<path d="M27.5161 41.5082C27.4429 38.9799 25.4284 35.4709 23.3506 32.5094C21.6873 30.1335 19.985 28.1148 19.1948 27.2054C18.3997 28.1195 16.7023 30.1335 15.039 32.5094C12.9611 35.4709 10.9466 38.9799 10.8735 41.5082L10.8686 41.7224C10.8588 43.965 11.7807 45.9933 13.2587 47.4788C14.7366 48.9643 16.7755 49.907 18.9899 49.9689H19.3996C21.619 49.9022 23.6579 48.9643 25.1358 47.4835C26.6137 46.0028 27.5307 43.9697 27.521 41.7272L27.5161 41.5082ZM24.2822 31.8904C26.4528 34.9853 28.5599 38.6895 28.638 41.4748L28.6428 41.7129C28.6575 44.2649 27.6136 46.5646 25.9406 48.2453C24.2676 49.9261 21.9555 50.9878 19.4289 51.064H18.9607C16.4438 50.9926 14.1318 49.9261 12.4538 48.2406C10.7759 46.5599 9.7321 44.2554 9.74673 41.7129L9.75161 41.4796C9.82965 38.6943 11.9417 34.99 14.1122 31.8952C16.2487 28.8432 18.4583 26.3626 18.7753 26.0055L19.1997 25.5342L19.624 26.0055C19.9459 26.3626 22.1507 28.8432 24.2871 31.8952L24.2822 31.8904Z" fill="white"/>
<path d="M28.638 15.7543C28.5599 18.5396 26.4479 22.2439 24.2822 25.3387C22.1458 28.3907 19.9362 30.8713 19.6191 31.2284L19.1948 31.6997L18.7704 31.2284C18.3509 30.7618 14.7073 26.6623 12.1953 22.382C10.8393 20.0728 9.80527 17.6969 9.75161 15.7543L9.74673 15.521C9.7321 12.9737 10.7808 10.6741 12.4538 8.99334C14.1318 7.30786 16.4438 6.2461 18.9607 6.16992H19.4289C21.9555 6.24134 24.2627 7.30786 25.9406 8.98858C27.6136 10.6693 28.6575 12.9737 28.6428 15.521L28.638 15.7591V15.7543ZM23.3506 24.7197C25.4284 21.7582 27.4429 18.2492 27.5161 15.721L27.521 15.5067C27.5307 13.2594 26.6137 11.2311 25.1358 9.75038C23.6579 8.26487 21.6239 7.32691 19.3996 7.26501H18.9948C16.7803 7.32691 14.7415 8.26963 13.2635 9.75514C11.7856 11.2407 10.8637 13.2689 10.8735 15.5115L10.8784 15.7257C10.9271 17.4588 11.9027 19.6633 13.1757 21.8392C15.2439 25.3625 18.0924 28.762 19.1997 30.0285C19.9947 29.1144 21.6922 27.1004 23.3554 24.7245L23.3506 24.7197Z" fill="white"/>
<path d="M58.4924 47.023C57.7829 47.023 57.1756 46.9236 56.6705 46.725C56.1653 46.5206 55.7765 46.2255 55.504 45.8395C55.2316 45.4536 55.0954 44.9881 55.0954 44.4432C55.0954 43.8983 55.2316 43.4358 55.504 43.0555C55.7765 42.6695 56.1653 42.3744 56.6705 42.17C57.1756 41.9657 57.7829 41.8635 58.4924 41.8635C58.4981 41.8635 58.5123 41.8635 58.535 41.8635C58.5577 41.8635 58.5804 41.8635 58.6031 41.8635C58.6258 41.8635 58.64 41.8635 58.6457 41.8635C59.3609 41.8635 59.971 41.9657 60.4762 42.17C60.9814 42.3744 61.3702 42.6695 61.6426 43.0555C61.9151 43.4358 62.0513 43.8983 62.0513 44.4432C62.0513 44.9881 61.9151 45.4536 61.6426 45.8395C61.3758 46.2255 60.9899 46.5206 60.4847 46.725C59.9795 46.9236 59.3751 47.023 58.6712 47.023C58.6599 47.023 58.64 47.023 58.6116 47.023C58.5889 47.023 58.5634 47.023 58.535 47.023C58.5123 47.023 58.4981 47.023 58.4924 47.023ZM58.5606 46.5292C58.5719 46.5292 58.5833 46.5292 58.5946 46.5292C58.606 46.5292 58.6145 46.5292 58.6202 46.5292C59.2161 46.5235 59.7241 46.4412 60.1441 46.2823C60.5698 46.1177 60.8934 45.8821 61.1147 45.5756C61.3361 45.2634 61.4468 44.886 61.4468 44.4432C61.4468 43.9948 61.3333 43.6174 61.1062 43.3109C60.8849 43.0044 60.5642 42.7717 60.1441 42.6127C59.7298 42.4481 59.2275 42.3658 58.6372 42.3658C58.6315 42.3658 58.6202 42.3658 58.6031 42.3658C58.5861 42.3658 58.5719 42.3658 58.5606 42.3658C57.9589 42.3658 57.4452 42.4453 57.0195 42.6042C56.5938 42.7632 56.2675 42.9987 56.0404 43.3109C55.8134 43.6174 55.6999 43.9948 55.6999 44.4432C55.6999 44.8973 55.8134 45.2804 56.0404 45.5926C56.2731 45.8991 56.6023 46.1318 57.028 46.2908C57.4594 46.4497 57.9703 46.5292 58.5606 46.5292ZM58.2796 47.636V41.2675H58.8671V47.636H58.2796ZM64.0775 47.4316V41.4719H64.5969L67.3213 46.1205H67.0489L69.7478 41.4719H70.2672V47.4316H69.6627V42.4169H69.8074L67.3213 46.6739H67.0234L64.5203 42.4169H64.682V47.4316H64.0775ZM72.8715 47.4316V41.4719H77.2307V42.0083H73.493V43.9579H75.4427C76.1465 43.9579 76.6801 44.1027 77.0433 44.3922C77.4123 44.676 77.5968 45.096 77.5968 45.6522C77.5968 46.2255 77.3981 46.6654 77.0008 46.9719C76.6091 47.2784 76.0444 47.4316 75.3065 47.4316H72.8715ZM73.493 46.9293H75.298C75.8486 46.9293 76.2629 46.8243 76.541 46.6143C76.8248 46.3986 76.9667 46.0864 76.9667 45.6778C76.9667 44.8661 76.4105 44.4603 75.298 44.4603H73.493V46.9293ZM80.4369 44.6561V44.1367H83.7318V44.6561H80.4369ZM81.1861 41.4208C81.6118 41.4208 82.0035 41.4974 82.361 41.6507C82.7186 41.7982 83.0308 42.0083 83.2976 42.2807C83.57 42.5531 83.78 42.8738 83.9276 43.2428C84.0752 43.6117 84.149 44.0147 84.149 44.4518C84.149 44.8888 84.0752 45.2918 83.9276 45.6607C83.78 46.0297 83.57 46.3504 83.2976 46.6228C83.0308 46.8953 82.7186 47.1081 82.361 47.2614C82.0035 47.4089 81.6118 47.4827 81.1861 47.4827C80.732 47.4827 80.3092 47.4089 79.9175 47.2614C79.5259 47.1138 79.1995 46.8953 78.9384 46.6058L79.3301 46.2056C79.5798 46.461 79.8579 46.6455 80.1644 46.759C80.4709 46.8669 80.803 46.9208 81.1606 46.9208C81.4955 46.9208 81.8048 46.8584 82.0886 46.7335C82.3781 46.6086 82.6278 46.4355 82.8378 46.2141C83.0535 45.9928 83.221 45.7345 83.3402 45.4394C83.4593 45.1385 83.5189 44.8093 83.5189 44.4518C83.5189 44.0942 83.4593 43.7678 83.3402 43.4727C83.221 43.1718 83.0535 42.9107 82.8378 42.6894C82.6278 42.468 82.3781 42.2949 82.0886 42.17C81.8048 42.0451 81.4955 41.9827 81.1606 41.9827C80.803 41.9827 80.4709 42.0395 80.1644 42.153C79.8579 42.2665 79.5798 42.4481 79.3301 42.6979L78.9384 42.2977C79.1995 42.0083 79.5259 41.7897 79.9175 41.6422C80.3092 41.4946 80.732 41.4208 81.1861 41.4208ZM91.6819 47.4827C91.2335 47.4827 90.8191 47.4089 90.4389 47.2614C90.0586 47.1081 89.7294 46.8953 89.4512 46.6228C89.1731 46.3504 88.9546 46.0297 88.7957 45.6607C88.6424 45.2918 88.5658 44.8888 88.5658 44.4518C88.5658 44.0147 88.6424 43.6117 88.7957 43.2428C88.9546 42.8738 89.1731 42.5531 89.4512 42.2807C89.735 42.0083 90.0671 41.7982 90.4474 41.6507C90.8277 41.4974 91.242 41.4208 91.6904 41.4208C92.1218 41.4208 92.5276 41.4946 92.9079 41.6422C93.2882 41.7841 93.6089 41.9997 93.87 42.2892L93.4698 42.6894C93.2258 42.4396 92.9562 42.2608 92.661 42.153C92.3659 42.0395 92.048 41.9827 91.7074 41.9827C91.3499 41.9827 91.0178 42.0451 90.7113 42.17C90.4048 42.2892 90.138 42.4623 89.911 42.6894C89.684 42.9107 89.5052 43.1718 89.3746 43.4727C89.2497 43.7678 89.1873 44.0942 89.1873 44.4518C89.1873 44.8093 89.2497 45.1385 89.3746 45.4394C89.5052 45.7345 89.684 45.9956 89.911 46.2227C90.138 46.444 90.4048 46.6171 90.7113 46.742C91.0178 46.8612 91.3499 46.9208 91.7074 46.9208C92.048 46.9208 92.3659 46.864 92.661 46.7505C92.9562 46.637 93.2258 46.4554 93.4698 46.2056L93.87 46.6058C93.6089 46.8953 93.2882 47.1138 92.9079 47.2614C92.5276 47.4089 92.1189 47.4827 91.6819 47.4827ZM95.0604 46.7165L95.2903 46.2652C95.5514 46.4923 95.8437 46.6625 96.1672 46.7761C96.4964 46.8839 96.8256 46.9407 97.1548 46.9463C97.484 46.9463 97.7849 46.8981 98.0573 46.8016C98.3354 46.7051 98.5596 46.5632 98.7299 46.3759C98.9002 46.1829 98.9853 45.9502 98.9853 45.6778C98.9853 45.3315 98.8463 45.0648 98.5682 44.8775C98.2957 44.6901 97.9154 44.5965 97.4273 44.5965H96.1502V44.0857H97.3932C97.8133 44.0857 98.1396 43.9977 98.3723 43.8217C98.6107 43.6401 98.7299 43.3904 98.7299 43.0725C98.7299 42.8455 98.6618 42.6525 98.5256 42.4935C98.395 42.3289 98.2134 42.2041 97.9807 42.1189C97.7537 42.0281 97.4982 41.9799 97.2144 41.9742C96.9306 41.9628 96.6355 41.9997 96.329 42.0849C96.0282 42.1643 95.7358 42.2921 95.452 42.468L95.2477 41.9487C95.5996 41.7386 95.9657 41.5939 96.346 41.5144C96.7263 41.4293 97.0952 41.4009 97.4528 41.4293C97.8104 41.4577 98.1311 41.54 98.4149 41.6762C98.7044 41.8124 98.9343 41.9912 99.1045 42.2126C99.2748 42.4339 99.36 42.6979 99.36 43.0044C99.36 43.2882 99.2862 43.5379 99.1386 43.7536C98.9967 43.9693 98.7952 44.1367 98.5341 44.2559C98.2787 44.3695 97.975 44.4262 97.6231 44.4262L97.6572 44.2389C98.0545 44.2389 98.3979 44.3013 98.6873 44.4262C98.9825 44.5511 99.2095 44.7299 99.3685 44.9626C99.5331 45.1896 99.6154 45.4564 99.6154 45.7629C99.6154 46.0524 99.5416 46.3106 99.394 46.5377C99.2521 46.759 99.0534 46.9463 98.798 47.0996C98.5483 47.2472 98.2673 47.355 97.9551 47.4231C97.643 47.4856 97.3166 47.5026 96.976 47.4742C96.6355 47.4458 96.3006 47.372 95.9714 47.2528C95.6422 47.128 95.3385 46.9492 95.0604 46.7165ZM104.39 47.4827C103.941 47.4827 103.524 47.4089 103.138 47.2614C102.758 47.1081 102.426 46.8953 102.142 46.6228C101.864 46.3447 101.645 46.024 101.486 45.6607C101.333 45.2918 101.256 44.8888 101.256 44.4518C101.256 44.0147 101.333 43.6146 101.486 43.2513C101.645 42.8824 101.864 42.5617 102.142 42.2892C102.426 42.0111 102.758 41.7982 103.138 41.6507C103.518 41.4974 103.935 41.4208 104.39 41.4208C104.838 41.4208 105.252 41.4974 105.633 41.6507C106.013 41.7982 106.342 42.0083 106.62 42.2807C106.904 42.5531 107.122 42.8738 107.276 43.2428C107.435 43.6117 107.514 44.0147 107.514 44.4518C107.514 44.8888 107.435 45.2918 107.276 45.6607C107.122 46.0297 106.904 46.3504 106.62 46.6228C106.342 46.8953 106.013 47.1081 105.633 47.2614C105.252 47.4089 104.838 47.4827 104.39 47.4827ZM104.39 46.9208C104.747 46.9208 105.076 46.8612 105.377 46.742C105.684 46.6171 105.948 46.444 106.169 46.2227C106.396 45.9956 106.572 45.7345 106.697 45.4394C106.822 45.1385 106.884 44.8093 106.884 44.4518C106.884 44.0942 106.822 43.7678 106.697 43.4727C106.572 43.1718 106.396 42.9107 106.169 42.6894C105.948 42.4623 105.684 42.2892 105.377 42.17C105.076 42.0451 104.747 41.9827 104.39 41.9827C104.032 41.9827 103.7 42.0451 103.393 42.17C103.087 42.2892 102.82 42.4623 102.593 42.6894C102.372 42.9107 102.196 43.1718 102.065 43.4727C101.94 43.7678 101.878 44.0942 101.878 44.4518C101.878 44.8037 101.94 45.13 102.065 45.4309C102.196 45.7317 102.372 45.9956 102.593 46.2227C102.82 46.444 103.087 46.6171 103.393 46.742C103.7 46.8612 104.032 46.9208 104.39 46.9208ZM116.797 41.4719H117.418V47.4316H116.797V41.4719ZM113.068 47.4316H112.438V41.4719H113.068V47.4316ZM116.857 44.6816H113V44.1282H116.857V44.6816ZM119.149 47.4316L121.874 41.4719H122.495L125.22 47.4316H124.556L122.052 41.838H122.308L119.805 47.4316H119.149ZM120.222 45.8395L120.409 45.3287H123.874L124.062 45.8395H120.222ZM126.581 46.8442C126.871 46.9577 127.143 46.9861 127.399 46.9293C127.654 46.8669 127.89 46.6654 128.105 46.3248L128.395 45.8651L128.454 45.7884L130.736 41.4719H131.366L128.659 46.461C128.477 46.8073 128.261 47.0655 128.012 47.2358C127.767 47.4061 127.506 47.4969 127.228 47.5083C126.956 47.5196 126.681 47.4685 126.402 47.355L126.581 46.8442ZM128.437 46.3589L125.858 41.4719H126.53L128.778 45.8395L128.437 46.3589ZM136.77 44.9115C136.429 45.0648 136.089 45.1811 135.748 45.2606C135.413 45.34 135.09 45.3798 134.777 45.3798C134.079 45.3798 133.534 45.2123 133.143 44.8775C132.757 44.5369 132.564 44.0573 132.564 43.4386V41.4719H133.185V43.3705C133.185 43.8302 133.33 44.1878 133.62 44.4432C133.915 44.6987 134.321 44.8264 134.837 44.8264C135.144 44.8264 135.461 44.7866 135.791 44.7072C136.12 44.622 136.446 44.5028 136.77 44.3496V44.9115ZM136.659 47.4316V41.4719H137.272V47.4316H136.659ZM144.249 41.4719H144.87V47.4316H144.249V41.4719ZM140.52 47.4316H139.89V41.4719H140.52V47.4316ZM144.308 44.6816H140.452V44.1282H144.308V44.6816ZM150.092 47.4827C149.643 47.4827 149.226 47.4089 148.84 47.2614C148.46 47.1081 148.128 46.8953 147.844 46.6228C147.566 46.3447 147.347 46.024 147.189 45.6607C147.035 45.2918 146.959 44.8888 146.959 44.4518C146.959 44.0147 147.035 43.6146 147.189 43.2513C147.347 42.8824 147.566 42.5617 147.844 42.2892C148.128 42.0111 148.46 41.7982 148.84 41.6507C149.221 41.4974 149.638 41.4208 150.092 41.4208C150.54 41.4208 150.955 41.4974 151.335 41.6507C151.715 41.7982 152.044 42.0083 152.322 42.2807C152.606 42.5531 152.825 42.8738 152.978 43.2428C153.137 43.6117 153.216 44.0147 153.216 44.4518C153.216 44.8888 153.137 45.2918 152.978 45.6607C152.825 46.0297 152.606 46.3504 152.322 46.6228C152.044 46.8953 151.715 47.1081 151.335 47.2614C150.955 47.4089 150.54 47.4827 150.092 47.4827ZM150.092 46.9208C150.449 46.9208 150.779 46.8612 151.079 46.742C151.386 46.6171 151.65 46.444 151.871 46.2227C152.098 45.9956 152.274 45.7345 152.399 45.4394C152.524 45.1385 152.586 44.8093 152.586 44.4518C152.586 44.0942 152.524 43.7678 152.399 43.4727C152.274 43.1718 152.098 42.9107 151.871 42.6894C151.65 42.4623 151.386 42.2892 151.079 42.17C150.779 42.0451 150.449 41.9827 150.092 41.9827C149.734 41.9827 149.402 42.0451 149.096 42.17C148.789 42.2892 148.522 42.4623 148.295 42.6894C148.074 42.9107 147.898 43.1718 147.767 43.4727C147.643 43.7678 147.58 44.0942 147.58 44.4518C147.58 44.8037 147.643 45.13 147.767 45.4309C147.898 45.7317 148.074 45.9956 148.295 46.2227C148.522 46.444 148.789 46.6171 149.096 46.742C149.402 46.8612 149.734 46.9208 150.092 46.9208ZM154.889 45.3883V44.8604H157.119V45.3883H154.889ZM163.307 47.4316L161.017 44.4603L161.528 44.1538L164.031 47.4316H163.307ZM159.229 47.4316V41.4719H159.842V47.4316H159.229ZM159.655 44.6987V44.1453H161.52V44.6987H159.655ZM161.579 44.5199L161 44.4177L163.222 41.4719H163.903L161.579 44.5199ZM165.278 47.4827C165.198 47.4827 165.122 47.477 165.048 47.4657C164.974 47.46 164.892 47.4458 164.801 47.4231L164.852 46.8612C164.948 46.8839 165.042 46.8953 165.133 46.8953C165.388 46.8953 165.593 46.7959 165.746 46.5973C165.905 46.3929 166.024 46.0808 166.103 45.6607C166.183 45.235 166.234 44.6901 166.257 44.0261L166.342 41.4719H170.386V47.4316H169.764V41.8465L169.926 42.0168H166.742L166.895 41.838L166.819 44.009C166.796 44.605 166.753 45.1215 166.691 45.5586C166.629 45.9899 166.538 46.3504 166.419 46.6398C166.299 46.9236 166.146 47.1365 165.959 47.2784C165.771 47.4146 165.544 47.4827 165.278 47.4827ZM172.993 47.4316V41.4719H173.614V46.41L177.428 41.4719H177.999V47.4316H177.377V42.5021L173.563 47.4316H172.993ZM184.965 41.4719H185.587V47.4316H184.965V41.4719ZM181.236 47.4316H180.606V41.4719H181.236V47.4316ZM185.025 44.6816H181.168V44.1282H185.025V44.6816ZM188.194 47.4316V41.4719H188.816V46.41L192.63 41.4719H193.201V47.4316H192.579V42.5021L188.765 47.4316H188.194ZM199.345 44.9115C199.004 45.0648 198.664 45.1811 198.323 45.2606C197.988 45.34 197.665 45.3798 197.353 45.3798C196.655 45.3798 196.11 45.2123 195.718 44.8775C195.332 44.5369 195.139 44.0573 195.139 43.4386V41.4719H195.761V43.3705C195.761 43.8302 195.905 44.1878 196.195 44.4432C196.49 44.6987 196.896 44.8264 197.412 44.8264C197.719 44.8264 198.037 44.7866 198.366 44.7072C198.695 44.622 199.021 44.5028 199.345 44.3496V44.9115ZM199.234 47.4316V41.4719H199.847V47.4316H199.234ZM203.027 44.1367H206.177V44.6731H203.027V44.1367ZM203.095 46.8867H206.679V47.4316H202.465V41.4719H206.552V42.0168H203.095V46.8867ZM211.262 47.4827C210.813 47.4827 210.399 47.4089 210.019 47.2614C209.638 47.1081 209.309 46.8953 209.031 46.6228C208.753 46.3504 208.534 46.0297 208.375 45.6607C208.222 45.2918 208.146 44.8888 208.146 44.4518C208.146 44.0147 208.222 43.6117 208.375 43.2428C208.534 42.8738 208.753 42.5531 209.031 42.2807C209.315 42.0083 209.647 41.7982 210.027 41.6507C210.407 41.4974 210.822 41.4208 211.27 41.4208C211.702 41.4208 212.107 41.4946 212.488 41.6422C212.868 41.7841 213.189 41.9997 213.45 42.2892L213.05 42.6894C212.806 42.4396 212.536 42.2608 212.241 42.153C211.946 42.0395 211.628 41.9827 211.287 41.9827C210.93 41.9827 210.598 42.0451 210.291 42.17C209.985 42.2892 209.718 42.4623 209.491 42.6894C209.264 42.9107 209.085 43.1718 208.954 43.4727C208.83 43.7678 208.767 44.0942 208.767 44.4518C208.767 44.8093 208.83 45.1385 208.954 45.4394C209.085 45.7345 209.264 45.9956 209.491 46.2227C209.718 46.444 209.985 46.6171 210.291 46.742C210.598 46.8612 210.93 46.9208 211.287 46.9208C211.628 46.9208 211.946 46.864 212.241 46.7505C212.536 46.637 212.806 46.4554 213.05 46.2056L213.45 46.6058C213.189 46.8953 212.868 47.1138 212.488 47.2614C212.107 47.4089 211.699 47.4827 211.262 47.4827ZM219.425 47.4316L217.135 44.4603L217.646 44.1538L220.149 47.4316H219.425ZM215.347 47.4316V41.4719H215.96V47.4316H215.347ZM215.773 44.6987V44.1453H217.637V44.6987H215.773ZM217.697 44.5199L217.118 44.4177L219.34 41.4719H220.021L217.697 44.5199ZM221.713 47.4316V41.4719H222.335V46.41L226.149 41.4719H226.719V47.4316H226.098V42.5021L222.283 47.4316H221.713ZM229.326 47.4316V41.4719H229.948V46.41L233.762 41.4719H234.333V47.4316H233.711V42.5021L229.897 47.4316H229.326ZM231.812 41.0377C231.387 41.0377 231.049 40.9412 230.799 40.7482C230.555 40.5552 230.43 40.2856 230.425 39.9394H230.893C230.899 40.1664 230.984 40.3452 231.148 40.4757C231.319 40.6063 231.54 40.6716 231.812 40.6716C232.085 40.6716 232.303 40.6063 232.468 40.4757C232.638 40.3452 232.726 40.1664 232.732 39.9394H233.2C233.195 40.2856 233.067 40.5552 232.817 40.7482C232.567 40.9412 232.232 41.0377 231.812 41.0377ZM239.764 47.4316V41.4719H240.385V46.8867H243.987V41.4719H244.608V47.4316H239.764ZM244.966 48.8279V47.2614L245.128 47.4316H243.987V46.8867H245.553V48.8279H244.966ZM247.964 44.1367H251.114V44.6731H247.964V44.1367ZM248.032 46.8867H251.617V47.4316H247.402V41.4719H251.489V42.0168H248.032V46.8867ZM257.97 41.4719H258.591V47.4316H257.97V41.4719ZM254.24 47.4316H253.61V41.4719H254.24V47.4316ZM258.029 44.6816H254.172V44.1282H258.029V44.6816ZM262.382 47.4316V41.8465L262.553 42.0168H260.288V41.4719H265.098V42.0168H262.842L263.004 41.8465V47.4316H262.382ZM266.8 47.4316V41.4719H269.031C269.536 41.4719 269.97 41.5542 270.333 41.7188C270.697 41.8777 270.975 42.1104 271.168 42.4169C271.366 42.7177 271.466 43.0838 271.466 43.5152C271.466 43.9352 271.366 44.2985 271.168 44.605C270.975 44.9058 270.697 45.1385 270.333 45.3032C269.97 45.4678 269.536 45.5501 269.031 45.5501H267.149L267.43 45.2521V47.4316H266.8ZM267.43 45.3032L267.149 44.9966H269.014C269.61 44.9966 270.061 44.8689 270.367 44.6135C270.68 44.3524 270.836 43.9863 270.836 43.5152C270.836 43.0384 270.68 42.6695 270.367 42.4084C270.061 42.1473 269.61 42.0168 269.014 42.0168H267.149L267.43 41.7188V45.3032Z" fill="white"/>
<path d="M62.999 33.5735C63.326 33.9662 63.7388 34.2515 64.2331 34.4612H58.4888C58.936 34.2487 59.3071 33.9656 59.6018 33.5865C60.0268 33.0397 60.2415 32.3576 60.3576 31.5708C60.4734 30.7858 60.4992 29.8326 60.4992 28.7008V8.99719C60.4992 7.89009 60.4735 6.95215 60.3507 6.17717C60.2271 5.39712 59.9962 4.71939 59.539 4.17657C59.2004 3.7745 58.7702 3.48472 58.2541 3.27214H64.227C63.7166 3.48792 63.2922 3.78231 62.9594 4.19005C62.5162 4.73301 62.292 5.40867 62.1714 6.18567C62.0515 6.95861 62.0258 7.89342 62.0258 8.99719V17.9942V18.395L62.0154 18.3967V18.9524V28.6706H62.0154L62.0155 28.6781C62.0284 29.8072 62.0609 30.7622 62.1866 31.5484C62.3129 32.3386 62.5426 33.0254 62.999 33.5735ZM66.5679 19.7338C65.7941 18.9695 65.0377 18.417 64.1174 18.2498C64.8108 17.9744 65.5336 17.5863 66.2508 17.0947L66.6647 17.5502C70.7277 22.0216 77.8513 29.3239 79.737 30.9658C81.3544 32.4079 82.4452 33.366 83.4853 33.9885C83.8085 34.1819 84.1254 34.3423 84.4493 34.4763H80.8195C79.9356 33.5869 79.0922 32.7421 78.2759 31.9244C74.2653 27.9066 70.907 24.5423 66.5942 19.7613L66.5814 19.7472L66.5679 19.7338ZM77.5367 6.67292C76.812 7.26935 75.441 8.46607 73.7838 9.96299C74.7661 8.88805 75.6403 7.86384 76.2877 7.0103C76.6382 6.54832 76.9317 6.12383 77.1408 5.76071C77.2453 5.57928 77.3355 5.40152 77.4011 5.23377C77.4631 5.07547 77.5221 4.87947 77.5221 4.6752C77.5221 4.34421 77.416 4.0251 77.1571 3.76263C76.9278 3.5301 76.6212 3.38709 76.3102 3.28113C76.2964 3.27643 76.2825 3.27175 76.2683 3.2671H83.2741C82.6063 3.4673 81.9883 3.70627 81.3945 3.99295C80.0551 4.63953 78.8714 5.51321 77.5367 6.67292Z" fill="white" stroke="white" stroke-width="1.31918"/>
<path d="M111.958 19.5466V19.9259V20.2062V20.5855V29.2194C111.958 30.2463 111.983 31.1201 112.104 31.8429C112.225 32.5722 112.452 33.2096 112.902 33.7179C113.194 34.0485 113.554 34.2946 113.976 34.4804H108.395C108.813 34.298 109.171 34.0578 109.463 33.737C109.925 33.2286 110.159 32.5891 110.283 31.8571C110.406 31.1327 110.431 30.257 110.431 29.2294V8.37598C110.431 7.35009 110.406 6.49363 110.286 5.79622C110.166 5.09044 109.939 4.48124 109.486 4.00285C109.168 3.66688 108.774 3.43226 108.315 3.26115H112.495C112.353 3.36088 112.247 3.49285 112.171 3.63818C112.007 3.95221 111.958 4.37684 111.958 4.88107V19.5466ZM126.065 15.8443C125.237 16.9312 124.075 17.8306 122.585 18.5813C122.613 18.5602 122.64 18.5388 122.667 18.5172C124.596 17.0229 125.667 14.7257 125.667 11.5986C125.667 8.66042 124.699 6.46371 122.917 5.01932C121.922 4.21187 120.703 3.66495 119.32 3.34258C121.207 3.50695 123.008 3.93678 124.441 4.78064C126.312 5.88187 127.612 7.71693 127.612 10.8118C127.612 12.9013 127.063 14.5336 126.065 15.8443Z" fill="white" stroke="white" stroke-width="1.31918"/>
<path d="M160.167 19.3654C160.167 14.4718 162.516 9.5626 166.825 6.49219C166.697 6.60675 166.571 6.72443 166.448 6.84523C163.942 9.29795 162.37 12.9791 162.37 17.918C162.37 27.0983 167.8 33.5911 175.336 34.5795C166.537 34.2081 160.167 27.8906 160.167 19.3654ZM186.698 31.245C186.744 31.2025 186.79 31.1596 186.836 31.1162C189.364 28.7203 190.959 25.178 190.959 20.601C190.959 14.844 189.325 10.4837 186.574 7.5576C184.354 5.19728 181.45 3.81618 178.208 3.36919C185.952 3.81202 193.054 9.67232 193.054 18.5232V18.9431C192.927 24.1595 190.461 28.4755 186.698 31.245Z" fill="white" stroke="white" stroke-width="1.31918"/>
<path d="M200.539 17.4524V17.8923H199.895V29.4915C199.895 31.1835 200.043 32.5781 200.95 33.4831C201.502 34.033 202.267 34.337 203.252 34.4903C203.22 34.4903 203.189 34.4904 203.158 34.4904H196.342C196.765 34.307 197.126 34.0648 197.419 33.7398C197.88 33.2299 198.108 32.5891 198.228 31.8585C198.346 31.1354 198.369 30.2603 198.369 29.2343V8.54224V8.53427L198.368 8.52631C198.344 7.51776 198.312 6.65849 198.202 5.95193C198.09 5.24158 197.889 4.61099 197.472 4.104C197.163 3.72827 196.77 3.46035 196.297 3.26604H200.513C200.396 3.3364 200.281 3.43461 200.182 3.57313C199.94 3.90956 199.88 4.36647 199.88 4.87587V16.7929V17.4524H200.539ZM212.869 32.7485C212.415 32.9758 211.94 33.1775 211.443 33.3554C211.755 33.1879 212.054 33.0018 212.336 32.7957C214.192 31.4427 215.278 29.3031 215.278 26.2639C215.278 23.2208 214.147 20.9224 212.144 19.4057C210.635 18.2636 208.677 17.5985 206.435 17.348C207.163 17.2626 207.834 17.1294 208.448 16.9479V17.0097V17.1055V17.6759L209.012 17.7582C211.245 18.0838 213.403 18.8951 214.989 20.1859C216.558 21.4636 217.569 23.2085 217.569 25.4772C217.569 28.7777 215.909 31.1263 212.869 32.7485ZM211.78 5.64661C210.888 4.61565 209.55 3.77856 207.586 3.33086C210.171 3.52139 211.973 4.12333 213.166 5.02252C214.589 6.09456 215.245 7.66607 215.245 9.77782C215.245 11.7952 214.267 13.2877 212.972 14.3681C212.403 14.8435 211.777 15.2333 211.161 15.544C212.676 14.2612 213.331 12.4214 213.331 10.2418C213.331 9.02806 213.111 7.18617 211.78 5.64661Z" fill="white" stroke="white" stroke-width="1.31918"/>
<path d="M253.028 6.65993H252.608L252.551 6.78166L253.906 3.7198L257.11 12.2517L257.112 12.2549C257.634 13.6235 258.154 14.9935 258.669 16.3495C260.539 21.2759 262.34 26.0187 263.915 29.8509L263.915 29.8509L263.917 29.8557C264.69 31.6961 265.243 32.9341 266.142 33.7331C266.534 34.0812 266.976 34.3351 267.496 34.5335H261.231C261.359 34.4914 261.478 34.4468 261.589 34.3993C261.978 34.2324 262.326 34.0061 262.57 33.6714C262.822 33.3273 262.917 32.9343 262.917 32.5252C262.917 32.0956 262.795 31.5239 262.615 30.8876C262.431 30.234 262.167 29.4513 261.845 28.5744C261.202 26.82 260.315 24.6508 259.338 22.3156L259.169 21.9104H258.73H246.551H246.157L245.971 22.2572C245.682 22.7928 244.875 24.7963 244.152 26.8201C243.786 27.8428 243.435 28.8919 243.173 29.7898C242.922 30.6552 242.726 31.4703 242.726 31.9755C242.726 32.5005 242.835 32.9769 243.101 33.388C243.365 33.7973 243.746 34.0819 244.183 34.2921C244.356 34.3755 244.545 34.4502 244.749 34.5183H238.333C238.986 34.2849 239.545 33.9834 240.046 33.5402C241.05 32.6527 241.759 31.2542 242.725 28.9907L248.471 16.0041C247.799 17.6088 247.158 19.1824 246.563 20.6885L246.206 21.5906H247.176H258.244H259.197L258.862 20.6989L253.743 7.08737L253.583 6.65993H253.126H253.028Z" fill="white" stroke="white" stroke-width="1.31918"/>
<path d="M100.541 29.8228L100.562 29.8186C101.331 31.6501 101.883 32.882 102.779 33.6775C103.17 34.0248 103.612 34.278 104.13 34.4759H97.9515C98.0496 34.4417 98.1427 34.4058 98.2306 34.3682C98.62 34.2014 98.967 33.9757 99.2116 33.642C99.4634 33.2986 99.5589 32.9063 99.5589 32.4979C99.5589 32.0693 99.4371 31.4981 99.2574 30.8623C99.0728 30.209 98.8085 29.4262 98.487 28.549C97.8436 26.794 96.9566 24.6236 95.9804 22.2883L95.811 21.8831H95.3718H84.2345L84.3808 21.5733H94.8863H95.8392L95.5037 20.6815L90.3854 7.07508L90.2247 6.64772H90.1673L89.7074 5.57179L90.5374 3.69345L93.7368 12.224L93.7368 12.224L93.7381 12.2275C94.2328 13.5243 94.7259 14.8219 95.2145 16.1076C97.1152 21.1097 98.9475 25.9315 100.541 29.8228Z" fill="white" stroke="white" stroke-width="1.31918"/>
<path d="M222.045 17.5605C225.796 21.6937 232.173 28.2297 234.599 30.5024L234.582 30.5196L235.111 30.9898C236.729 32.4281 237.822 33.3865 238.862 34.0107C239.195 34.2102 239.521 34.375 239.854 34.5122H236.195C235.364 33.6755 234.568 32.8779 233.797 32.1049C229.722 28.0196 226.334 24.623 221.969 19.7965L221.957 19.7835L221.945 19.771C221.16 18.9914 220.397 18.4326 219.456 18.2738C220.159 17.9994 220.898 17.6075 221.632 17.1054L222.045 17.5605ZM232.923 6.68364C232.187 7.28916 230.793 8.50802 229.11 10.0295C230.112 8.93474 231.005 7.89065 231.663 7.02334C232.014 6.56172 232.307 6.13768 232.516 5.77511C232.621 5.59396 232.711 5.41649 232.777 5.24904C232.839 5.09113 232.898 4.89521 232.898 4.6909C232.898 4.36327 232.796 4.04386 232.539 3.77912C232.31 3.54389 232.004 3.39954 231.693 3.29287C231.678 3.28781 231.663 3.28277 231.648 3.27776H238.656C237.989 3.47798 237.371 3.71699 236.778 4.00372C235.44 4.65035 234.257 5.52409 232.923 6.68364Z" fill="white" stroke="white" stroke-width="1.31918"/>
<path d="M154.742 33.6989C155.058 34.0539 155.454 34.3101 155.92 34.5004H150.123C150.617 34.3142 151.036 34.0642 151.372 33.7173C151.858 33.2157 152.105 32.5821 152.236 31.8513C152.364 31.1317 152.389 30.2598 152.389 29.2343V8.54224C152.389 7.52695 152.365 6.65904 152.246 5.93864C152.126 5.21189 151.9 4.57401 151.454 4.06327C151.148 3.71469 150.769 3.45786 150.32 3.26604H156.077C155.553 3.46269 155.114 3.72992 154.767 4.10879C154.308 4.60938 154.075 5.23518 153.951 5.95534C153.828 6.66648 153.802 7.52719 153.802 8.54224V29.2343C153.802 30.2623 153.828 31.1307 153.948 31.8463C154.069 32.569 154.295 33.1973 154.742 33.6989ZM137.65 3.26604C137.216 3.45808 136.848 3.71431 136.55 4.05938C136.11 4.56949 135.884 5.20628 135.762 5.93389C135.64 6.65601 135.612 7.52486 135.612 8.54224V29.2343C135.612 30.2636 135.641 31.1347 135.77 31.8537C135.901 32.5818 136.142 33.2111 136.61 33.7108C136.937 34.0601 137.343 34.3124 137.82 34.5004H132.096C132.56 34.3089 132.953 34.0511 133.267 33.6937C133.709 33.1918 133.932 32.5642 134.051 31.8429C134.169 31.1283 134.194 30.261 134.194 29.2343V8.52712C134.194 7.51228 134.169 6.65219 134.047 5.94189C133.923 5.22245 133.69 4.59737 133.232 4.09727C132.891 3.72568 132.461 3.46166 131.95 3.26604H137.65Z" fill="white" stroke="white" stroke-width="1.31918"/>
</svg>
