<svg width="95" height="37" viewBox="0 0 95 37" fill="none" xmlns="http://www.w3.org/2000/svg">
<path d="M9.54852 20.1641L4.15002 32.4776H0.21167L6.14119 19.31C3.35345 17.8719 1.49496 15.2654 1.49496 10.4568C1.49496 3.71575 5.69872 0.345215 10.699 0.345215H15.7877V32.4776H12.3805V20.1641H9.54852ZM12.3805 3.26635H10.5662C7.82273 3.26635 5.16768 5.10887 5.16768 10.4568C5.16768 15.6248 7.60149 17.2876 10.5662 17.2876H12.3805V3.26635Z" fill="#FF0000"/>
<path d="M32.2047 9.82769V32.4777H28.7974V22.3212H23.6643V32.4777H20.2129V9.82769H23.6643V19.4449H28.7974V9.82769H32.2047ZM49.949 36.9269H46.8515V32.4777H37.2934V36.9269H34.1958V29.6016H35.5677C37.6032 24.7929 37.8244 17.7821 37.8244 11.7601V9.82769H48.1791V29.6016H49.949V36.9269ZM44.7717 12.659H40.922V13.0634C40.922 17.8271 40.7007 24.7929 38.8422 29.6016H44.7717V12.659ZM59.4629 32.7922C54.8609 32.7922 52.0289 29.0623 52.0289 22.0966C52.0289 14.8162 54.0202 9.51318 58.755 9.51318C62.472 9.51318 64.9058 12.3444 64.9058 20.0293V21.9617H55.6131C55.6131 27.0848 57.029 29.7814 59.7725 29.7814C61.7196 29.7814 63.2684 28.8827 64.1533 28.2534L64.95 30.9497C63.378 32.175 61.4442 32.8243 59.4629 32.7922ZM55.6573 19.0854H61.3656C61.3656 15.2206 60.746 12.3894 58.755 12.3894C56.6308 12.3894 55.8787 15.0408 55.6573 19.0854ZM71.8972 21.1979V32.4777H68.4456V9.82769H71.8972V20.2988L77.2513 9.82769H80.7472L75.216 20.4787L81.5436 32.4777H77.7824L71.8972 21.1979ZM81.9861 21.1529C81.9861 14.0522 84.6856 9.51318 89.9071 9.51318C91.8982 9.51318 93.0488 10.0525 94.0223 10.6816L93.5355 14.0072C92.6063 13.1982 91.2788 12.4343 89.8628 12.4343C87.3848 12.4343 85.6148 15.2655 85.6148 20.973C85.6148 26.6355 86.9423 29.8711 89.73 29.8711C91.1094 29.8899 92.4477 29.3942 93.4913 28.478L94.2877 31.0846C93.007 32.2296 91.347 32.8397 89.6415 32.7922C84.8624 32.7922 81.9861 28.8827 81.9861 21.1529Z" fill="black"/>
</svg>
