<svg width="118" height="38" viewBox="0 0 118 38" fill="none" xmlns="http://www.w3.org/2000/svg">
<path d="M30.863 13.7718C31.602 13.7761 32.33 13.5853 32.9796 13.2168L33.5229 12.9092L35.1094 14.1314C34.0626 15.3033 32.5199 15.9473 30.7526 15.9473C29.0631 15.9473 27.5189 15.3203 26.4144 14.1911C25.3098 13.0618 24.7012 11.4924 24.7012 9.78729C24.7012 8.08221 25.3187 6.536 26.421 5.44711C27.5234 4.35819 29.0668 3.7583 30.7681 3.7583C32.3368 3.7583 33.7083 4.25666 34.735 5.19987L34.8514 5.30296L33.0929 6.65771C32.4432 6.17193 31.6617 5.91637 30.863 5.9284C28.6532 5.9284 27.0489 7.57768 27.0489 9.8501C27.0489 12.1225 28.6532 13.7718 30.863 13.7718Z" fill="#21A038"/>
<path fill-rule="evenodd" clip-rule="evenodd" d="M42.6229 8.5414H39.6398V5.88921H44.4013L46.9678 3.91211H37.1882V15.7895H42.3034C45.1745 15.7895 46.821 14.4294 46.821 12.0585C46.8239 9.7908 45.3317 8.5414 42.6229 8.5414ZM42.1959 13.8116H39.6398V10.5193H42.1959C43.7527 10.5193 44.4762 11.0703 44.4762 12.1655C44.4762 13.2847 43.706 13.8116 42.1959 13.8116Z" fill="#21A038"/>
<path d="M57.6959 3.91211L55.1295 5.88921H51.5578V8.79332H56.7937V10.7712H51.5578V13.8116H57.6959V15.7895H49.1062V3.91211H57.6959Z" fill="#21A038"/>
<path fill-rule="evenodd" clip-rule="evenodd" d="M59.9775 3.91211H64.6547C67.6386 3.91211 69.4909 5.54045 69.4909 8.16242C69.4909 10.7844 67.6368 12.4251 64.653 12.4251H62.4292V15.7895H59.9775V3.91211ZM62.4292 10.4472H64.6018C66.1725 10.4472 67.0368 9.63808 67.0368 8.16862C67.0368 6.69917 66.1725 5.88921 64.6018 5.88921H62.4292V10.4472Z" fill="#21A038"/>
<path d="M16.9464 3.86328C17.3928 4.46874 17.7747 5.13031 18.08 5.83551L9.4607 12.4995L5.85938 10.1314V7.28257L9.4607 9.65061L16.9464 3.86328Z" fill="#21A038"/>
<path d="M2.18546 9.93011C2.18546 9.80232 2.18844 9.67534 2.19438 9.54909L0.0118859 9.43457C0.00445737 9.59895 0 9.76419 0 9.93011C0 12.6699 1.05856 15.151 2.77082 16.9471L4.31818 15.324C3.00185 13.9416 2.18546 12.0341 2.18546 9.93011Z" fill="url(#paint0_linear_9_1201)"/>
<path d="M9.46059 2.29953C9.58243 2.29953 9.7035 2.30421 9.82385 2.31044L9.93307 0.0202805C9.77629 0.0124882 9.6188 0.0078125 9.46059 0.0078125C6.84872 0.0078125 4.48351 1.11822 2.77124 2.91434L4.3186 4.53748C5.63641 3.15512 7.45489 2.29953 9.46059 2.29953Z" fill="url(#paint1_linear_9_1201)"/>
<path d="M9.45979 17.5614C9.33795 17.5614 9.21688 17.5583 9.09653 17.5521L8.9873 19.8415C9.14403 19.8492 9.30152 19.8539 9.45979 19.8539C12.0716 19.8539 14.4369 18.7435 16.1491 16.9474L14.6017 15.3242C13.2839 16.7051 11.4654 17.5614 9.45979 17.5614Z" fill="url(#paint2_linear_9_1201)"/>
<path d="M13.5614 3.63123L15.4015 2.20914C13.7776 0.832237 11.711 0.0078125 9.46021 0.0078125V2.30031C10.9808 2.29953 12.393 2.792 13.5614 3.63123Z" fill="url(#paint3_linear_9_1201)"/>
<path d="M18.9201 9.93052C18.9201 9.32349 18.868 8.72973 18.7685 8.15234L16.7323 9.72634C16.7338 9.79417 16.7353 9.86195 16.7353 9.92972C16.7353 12.17 15.8097 14.1882 14.3389 15.5854L15.8075 17.288C17.7189 15.4732 18.9201 12.8487 18.9201 9.93052Z" fill="#21A038"/>
<path d="M9.45981 17.5612C7.32411 17.5612 5.40012 16.5902 4.06819 15.0474L2.44507 16.5879C4.17591 18.5936 6.67783 19.8536 9.45981 19.8536V17.5612Z" fill="url(#paint4_linear_9_1201)"/>
<path d="M4.58189 4.2744L3.11328 2.57178C1.20119 4.38738 0 7.01186 0 9.93006H2.18546C2.1862 7.68901 3.11105 5.67156 4.58189 4.2744Z" fill="url(#paint5_linear_9_1201)"/>
<path fill-rule="evenodd" clip-rule="evenodd" d="M60.9007 28.882C60.9007 25.0178 58.4615 22.7101 54.8033 22.6929C51.0981 22.6929 48.7065 25.238 48.7065 28.8477C48.7065 32.7291 51.1451 35.0376 54.8033 35.0376C58.5097 35.0376 60.9007 32.4893 60.9007 28.882ZM58.7556 28.8648C58.7556 31.378 57.2419 33.0711 54.82 33.0711V33.0688C52.2183 33.0516 50.8523 31.2054 50.8523 28.8648C50.8523 26.3688 52.3499 24.6758 54.7885 24.6586C57.3901 24.6758 58.7556 26.5219 58.7556 28.8648Z" fill="#FF0D65"/>
<path fill-rule="evenodd" clip-rule="evenodd" d="M85.5633 28.882C85.5633 25.0178 83.1247 22.7101 79.4665 22.6929C75.7601 22.6929 73.3703 25.238 73.3691 28.8477C73.3691 32.7291 75.8083 35.0376 79.4665 35.0376C83.1729 35.0376 85.5633 32.4893 85.5633 28.882ZM83.4188 28.8648C83.4188 31.378 81.9051 33.0711 79.4826 33.0711L79.4832 33.0688C76.8821 33.0516 75.5161 31.2054 75.5155 28.8648C75.5155 26.3688 77.0125 24.6758 79.4516 24.6586C82.0527 24.6758 83.4188 26.5219 83.4188 28.8648Z" fill="#FF0D65"/>
<path fill-rule="evenodd" clip-rule="evenodd" d="M87.6943 34.8472V22.8789H92.6364C95.1732 22.8789 96.4738 23.8699 96.4738 25.8536C96.4738 27.2211 95.9535 28.1278 94.7828 28.6065C96.1809 28.8627 96.8154 29.803 96.8154 31.3586C96.8154 33.8382 95.1244 34.8472 92.3596 34.8472H87.6943ZM92.3442 27.9395C93.6286 27.9395 94.4411 27.3414 94.4411 26.3151C94.4411 25.3577 93.8393 24.8446 92.393 24.8446H89.727V27.9395H92.3442ZM92.4924 32.8807C94.0518 32.8807 94.7685 32.3504 94.7685 31.2048C94.7685 30.0591 93.956 29.6147 92.5251 29.6147H89.7288V32.8807H92.4924Z" fill="#FF0D65"/>
<path fill-rule="evenodd" clip-rule="evenodd" d="M102.701 26.6057H101.156V22.8789H99.1243V34.8472H102.72C106.037 34.8472 107.825 33.4446 107.825 30.6581C107.825 27.9568 106.31 26.6057 102.701 26.6057ZM101.156 32.8807V28.5721H102.879C104.863 28.5721 105.725 29.136 105.725 30.6066C105.725 32.231 104.75 32.8807 102.847 32.8807H101.156Z" fill="#FF0D65"/>
<path d="M111.985 29.6663H117.22L117.223 27.6998H111.987V24.8446H117.824V22.8789H109.952V34.8472H118V32.8807H111.985V29.6663Z" fill="#FF0D65"/>
<path fill-rule="evenodd" clip-rule="evenodd" d="M65.0595 31.1196V34.8472H63.0269V22.8789H66.8142C70.4069 22.8789 71.9384 24.2292 71.9384 26.9305C71.9384 29.7178 70.1504 31.1196 66.8142 31.1196H65.0595ZM65.0595 24.8446V29.1532H66.9612C68.8475 29.1532 69.8224 28.5034 69.8224 26.8798C69.8224 25.4092 68.9778 24.8446 66.994 24.8446H65.0595Z" fill="#FF0D65"/>
<path fill-rule="evenodd" clip-rule="evenodd" d="M37.1783 32.8807C37.8283 31.2563 38.2997 28.9993 38.3491 25.3577L38.3812 22.8789H46.3803V32.8807H47.6969V37.0698H45.7952V34.8472H37.8443V37.0698H35.9426V32.8807H37.1783ZM39.1621 32.8807H44.3477V24.8446H40.2353V25.4092C40.1698 28.5378 39.8097 31.0002 39.1621 32.8807Z" fill="#FF0D65"/>
<path d="M30.0895 22.708C28.2848 22.708 26.9682 23.2719 26.3176 23.7678L26.3158 26.7425C26.9831 25.6827 28.3652 24.6401 30.0877 24.6737C31.2912 24.7081 32.2341 25.1524 32.2341 26.2637C32.2341 27.1532 31.7299 27.8882 30.2669 27.8882H28.5586V29.6493H30.2824C32.0543 29.6493 32.8025 30.1452 32.8025 31.2049C32.8025 32.4193 31.6972 33.0347 30.3151 33.0519C28.217 33.0691 26.7378 32.1117 26.0391 30.8972V33.5306C26.6438 34.2483 28.217 35.0356 30.2824 35.0184C33.3394 35.0012 34.9161 33.4112 34.9161 31.3424C34.9161 29.7687 34.0727 28.8113 32.3168 28.5379C33.634 28.042 34.3328 27.1189 34.3328 25.7171C34.3328 23.6139 32.6418 22.7252 30.0895 22.708Z" fill="#FF0D65"/>
<defs>
<linearGradient id="paint0_linear_9_1201" x1="3.21346" y1="16.6597" x2="0.613965" y2="9.49652" gradientUnits="userSpaceOnUse">
<stop offset="0.1444" stop-color="#F2E913"/>
<stop offset="0.3037" stop-color="#E7E518"/>
<stop offset="0.5823" stop-color="#CADB26"/>
<stop offset="0.891" stop-color="#A3CD39"/>
</linearGradient>
<linearGradient id="paint1_linear_9_1201" x1="3.39584" y1="3.31959" x2="9.61767" y2="1.05928" gradientUnits="userSpaceOnUse">
<stop offset="0.0592" stop-color="#0FA8E0"/>
<stop offset="0.5385" stop-color="#0099F9"/>
<stop offset="0.9234" stop-color="#0291EB"/>
</linearGradient>
<linearGradient id="paint2_linear_9_1201" x1="8.84308" y1="18.4704" x2="15.8285" y2="16.9653" gradientUnits="userSpaceOnUse">
<stop offset="0.1226" stop-color="#A3CD39"/>
<stop offset="0.2846" stop-color="#86C339"/>
<stop offset="0.8693" stop-color="#21A038"/>
</linearGradient>
<linearGradient id="paint3_linear_9_1201" x1="9.00296" y1="0.775657" x2="14.9964" y2="2.53856" gradientUnits="userSpaceOnUse">
<stop offset="0.0566" stop-color="#0291EB"/>
<stop offset="0.79" stop-color="#0C8ACB"/>
</linearGradient>
<linearGradient id="paint4_linear_9_1201" x1="2.99323" y1="16.3085" x2="9.53853" y2="18.6398" gradientUnits="userSpaceOnUse">
<stop offset="0.1324" stop-color="#F2E913"/>
<stop offset="0.2977" stop-color="#EBE716"/>
<stop offset="0.5306" stop-color="#D9E01F"/>
<stop offset="0.8023" stop-color="#BBD62D"/>
<stop offset="0.9829" stop-color="#A3CD39"/>
</linearGradient>
<linearGradient id="paint5_linear_9_1201" x1="0.814505" y1="10.2077" x2="3.63671" y2="3.20889" gradientUnits="userSpaceOnUse">
<stop offset="0.0698" stop-color="#A3CD39"/>
<stop offset="0.2599" stop-color="#81C55F"/>
<stop offset="0.9216" stop-color="#0FA8E0"/>
</linearGradient>
</defs>
</svg>
