<svg width="137" height="35" viewBox="0 0 137 35" fill="none" xmlns="http://www.w3.org/2000/svg">
<path d="M1.19752 1.16368H29.5957C30.2571 1.16368 30.7933 1.73105 30.7933 2.43093V8.34062C30.7933 9.1278 30.4705 9.87313 29.9085 10.3889L14.028 24.4476H29.5957C30.2571 24.4476 30.7933 25.0046 30.7933 25.7045V32.489C30.7933 33.1889 30.2571 33.7562 29.5957 33.7562H1.19752C0.536146 33.7562 0 33.1889 0 32.489V26.589C0 25.8018 0.32279 25.0565 0.884732 24.5407L16.7652 10.482H1.19752C0.536146 10.482 0 9.90171 0 9.20183V2.43093C0 1.73105 0.536146 1.16368 1.19752 1.16368ZM50.5889 0.0078125C53.8725 0.0078125 56.8 0.789212 59.2439 2.21717C61.6878 3.64512 63.6482 5.71963 64.9976 8.30585C66.3469 10.8921 67.0853 13.99 67.0853 17.4648C67.0853 20.9396 66.3469 24.0375 64.9976 26.6238C63.6482 29.21 61.6878 31.2845 59.2439 32.7125C56.8 34.1404 53.8725 34.9218 50.5889 34.9218C47.3053 34.9218 44.3779 34.1404 41.934 32.7125C39.4901 31.2845 37.5297 29.21 36.1803 26.6238C34.8309 24.0375 34.0925 20.9396 34.0925 17.4648C34.0925 13.99 34.8309 10.8921 36.1803 8.30585C37.5297 5.71963 39.4901 3.64512 41.934 2.21717C44.3779 0.789212 47.3053 0.0078125 50.5889 0.0078125ZM50.5889 9.31821C49.0182 9.31821 47.6393 9.66933 46.4988 10.3222C45.3583 10.975 44.4563 11.9296 43.8393 13.1365C43.2224 14.3434 42.8906 15.8026 42.8906 17.4648C42.8906 19.127 43.2224 20.5862 43.8393 21.7931C44.4563 23 45.3583 23.9546 46.4988 24.6075C47.6393 25.2603 49.0182 25.6114 50.5889 25.6114C52.1597 25.6114 53.5386 25.2603 54.6791 24.6075C55.8196 23.9546 56.7216 23 57.3385 21.7931C57.9555 20.5862 58.2873 19.127 58.2873 17.4648C58.2873 15.8026 57.9555 14.3434 57.3385 13.1365C56.7216 11.9296 55.8196 10.975 54.6791 10.3222C53.5386 9.66933 52.1597 9.31821 50.5889 9.31821ZM85.7812 0.0078125C89.0648 0.0078125 91.9923 0.789212 94.4362 2.21717C96.8801 3.64512 98.8405 5.71963 100.19 8.30585C101.539 10.8921 102.278 13.99 102.278 17.4648C102.278 20.9396 101.539 24.0375 100.19 26.6238C98.8405 29.21 96.8801 31.2845 94.4362 32.7125C91.9923 34.1404 89.0648 34.9218 85.7812 34.9218C82.4976 34.9218 79.5702 34.1404 77.1263 32.7125C74.6824 31.2845 72.722 29.21 71.3726 26.6238C70.0232 24.0375 69.2848 20.9396 69.2848 17.4648C69.2848 13.99 70.0232 10.8921 71.3726 8.30585C72.722 5.71963 74.6824 3.64512 77.1263 2.21717C79.5702 0.789212 82.4976 0.0078125 85.7812 0.0078125ZM85.7812 9.31821C84.2105 9.31821 82.8316 9.66933 81.6911 10.3222C80.5506 10.975 79.6486 11.9296 79.0316 13.1365C78.4147 14.3434 78.0829 15.8026 78.0829 17.4648C78.0829 19.127 78.4147 20.5862 79.0316 21.7931C79.6486 23 80.5506 23.9546 81.6911 24.6075C82.8316 25.2603 84.2105 25.6114 85.7812 25.6114C87.352 25.6114 88.7309 25.2603 89.8714 24.6075C91.0119 23.9546 91.9139 23 92.5308 21.7931C93.1478 20.5862 93.4796 19.127 93.4796 17.4648C93.4796 15.8026 93.1478 14.3434 92.5308 13.1365C91.9139 11.9296 91.0119 10.975 89.8714 10.3222C88.7309 9.66933 87.352 9.31821 85.7812 9.31821ZM136.374 2.43497V32.4885C136.374 33.1884 135.838 33.7558 135.176 33.7558H129.596C128.852 33.7558 128.148 33.4143 127.66 32.8197L114.375 16.0164V32.4885C114.375 33.1884 113.827 33.7558 113.165 33.7558H106.771C106.109 33.7558 105.573 33.1884 105.573 32.4885V2.43497C105.573 1.73505 106.109 1.16765 106.771 1.16765H112.351C113.095 1.16765 113.8 1.50932 114.287 2.10413L127.572 18.9132V2.43497C127.572 1.73505 128.098 1.16765 128.76 1.16765H135.176C135.838 1.16765 136.374 1.73505 136.374 2.43497Z" fill="url(#paint0_linear_9_1388)"/>
<defs>
<linearGradient id="paint0_linear_9_1388" x1="10547.6" y1="1745.71" x2="2974.49" y2="1745.71" gradientUnits="userSpaceOnUse">
<stop stop-color="#6339F5"/>
<stop offset="1" stop-color="#3D3F55"/>
</linearGradient>
</defs>
</svg>
