<svg width="135" height="35" viewBox="0 0 135 35" fill="none" xmlns="http://www.w3.org/2000/svg">
<g clip-path="url(#clip0_9_1225)">
<path fill-rule="evenodd" clip-rule="evenodd" d="M44.8436 26.2438C52.139 26.2438 58.0144 20.3431 58.0144 13.1258C58.0144 5.85969 52.0901 0.0078125 44.8436 0.0078125C37.5972 0.0078125 31.6729 5.85969 31.6729 13.077C31.6729 20.3431 37.5483 26.2438 44.8436 26.2438ZM44.8436 20.2456C48.8096 20.2456 51.9921 17.027 51.9921 13.1258C51.9921 9.17575 48.7606 6.00598 44.8436 6.00598C40.8777 6.00598 37.6952 9.22451 37.6952 13.1258C37.6952 17.027 40.8777 20.2456 44.8436 20.2456Z" fill="#13A546"/>
<path fill-rule="evenodd" clip-rule="evenodd" d="M51.209 25.8535L57.1334 32.7294C58.2106 33.9974 60.1201 34.1437 61.3931 33.0709C62.6661 31.998 62.813 30.0961 61.7358 28.8282L55.9583 22.0986C54.6853 23.6591 53.0695 24.927 51.209 25.8535Z" fill="#13A546"/>
<path d="M84.2545 21.8753C84.2545 22.7531 83.9607 23.4846 83.4221 24.021C82.8346 24.6062 82.1491 24.85 81.3167 24.85C80.3865 24.85 79.6031 24.5086 79.0156 23.8259L72.3077 15.8284L69.3976 18.4454V21.8244C69.3976 22.6535 69.1741 23.3383 68.5866 23.9234C67.9991 24.5086 67.2646 24.8013 66.4812 24.8013C65.6978 24.8013 64.9634 24.5086 64.3758 23.9234C63.7883 23.3383 63.5435 22.6068 63.5435 21.8266V4.56351C63.5435 3.73449 63.8373 3.05178 64.3758 2.46659C64.9634 1.88141 65.6978 1.58881 66.5302 1.58881C67.3626 1.58881 68.048 1.88141 68.5866 2.46659C69.1741 3.05178 69.3882 3.78326 69.3882 4.56351V11.8784L78.9176 2.32029C79.4562 1.78387 80.0927 1.54004 80.8761 1.54004C81.6595 1.54004 82.345 1.83264 82.8346 2.36905C83.3731 2.90548 83.618 3.53944 83.618 4.31968C83.618 5.09993 83.3731 5.78266 82.8346 6.2703L76.6653 12.3173L83.667 20.071C84.0586 20.4611 84.2545 21.0951 84.2545 21.8753Z" fill="#2C2B67"/>
<path d="M95.6375 21.9568V7.1808H91.5736C90.8392 7.1808 90.2027 6.93698 89.6641 6.44933C89.1745 5.96167 88.9297 5.32772 88.9297 4.59623C88.9297 3.86474 89.1745 3.27956 89.6641 2.74313C90.2027 2.20672 90.8392 1.96289 91.5736 1.96289H105.772C106.507 1.96289 107.095 2.20672 107.633 2.74313C108.172 3.23079 108.416 3.86474 108.416 4.59623C108.416 5.27894 108.172 5.9129 107.633 6.44933C107.144 6.93698 106.507 7.1808 105.772 7.1808H101.66V22.0056C101.66 22.8345 101.366 23.5173 100.779 24.1025C100.191 24.6876 99.4562 24.9803 98.6732 24.9803C97.8408 24.9803 97.1553 24.6876 96.5678 24.1025C95.9803 23.5173 95.6375 22.7858 95.6375 21.9568Z" fill="#2C2B67"/>
<path d="M115.497 28.4869L115.79 28.4382C117.357 28.3894 118.385 27.853 118.924 26.7802L119.757 24.8295L111.923 5.51831C111.776 5.27448 111.727 4.88436 111.727 4.44547C111.727 3.61646 112.02 2.93373 112.559 2.39731C113.146 1.81212 113.832 1.51953 114.615 1.51953C116.036 1.51953 116.966 2.15348 117.357 3.37263L122.841 17.856L128.276 3.37263C128.766 2.15348 129.696 1.51953 131.066 1.51953C131.899 1.51953 132.633 1.81212 133.172 2.39731C133.759 2.9825 134.005 3.66522 134.005 4.44547C134.005 4.78683 133.907 5.17695 133.759 5.56707L124.506 28.2431C123.086 31.8517 120.344 33.7048 116.231 33.7536C115.889 33.7536 115.644 33.7536 115.595 33.7048C114.811 33.6561 114.175 33.4122 113.636 32.9246C113.097 32.4369 112.902 31.803 112.902 31.0227C112.902 30.2913 113.146 29.7061 113.636 29.2184C114.223 28.7795 114.811 28.5357 115.497 28.4869Z" fill="#2C2B67"/>
<path d="M28.0201 22.4397V27.9014C28.0201 28.6329 27.7754 29.2181 27.2857 29.7545C26.7961 30.2909 26.1596 30.486 25.4251 30.486C24.6907 30.486 24.0542 30.2421 23.5156 29.7545C23.026 29.2669 22.7812 28.6329 22.7812 27.9014V24.4509H7.16228V27.9014C7.16228 28.6329 6.91747 29.2181 6.42786 29.7545C5.93823 30.2909 5.30172 30.486 4.56729 30.486C3.83286 30.486 3.19636 30.2421 2.65777 29.7545C2.16815 29.2669 1.92334 28.6329 1.92334 27.9014V23.3174C1.92334 21.0742 2.65777 19.8063 4.07767 19.4162C5.35069 17.0755 6.28097 13.028 6.81955 7.27357L7.0154 5.07911C7.11333 4.05503 7.45606 3.27478 8.09256 2.73836C8.72907 2.15317 9.51465 1.95654 10.4939 1.95654L21.9024 1.95657C23.0285 1.95657 23.9073 2.15317 24.4948 2.78713C25.1313 3.37232 25.4251 4.2501 25.4251 5.37171V19.3675C27.1877 19.5138 28.0201 20.5378 28.0201 22.4397ZM19.5441 19.5524V6.84872H12.15L12.0095 9.02913C11.7157 13.9057 10.8677 17.6017 9.64371 19.5524H19.5441Z" fill="#2C2B67"/>
</g>
<defs>
<clipPath id="clip0_9_1225">
<rect width="133.908" height="34.21" fill="white" transform="translate(0.977539 0.0078125)"/>
</clipPath>
</defs>
</svg>
