<svg width="50" height="35" viewBox="0 0 50 35" fill="none" xmlns="http://www.w3.org/2000/svg">
<path d="M28.8291 23.8438C28.8291 17.9645 30.6138 13.0216 34.1831 9.01493C37.7524 4.96474 42.9462 1.95977 49.7646 0V5.0954C41.7107 7.53422 37.6838 11.1924 37.6838 16.0701C37.6838 16.9846 38.027 17.7686 38.7134 18.4218C39.3998 19.0315 40.6125 19.7719 42.3514 20.6429C45.4173 22.1671 46.9503 24.3447 46.9503 27.1754C46.9503 29.5272 46.1724 31.3127 44.6165 32.5321C43.0606 33.7515 41.0929 34.3612 38.7134 34.3612C35.7847 34.3612 33.4052 33.3814 31.5748 31.4216C29.7443 29.4183 28.8291 26.8924 28.8291 23.8438ZM0 23.8438C0 17.9645 1.78466 13.0216 5.35398 9.01493C8.9233 4.96474 14.1171 1.95977 20.9354 0V5.0954C12.8816 7.53422 8.85466 11.1924 8.85466 16.0701C8.85466 16.9846 9.19786 17.7686 9.88427 18.4218C10.5707 19.0315 11.7833 19.7719 13.5222 20.6429C16.5882 22.1671 18.1212 24.3447 18.1212 27.1754C18.1212 29.5272 17.3432 31.3127 15.7874 32.5321C14.2315 33.7515 12.2638 34.3612 9.88427 34.3612C6.9556 34.3612 4.57605 33.3814 2.74563 31.4216C0.91521 29.4183 0 26.8924 0 23.8438Z" fill="white"/>
</svg>
