<svg width="563" height="761" viewBox="0 0 563 761" fill="none" xmlns="http://www.w3.org/2000/svg">
<g opacity="0.3">
<path d="M549.597 474.748C544.77 314.684 300.665 40.2173 281.357 19C262.222 40.2173 17.9443 314.684 13.1174 474.748C8.63525 624.457 133.101 745.82 281.357 746.499C429.613 745.82 554.079 624.287 549.597 474.748Z" fill="#9274CE" stroke="#6F50AC" stroke-width="25" stroke-miterlimit="10"/>
<path d="M487.363 539.079C483.743 416.867 297.217 207.24 282.563 190.945C267.91 207.24 81.3836 416.867 77.7634 539.079C74.3156 653.313 169.303 746.16 282.563 746.669C395.824 746.16 490.811 653.313 487.363 539.079Z" fill="#9274CE" stroke="#6F50AC" stroke-width="25" stroke-miterlimit="10"/>
<path d="M413.241 615.29C411 537.38 292.05 403.796 282.741 393.442C273.432 403.796 154.482 537.38 152.241 615.29C150 688.108 210.682 747.347 282.741 747.686C354.973 747.347 415.482 688.278 413.241 615.29Z" fill="#9274CE" stroke="#6F50AC" stroke-width="25" stroke-miterlimit="10"/>
<path d="M413.241 237.624C411 315.533 292.05 449.118 282.741 459.472C273.432 449.118 154.482 315.533 152.241 237.624C150 164.806 210.682 105.567 282.741 105.228C354.973 105.567 415.482 164.636 413.241 237.624Z" fill="#9274CE" stroke="#6F50AC" stroke-width="25" stroke-miterlimit="10"/>
</g>
</svg>
