<svg width="147" height="148" viewBox="0 0 147 148" fill="none" xmlns="http://www.w3.org/2000/svg">
<path d="M61.2799 85.6005C60.2625 85.9708 59.1582 86.0311 58.1065 85.7738C57.0549 85.5164 56.1032 84.953 55.3717 84.1548C54.6403 83.3566 54.162 82.3594 53.9973 81.2893C53.8326 80.2192 53.9889 79.1243 54.4464 78.1431C54.904 77.1618 55.6422 76.3383 56.5678 75.7767C57.4934 75.215 58.5648 74.9404 59.6464 74.9876C60.7281 75.0349 61.7714 75.4018 62.6445 76.042C63.5177 76.6822 64.1813 77.5669 64.5516 78.5843C65.0482 79.9486 64.9824 81.4542 64.3689 82.77C63.7553 84.0858 62.6442 85.104 61.2799 85.6005ZM88.3993 64.079C87.3819 64.4493 86.4971 65.113 85.8569 65.9861C85.2167 66.8592 84.8498 67.9026 84.8026 68.9842C84.7554 70.0659 85.03 71.1372 85.5916 72.0628C86.1533 72.9884 86.9768 73.7267 87.9581 74.1842C88.9393 74.6418 90.0342 74.7981 91.1042 74.6334C92.1743 74.4687 93.1715 73.9904 93.9698 73.2589C94.768 72.5275 95.3314 71.5758 95.5887 70.5241C95.8461 69.4725 95.7858 68.3681 95.4155 67.3508C94.9189 65.9865 93.9008 64.8754 92.585 64.2618C91.2692 63.6482 89.7635 63.5825 88.3993 64.079ZM90.1964 85.3819C87.832 88.3892 84.6744 90.676 81.0797 91.9844C77.485 93.2928 73.5962 93.5706 69.8519 92.7867C68.9056 92.5814 67.9164 92.7604 67.1021 93.2844C66.2877 93.8084 65.7149 94.6345 65.5095 95.5808C65.3042 96.5272 65.4833 97.5164 66.0073 98.3307C66.5313 99.1451 67.3573 99.7179 68.3037 99.9232C73.3954 101 78.687 100.627 83.5775 98.847C88.468 97.067 92.7612 93.9513 95.9697 89.8536C96.5627 89.088 96.8273 88.1182 96.7052 87.1576C96.5831 86.1969 96.0845 85.3241 95.3189 84.7311C94.5533 84.1381 93.5835 83.8736 92.6228 83.9956C91.6622 84.1177 90.7894 84.6163 90.1964 85.3819ZM119.421 58.6136C122.63 67.4309 123.152 77.0018 120.922 86.1161C118.692 95.2304 113.809 103.479 106.891 109.818C99.9731 116.157 91.3306 120.302 82.0567 121.73C72.7827 123.157 63.2937 121.803 54.7896 117.837C46.2856 113.872 39.1484 107.473 34.2806 99.4516C29.4129 91.4298 27.0332 82.1446 27.4425 72.7704C27.8518 63.3961 31.0317 54.3537 36.58 46.7867C42.1284 39.2197 49.7961 33.4679 58.6134 30.2587C70.4377 25.9691 83.4809 26.5454 94.8808 31.8613C106.281 37.1772 115.106 46.7983 119.421 58.6136ZM112.562 61.1099C109.016 51.4035 101.867 43.4359 92.6005 38.8617C83.334 34.2875 72.6618 33.4581 62.7998 36.5458C60.3732 45.3371 62.6544 52.0313 62.6731 52.0827C63.0041 52.9922 63.6829 53.733 64.5601 54.142C65.4373 54.5511 66.4411 54.5949 67.3506 54.2639C68.2601 53.9328 69.0008 53.2541 69.4099 52.3769C69.8189 51.4997 69.8627 50.4959 69.5317 49.5864C69.2007 48.6769 69.2445 47.6731 69.6535 46.7959C70.0626 45.9187 70.8033 45.2399 71.7129 44.9089C72.6224 44.5779 73.6261 44.6217 74.5033 45.0307C75.3805 45.4398 76.0593 46.1805 76.3903 47.09C77.3835 49.8186 77.252 52.8299 76.0248 55.4615C74.7977 58.0931 72.5754 60.1294 69.8469 61.1225C67.1184 62.1156 64.1071 61.9841 61.4755 60.757C58.8439 59.5299 56.8075 57.3076 55.8144 54.5791C55.7005 54.2661 53.6391 48.4289 54.662 40.1291C48.0604 43.967 42.6903 49.6081 39.1819 56.3906C35.6735 63.1731 34.1724 70.8155 34.8547 78.4211C35.537 86.0267 38.3744 93.28 43.034 99.3297C47.6935 105.379 53.982 109.975 61.1613 112.576C68.3406 115.178 76.1131 115.678 83.5665 114.017C91.0199 112.357 97.8452 108.605 103.241 103.202C108.637 97.7988 112.381 90.9688 114.032 83.5133C115.683 76.0577 115.173 68.2859 112.562 61.1099Z" fill="#B5D3E8"/>
</svg>
