<svg width="141" height="141" viewBox="0 0 141 141" fill="none" xmlns="http://www.w3.org/2000/svg">
<path d="M99.7573 27.1077L56.2922 28.2952C55.5486 28.3155 54.8317 28.5765 54.2491 29.0389L20.1895 56.068C19.6244 56.5165 19.2147 57.1314 19.0185 57.8258C18.8223 58.5201 18.8495 59.2585 19.0963 59.9365L30.8533 92.2384C31.1651 93.0951 31.8045 93.7929 32.6307 94.1782C33.457 94.5635 34.4025 94.6047 35.2592 94.2929C36.1159 93.9811 36.8136 93.3417 37.1989 92.5155C37.5842 91.6892 37.6255 90.7437 37.3137 89.887L27.188 62.067L42.3953 61.6488C40.9107 68.782 42.3176 76.2127 46.3071 82.3095C50.2965 88.4063 56.5423 92.6707 63.6732 94.1663C57.4428 99.6623 53.0368 107.105 51.0078 115.828C50.8981 116.27 50.8774 116.729 50.9468 117.179C51.0163 117.63 51.1746 118.062 51.4124 118.45C51.6503 118.839 51.963 119.176 52.3324 119.443C52.7018 119.709 53.1205 119.9 53.5642 120.003C54.0079 120.106 54.4677 120.121 54.9169 120.045C55.3661 119.969 55.7957 119.804 56.1808 119.561C56.5659 119.318 56.8987 119 57.16 118.627C57.4213 118.254 57.6058 117.832 57.7028 117.387C60.3899 105.837 68.0525 96.9896 78.7243 93.1054C89.396 89.2212 100.953 91.0735 110.436 98.194C111.166 98.7257 112.076 98.9488 112.969 98.8149C113.862 98.681 114.667 98.201 115.209 97.4786C115.751 96.7563 115.987 95.8496 115.866 94.9545C115.745 94.0595 115.276 93.2481 114.562 92.6957C107.401 87.3183 99.2173 84.4576 90.936 84.2435C95.4317 78.5163 97.4726 71.24 96.6113 64.0102C95.7499 56.7804 92.0567 50.1873 86.3413 45.6766L101.996 33.2571C102.561 32.8087 102.971 32.1937 103.167 31.4994C103.363 30.805 103.336 30.0664 103.089 29.3884C102.843 28.7103 102.389 28.1271 101.792 27.7213C101.195 27.3156 100.486 27.108 99.7646 27.1279L99.7573 27.1077ZM88.6999 60.2096C89.816 63.2734 90.1898 66.5581 89.7906 69.7943C89.3914 73.0305 88.2306 76.1259 86.4034 78.8266C84.5763 81.5273 82.1349 83.7563 79.2794 85.3307C76.424 86.9051 73.236 87.7801 69.9769 87.8839C66.7179 87.9876 63.4807 87.3172 60.5309 85.9275C57.5811 84.5379 55.0029 82.4687 53.0076 79.8897C51.0124 77.3107 49.6571 74.2954 49.0529 71.0911C48.4487 67.8869 48.6128 64.585 49.5318 61.4565L65.8796 60.9935C66.6232 60.9732 67.3401 60.7123 67.9227 60.2499L80.7435 50.0964C84.4086 52.5302 87.1971 56.0747 88.6999 60.2096ZM64.5527 54.1694L32.542 55.0427L57.625 35.1355L89.6357 34.2623L64.5527 54.1694Z" fill="#B5D3E8"/>
</svg>
