<svg width="105" height="104" viewBox="0 0 105 104" fill="none" xmlns="http://www.w3.org/2000/svg">
<path d="M96.9056 26.9384L77.4049 7.46441C77.1029 7.16285 76.7445 6.92373 76.3501 6.76068C75.9558 6.59764 75.5331 6.51388 75.1064 6.51417C74.6796 6.51446 74.2571 6.59881 73.8629 6.76239C73.4688 6.92597 73.1107 7.16559 72.8091 7.46756C72.5076 7.76953 72.2684 8.12794 72.1054 8.52232C71.9424 8.91671 71.8586 9.33934 71.8589 9.7661C71.8592 10.1929 71.9435 10.6154 72.1071 11.0095C72.2707 11.4037 72.5103 11.7618 72.8123 12.0633L80.2672 19.504L68.6274 31.1598L54.6763 17.2237C54.0664 16.6147 53.2396 16.2729 52.3777 16.2734C51.5159 16.274 50.6895 16.617 50.0805 17.2268C49.4715 17.8367 49.1297 18.6635 49.1303 19.5254C49.1309 20.3873 49.4738 21.2136 50.0837 21.8226L52.6634 24.3948L18.5839 58.5211C17.9785 59.1225 17.4987 59.8383 17.1723 60.6268C16.846 61.4153 16.6796 62.2608 16.6829 63.1141L16.6967 83.1618L7.90902 91.9574C7.60747 92.2594 7.36834 92.6178 7.2053 93.0122C7.04226 93.4066 6.95849 93.8292 6.95878 94.256C6.95907 94.6827 7.04342 95.1053 7.207 95.4994C7.37059 95.8936 7.6102 96.2517 7.91217 96.5532C8.52203 97.1622 9.34884 97.5041 10.2107 97.5035C10.6375 97.5032 11.06 97.4188 11.4542 97.2552C11.8483 97.0917 12.2064 96.852 12.5079 96.5501L21.2915 87.7504L41.3392 87.7366C42.1926 87.7388 43.0378 87.5713 43.8259 87.2438C44.6139 86.9164 45.329 86.4356 45.9296 85.8294L80.0092 51.7031L82.5849 54.2793C82.8869 54.5809 83.2453 54.82 83.6397 54.9831C84.0341 55.1461 84.4567 55.2299 84.8834 55.2296C85.3102 55.2293 85.7327 55.1449 86.1269 54.9814C86.521 54.8178 86.8791 54.5782 87.1807 54.2762C87.4822 53.9742 87.7214 53.6158 87.8844 53.2214C88.0474 52.827 88.1312 52.4044 88.1309 51.9776C88.1306 51.5509 88.0463 51.1284 87.8827 50.7342C87.7191 50.34 87.4795 49.982 87.1775 49.6804L73.2223 35.7484L84.8621 24.0926L92.313 31.5374C92.9229 32.1464 93.7497 32.4882 94.6116 32.4876C95.4734 32.487 96.2998 32.1441 96.9088 31.5342C97.5178 30.9244 97.8596 30.0976 97.859 29.2357C97.8584 28.3738 97.5155 27.5475 96.9056 26.9384ZM41.3348 81.2408L23.1912 81.2533L23.1787 63.1097L30.4815 55.7969L38.7449 64.0531C39.0469 64.3546 39.4053 64.5938 39.7997 64.7568C40.1941 64.9199 40.6167 65.0036 41.0435 65.0033C41.4702 65.003 41.8928 64.9187 42.2869 64.7551C42.6811 64.5915 43.0392 64.3519 43.3407 64.0499C43.6423 63.748 43.8814 63.3896 44.0445 62.9952C44.2075 62.6008 44.2913 62.1782 44.291 61.7514C44.2907 61.3246 44.2063 60.9021 44.0427 60.508C43.8792 60.1138 43.6395 59.7557 43.3376 59.4542L35.0701 51.202L40.2185 46.0465L48.482 54.3027C49.0918 54.9117 49.9186 55.2535 50.7805 55.253C51.6424 55.2524 52.4687 54.9094 53.0777 54.2996C53.6868 53.6897 54.0286 52.8629 54.028 52.001C54.0274 51.1391 53.6845 50.3128 53.0746 49.7038L44.8071 41.4517L57.2583 28.9834L75.4143 47.1145L41.3348 81.2408Z" fill="#B5D3E8"/>
</svg>
