<svg width="129" height="140" viewBox="0 0 129 140" fill="none" xmlns="http://www.w3.org/2000/svg">
<path d="M118.863 57.6192L93.6241 29.3929C93.0683 28.7711 92.3095 28.3672 91.4833 28.2533C90.6571 28.1393 89.8174 28.3228 89.114 28.771L65.4798 43.8455L62.1732 34.7606C61.8543 33.8844 61.2004 33.1708 60.3553 32.7768C59.5103 32.3827 58.5433 32.3405 57.6672 32.6594C56.791 32.9783 56.0774 33.6322 55.6834 34.4772C55.2893 35.3223 55.2471 36.2892 55.566 37.1654L59.4107 47.7286L34.4593 63.6427C33.978 63.9488 33.5783 64.3674 33.2949 64.8625C33.0115 65.3575 32.8528 65.9141 32.8326 66.4842L32.8416 66.5089L31.6423 104.33C31.6275 104.781 31.7007 105.231 31.8578 105.654C35.3613 115.28 46.8012 115.18 53.1854 112.857C59.5696 110.533 68.3973 103.256 64.8938 93.6302C64.742 93.2049 64.5089 92.8132 64.2075 92.477L41.7283 67.3477L61.8786 54.5093L80.8166 106.541L74.2094 108.946C73.3333 109.265 72.6197 109.919 72.2256 110.764C71.8316 111.609 71.7893 112.576 72.1082 113.452C72.4271 114.328 73.081 115.042 73.9261 115.436C74.7711 115.83 75.7381 115.872 76.6142 115.553L96.4358 108.338C97.312 108.02 98.0256 107.366 98.4196 106.521C98.8137 105.676 98.8559 104.709 98.537 103.832C98.2181 102.956 97.5642 102.243 96.7192 101.849C95.8741 101.455 94.9072 101.412 94.031 101.731L87.4238 104.136L67.9478 50.6261L87.3068 38.2861L86.2974 69.472C86.2826 69.9233 86.3558 70.3732 86.5129 70.7965C90.0164 80.4224 101.456 80.3225 107.841 77.9988C114.225 75.6752 123.052 68.3982 119.549 58.7724C119.397 58.3471 119.164 57.9554 118.863 57.6192ZM50.7806 106.249C47.6711 107.381 40.8393 108.18 38.6983 103.801L39.5892 75.5012L58.4621 96.6071C59.6368 101.338 53.8901 105.118 50.7806 106.249ZM105.436 71.3916C102.326 72.5234 95.4944 73.3218 93.3534 68.9428L94.2443 40.6434L113.117 61.7493C114.292 66.48 108.545 70.2599 105.436 71.3916Z" fill="#B5D3E8"/>
</svg>
