<svg width="141" height="141" viewBox="0 0 141 141" fill="none" xmlns="http://www.w3.org/2000/svg">
<path d="M37.5041 26.5009C41.8187 23.2633 46.6019 20.6589 51.689 18.8073C58.5554 16.3231 65.7568 15.2501 72.899 15.5683C80.0542 15.8817 87.137 17.591 93.7349 20.6677C100.333 23.7444 106.2 28.0845 111.034 33.3511C115.869 38.6178 119.681 44.8372 122.173 51.6857C124.043 56.7811 125.118 62.1062 125.411 67.4925C125.699 72.8657 125.214 78.2821 123.921 83.5613C122.627 88.8405 120.574 93.8749 117.824 98.508C115.087 103.136 111.659 107.376 107.652 111.053C103.646 114.729 99.1403 117.768 94.2829 120.087C89.4302 122.419 84.226 124.03 78.8721 124.862C73.5003 125.686 68.0625 125.715 62.7225 124.949C57.3825 124.184 52.163 122.645 47.2504 120.354C42.3378 118.063 37.8039 115.054 33.7848 111.456C29.7658 107.857 26.2927 103.673 23.4709 99.0282C20.6538 94.3968 18.5561 89.3695 17.2232 84.1532C15.8903 78.937 15.3223 73.5316 15.5501 68.1045C15.7911 62.6727 16.8221 57.3254 18.6085 52.254C20.3949 47.1826 22.9271 42.3608 26.1395 37.9762C29.3519 33.5915 33.1847 29.7254 37.4909 26.5057L37.5041 26.5009ZM62.4809 108.171C62.4939 107.675 62.6085 107.172 62.8128 106.711L62.8295 106.675C64.3057 103.532 66.3713 100.741 68.8923 98.4244C71.4181 96.1207 74.373 94.3008 77.633 93.1143C80.8929 91.9278 84.3215 91.4093 87.742 91.5637C91.1577 91.7049 94.5341 92.5154 97.6896 93.9868L97.7255 94.0035C98.1785 94.2257 98.5897 94.5375 98.9185 94.9091C99.2472 95.2807 99.5115 95.7204 99.679 96.1805C99.856 96.6668 99.9183 97.1652 99.9005 97.648C99.8743 98.1488 99.755 98.6388 99.5376 99.105C99.3286 99.5532 99.0299 99.9596 98.6631 100.302C98.2963 100.643 97.8697 100.903 97.3882 101.093C96.915 101.265 96.4082 101.346 95.9123 101.333C95.4163 101.32 94.9131 101.205 94.4517 101.001L94.4159 100.984C92.1927 99.9473 89.8094 99.3707 87.4084 99.277C85.0158 99.1654 82.5922 99.5414 80.2787 100.383C77.9652 101.225 75.8717 102.508 74.1058 104.119C72.3316 105.747 70.8717 107.707 69.835 109.931L69.8267 109.949C69.6045 110.402 69.2927 110.813 68.9211 111.142C68.5495 111.47 68.1098 111.735 67.6497 111.902C67.1765 112.074 66.665 112.141 66.1822 112.124C65.6683 112.102 65.1783 111.983 64.73 111.774C64.277 111.552 63.8706 111.253 63.5287 110.886C63.1868 110.519 62.9225 110.08 62.7371 109.611C62.5649 109.138 62.4847 108.631 62.5025 108.149L62.4809 108.171ZM91.5751 60.3366C92.0483 60.3281 92.5061 60.3996 92.9483 60.5513C93.136 60.617 95.5396 61.454 98.2148 63.1599C100.953 64.9171 104.005 67.6171 105.491 71.453C105.743 72.1055 105.925 72.7687 106.041 73.4559C106.157 74.143 106.208 74.8541 106.186 75.5317C106.165 76.2094 106.073 76.8978 105.906 77.5838C105.76 78.2472 105.526 78.9129 105.234 79.5404C104.938 80.199 104.578 80.8063 104.16 81.3753C103.729 81.949 103.27 82.4882 102.756 82.958C102.255 83.4231 101.683 83.8547 101.061 84.2301C100.451 84.6008 99.8226 84.9189 99.1522 85.1629C98.5081 85.3973 97.827 85.5708 97.0908 85.675L97.0956 85.6881C96.3905 85.7959 95.6747 85.8332 94.9791 85.8035C94.2835 85.7738 93.5724 85.6605 92.8816 85.4802C92.1907 85.3 91.525 85.0659 90.8795 84.7649C90.2652 84.4675 89.6627 84.1211 89.1069 83.6982C88.5558 83.2885 88.043 82.8201 87.5683 82.2932C87.1117 81.7747 86.698 81.2107 86.3452 80.6097C85.9925 80.0086 85.7055 79.3837 85.4794 78.7216C84.5656 76.0472 84.5528 73.3128 84.9548 70.8591C85.7016 66.2852 87.9151 62.5916 88.0668 62.3131C88.3081 61.9127 88.6211 61.5457 88.976 61.2528C89.344 60.9551 89.749 60.7184 90.1697 60.5653C90.6035 60.4074 91.0659 60.3284 91.5261 60.3246L91.5751 60.3366ZM97.1551 76.8538C97.3929 76.6482 97.5805 76.3864 97.7322 76.1079C97.799 75.9645 97.8396 75.8306 97.8802 75.6967C97.9077 75.5676 97.9304 75.4254 97.9351 75.2748C97.935 75.1111 97.9266 74.9653 97.9099 74.8374C97.8895 74.7406 97.8644 74.6307 97.8393 74.5207C97.2174 73.3031 96.3913 72.2194 95.4015 71.2994C94.8563 70.7833 94.2599 70.3305 93.6431 69.9447C93.4102 70.6547 93.2575 71.3801 93.1668 72.1128C93.0131 73.449 93.0768 74.8102 93.37 76.1474C93.4083 76.2526 93.4549 76.3398 93.5063 76.4402C93.5805 76.5621 93.6678 76.6792 93.7682 76.7915C93.8638 76.8906 93.9594 76.9898 94.0814 77.0794C94.1674 77.1523 94.2977 77.2239 94.4591 77.2992C94.746 77.433 95.0663 77.495 95.3854 77.5128C95.7045 77.5307 96.0259 77.4732 96.3414 77.3584C96.6569 77.2436 96.9353 77.0678 97.1731 76.8622L97.1551 76.8538ZM69.4357 24.3761C64.4426 24.4816 59.4628 25.4009 54.7127 27.1149C49.9722 28.8552 45.5797 31.3471 41.6738 34.4806C37.781 37.6094 34.3964 41.3571 31.6763 45.6221C28.9563 49.887 26.9547 54.5306 25.755 59.3736C24.7547 63.4146 24.2982 67.6 24.413 71.8008L34.7711 68.0307C37.5758 67.0248 40.2237 65.6294 42.6409 63.8862C45.045 62.1478 47.2147 60.0927 49.0581 57.7545C50.9015 55.4163 52.4018 52.8309 53.5303 50.083C54.6589 47.3351 55.4074 44.4427 55.7292 41.4823L55.7519 41.34C55.8294 40.9397 55.9476 40.5691 56.1196 40.2237C56.2916 39.8783 56.4995 39.5495 56.748 39.2507C56.9965 38.9518 57.2988 38.6781 57.607 38.4617C57.9285 38.2405 58.2774 38.0539 58.6323 37.9247C58.9872 37.7956 59.3744 37.7142 59.7759 37.6722C60.1643 37.6351 60.5587 37.6553 60.9412 37.7245C61.3236 37.7937 61.7073 37.9071 62.048 38.066L62.0659 38.0743C62.4066 38.2332 62.7353 38.441 63.052 38.6979L63.1608 38.7923C65.3234 40.8484 67.7428 42.5878 70.3737 43.9674C73.0045 45.347 75.8157 46.3632 78.7308 46.9694C81.6459 47.5757 84.6337 47.7684 87.588 47.5417C90.547 47.3281 93.4725 46.695 96.2723 45.6759L106.626 41.8927C104.013 38.6009 100.973 35.6882 97.6096 33.2356C93.5776 30.2968 89.0725 28.0214 84.2343 26.5074C79.4091 24.9887 74.3942 24.2982 69.4142 24.3988L69.4357 24.3761ZM76.6072 116.308C79.9092 115.851 83.1704 115.036 86.2893 113.871L86.3025 113.866C89.4405 112.754 92.4625 111.282 95.2861 109.51C98.1096 107.738 100.735 105.666 103.113 103.326C105.492 100.987 107.598 98.3891 109.407 95.5872C111.229 92.7806 112.731 89.7923 113.89 86.6763C115.048 83.5603 115.862 80.3165 116.325 77.0071C116.779 73.7156 116.882 70.3585 116.623 67.029C116.364 63.6995 115.734 60.4155 114.753 57.2296C113.933 54.5659 112.866 51.9621 111.572 49.4707L99.3343 53.9249C96.1269 55.0923 92.8071 55.8689 89.4621 56.2081C86.1039 56.5521 82.699 56.4814 79.3179 55.9852C75.9499 55.4842 72.6547 54.5698 69.5482 53.274C67.2832 52.3269 65.0874 51.1611 63.0063 49.8196C62.2923 52.1933 61.3549 54.4846 60.2154 56.6708C58.6602 59.6782 56.7369 62.4921 54.4741 65.0276C52.2161 67.5762 49.6401 69.8238 46.8465 71.7189C44.066 73.6092 41.0237 75.1482 37.8116 76.3024L25.5785 80.7698C26.1888 83.51 27.0405 86.1773 28.1288 88.7584C29.4204 91.8163 31.0491 94.7367 32.9955 97.467C34.9372 100.184 37.156 102.681 39.6378 104.919C42.1195 107.157 44.8282 109.118 47.7185 110.761C50.6087 112.403 53.6806 113.726 56.8802 114.705C60.0666 115.689 63.3498 116.325 66.6759 116.588C70.002 116.852 73.3447 116.751 76.6466 116.294L76.6072 116.308Z" fill="#B5D3E8"/>
</svg>
