<svg width="117" height="124" viewBox="0 0 117 124" fill="none" xmlns="http://www.w3.org/2000/svg">
<path d="M38.6616 120.98C38.2915 121.299 37.8651 121.551 37.417 121.714C36.9594 121.881 36.4705 121.961 35.9825 121.956C35.504 121.946 35.0168 121.854 34.5625 121.673C34.0987 121.497 33.6929 121.212 33.34 120.866C32.9836 120.51 32.7122 120.09 32.5421 119.623L12.3005 64.0096C10.6921 59.7686 10.0112 55.2872 10.2509 50.7839C10.4905 46.2806 11.6577 41.7744 13.7299 37.5002C15.7961 33.2391 18.685 29.3695 22.2095 26.0892C25.7149 22.8158 29.8585 20.1092 34.4366 18.1514L34.4461 18.1479C36.8392 17.1581 39.3026 16.3911 41.8076 15.8572C44.3126 15.3234 46.8688 15.0192 49.4347 14.9491C52.004 14.8886 54.5378 15.0569 57.0076 15.4644C59.4773 15.872 61.9056 16.5214 64.2212 17.3954C64.8341 17.6258 65.4314 17.8726 66.0227 18.1325L72.995 4.53832C73.7687 3.01505 75.6426 2.40857 77.1694 3.19175C78.6927 3.96539 79.2991 5.83933 78.516 7.36607L71.4613 21.1198C73.256 22.3129 74.9268 23.6699 76.4408 25.1595C78.1429 26.8399 79.6474 28.6893 80.9274 30.6635C82.198 32.6413 83.2475 34.7535 84.056 36.975L87.9313 47.5927L102.239 57.0588C102.723 57.3793 103.156 57.7398 103.539 58.1402C103.926 58.5501 104.263 58.9999 104.558 59.4861C104.845 59.9758 105.074 60.4863 105.236 61.0211C105.398 61.5559 105.503 62.1115 105.534 62.6723C105.566 63.2332 105.533 63.7958 105.446 64.3566C105.355 64.908 105.2 65.4611 104.98 65.9838C104.769 66.5031 104.501 67.0112 104.171 67.4985C103.85 67.9823 103.47 68.4227 103.058 68.832L97.5958 74.1456L99.6502 79.7899C100.008 80.7719 100.139 81.8147 100.055 82.8602C99.9678 83.8961 99.6716 84.9216 99.1648 85.8727C98.664 86.8108 97.9873 87.651 97.1527 88.3542C96.3372 89.0505 95.3865 89.6125 94.3663 89.9838L82.8584 94.1724L85.1592 100.494C85.3292 100.961 85.3909 101.457 85.3468 101.958C85.3054 102.438 85.1677 102.92 84.9294 103.363C84.6972 103.793 84.3931 104.174 84.0196 104.482C83.6495 104.801 83.2231 105.053 82.775 105.216C82.3174 105.383 81.8285 105.463 81.3404 105.457C80.8524 105.451 80.3747 105.355 79.9205 105.175C79.4532 104.989 79.0414 104.718 78.7014 104.377C78.3451 104.021 78.0736 103.602 77.9036 103.134L74.3605 93.3999C74.1905 92.9327 74.1288 92.4369 74.1729 91.935C74.2143 91.4556 74.352 90.9736 74.5903 90.5306C74.8129 90.104 75.1266 89.7199 75.5096 89.4077C75.8797 89.0895 76.3061 88.8371 76.7542 88.674L91.8756 83.1703C91.9995 83.1252 92.0975 83.0679 92.1824 83.0046C92.2578 82.9448 92.3167 82.8694 92.3687 82.7749C92.4085 82.7064 92.4259 82.6353 92.4336 82.5677C92.4388 82.5226 92.431 82.4715 92.4137 82.4238L89.582 74.6438C89.464 74.3197 89.3937 73.9781 89.384 73.6253C89.3649 73.276 89.4038 72.9379 89.4938 72.592C89.5778 72.2591 89.7104 71.941 89.8914 71.6375C90.063 71.3375 90.277 71.0653 90.524 70.8242L97.6994 63.8397L97.8051 63.7148C97.8268 63.6854 97.845 63.6463 97.8692 63.5943C97.8909 63.5648 97.8996 63.5293 97.9047 63.4842L97.9056 63.3975L97.8908 63.3273L97.8631 63.2511L97.8162 63.1817L97.7373 63.1133L82.4493 53C82.1354 52.7903 81.8588 52.5346 81.636 52.2486C81.4001 51.9566 81.2145 51.6246 81.0896 51.2814L76.8386 39.6019C76.2165 37.8632 75.3882 36.2104 74.3891 34.6521C73.3936 33.1033 72.2081 31.6561 70.8589 30.3224C69.9684 29.448 69.0121 28.63 68.0063 27.8839L63.8712 35.9537C67.7347 38.6181 70.8443 42.4747 72.5725 47.2227C74.7865 53.3056 74.3229 59.7152 71.7881 65.1511C69.2533 70.5869 64.6413 75.0621 58.5584 77.2761C52.4755 79.49 46.0659 79.0264 40.6301 76.4916C35.1942 73.9569 30.7191 69.3448 28.5051 63.262C26.2911 57.1791 26.7547 50.7695 29.2895 45.3337C31.8243 39.8978 36.4363 35.4226 42.5192 33.2087C47.8393 31.2723 53.3984 31.3868 58.3538 33.1355L62.6353 24.7857C62.1611 24.5804 61.6903 24.3846 61.204 24.2053C59.3522 23.508 57.4285 22.9989 55.439 22.6649C53.4399 22.3343 51.4011 22.191 49.3579 22.2437C47.3053 22.2997 45.2449 22.5422 43.2218 22.9762C41.1987 23.4102 39.2095 24.0263 37.2957 24.82C33.606 26.4005 30.2667 28.5877 27.4346 31.2488C24.6182 33.8935 22.302 36.9932 20.6621 40.4082C19.0187 43.8136 18.1052 47.3853 17.9199 50.9403C17.7346 54.4953 18.2774 58.0336 19.5656 61.3653L39.8237 116.994C39.9938 117.462 40.0554 117.957 40.0114 118.459C39.9699 118.939 39.8322 119.421 39.594 119.864C39.3713 120.29 39.0576 120.674 38.6781 120.996L38.6616 120.98ZM53.6925 55.7789C52.9189 57.3021 51.0449 57.9086 49.5182 57.1254C47.9949 56.3518 47.3884 54.4779 48.1716 52.9511L50.0429 49.3116C49.5306 49.3576 49.0201 49.4679 48.5053 49.6553C46.9702 50.214 45.7943 51.3438 45.161 52.7188L45.1515 52.7223C44.5147 54.0878 44.4017 55.7053 44.9638 57.2499C45.5225 58.7849 46.6524 59.9609 48.0274 60.5941C49.4058 61.2369 51.0234 61.35 52.5584 60.7913C54.103 60.2291 55.2694 59.1028 55.9062 57.7373L55.9027 57.7278C56.5455 56.3493 56.6586 54.7317 56.0999 53.1967C55.9576 52.8058 55.7806 52.4383 55.569 52.0942L53.6795 55.7728L53.6925 55.7789ZM53.0933 43.3641L55.4827 38.7154C52.0523 37.6857 48.272 37.712 44.649 39.0306C40.1774 40.6581 36.7847 43.9445 34.9265 47.9464C33.0648 51.9388 32.7186 56.6536 34.3461 61.1252C35.9736 65.5968 39.26 68.9895 43.2619 70.8477C47.2543 72.7094 51.9691 73.0556 56.4407 71.4281C60.9123 69.8006 64.305 66.5142 66.1632 62.5123C68.0249 58.5199 68.3711 53.8051 66.7436 49.3335C65.5741 46.1205 63.5466 43.4572 61.0097 41.5301L58.6298 46.1754C60.0839 47.4709 61.2494 49.1305 61.9574 51.0755C63.1025 54.2218 62.866 57.5471 61.5466 60.3596L61.5336 60.3535C60.2177 63.1755 57.832 65.4906 54.6857 66.6358C51.5394 67.781 48.2141 67.5444 45.4016 66.2251C42.5927 64.9152 40.2645 62.5234 39.1193 59.3771C37.9776 56.2403 38.2176 52.9246 39.5301 50.0931L39.5171 50.087C40.8269 47.278 43.2187 44.9499 46.365 43.8047C48.596 42.9927 50.9105 42.8845 53.0769 43.3485L53.0933 43.3641Z" fill="#B5D3E8"/>
</svg>
