<svg width="251" height="244" viewBox="0 0 251 244" fill="none" xmlns="http://www.w3.org/2000/svg">
<path d="M204.525 128.167C205.184 129.978 205.292 131.943 204.834 133.814C204.376 135.686 203.373 137.379 201.953 138.681C200.532 139.983 198.758 140.834 196.853 141.127C194.949 141.42 193.001 141.142 191.254 140.328C189.508 139.513 188.043 138.2 187.043 136.552C186.044 134.905 185.555 132.999 185.639 131.074C185.723 129.149 186.376 127.292 187.515 125.739C188.655 124.185 190.229 123.004 192.04 122.345C194.467 121.461 197.147 121.578 199.488 122.67C201.83 123.762 203.642 125.739 204.525 128.167ZM211.963 159.402C213.768 168.532 212.252 178.005 207.687 186.115C203.123 194.225 195.811 200.437 187.07 203.631L168.762 210.295C159.05 213.818 148.337 213.345 138.974 208.979C129.611 204.613 122.362 196.711 118.819 187.006L107.571 156.104C95.2333 158.911 82.2948 157.12 71.184 151.065C60.0732 145.011 51.5538 135.11 47.2246 123.22L36.1187 92.7064C34.9405 89.4694 35.0964 85.8969 36.5523 82.7748C38.0081 79.6528 40.6446 77.2369 43.8816 76.0587L56.0869 71.6163C57.7055 71.0272 59.4917 71.1052 61.0528 71.8332C62.6138 72.5611 63.8217 73.8793 64.4108 75.4978C64.9999 77.1163 64.9219 78.9026 64.194 80.4636C63.4661 82.0247 62.1479 83.2326 60.5293 83.8217L48.324 88.2641L59.4299 118.777C61.1947 123.627 63.9054 128.079 67.4046 131.872C70.9038 135.666 75.1218 138.727 79.8137 140.877C84.5055 143.027 89.5778 144.224 94.736 144.397C99.8942 144.571 105.035 143.718 109.861 141.889C129.685 134.38 139.811 111.766 132.432 91.49L121.556 61.6098L109.351 66.0522C107.732 66.6413 105.946 66.5633 104.385 65.8353C102.824 65.1074 101.616 63.7892 101.027 62.1707C100.438 60.5521 100.516 58.7659 101.244 57.2049C101.972 55.6438 103.29 54.4359 104.908 53.8468L117.114 49.4044C120.351 48.2262 123.923 48.3822 127.045 49.8381C130.167 51.2939 132.583 53.9303 133.761 57.1674L144.637 87.0476C153.755 112.099 142.664 139.85 119.774 151.654L131.024 182.564C133.38 189.038 138.212 194.311 144.456 197.222C150.7 200.134 157.845 200.446 164.32 198.09L182.628 191.426C188.168 189.399 192.855 185.551 195.921 180.511C198.987 175.471 200.249 169.539 199.502 163.687C191.529 164.714 183.459 162.747 176.853 158.167C170.246 153.587 165.574 146.719 163.739 138.893C161.904 131.066 163.038 122.838 166.92 115.799C170.803 108.76 177.158 103.411 184.757 100.788C192.355 98.1644 200.657 98.4528 208.055 101.597C215.453 104.741 221.422 110.518 224.807 117.81C228.191 125.101 228.751 133.389 226.377 141.069C224.004 148.749 218.866 155.276 211.958 159.387L211.963 159.402ZM213.679 124.835C212.361 121.214 209.999 118.065 206.892 115.787C203.784 113.508 200.071 112.202 196.221 112.034C192.372 111.866 188.558 112.844 185.264 114.843C181.97 116.842 179.342 119.773 177.714 123.265C176.085 126.757 175.529 130.654 176.115 134.463C176.701 138.271 178.404 141.82 181.007 144.661C183.61 147.502 186.998 149.508 190.741 150.423C194.483 151.339 198.414 151.125 202.035 149.807C206.891 148.04 210.845 144.416 213.029 139.733C215.213 135.05 215.447 129.691 213.679 124.835Z" fill="#B5D3E8"/>
</svg>
