<svg width="127" height="127" viewBox="0 0 127 127" fill="none" xmlns="http://www.w3.org/2000/svg">
<path d="M26.6104 76.2182C26.9993 76.3361 27.4076 76.3763 27.8121 76.3364C28.2165 76.2965 28.6091 76.1774 28.9675 75.9858C29.3259 75.7942 29.643 75.5339 29.9008 75.2197C30.1586 74.9055 30.352 74.5437 30.4699 74.1548C31.3762 71.1664 32.9657 68.43 35.1127 66.1624C37.2597 63.8947 39.9052 62.1581 42.8397 61.0901C45.7742 60.022 48.917 59.6518 52.0193 60.0089C55.1216 60.3659 58.0982 61.4403 60.7133 63.1471C61.401 63.5949 62.2383 63.7512 63.0413 63.5817C63.8442 63.4122 64.5469 62.9308 64.9949 62.2432C65.1552 61.9998 65.279 61.7342 65.3625 61.4549C66.2687 58.4665 67.8583 55.7301 70.0053 53.4625C72.1523 51.1949 74.7978 49.4583 77.7323 48.3902C80.6667 47.3221 83.8096 46.952 86.9119 47.309C90.0142 47.666 92.9908 48.7405 95.6059 50.4472C96.2937 50.8956 97.1315 51.0524 97.9349 50.8831C98.7383 50.7138 99.4416 50.2323 99.89 49.5445C100.338 48.8567 100.495 48.019 100.326 47.2155C100.157 46.4121 99.6751 45.7089 98.9873 45.2605C95.1572 42.7465 90.7358 41.2789 86.1626 41.0035C87.6084 38.2385 88.1844 35.1009 87.8152 32.0026C87.4459 28.9043 86.1485 25.99 84.0933 23.6422C82.0381 21.2944 79.3212 19.6228 76.299 18.8468C73.2768 18.0708 70.0906 18.2266 67.1585 19.2938C64.2264 20.361 61.6855 22.2897 59.8692 24.8268C58.0529 27.3639 57.046 30.3908 56.9808 33.5104C56.9156 36.6299 57.795 39.6963 59.5037 42.3071C61.2123 44.9179 63.6704 46.9512 66.5553 48.14C64.1522 50.4112 62.2041 53.1195 60.815 56.1201C57.8222 54.7144 54.5889 53.892 51.2882 53.6968C52.734 50.9317 53.31 47.7941 52.9408 44.6958C52.5715 41.5975 51.2741 38.6833 49.2189 36.3355C47.1637 33.9877 44.4468 32.3161 41.4246 31.5401C38.4024 30.764 35.2162 30.9198 32.2841 31.987C29.352 33.0542 26.8111 34.9829 24.9948 37.52C23.1785 40.0571 22.1716 43.0841 22.1064 46.2036C22.0412 49.3232 22.9206 52.3896 24.6293 55.0004C26.3379 57.6112 28.796 59.6444 31.6809 60.8333C28.3352 63.9845 25.8753 67.9587 24.547 72.3586C24.429 72.7475 24.3889 73.1559 24.4287 73.5603C24.4686 73.9647 24.5877 74.3574 24.7793 74.7157C24.971 75.0741 25.2313 75.3913 25.5454 75.6491C25.8596 75.9068 26.2215 76.1002 26.6104 76.2182ZM69.2685 25.1247C70.9939 24.4967 72.8668 24.3945 74.6504 24.8309C76.434 25.2673 78.0481 26.2229 79.2886 27.5766C80.5291 28.9304 81.3403 30.6217 81.6196 32.4365C81.899 34.2513 81.6339 36.1082 80.8579 37.7724C80.0819 39.4365 78.8298 40.8332 77.26 41.7857C75.6902 42.7383 73.8732 43.204 72.0388 43.1239C70.2043 43.0438 68.4348 42.4215 66.9541 41.3358C65.4733 40.25 64.3477 38.7495 63.7197 37.0241C62.8776 34.7103 62.989 32.1568 64.0296 29.9252C65.0702 27.6937 66.9547 25.9669 69.2685 25.1247ZM34.3722 37.8259C36.0977 37.1979 37.9706 37.0957 39.7542 37.5321C41.5378 37.9685 43.1519 38.9241 44.3924 40.2778C45.6329 41.6316 46.4441 43.3228 46.7234 45.1377C47.0028 46.9525 46.7377 48.8094 45.9616 50.4735C45.1856 52.1377 43.9336 53.5344 42.3638 54.4869C40.794 55.4395 38.977 55.9052 37.1426 55.8251C35.3081 55.745 33.5386 55.1227 32.0579 54.037C30.5771 52.9512 29.4515 51.4507 28.8235 49.7253C27.9813 47.4115 28.0928 44.858 29.1334 42.6264C30.174 40.3949 32.0585 38.6681 34.3722 37.8259ZM99.9222 78.8078C101.368 76.0427 101.944 72.9051 101.575 69.8068C101.205 66.7085 99.9081 63.7942 97.8529 61.4464C95.7978 59.0987 93.0808 57.4271 90.0586 56.651C87.0364 55.875 83.8502 56.0308 80.9181 57.098C77.9861 58.1652 75.4451 60.0939 73.6288 62.631C71.8125 65.1681 70.8057 68.195 70.7404 71.3146C70.6752 74.4342 71.5546 77.5006 73.2633 80.1114C74.9719 82.7222 77.43 84.7554 80.3149 85.9442C77.9119 88.2154 75.9637 90.9238 74.5746 93.9243C71.5818 92.5186 68.3485 91.6962 65.0478 91.501C66.4936 88.7359 67.0697 85.5984 66.7004 82.5001C66.3311 79.4018 65.0337 76.4875 62.9785 74.1397C60.9234 71.7919 58.2064 70.1203 55.1842 69.3443C52.162 68.5683 48.9758 68.7241 46.0437 69.7913C43.1117 70.8584 40.5707 72.7871 38.7544 75.3242C36.9381 77.8613 35.9313 80.8883 35.866 84.0078C35.8008 87.1274 36.6802 90.1938 38.3889 92.8046C40.0975 95.4154 42.5556 97.4487 45.4405 98.6375C42.0948 101.789 39.6349 105.763 38.3066 110.163C38.1887 110.552 38.1485 110.96 38.1883 111.365C38.2282 111.769 38.3474 112.162 38.539 112.52C38.7306 112.878 38.9909 113.196 39.3051 113.453C39.6192 113.711 39.9811 113.904 40.37 114.022C40.7589 114.14 41.1672 114.181 41.5717 114.141C41.9761 114.101 42.3687 113.982 42.7271 113.79C43.0855 113.598 43.4026 113.338 43.6604 113.024C43.9182 112.71 44.1116 112.348 44.2295 111.959C45.1358 108.971 46.7253 106.234 48.8723 103.967C51.0194 101.699 53.6648 99.9623 56.5993 98.8943C59.5338 97.8262 62.6766 97.4561 65.7789 97.8131C68.8812 98.1701 71.8578 99.2446 74.4729 100.951C75.1606 101.399 75.998 101.555 76.8009 101.386C77.6038 101.216 78.3065 100.735 78.7545 100.047C78.9148 99.804 79.0387 99.5384 79.1221 99.2591C80.0284 96.2707 81.6179 93.5344 83.7649 91.2667C85.9119 88.9991 88.5574 87.2625 91.4919 86.1944C94.4264 85.1264 97.5692 84.7562 100.671 85.1132C103.774 85.4703 106.75 86.5447 109.366 88.2514C110.053 88.6998 110.891 88.8566 111.694 88.6874C112.498 88.5181 113.201 88.0366 113.65 87.3488C114.098 86.6609 114.255 85.8232 114.085 85.0198C113.916 84.2163 113.435 83.5131 112.747 83.0647C108.917 80.5507 104.495 79.0831 99.9222 78.8078ZM48.1319 75.6302C49.8573 75.0021 51.7302 74.8999 53.5138 75.3363C55.2974 75.7728 56.9115 76.7283 58.152 78.0821C59.3925 79.4358 60.2037 81.1271 60.483 82.9419C60.7624 84.7567 60.4973 86.6136 59.7213 88.2778C58.9453 89.9419 57.6932 91.3386 56.1234 92.2912C54.5536 93.2437 52.7366 93.7094 50.9022 93.6293C49.0677 93.5492 47.2982 92.9269 45.8175 91.8412C44.3367 90.7554 43.2111 89.255 42.5831 87.5295C41.741 85.2157 41.8524 82.6622 42.893 80.4306C43.9336 78.1991 45.8181 76.4723 48.1319 75.6302ZM83.0281 62.929C84.7535 62.301 86.6265 62.1987 88.41 62.6351C90.1936 63.0716 91.8077 64.0271 93.0482 65.3809C94.2887 66.7347 95.0999 68.4259 95.3793 70.2407C95.6586 72.0555 95.3935 73.9124 94.6175 75.5766C93.8415 77.2407 92.5894 78.6374 91.0196 79.59C89.4498 80.5425 87.6328 81.0082 85.7984 80.9281C83.964 80.848 82.1945 80.2258 80.7137 79.14C79.2329 78.0542 78.1073 76.5538 77.4793 74.8283C76.6372 72.5146 76.7487 69.961 77.7893 67.7295C78.8298 65.4979 80.7143 63.7711 83.0281 62.929Z" fill="#B5D3E8"/>
</svg>
