<svg width="123" height="130" viewBox="0 0 123 130" fill="none" xmlns="http://www.w3.org/2000/svg">
<path d="M40.5045 127.718C40.1144 128.046 39.6732 128.314 39.1974 128.488C38.7215 128.661 38.2055 128.751 37.6927 128.741C37.1798 128.732 36.6732 128.632 36.2019 128.441C35.722 128.253 35.283 127.963 34.9234 127.594C34.552 127.219 34.2632 126.776 34.0869 126.291L12.7964 67.7963C11.1047 63.3367 10.3875 58.6203 10.6425 53.8833C10.8975 49.1462 12.1225 44.4088 14.3064 39.9103C16.4848 35.4236 19.5223 31.3591 23.223 27.9055C26.9152 24.4551 31.2706 21.6158 36.0872 19.5589L36.0959 19.5558C38.6072 18.5143 41.2036 17.7065 43.8386 17.1394C46.4736 16.5722 49.1622 16.2599 51.8571 16.1805C54.5551 16.1097 57.2281 16.2929 59.8233 16.7201C62.4303 17.1528 64.9681 17.8261 67.4108 18.7497C69.8535 19.6732 72.1712 20.8187 74.3143 22.1844C76.4693 23.5556 78.4638 25.1322 80.2539 26.9007C82.044 28.6693 83.6233 30.6126 84.9706 32.6991C86.3061 34.78 87.4182 37.0011 88.2598 39.3403L92.3338 50.5066L107.382 60.4615C107.886 60.7973 108.348 61.1778 108.747 61.6009C109.157 62.0295 109.517 62.5061 109.811 63.0165C110.116 63.5324 110.352 64.0736 110.516 64.6312C110.691 65.1944 110.795 65.7741 110.834 66.3672C110.874 66.9603 110.843 67.5495 110.746 68.1434C110.645 68.7287 110.48 69.2982 110.254 69.8607C110.042 70.4083 109.748 70.9464 109.403 71.4539C109.059 71.9613 108.67 72.4263 108.236 72.8489L102.49 78.4379L104.65 84.373C105.025 85.4026 105.16 86.4999 105.071 87.6004C104.978 88.6923 104.664 89.7669 104.135 90.7629C103.611 91.7471 102.896 92.6346 102.027 93.3719C101.168 94.1061 100.167 94.6955 99.0945 95.086L86.9906 99.4915L89.4122 106.145C89.5917 106.638 89.6556 107.163 89.6117 107.689C89.5701 108.194 89.4208 108.699 89.1771 109.16C88.9302 109.612 88.6063 110.014 88.2249 110.339C87.8379 110.676 87.3936 110.936 86.9091 111.112C86.4332 111.285 85.9172 111.375 85.4044 111.366C84.8915 111.357 84.3849 111.257 83.9136 111.066C83.422 110.872 82.9829 110.582 82.6265 110.221C82.2551 109.847 81.9663 109.404 81.7868 108.91L78.0615 98.6753C77.882 98.1821 77.8181 97.6567 77.862 97.1312C77.9036 96.6262 78.0529 96.1211 78.2966 95.6601C78.5348 95.2109 78.8588 94.8088 79.2575 94.4775C79.6476 94.1494 80.0888 93.881 80.5646 93.7078L96.4754 87.9168C96.6051 87.8696 96.7113 87.8113 96.7939 87.7421C96.8678 87.676 96.9354 87.5926 96.9826 87.5068C97.0243 87.4329 97.0455 87.3566 97.0525 87.2952C97.0573 87.2543 97.047 87.1992 97.0281 87.1473L94.0492 78.9627C93.9263 78.6253 93.8523 78.2603 93.8365 77.8937C93.8206 77.5272 93.8543 77.1622 93.9494 76.8042C94.039 76.4581 94.1813 76.1222 94.3676 75.7996C94.5571 75.4857 94.7764 75.2001 95.0289 74.9515L102.581 67.5975L102.691 67.4693C102.72 67.4394 102.733 67.3953 102.755 67.3481C102.772 67.3127 102.788 67.2773 102.79 67.2278L102.796 67.1373L102.785 67.0531L102.757 66.9753L102.702 66.9068L102.619 66.8392L86.5389 56.2018C86.2124 55.9778 85.9229 55.7206 85.6844 55.4155C85.4342 55.1048 85.2414 54.7635 85.1091 54.4001L80.6407 42.1232C79.988 40.3032 79.1159 38.5532 78.0606 36.9189C77.0084 35.2933 75.7667 33.7661 74.348 32.3718C72.9293 30.9776 71.3605 29.736 69.665 28.658C67.9577 27.5746 66.1184 26.6666 64.176 25.9332C62.2336 25.1999 60.1945 24.6585 58.1115 24.3193C56.0166 23.9746 53.866 23.8266 51.7209 23.8823C49.5585 23.9443 47.3986 24.2013 45.2615 24.6558C43.133 25.1072 41.0479 25.7583 39.0289 26.5912C35.1482 28.2584 31.6343 30.5563 28.6523 33.3465C25.6876 36.1304 23.2571 39.3862 21.526 42.9752C19.8005 46.5525 18.8372 50.3128 18.6424 54.0579C18.4445 57.7944 19.0151 61.5157 20.3691 65.0204L41.6745 123.53C41.854 124.023 41.9179 124.548 41.874 125.074C41.8238 125.582 41.6832 126.084 41.4394 126.545C41.2012 126.994 40.8773 127.396 40.4786 127.727L40.5045 127.718ZM67.4874 51.7214C67.124 51.7459 66.7621 51.8286 66.4216 51.9428C65.897 52.1435 65.4156 52.4363 65.0177 52.7967C64.6198 53.157 64.2856 53.6118 64.049 54.1192C63.8069 54.6385 63.6788 55.175 63.6585 55.7115C63.6327 56.2597 63.7265 56.8135 63.9186 57.3413C64.1107 57.869 64.4034 58.3503 64.7638 58.7483C65.136 59.1517 65.5821 59.489 66.0864 59.717C66.6025 59.9504 67.1508 60.084 67.6873 60.1043C68.2269 60.1332 68.7807 60.0395 69.3084 59.8474C69.649 59.7332 69.9762 59.5554 70.2789 59.3374C70.5731 59.1225 70.846 58.8763 71.074 58.5875L71.0881 58.5725C71.2942 58.331 71.5269 58.1091 71.7786 57.9391C72.0358 57.7573 72.3173 57.6157 72.6029 57.5117C72.8884 57.4078 73.1983 57.344 73.509 57.3093C73.8228 57.2833 74.1406 57.295 74.4333 57.3452C74.7464 57.3978 75.0547 57.4914 75.3293 57.6266C75.6007 57.7531 75.8674 57.9206 76.1121 58.1353C76.3505 58.3326 76.5638 58.5686 76.7424 58.8171C76.9242 59.0743 77.0745 59.3527 77.1816 59.6468L79.5496 66.153C79.8866 67.0788 80.0269 68.0565 79.9894 69.0303C79.9464 70.016 79.7194 70.9804 79.298 71.8686C78.8798 72.7655 78.2869 73.5594 77.5682 74.2227C76.8408 74.8892 75.9984 75.4015 75.0727 75.7384L72.9357 76.5163L73.0428 76.8104C73.5647 78.2175 73.7862 79.7144 73.719 81.1987C73.6518 82.6831 73.2959 84.155 72.6717 85.5089C72.0389 86.866 71.137 88.0761 70.0431 89.0817C68.9492 90.0873 67.6602 90.8798 66.2499 91.3931C64.8397 91.9064 63.3428 92.1279 61.8616 92.0693C60.3772 92.0021 58.9085 91.6549 57.5514 91.022C56.1943 90.3892 54.9756 89.4905 53.97 88.3966C52.9644 87.3027 52.1805 86.0105 51.6672 84.6003L51.5688 84.303L49.4318 85.0808C48.5061 85.4177 47.5283 85.558 46.5545 85.5205C45.5689 85.4776 44.6131 85.2474 43.7162 84.8292C42.8193 84.4109 42.0286 83.8267 41.3653 83.108C40.6988 82.3805 40.1865 81.5382 39.8495 80.6125L30.5222 54.9857C30.1852 54.06 30.0449 53.0823 30.0824 52.1084C30.1198 51.1346 30.3587 50.1756 30.7769 49.2788L30.7824 49.267C31.2006 48.3701 31.7904 47.5676 32.5036 46.9161C33.231 46.2496 34.0734 45.7373 34.9991 45.4003L60.6258 36.0729C61.5516 35.736 62.538 35.5925 63.5118 35.63C64.477 35.6706 65.4359 35.9095 66.3414 36.3245L66.3533 36.3301C67.2501 36.7483 68.0526 37.338 68.7042 38.0513C69.3706 38.7787 69.883 39.621 70.2199 40.5467L72.588 47.0529C72.6887 47.3298 72.7526 47.6397 72.7786 47.9535C72.8102 48.2556 72.7898 48.5765 72.7372 48.8896C72.6846 49.2027 72.5879 49.5024 72.4558 49.7857C72.3293 50.0571 72.1618 50.3238 71.9589 50.574L71.9534 50.5858C71.7561 50.8242 71.5201 51.0374 71.2685 51.2074C71.0027 51.3924 70.7211 51.534 70.4442 51.6348C70.1587 51.7387 69.8488 51.8025 69.5381 51.8372C69.2242 51.8633 68.9065 51.8516 68.5934 51.799L68.5729 51.7966C68.2158 51.7306 67.8453 51.7087 67.4732 51.7364L67.4874 51.7214ZM72.047 66.4832L71.7528 66.5903C70.3457 67.1123 68.8489 67.3337 67.3645 67.2665C65.8888 67.1962 64.4201 66.8489 63.063 66.2161C61.6972 65.5864 60.4872 64.6845 59.4816 63.5906C58.4759 62.4968 57.6866 61.2164 57.1702 59.7975C56.6569 58.3872 56.4354 56.8904 56.4939 55.4092C56.5611 53.9248 56.9171 52.4529 57.5412 51.099C58.1741 49.7419 59.0759 48.5318 60.1698 47.5262C61.2637 46.5206 62.5441 45.7312 63.963 45.2148L64.2603 45.1164L63.4825 42.9794C63.4667 42.9361 63.4424 42.896 63.4243 42.8732C63.3944 42.8449 63.3645 42.8166 63.3204 42.8032C63.2818 42.7781 63.2409 42.7733 63.2 42.7686C63.1709 42.7694 63.1245 42.7765 63.0726 42.7954L37.4459 52.1228C37.4026 52.1385 37.3625 52.1629 37.3397 52.181C37.3114 52.2109 37.2862 52.2495 37.2697 52.2849C37.2564 52.3289 37.243 52.373 37.2438 52.4021C37.2359 52.4343 37.2517 52.4776 37.2674 52.5209L46.5948 78.1476C46.6106 78.1909 46.6349 78.231 46.653 78.2538C46.6829 78.2821 46.7128 78.3104 46.7482 78.3269C46.7923 78.3403 46.8277 78.3568 46.8686 78.3615C46.9064 78.3575 46.9528 78.3504 46.996 78.3347L53.5022 75.9666C53.8082 75.8651 54.1149 75.7926 54.4083 75.7642C54.7308 75.735 55.04 75.7499 55.3326 75.8001L55.3444 75.8056C55.6489 75.8614 55.9486 75.958 56.2318 76.0901C56.5268 76.2277 56.7849 76.3983 57.0233 76.5957C57.2617 76.793 57.4749 77.029 57.6449 77.2806C57.8298 77.5465 57.9715 77.828 58.0754 78.1135C58.1794 78.399 58.2432 78.7089 58.2779 79.0197C58.3008 79.3249 58.2891 79.6426 58.2364 79.9557L58.2372 79.9848C58.1713 80.342 58.1494 80.7125 58.177 81.0845C58.2015 81.448 58.2755 81.8129 58.3984 82.1503C58.5991 82.675 58.8919 83.1563 59.2522 83.5542C59.6213 83.949 60.076 84.2831 60.5835 84.5198C61.0909 84.7564 61.6306 84.8931 62.1789 84.9189C62.7185 84.9478 63.2754 84.8627 63.8031 84.6706C64.3309 84.4785 64.8122 84.1858 65.207 83.8167C65.6104 83.4446 65.9477 82.9984 66.1757 82.4942L66.1812 82.4824C66.4123 81.9867 66.5459 81.4384 66.5717 80.8901C66.6006 80.3505 66.5155 79.7936 66.3234 79.2658C66.2006 78.9284 66.0345 78.6067 65.8166 78.304C65.5986 78.0012 65.3436 77.7315 65.0635 77.5003L65.0454 77.4775C64.8039 77.2714 64.582 77.0387 64.412 76.787C64.2302 76.5298 64.0886 76.2483 63.9846 75.9628C63.8807 75.6772 63.8169 75.3673 63.7822 75.0566C63.7562 74.7428 63.7679 74.425 63.8236 74.1206C63.8762 73.8075 63.9729 73.5077 64.0995 73.2363C64.2315 72.9531 64.399 72.6864 64.5964 72.448C64.8079 72.1946 65.0438 71.9814 65.2782 71.8177L65.2868 71.8146C65.5299 71.6477 65.8083 71.4974 66.1111 71.3872L72.6141 69.0105C72.6574 68.9947 72.6888 68.9735 72.7203 68.9522C72.7486 68.9223 72.7769 68.8924 72.7989 68.8452C72.8154 68.8098 72.8201 68.7689 72.8248 68.728C72.824 68.6989 72.817 68.6525 72.8012 68.6092L72.0234 66.4722L72.047 66.4832Z" fill="#B5D3E8"/>
</svg>
