<svg width="122" height="128" viewBox="0 0 122 128" fill="none" xmlns="http://www.w3.org/2000/svg">
<path d="M40.024 125.353C39.6346 125.68 39.1978 125.944 38.7273 126.115C38.2568 126.287 37.7481 126.375 37.2438 126.365C36.7396 126.354 36.2379 126.262 35.7719 126.069C35.2915 125.88 34.8637 125.592 34.5058 125.23C34.1382 124.863 33.8574 124.424 33.681 123.94L12.6438 66.1405C10.9684 61.737 10.2625 57.0694 10.5165 52.3995C10.7679 47.7226 11.9837 43.0336 14.1348 38.5855C16.284 34.1543 19.2869 30.1389 22.9446 26.7248C26.5906 23.3229 30.8934 20.5056 35.6546 18.482L35.6688 18.4768C38.1509 17.4442 40.7185 16.6469 43.3193 16.0959C45.9246 15.5352 48.5799 15.2226 51.2417 15.1499C53.9133 15.0817 56.5461 15.2618 59.1134 15.6836C61.6834 16.1125 64.2022 16.7781 66.6148 17.6841C69.03 18.5972 71.317 19.7347 73.4465 21.0828C75.5786 22.4381 77.548 23.9898 79.3166 25.7437C81.0898 27.488 82.6517 29.406 83.9777 31.4744C85.2986 33.5286 86.3978 35.728 87.2313 38.0403L91.2549 49.0729L106.129 58.909C106.63 59.2433 107.089 59.6171 107.482 60.0312C107.887 60.4569 108.243 60.9247 108.533 61.4328C108.83 61.9382 109.066 62.4742 109.234 63.0263C109.406 63.5856 109.51 64.1611 109.545 64.7457C109.58 65.3303 109.551 65.9143 109.456 66.4976C109.359 67.0738 109.195 67.6423 108.975 68.1907C108.759 68.7293 108.476 69.2602 108.134 69.7639C107.8 70.265 107.409 70.7221 106.982 71.1441L101.308 76.6724L103.441 82.5322C103.812 83.5516 103.947 84.6326 103.86 85.7222C103.774 86.7948 103.46 87.8617 102.932 88.8529C102.414 89.8246 101.706 90.6959 100.843 91.4298C99.994 92.1586 99.0091 92.735 97.9398 93.1242L85.9779 97.478L88.3701 104.051C88.5466 104.535 88.6135 105.052 88.5676 105.569C88.5237 106.07 88.3812 106.565 88.137 107.026C87.8948 107.469 87.5721 107.869 87.1898 108.194C86.8101 108.526 86.3636 108.785 85.8931 108.956C85.4226 109.128 84.9139 109.216 84.4096 109.206C83.9054 109.195 83.4037 109.104 82.9376 108.91C82.4573 108.721 82.0223 108.436 81.6716 108.071C81.304 107.704 81.0232 107.266 80.8468 106.781L77.165 96.6653C76.9886 96.1805 76.9217 95.664 76.9675 95.1467C77.0115 94.6464 77.1539 94.1505 77.3981 93.6903C77.6333 93.2495 77.9559 92.8495 78.3453 92.5221C78.7348 92.1946 79.1715 91.9307 79.642 91.7595L95.3607 86.0383C95.489 85.9916 95.5953 85.9287 95.6776 85.8665C95.7502 85.7997 95.8176 85.7187 95.8655 85.6286C95.9044 85.5579 95.9264 85.4853 95.9341 85.4179C95.9425 85.3745 95.9315 85.322 95.9107 85.265L92.9659 77.1739C92.8439 76.8389 92.7764 76.476 92.7568 76.1117C92.7399 75.7546 92.778 75.3936 92.8667 75.0384C92.9535 74.7 93.0953 74.3578 93.2812 74.0479C93.4671 73.7381 93.6874 73.4561 93.9375 73.2116L101.399 65.9426L101.506 65.8149C101.527 65.7831 101.552 65.7417 101.575 65.693C101.596 65.6613 101.604 65.6178 101.612 65.5744L101.619 65.483L101.608 65.4066L101.579 65.3281L101.529 65.2575L101.448 65.1901L85.5595 54.6737C85.2322 54.4619 84.9489 54.1936 84.7128 53.9001C84.4716 53.5923 84.2752 53.2521 84.1454 52.8957L79.7294 40.7627C79.0827 38.9637 78.2195 37.2354 77.1794 35.6199C76.1419 34.0115 74.9126 32.4972 73.5168 31.1243C72.1184 29.7442 70.5658 28.5171 68.8881 27.4566C67.2007 26.3915 65.3857 25.486 63.4677 24.7632C61.5496 24.0405 59.5383 23.5051 57.47 23.168C55.392 22.8264 53.2784 22.6754 51.1513 22.7311C49.017 22.7894 46.8809 23.0422 44.7694 23.4958C42.6651 23.9469 40.6042 24.584 38.6134 25.4135C34.7802 27.0589 31.3049 29.333 28.3613 32.0916C25.4293 34.838 23.0264 38.0618 21.3163 41.6147C19.6083 45.1508 18.654 48.8726 18.4646 52.5663C18.2751 56.2601 18.8388 59.9381 20.1717 63.4006L41.2264 121.226C41.4028 121.71 41.4697 122.227 41.4239 122.744C41.3799 123.245 41.2375 123.74 40.9933 124.201C40.7581 124.641 40.4355 125.041 40.0461 125.369L40.024 125.353ZM73.052 46.172C73.4664 46.9334 73.8101 47.7448 74.0781 48.5918C75.1471 51.5288 75.888 56.4259 73.289 63.0149C71.5404 67.4376 68.2825 72.6599 62.5547 78.5712C62.3494 78.7832 62.1239 78.9622 61.8834 79.1223C61.6359 79.2851 61.3754 79.4122 61.1116 79.5082C60.8479 79.6042 60.564 79.6671 60.2724 79.7087C59.9853 79.7405 59.6975 79.7484 59.4039 79.718C51.2139 78.8643 45.3568 76.9676 41.1744 74.7036C34.9481 71.3268 32.3635 67.1089 31.2919 64.1647C30.9527 63.3436 30.699 62.4914 30.5296 61.6489C30.3569 60.7753 30.2627 59.8731 30.2663 58.9515C30.2654 58.0396 30.3558 57.1347 30.5358 56.2539C30.7112 55.3827 30.9779 54.5187 31.3361 53.6618C31.6897 52.8146 32.1263 52.0179 32.6316 51.2769C33.1486 50.5237 33.7246 49.8216 34.3674 49.192C35.0101 48.5625 35.7216 47.9887 36.4785 47.4953C37.2237 47.0141 38.0305 46.5913 38.8853 46.256L38.928 46.2404C40.7504 45.5691 42.6687 45.2503 44.5872 45.2866C46.0423 45.3141 47.498 45.5431 48.8968 45.9704C49.6911 44.7368 50.659 43.6256 51.7586 42.6764C53.2049 41.4154 54.8794 40.4265 56.7069 39.7694L56.7497 39.7539C57.62 39.4613 58.5027 39.2692 59.39 39.1562C60.2941 39.0451 61.1982 39.0227 62.0978 39.099C62.9949 39.168 63.8848 39.3285 64.7676 39.5804C65.631 39.8232 66.4802 40.16 67.293 40.5745C68.1085 40.9962 68.8754 41.484 69.5697 42.0386C70.2737 42.5977 70.9246 43.2327 71.5101 43.9319C72.0982 44.6382 72.613 45.3873 73.0423 46.1675L73.052 46.172ZM45.0826 68.0741C48.4839 69.8554 52.9687 71.1536 58.3302 71.8663C61.9793 67.874 64.5778 63.9896 66.0409 60.4459C67.4878 56.9242 67.8025 53.7742 66.871 51.215L66.834 51.0912C66.725 50.703 66.5804 50.3278 66.4027 49.9727C66.2198 49.6033 66.0019 49.2709 65.7607 48.9631C65.5195 48.6553 65.2356 48.363 64.9237 48.1052C64.6191 47.8447 64.2865 47.6186 63.9332 47.4243C63.5825 47.2371 63.2111 47.0816 62.8287 46.9625C62.4657 46.8524 62.0651 46.7722 61.649 46.7379C61.2543 46.6959 60.8511 46.6973 60.4564 46.7441C60.052 46.7864 59.6632 46.8714 59.2847 46.9849C58.7358 47.1847 58.2031 47.4513 57.708 47.7768C57.2032 48.0977 56.7315 48.4874 56.2974 48.936C55.8633 49.3847 55.4901 49.8676 55.185 50.3823C54.8773 50.8899 54.6214 51.4513 54.4336 52.0444C54.3359 52.3302 54.216 52.5999 54.0716 52.8462C53.9271 53.0925 53.749 53.335 53.5319 53.5593C53.3291 53.7784 53.1017 53.9742 52.847 54.1396C52.5923 54.3049 52.3202 54.4444 52.0421 54.5456C51.7641 54.6467 51.466 54.7149 51.1646 54.7519C50.8775 54.7838 50.58 54.7871 50.2696 54.7548C49.9662 54.7199 49.6694 54.6584 49.3906 54.558C49.1074 54.4673 48.8299 54.3261 48.5687 54.1629C48.0682 53.8526 47.5212 53.5915 46.9397 53.3914C46.3654 53.1887 45.7691 53.0587 45.165 52.996C44.537 52.9339 43.9323 52.936 43.3393 53.0146C42.7436 53.0861 42.1643 53.2243 41.6082 53.4267C41.2427 53.5759 40.8928 53.7678 40.5558 53.9954C40.2234 54.2133 39.9208 54.4688 39.6383 54.7573C39.3513 55.0555 39.0934 55.3673 38.8861 55.685C38.6652 56.0318 38.4806 56.3896 38.3368 56.7487C38.1956 57.1149 38.0862 57.5019 38.0157 57.907C37.9497 58.3024 37.9174 58.7016 37.9259 59.1022C37.9364 59.4859 37.9858 59.8877 38.0805 60.2811C38.1753 60.6745 38.3011 61.0646 38.4717 61.4223L38.5229 61.5409C39.4518 64.093 41.7203 66.3109 45.0923 68.0786L45.0826 68.0741Z" fill="#B5D3E8"/>
</svg>
