<svg width="131" height="143" viewBox="0 0 131 143" fill="none" xmlns="http://www.w3.org/2000/svg">
<path d="M49.4607 82.6262L33.1773 88.5528C32.3136 88.8672 31.3604 88.8256 30.5273 88.4371C29.6943 88.0487 29.0497 87.3452 28.7353 86.4815C28.421 85.6178 28.4626 84.6645 28.851 83.8315C29.2395 82.9985 29.943 82.3538 30.8067 82.0395L45.3477 76.747L47.8637 66.4081C47.9984 65.8532 48.2681 65.3402 48.6489 64.9146C49.0297 64.4891 49.5097 64.1642 50.0463 63.9689C50.5829 63.7736 51.1594 63.7139 51.7246 63.7952C52.2898 63.8764 52.8262 64.096 53.2861 64.4345L69.232 76.1492L70.9598 69.0661C71.0951 68.5117 71.3652 67.9992 71.7461 67.5743C72.1271 67.1493 72.6071 66.825 73.1435 66.6301L82.9135 63.0741C83.7773 62.7598 84.7305 62.8014 85.5635 63.1898C86.3966 63.5783 87.0412 64.2817 87.3556 65.1455C87.6699 66.0092 87.6283 66.9624 87.2399 67.7955C86.8514 68.6285 86.1479 69.2731 85.2842 69.5875L77.2565 72.5093L74.7405 82.8482C74.6058 83.4031 74.3361 83.9161 73.9553 84.3417C73.5746 84.7672 73.0946 85.0921 72.558 85.2874C72.0214 85.4827 71.4449 85.5424 70.8796 85.4611C70.3144 85.3799 69.778 85.1603 69.3182 84.8218L53.3693 73.0989L51.6415 80.182C51.5077 80.7376 51.2386 81.2515 50.8581 81.678C50.4776 82.1044 49.9976 82.4302 49.4607 82.6262ZM77.2024 24.5836C68.7961 27.6433 62.7517 33.9371 60.3879 41.7172C53.576 37.2767 44.9002 36.3407 36.4939 39.4003C29.8051 41.8434 24.3585 46.8399 21.349 53.2938C18.3396 59.7476 18.013 67.1316 20.441 73.8259C20.5521 74.1313 20.6632 74.4366 20.7744 74.7419C21.1157 75.5958 21.7823 76.2791 22.6275 76.6415C23.4727 77.0039 24.4272 77.0158 25.2811 76.6744C26.135 76.333 26.8183 75.6665 27.1807 74.8213C27.5432 73.9761 27.555 73.0216 27.2136 72.1677C27.1277 71.9316 27.0403 71.6914 26.9543 71.4553C25.1539 66.4885 25.3966 61.0104 27.6294 56.2223C29.8621 51.4343 33.9025 47.7271 38.8646 45.9137C46.7824 43.0318 54.9651 44.8297 60.2069 50.5931C60.6697 51.1011 61.273 51.4601 61.9402 51.6244C62.6075 51.7887 63.3085 51.7509 63.9543 51.5159C64.6 51.2809 65.1613 50.8592 65.5668 50.3044C65.9723 49.7496 66.2038 49.0868 66.2317 48.4002C66.5381 40.6036 71.6553 33.9789 79.5731 31.097C84.5398 29.2966 90.0179 29.5393 94.806 31.772C99.5941 34.0047 103.301 38.0452 105.115 43.0072C113.058 64.8311 88.595 96.1124 82.7477 103.15C77.404 102.186 61.5413 98.8826 47.8675 91.7763C47.0516 91.3519 46.1004 91.269 45.2234 91.5459C44.3463 91.8227 43.6152 92.4367 43.1908 93.2526C42.7664 94.0685 42.6835 95.0196 42.9603 95.8967C43.2372 96.7738 43.8511 97.5049 44.6671 97.9293C62.3936 107.152 82.7539 110.197 83.6111 110.323C84.1782 110.406 84.7569 110.346 85.2954 110.15C85.8339 109.954 86.3154 109.628 86.6968 109.2C88.1435 107.576 122 69.1325 111.628 40.6366C109.185 33.9478 104.188 28.5012 97.7346 25.4917C91.2807 22.4822 83.8967 22.1557 77.2024 24.5836Z" fill="#B5D3E8"/>
</svg>
