<svg width="140" height="140" viewBox="0 0 140 140" fill="none" xmlns="http://www.w3.org/2000/svg">
<path d="M117.857 51.0261C116.302 46.7672 113.573 43.0356 109.985 40.2632C106.398 37.4909 102.098 35.7911 97.5849 35.3607L97.3815 34.8018C95.8694 30.6588 93.0637 27.1126 89.3797 24.6879C85.6956 22.2633 81.3289 21.089 76.9256 21.3388C72.5224 21.5886 68.3165 23.2492 64.9303 26.075C61.5441 28.9008 59.1575 32.7415 58.1237 37.029C54.5758 34.4091 50.2788 33.001 45.8684 33.013C41.4581 33.0249 37.1688 34.4563 33.6351 37.0953C30.1014 39.7343 27.5112 43.4407 26.2475 47.6662C24.9839 51.8916 25.1141 56.4116 26.6188 60.5573L26.8222 61.1162C23.6364 64.3433 21.4317 68.4083 20.4644 72.8387C19.4971 77.2691 19.807 81.8831 21.358 86.1444C22.909 90.4057 25.6374 94.1393 29.2262 96.9115C32.815 99.6837 37.1168 101.38 41.6317 101.805L41.838 102.372C43.3501 106.515 46.1558 110.061 49.8399 112.485C53.5239 114.91 57.8906 116.084 62.2939 115.835C66.6971 115.585 70.903 113.924 74.2892 111.098C77.6754 108.273 80.062 104.432 81.0958 100.144C84.6438 102.764 88.9408 104.172 93.3511 104.16C97.7614 104.149 102.051 102.717 105.584 100.078C109.118 97.4392 111.708 93.7327 112.972 89.5073C114.236 85.2818 114.105 80.7618 112.601 76.6161L112.394 76.0492C115.575 72.8199 117.776 68.7558 118.743 64.3273C119.71 59.8989 119.403 55.2872 117.857 51.0261ZM65.8197 108.213C62.6471 109.368 59.1599 109.309 56.0278 108.049C52.8958 106.788 50.3398 104.415 48.8508 101.386C49.9449 101.155 51.0216 100.849 52.0728 100.468L55.2893 99.2971C56.1424 98.9866 56.8371 98.3499 57.2208 97.5272C57.6045 96.7044 57.6456 95.7629 57.3351 94.9099C57.0246 94.0568 56.3879 93.362 55.5652 92.9784C54.7424 92.5947 53.801 92.5536 52.9479 92.8641L49.7314 94.0348C45.9358 95.4213 41.772 95.4201 37.9772 94.0313C34.1824 92.6425 31.0015 89.9558 28.9974 86.4468C26.9934 82.9378 26.2957 78.8329 27.0277 74.8589C27.7597 70.8848 29.8743 67.2979 32.9971 64.7333C33.543 64.2833 33.9361 63.6752 34.1223 62.9927C34.3084 62.3101 34.2785 61.5866 34.0367 60.9218L33.0518 58.2159C31.8098 54.8036 31.9743 51.0378 33.5089 47.7467C35.0435 44.4557 37.8227 41.9091 41.2349 40.6671C44.6472 39.4252 48.4131 39.5896 51.7041 41.1242C54.9951 42.6589 57.5417 45.438 58.7837 48.8503L68.7727 76.2949C64.0845 74.4038 58.8619 74.316 54.1127 76.0485C53.2596 76.359 52.5648 76.9956 52.1812 77.8184C51.7975 78.6411 51.7564 79.5826 52.0669 80.4357C52.3774 81.2887 53.0141 81.9835 53.8368 82.3672C54.6596 82.7508 55.601 82.7919 56.4541 82.4815C59.8664 81.2395 63.6322 81.4039 66.9233 82.9386C70.2143 84.4732 72.7609 87.2523 74.0029 90.6646C75.2448 94.0768 75.0804 97.8427 73.5458 101.134C72.0111 104.425 69.232 106.971 65.8197 108.213ZM101.195 75.3035L97.9787 76.4742C97.1256 76.7847 96.4308 77.4214 96.0472 78.2441C95.6635 79.0669 95.6224 80.0083 95.9329 80.8614C96.2434 81.7145 96.8801 82.4093 97.7028 82.7929C98.5256 83.1766 99.467 83.2177 100.32 82.9072L103.537 81.7365C104.587 81.3525 105.609 80.8954 106.595 80.3684C107.227 82.937 107.102 85.6338 106.234 88.1327C105.366 90.6315 103.793 92.8255 101.705 94.4493C99.6166 96.0732 97.1027 97.0573 94.467 97.2828C91.8314 97.5083 89.1869 96.9655 86.8532 95.72C84.5195 94.4744 82.5966 92.5795 81.3169 90.2644C80.0373 87.9492 79.4557 85.3129 79.6425 82.6743C79.8292 80.0356 80.7764 77.5075 82.3694 75.3957C83.9624 73.2839 86.1331 71.6788 88.619 70.7744C89.472 70.4639 90.1668 69.8273 90.5505 69.0045C90.9341 68.1817 90.9752 67.2403 90.6647 66.3872C90.3543 65.5341 89.7176 64.8394 88.8948 64.4557C88.0721 64.072 87.1306 64.0309 86.2775 64.3414C81.5258 66.067 77.5815 69.4912 75.2057 73.9535L65.2167 46.5089C63.9747 43.0966 64.1391 39.3307 65.6738 36.0397C67.2084 32.7487 69.9875 30.2021 73.3998 28.9601C76.8121 27.7181 80.5779 27.8825 83.869 29.4172C87.16 30.9518 89.7066 33.731 90.9486 37.1432L91.9334 39.8491C92.1755 40.5139 92.6176 41.0873 93.199 41.4905C93.7803 41.8937 94.4723 42.1069 95.1798 42.1006C99.2205 42.058 103.146 43.4465 106.261 46.0202C109.376 48.594 111.481 52.1871 112.201 56.1633C112.921 60.1394 112.211 64.2423 110.197 67.7454C108.183 71.2485 104.994 73.9259 101.195 75.3035ZM100.019 52.0549C100.329 52.908 100.288 53.8495 99.9043 54.6722C99.5206 55.495 98.8259 56.1316 97.9728 56.4421L96.3645 57.0275C92.5258 58.4247 88.2891 58.2397 84.5867 56.5132C80.8843 54.7868 78.0194 51.6603 76.6222 47.8215L76.0368 46.2132C75.7263 45.3602 75.7674 44.4187 76.1511 43.5959C76.5348 42.7732 77.2295 42.1365 78.0826 41.826C78.9357 41.5155 79.8771 41.5566 80.6999 41.9403C81.5227 42.324 82.1593 43.0187 82.4698 43.8718L83.0552 45.4801C83.8314 47.6127 85.423 49.3497 87.4799 50.3088C89.5368 51.268 91.8905 51.3707 94.0231 50.5945L95.6314 50.0092C96.4844 49.6987 97.4259 49.7398 98.2487 50.1234C99.0714 50.5071 99.7081 51.2019 100.019 52.0549ZM41.6843 76.9295L40.076 77.5148C39.223 77.8253 38.2815 77.7842 37.4587 77.4005C36.636 77.0169 35.9993 76.3221 35.6888 75.469C35.3784 74.616 35.4195 73.6745 35.8031 72.8518C36.1868 72.029 36.8816 71.3923 37.7346 71.0818L39.3429 70.4965C41.4755 69.7203 43.2125 68.1286 44.1716 66.0717C45.1308 64.0149 45.2335 61.6612 44.4573 59.5285L43.872 57.9203C43.5615 57.0672 43.6026 56.1257 43.9862 55.303C44.3699 54.4802 45.0647 53.8436 45.9178 53.5331C46.7708 53.2226 47.7123 53.2637 48.535 53.6474C49.3578 54.031 49.9945 54.7258 50.3049 55.5789L50.8903 57.1871C52.2875 61.0259 52.1025 65.2625 50.3761 68.9649C48.6496 72.6673 45.5231 75.5323 41.6843 76.9295Z" fill="#B5D3E8"/>
</svg>
