<svg width="139" height="149" viewBox="0 0 139 149" fill="none" xmlns="http://www.w3.org/2000/svg">
<path d="M120.025 64.2892C118.598 63.8327 117.093 63.6721 115.603 63.8173C114.113 63.9625 112.669 64.4105 111.359 65.1339C116.405 54.117 117.517 44.5853 114.641 36.6841C110.522 25.3667 98.106 19.4609 86.9628 23.5167C83.9993 24.5742 81.3042 26.2702 79.0667 28.4857C76.8292 30.7012 75.1035 33.3824 74.0108 36.3411C71.2718 34.777 68.2264 33.8323 65.0883 33.5734C61.9502 33.3145 58.7954 33.7477 55.8455 34.8425C44.7024 38.8982 38.9876 51.403 43.1067 62.7204C44.8185 67.4235 47.8617 71.4919 52.5257 75.2706C50.3675 76.7413 48.6488 78.7725 47.5523 81.148L41.4377 94.3164L29.2216 98.7627C27.4147 99.4203 25.9442 100.772 25.1335 102.52C24.3228 104.268 24.2383 106.269 24.8987 108.083L31.1234 125.185C31.7837 127 33.1348 128.478 34.8794 129.296C36.624 130.114 38.6192 130.204 40.426 129.547L84.709 113.429C84.9876 113.328 85.2525 113.192 85.4977 113.026L110.259 96.2662C110.418 96.1615 110.566 96.0425 110.703 95.9108L124.68 82.815L124.836 82.6613C126.137 81.2842 127.065 79.5969 127.534 77.7582C128.003 75.9195 127.998 73.99 127.518 72.1515C127.039 70.313 126.101 68.6259 124.793 67.2494C123.485 65.8728 121.85 64.852 120.042 64.283L120.025 64.2892ZM58.3354 41.6833C60.9596 40.6843 63.8232 40.4939 66.5602 41.1366C69.2971 41.7792 71.783 43.2256 73.6999 45.2908C74.1848 45.8248 74.8167 46.2024 75.5152 46.3759C76.2137 46.5493 76.9472 46.5106 77.6227 46.2648C78.2981 46.019 78.8849 45.577 79.3085 44.9952C79.7321 44.4134 79.9734 43.7179 80.0017 42.9972C80.1426 40.1829 81.1171 37.477 82.8007 35.2255C84.4842 32.9739 86.8003 31.2791 89.4527 30.3576C96.7126 27.7152 105.128 31.7456 107.828 39.1637C110.864 47.5053 107.575 59.3886 98.3301 73.5608L94.0048 76.3698C93.7794 74.4608 93.1263 72.6266 92.0945 71.0047C91.0626 69.3827 89.6789 68.0151 88.0469 67.0044C86.4149 65.9937 84.5769 65.366 82.6709 65.1684C80.7648 64.9709 78.84 65.2086 77.0408 65.8636L60.2984 71.9574C54.8124 68.3181 51.4944 64.5676 49.9195 60.2407C47.2196 52.8226 51.0755 44.3257 58.3354 41.6833ZM31.7114 105.604L41.9306 101.884L48.1553 118.986L37.9361 122.706L31.7114 105.604ZM119.609 77.5866L105.947 90.3936L81.7934 106.743L54.9681 116.507L48.0135 97.3992L54.1293 84.2208C54.5274 83.3533 55.0936 82.5744 55.7951 81.9293C56.4965 81.2841 57.3192 80.7856 58.2152 80.4627L79.5307 72.7045C80.8858 72.2113 82.3822 72.2788 83.6906 72.8922C84.9991 73.5057 86.0124 74.6147 86.5076 75.9755C87.0029 77.3362 86.9396 78.8371 86.3315 80.1481C85.7235 81.459 84.6206 82.4726 83.2655 82.9659L71.3431 87.3052C70.4397 87.6341 69.7044 88.3098 69.2991 89.1837C68.8937 90.0577 68.8515 91.0583 69.1817 91.9655C69.5119 92.8727 70.1874 93.612 71.0597 94.021C71.932 94.4299 72.9296 94.4749 73.833 94.1461L87.4586 89.1868C87.7147 89.0928 87.9598 88.9711 88.1896 88.8239L114.32 71.8518L114.44 71.7695C115.222 71.2098 116.184 70.9607 117.14 71.0701C118.097 71.1796 118.98 71.6399 119.62 72.3624C120.26 73.085 120.612 74.0187 120.607 74.984C120.603 75.9493 120.243 76.878 119.596 77.5913L119.609 77.5866Z" fill="#B5D3E8"/>
</svg>
