<svg width="141" height="139" viewBox="0 0 141 139" fill="none" xmlns="http://www.w3.org/2000/svg">
<path d="M118.947 53.0667C117.6 49.3558 115.361 46.0333 112.427 43.3921C109.493 40.7509 105.955 38.8721 102.123 37.9214C98.2916 36.9706 94.2851 36.9772 90.4567 37.9404C86.6284 38.9036 83.0959 40.7939 80.1705 43.4447C77.2452 46.0954 75.017 49.4252 73.6824 53.1404C72.3477 56.8556 71.9476 60.8421 72.5174 64.7484C73.0871 68.6548 74.6092 72.3609 76.9494 75.5401C79.2896 78.7193 82.3761 81.2739 85.9367 82.9787L94.2929 105.937C94.493 106.488 94.8307 106.979 95.274 107.363C95.7172 107.746 96.2512 108.01 96.8252 108.13C97.3992 108.249 97.9941 108.219 98.5535 108.044C99.1128 107.868 99.6179 107.552 100.021 107.127L109.406 97.2082L122.971 98.7732C123.554 98.8404 124.144 98.7576 124.685 98.5325C125.226 98.3075 125.701 97.9478 126.064 97.4875C126.427 97.0273 126.667 96.4818 126.76 95.9029C126.852 95.3241 126.796 94.7311 126.595 94.1804L118.239 71.2218C120.847 65.4972 121.101 58.977 118.947 53.0667ZM90.4571 45.1456C93.6514 43.9829 97.1188 43.7936 100.421 44.6016C103.723 45.4096 106.711 47.1785 109.008 49.6848C111.304 52.1911 112.806 55.3221 113.323 58.6819C113.84 62.0417 113.349 65.4794 111.913 68.5603C110.476 71.6412 108.158 74.2268 105.252 75.9903C102.346 77.7538 98.982 78.6159 95.5858 78.4677C92.1897 78.3194 88.9138 77.1674 86.1724 75.1573C83.431 73.1472 81.3472 70.3694 80.1846 67.175C78.6255 62.8915 78.8319 58.1641 80.7584 54.0328C82.6848 49.9015 86.1736 46.7046 90.4571 45.1456ZM108.486 90.1813C107.955 90.1201 107.418 90.1833 106.916 90.366C106.414 90.5486 105.962 90.8457 105.595 91.2336L98.8516 98.3611L94.0798 85.2505C97.6313 85.5866 101.213 85.128 104.565 83.9079C107.918 82.6877 110.956 80.7367 113.461 78.1964L118.233 91.3069L108.486 90.1813ZM83.1297 95.3679C83.4416 96.2246 83.4003 97.1701 83.015 97.9964C82.6297 98.8226 81.9319 99.462 81.0752 99.7738L45.5431 112.706C43.8297 113.33 41.9388 113.248 40.2862 112.477C38.6337 111.706 37.355 110.311 36.7313 108.597L17.9202 56.9144C17.2966 55.201 17.3792 53.31 18.1498 51.6575C18.9203 50.0049 20.3158 48.7262 22.0292 48.1026L93.0935 22.2373C94.8069 21.6137 96.6978 21.6963 98.3504 22.4668C100.003 23.2374 101.282 24.6329 101.905 26.3463C102.217 27.203 102.176 28.1485 101.791 28.9748C101.405 29.801 100.707 30.4404 99.8508 30.7522C98.9941 31.064 98.0486 31.0227 97.2223 30.6374C96.3961 30.2521 95.7567 29.5544 95.4449 28.6977L24.3806 54.563L43.1917 106.246L78.7239 93.3134C79.5806 93.0016 80.526 93.0429 81.3523 93.4282C82.1786 93.8135 82.8179 94.5112 83.1297 95.3679ZM68.4395 75.108C68.7513 75.9647 68.71 76.9102 68.3247 77.7364C67.9394 78.5627 67.2417 79.202 66.385 79.5139L50.234 85.3923C49.3773 85.7041 48.4319 85.6629 47.6056 85.2776C46.7793 84.8923 46.14 84.1945 45.8281 83.3378C45.5163 82.4811 45.5576 81.5356 45.9429 80.7094C46.3282 79.8831 47.0259 79.2438 47.8826 78.9319L64.0336 73.0535C64.8903 72.7417 65.8358 72.7829 66.6621 73.1682C67.4883 73.5535 68.1277 74.2513 68.4395 75.108ZM63.7367 62.1872C64.0485 63.0439 64.0073 63.9894 63.622 64.8156C63.2367 65.6419 62.5389 66.2813 61.6822 66.5931L45.5313 72.4716C44.6746 72.7834 43.7291 72.7421 42.9028 72.3568C42.0765 71.9715 41.4372 71.2738 41.1254 70.4171C40.8136 69.5604 40.8548 68.6149 41.2401 67.7886C41.6254 66.9623 42.3232 66.323 43.1799 66.0112L59.3308 60.1327C60.1875 59.8209 61.133 59.8622 61.9593 60.2475C62.7855 60.6328 63.4249 61.3305 63.7367 62.1872Z" fill="#B5D3E8"/>
</svg>
