<svg width="23" height="22" viewBox="0 0 23 22" fill="none" xmlns="http://www.w3.org/2000/svg">
<path d="M18.8428 3.36816C16.8712 1.38967 14.153 0.169922 11.1573 0.169922C8.15204 0.169922 5.43389 1.38967 3.46227 3.36816C1.49065 5.34665 0.275146 8.07427 0.275146 11.09C0.275146 14.1058 1.49065 16.8334 3.46227 18.8023C5.43389 20.7808 8.15204 22.0005 11.1573 22.0005C14.1626 22.0005 16.8808 20.7808 18.8428 18.8023C20.8144 16.8238 22.0299 14.0962 22.0299 11.09C22.0299 8.07427 20.8144 5.34665 18.8428 3.36816Z" fill="white"/>
<path d="M17.2921 6.82633L15.2534 16.4787C15.1003 17.1606 14.6983 17.3335 14.1241 17.0069L11.0231 14.7115L9.52043 16.1617C9.35772 16.325 9.21416 16.4691 8.89832 16.4691L9.11845 13.29L14.8802 8.06529C15.129 7.84439 14.8227 7.71953 14.4878 7.94043L7.36696 12.4353L4.30426 11.4748C3.63429 11.2635 3.62472 10.8025 4.43825 10.4856L16.4307 5.85629C16.9858 5.645 17.4739 5.98115 17.2921 6.83593V6.82633Z" fill="#8F72C6"/>
</svg>
