<svg width="38" height="38" viewBox="0 0 38 38" fill="none" xmlns="http://www.w3.org/2000/svg">
<path d="M19 1.72754C28.541 1.72754 36.2728 9.45936 36.2728 19.0003C36.2728 28.5412 28.541 36.273 19 36.273C9.45912 36.273 1.72729 28.5412 1.72729 19.0003C1.72729 9.45936 9.45912 1.72754 19 1.72754Z" fill="#6F50AC"/>
<path d="M27.4585 12.2572L24.4824 26.286C24.2586 27.278 23.6748 27.5239 22.8408 27.0541L18.3109 23.7182L16.1205 25.8252C15.8791 26.0665 15.6772 26.2684 15.2075 26.2684L15.5323 21.6507L23.9339 14.0569C24.2981 13.732 23.8548 13.5521 23.3675 13.8769L12.982 20.4173L8.50908 19.017C7.5346 18.7142 7.51706 18.0426 8.711 17.5773L26.2032 10.8393C27.0153 10.5365 27.722 11.0237 27.4585 12.2572Z" fill="white"/>
</svg>
