<svg width="38" height="38" viewBox="0 0 38 38" fill="none" xmlns="http://www.w3.org/2000/svg">
<path d="M19 36.273C28.5395 36.273 36.2728 28.5397 36.2728 19.0003C36.2728 9.4608 28.5395 1.72754 19 1.72754C9.46056 1.72754 1.72729 9.4608 1.72729 19.0003C1.72729 28.5397 9.46056 36.273 19 36.273Z" fill="#6F50AC"/>
<path d="M28.0745 13.3356C28.7585 13.3356 28.9036 13.688 28.7585 14.1751L28.7689 14.1855C28.4787 15.5121 25.7011 19.4197 25.7011 19.4197C25.4627 19.8032 25.3589 20.0001 25.7011 20.4353C25.9394 20.767 26.7374 21.4408 27.2662 22.073C28.2403 23.1717 28.9763 24.094 29.1836 24.7368C29.3701 25.3793 29.0489 25.7006 28.3958 25.7006H26.1156C25.2553 25.7006 24.9962 25.0062 23.4518 23.4619C22.0942 22.1559 21.524 21.9901 21.182 21.9901C20.726 21.9901 20.5913 22.1144 20.5913 22.7673V24.8093C20.5913 25.369 20.4151 25.6902 18.964 25.6902C16.549 25.6902 13.906 24.2288 12.0196 21.5237C9.19009 17.5643 8.4231 14.569 8.4231 13.9678C8.4231 13.6361 8.54748 13.3252 9.20045 13.3252H11.4807C12.0611 13.3252 12.2788 13.5739 12.4964 14.2062C13.6054 17.4503 15.4918 20.2902 16.2588 20.2902C16.549 20.2902 16.6837 20.1555 16.6837 19.4197V16.0615C16.6008 14.5171 15.782 14.3928 15.782 13.8434C15.782 13.5947 15.9997 13.3252 16.3624 13.3252H19.9382C20.4255 13.3252 20.5809 13.5843 20.5809 14.1647V18.6733C20.5809 19.1604 20.7986 19.3263 20.9436 19.3263C21.2338 19.3263 21.4722 19.1604 22.0007 18.6319C23.6384 16.7974 24.7993 13.9782 24.7993 13.9782C24.9444 13.6465 25.2138 13.3356 25.7943 13.3356H28.0745Z" fill="white"/>
</svg>
