<svg width="23" height="22" viewBox="0 0 23 22" fill="none" xmlns="http://www.w3.org/2000/svg">
<path d="M19.3958 3.36816C17.4242 1.38967 14.706 0.169922 11.7103 0.169922C8.70503 0.169922 5.98687 1.38967 4.01526 3.36816C2.04364 5.34665 0.828125 8.07427 0.828125 11.09C0.828125 14.1058 2.04364 16.8334 4.01526 18.8023C5.98687 20.7808 8.70503 22.0005 11.7103 22.0005C14.7156 22.0005 17.4337 20.7808 19.3958 18.8023C21.3674 16.8238 22.5829 14.0962 22.5829 11.09C22.5829 8.07427 21.3674 5.34665 19.3958 3.36816Z" fill="white"/>
<path d="M18.6006 8.02727C18.6963 7.69112 18.6006 7.44141 18.122 7.44141H16.5428C16.1408 7.44141 15.9494 7.66231 15.8537 7.89281C15.8537 7.89281 15.0497 9.85209 13.9108 11.1391C13.5471 11.504 13.3748 11.6193 13.1738 11.6193C13.0686 11.6193 12.925 11.504 12.925 11.1679V8.02727C12.925 7.62389 12.8197 7.44141 12.4752 7.44141H9.99627C9.74743 7.44141 9.59429 7.63349 9.59429 7.80637C9.59429 8.19054 10.159 8.27698 10.2164 9.35266V11.6865C10.2164 12.1955 10.1207 12.2916 9.9197 12.2916C9.38373 12.2916 8.08208 10.3131 7.30684 8.05608C7.1537 7.61428 7.01014 7.44141 6.59859 7.44141H5.01938C4.56954 7.44141 4.4834 7.66231 4.4834 7.89281C4.4834 8.3154 5.01937 10.3995 6.98142 13.156C8.29264 15.0384 10.1207 16.0565 11.8052 16.0565C12.8101 16.0565 12.9346 15.8356 12.9346 15.4418V14.0204C12.9346 13.569 13.0303 13.4825 13.3461 13.4825C13.5854 13.4825 13.9778 13.5978 14.9253 14.5102C15.9973 15.5859 16.1791 16.0661 16.7725 16.0661H18.3517C18.8016 16.0661 19.0313 15.8452 18.8973 15.3938C18.7537 14.9424 18.2464 14.3085 17.5669 13.5401C17.2032 13.0983 16.6481 12.6277 16.4854 12.3972C16.2461 12.0995 16.3227 11.9554 16.4854 11.6865C16.4854 11.6865 18.4092 8.96849 18.6101 8.04648L18.6006 8.03687V8.02727Z" fill="#8F72C6"/>
</svg>
