<svg width="22" height="22" viewBox="0 0 22 22" fill="none" xmlns="http://www.w3.org/2000/svg">
<path d="M18.5356 3.09019C14.4009 -1.03006 7.72037 -1.03006 3.59528 3.09019C0.207163 6.47091 -0.434092 11.6572 1.90122 15.7775L0.417725 21.1751L6.03588 19.6961C7.62466 20.5412 9.31872 20.9638 11.0223 20.9638C16.8511 20.9638 21.5121 16.3153 21.5121 10.4951C21.6174 7.74828 20.4497 5.10709 18.5451 3.09019H18.5356Z" fill="white"/>
<path d="M16.468 12.914C16.2287 12.7891 14.6495 12.0688 14.4102 11.9439C14.1709 11.8191 13.9221 11.8191 13.6828 12.0688C13.4436 12.3089 12.9554 13.0388 12.7162 13.2789C12.5917 13.5191 12.3525 13.5191 12.1132 13.4038C11.2614 13.0388 10.4191 12.5586 9.69173 11.9536C9.08876 11.3485 8.47622 10.6282 7.99767 9.89823C7.87325 9.65812 7.99767 9.41801 8.1221 9.29316C8.24652 9.1683 8.36137 8.92819 8.61021 8.81294C8.73464 8.68808 8.84949 8.44798 8.84949 8.33272C8.97391 8.20787 8.97391 7.96776 8.84949 7.85251C8.72506 7.72765 8.1221 6.2774 7.88282 5.67233C7.7584 4.82715 7.51912 4.82715 7.27985 4.82715C7.15543 4.82715 6.91616 4.82715 6.67688 4.82715C6.43761 4.82715 6.07391 5.06726 5.94949 5.19211C5.22209 5.92204 4.8584 6.76722 4.8584 7.72765C4.98282 8.81294 5.34652 9.90783 6.07391 10.8779C7.40427 12.8179 9.1079 14.3834 11.1657 15.3535C11.7686 15.5936 12.2568 15.8337 12.8597 15.9586C13.4627 16.1987 14.0752 16.1987 14.8026 16.0834C15.6544 15.9586 16.3818 15.3535 16.8604 14.6332C17.0997 14.1529 17.0997 13.6631 16.9848 13.1829C16.9848 13.1829 16.7455 13.058 16.4967 12.9428L16.468 12.914Z" fill="#8F72C6"/>
</svg>
