<svg width="38" height="38" viewBox="0 0 38 38" fill="none" xmlns="http://www.w3.org/2000/svg">
<path d="M12.3254 34.4262C12.1981 34.358 12.0527 34.3443 11.9163 34.3897C9.3979 35.158 7.42957 35.6624 5.90672 35.9534C4.37933 36.2488 3.33834 36.3215 2.66102 36.2443C1.9655 36.1669 1.8064 35.9624 1.7655 35.8716C1.7064 35.7398 1.69276 35.4626 1.89733 34.9261C2.09278 34.417 2.42919 33.8216 2.83831 33.1625C2.99741 32.9034 3.17015 32.6309 3.34744 32.3535C3.60655 31.9444 3.8702 31.5263 4.10658 31.1309C4.51116 30.4536 4.88846 29.7536 5.10212 29.1036C5.31123 28.4673 5.41578 27.7492 5.09302 27.1219C3.83838 24.6947 3.12923 21.9221 3.12923 18.9723C3.12469 9.44995 10.5434 1.72754 19.6987 1.72754C28.8539 1.72754 36.2727 9.44995 36.2727 18.9723C36.2727 28.4946 28.8539 36.2215 19.6987 36.2215C17.0485 36.2215 14.5483 35.576 12.3254 34.4262Z" fill="#6F50AC"/>
<path fill-rule="evenodd" clip-rule="evenodd" d="M14.6619 18.6041C15.9672 20.9028 18.0593 22.7135 20.4326 23.821L22.1027 21.8214C22.3314 21.5488 22.6522 21.4389 22.9071 21.5928C23.83 21.8652 24.819 21.9663 25.8825 21.8872C26.3748 21.8521 26.7219 22.1685 26.7572 22.6784L26.9506 25.5704C26.9857 26.0801 26.6824 26.4449 26.1903 26.4802C18.512 27.0382 11.8666 21.0303 11.3304 13.0399C11.2952 12.5301 11.5985 12.1653 12.0908 12.1301L14.952 11.9236C15.4442 11.8884 15.7914 12.2048 15.8266 12.7147C15.8969 13.7343 16.1255 14.7452 16.521 15.7385C16.6177 15.989 16.5606 16.3318 16.4155 16.5999L14.6619 18.6041Z" fill="white"/>
</svg>
