<svg width="75" height="99" viewBox="0 0 75 99" fill="none" xmlns="http://www.w3.org/2000/svg">
<path d="M74.9836 36.9704C74.3094 58.7443 40.1997 96.0821 37.5013 98.9692C34.8249 96.0821 0.690607 58.7443 0.0164317 36.9704C-0.610374 16.6024 16.7812 0.0900421 37.5013 0.000167847C58.2188 0.0900421 75.6104 16.6249 74.9836 36.9704Z" fill="#EDEAF3"/>
<path d="M67.3741 20.7505L59.2491 12.6255C58.868 12.2444 58.351 12.0303 57.812 12.0303C57.273 12.0303 56.7561 12.2444 56.3749 12.6255C55.9938 13.0067 55.7796 13.5236 55.7796 14.0627C55.7796 14.6017 55.9938 15.1186 56.3749 15.4998L56.7507 15.873L42.7427 26.3796L33.0384 28.322C32.6455 28.4007 32.2843 28.5932 31.9999 28.8755L10.8394 50.031C9.69665 51.1738 9.05469 52.7237 9.05469 54.3398C9.05469 55.9559 9.69665 57.5058 10.8394 58.6486L21.3511 69.1603C22.4939 70.303 24.0438 70.945 25.6599 70.945C27.276 70.945 28.8259 70.303 29.9687 69.1603L51.1241 48.0074C51.4071 47.7234 51.5996 47.3621 51.6776 46.9689L53.62 37.2646L64.1267 23.2566L64.4999 23.6324C64.6886 23.8211 64.9127 23.9708 65.1593 24.0729C65.4058 24.1751 65.6701 24.2277 65.937 24.2277C66.2039 24.2277 66.4682 24.1751 66.7148 24.0729C66.9614 23.9708 67.1854 23.8211 67.3741 23.6324C67.5629 23.4437 67.7126 23.2196 67.8147 22.973C67.9168 22.7264 67.9694 22.4622 67.9694 22.1953C67.9694 21.9284 67.9168 21.6641 67.8147 21.4175C67.7126 21.1709 67.5629 20.9469 67.3741 20.7582V20.7505ZM29.3745 37.2468L42.7528 50.6252L31.4058 61.9722L18.0274 48.5939L29.3745 37.2468ZM25.6599 66.8752C25.3933 66.8759 25.1293 66.8237 24.8831 66.7217C24.6368 66.6198 24.4133 66.47 24.2253 66.281L13.7187 55.7744C13.338 55.3935 13.1242 54.877 13.1242 54.3385C13.1242 53.8 13.338 53.2836 13.7187 52.9027L15.1558 51.4656L28.5341 64.8439L27.0894 66.281C26.71 66.66 26.1961 66.8736 25.6599 66.8752ZM50.0933 35.1877C49.9111 35.43 49.7861 35.7103 49.7276 36.0078L47.8157 45.5623L45.6245 47.7535L32.2462 34.3752L34.4374 32.1839L43.9919 30.272C44.2893 30.2135 44.5697 30.0885 44.812 29.9064L59.6528 18.7752L61.2245 20.3468L50.0933 35.1877Z" fill="#684C9E"/>
</svg>
