<svg width="79" height="99" viewBox="0 0 79 99" fill="none" xmlns="http://www.w3.org/2000/svg">
<path d="M78.9827 36.9818C78.2726 58.7625 42.3436 96.112 39.5013 99C36.6822 96.112 0.72744 58.7625 0.0173081 36.9818C-0.642927 16.6074 17.6762 0.0898972 39.5013 0C61.3238 0.0898972 79.6429 16.6299 78.9827 36.9818Z" fill="#EDEAF3"/>
<path d="M39.5 11.0938C34.2773 11.0938 29.172 12.6424 24.8295 15.544C20.487 18.4456 17.1024 22.5697 15.1038 27.3948C13.1052 32.2199 12.5823 37.5293 13.6012 42.6516C14.62 47.7739 17.135 52.4791 20.828 56.172C24.521 59.865 29.2261 62.38 34.3484 63.3989C39.4707 64.4178 44.7801 63.8948 49.6052 61.8962C54.4304 59.8976 58.5545 56.513 61.456 52.1705C64.3576 47.828 65.9063 42.7227 65.9063 37.5C65.8989 30.4989 63.1144 23.7867 58.1639 18.8361C53.2134 13.8856 46.5011 11.1011 39.5 11.0938ZM39.5 59.8438C35.0808 59.8438 30.7609 58.5333 27.0865 56.0781C23.4121 53.623 20.5482 50.1334 18.8571 46.0506C17.1659 41.9678 16.7235 37.4752 17.5856 33.141C18.4477 28.8067 20.5758 24.8254 23.7006 21.7006C26.8254 18.5758 30.8067 16.4477 35.141 15.5856C39.4752 14.7234 43.9678 15.1659 48.0506 16.8571C52.1334 18.5482 55.623 21.4121 58.0782 25.0865C60.5333 28.7609 61.8438 33.0808 61.8438 37.5C61.837 43.4239 59.4808 49.1032 55.292 53.292C51.1032 57.4808 45.4239 59.837 39.5 59.8438ZM53.1246 46.2191C53.3133 46.4079 53.463 46.6319 53.5652 46.8785C53.6673 47.1251 53.7199 47.3894 53.7199 47.6562C53.7199 47.9231 53.6673 48.1874 53.5652 48.434C53.463 48.6806 53.3133 48.9046 53.1246 49.0934C52.9359 49.2821 52.7118 49.4318 52.4653 49.5339C52.2187 49.6361 51.9544 49.6886 51.6875 49.6886C51.4206 49.6886 51.1563 49.6361 50.9098 49.5339C50.6632 49.4318 50.4391 49.2821 50.2504 49.0934L47.625 46.4654L44.9996 49.0934C44.811 49.2822 44.5869 49.432 44.3404 49.5343C44.0938 49.6365 43.8294 49.6891 43.5625 49.6891C43.2956 49.6891 43.0313 49.6365 42.7847 49.5343C42.5381 49.432 42.314 49.2822 42.1254 49.0934L39.5 46.4654L36.8746 49.0934C36.686 49.2822 36.4619 49.432 36.2154 49.5343C35.9688 49.6365 35.7044 49.6891 35.4375 49.6891C35.1706 49.6891 34.9063 49.6365 34.6597 49.5343C34.4131 49.432 34.189 49.2822 34.0004 49.0934L31.375 46.4654L28.7496 49.0934C28.3685 49.4745 27.8515 49.6886 27.3125 49.6886C26.7735 49.6886 26.2565 49.4745 25.8754 49.0934C25.4943 48.7122 25.2801 48.1953 25.2801 47.6562C25.2801 47.1172 25.4943 46.6003 25.8754 46.2191L29.9379 42.1566C30.1265 41.9678 30.3506 41.818 30.5972 41.7157C30.8438 41.6135 31.1081 41.5609 31.375 41.5609C31.6419 41.5609 31.9063 41.6135 32.1529 41.7157C32.3994 41.818 32.6235 41.9678 32.8121 42.1566L35.4375 44.7846L38.0629 42.1566C38.2515 41.9678 38.4756 41.818 38.7222 41.7157C38.9688 41.6135 39.2331 41.5609 39.5 41.5609C39.7669 41.5609 40.0313 41.6135 40.2779 41.7157C40.5244 41.818 40.7485 41.9678 40.9371 42.1566L43.5625 44.7846L46.1879 42.1566C46.3765 41.9678 46.6006 41.818 46.8472 41.7157C47.0938 41.6135 47.3581 41.5609 47.625 41.5609C47.8919 41.5609 48.1563 41.6135 48.4029 41.7157C48.6494 41.818 48.8735 41.9678 49.0621 42.1566L53.1246 46.2191ZM27.3125 32.4219C27.3125 31.8193 27.4912 31.2302 27.826 30.7291C28.1608 30.2281 28.6367 29.8375 29.1934 29.6069C29.7501 29.3763 30.3628 29.316 30.9538 29.4335C31.5448 29.5511 32.0877 29.8413 32.5139 30.2674C32.94 30.6935 33.2302 31.2364 33.3477 31.8275C33.4653 32.4185 33.4049 33.0311 33.1743 33.5879C32.9437 34.1446 32.5532 34.6205 32.0521 34.9553C31.5511 35.2901 30.962 35.4688 30.3594 35.4688C29.5513 35.4688 28.7763 35.1477 28.2049 34.5763C27.6335 34.0049 27.3125 33.23 27.3125 32.4219ZM45.5938 32.4219C45.5938 31.8193 45.7725 31.2302 46.1073 30.7291C46.442 30.2281 46.9179 29.8375 47.4746 29.6069C48.0314 29.3763 48.644 29.316 49.2351 29.4335C49.8261 29.5511 50.369 29.8413 50.7951 30.2674C51.2212 30.6935 51.5114 31.2364 51.629 31.8275C51.7465 32.4185 51.6862 33.0311 51.4556 33.5879C51.225 34.1446 50.8344 34.6205 50.3334 34.9553C49.8323 35.2901 49.2433 35.4688 48.6406 35.4688C47.8326 35.4688 47.0576 35.1477 46.4862 34.5763C45.9148 34.0049 45.5938 33.23 45.5938 32.4219Z" fill="#684C9E"/>
</svg>
