<svg width="75" height="99" viewBox="0 0 75 99" fill="none" xmlns="http://www.w3.org/2000/svg">
<path d="M74.9836 36.9704C74.3094 58.7443 40.1997 96.0821 37.5013 98.9692C34.8249 96.0821 0.690607 58.7443 0.0164317 36.9704C-0.610374 16.6024 16.7812 0.0900421 37.5013 0.000167847C58.2188 0.0900421 75.6104 16.6249 74.9836 36.9704Z" fill="#EDEAF3"/>
<path d="M37.5 14.0938C32.2773 14.0938 27.172 15.6424 22.8295 18.544C18.487 21.4456 15.1024 25.5697 13.1038 30.3948C11.1052 35.2199 10.5823 40.5293 11.6012 45.6516C12.62 50.7739 15.135 55.4791 18.828 59.172C22.521 62.865 27.2261 65.38 32.3484 66.3989C37.4707 67.4178 42.7801 66.8948 47.6052 64.8962C52.4304 62.8976 56.5545 59.513 59.456 55.1705C62.3576 50.828 63.9063 45.7227 63.9063 40.5C63.8989 33.4989 61.1144 26.7867 56.1639 21.8361C51.2134 16.8856 44.5011 14.1011 37.5 14.0938ZM37.5 62.8438C33.0808 62.8438 28.7609 61.5333 25.0865 59.0781C21.4121 56.623 18.5482 53.1334 16.8571 49.0506C15.1659 44.9678 14.7235 40.4752 15.5856 36.141C16.4477 31.8067 18.5758 27.8254 21.7006 24.7006C24.8254 21.5758 28.8067 19.4477 33.141 18.5856C37.4752 17.7234 41.9678 18.1659 46.0506 19.8571C50.1334 21.5482 53.623 24.4121 56.0782 28.0865C58.5333 31.7609 59.8438 36.0808 59.8438 40.5C59.837 46.4239 57.4808 52.1032 53.292 56.292C49.1032 60.4808 43.4239 62.837 37.5 62.8438ZM25.3125 35.4219C25.3125 34.8193 25.4912 34.2302 25.826 33.7291C26.1608 33.2281 26.6367 32.8375 27.1934 32.6069C27.7501 32.3763 28.3628 32.316 28.9538 32.4335C29.5448 32.5511 30.0877 32.8413 30.5139 33.2674C30.94 33.6935 31.2302 34.2364 31.3477 34.8275C31.4653 35.4185 31.4049 36.0311 31.1743 36.5879C30.9437 37.1446 30.5532 37.6205 30.0521 37.9553C29.5511 38.2901 28.962 38.4688 28.3594 38.4688C27.5513 38.4688 26.7763 38.1477 26.2049 37.5763C25.6335 37.0049 25.3125 36.23 25.3125 35.4219ZM49.6875 35.4219C49.6875 36.0245 49.5088 36.6136 49.174 37.1146C48.8392 37.6157 48.3634 38.0062 47.8066 38.2368C47.2499 38.4674 46.6373 38.5278 46.0462 38.4102C45.4552 38.2926 44.9123 38.0025 44.4862 37.5763C44.0601 37.1502 43.7699 36.6073 43.6523 36.0163C43.5347 35.4253 43.5951 34.8126 43.8257 34.2559C44.0563 33.6991 44.4468 33.2233 44.9479 32.8885C45.4489 32.5537 46.038 32.375 46.6406 32.375C47.4487 32.375 48.2237 32.696 48.7951 33.2674C49.3665 33.8388 49.6875 34.6138 49.6875 35.4219ZM49.4133 51.6719C49.5603 51.9031 49.6589 52.1616 49.7034 52.4319C49.7479 52.7022 49.7372 52.9788 49.672 53.2448C49.6068 53.5109 49.4885 53.7611 49.3242 53.9803C49.1598 54.1994 48.9528 54.3831 48.7156 54.5202C48.4784 54.6573 48.216 54.745 47.944 54.778C47.6721 54.8111 47.3962 54.7887 47.1331 54.7124C46.87 54.6361 46.6251 54.5073 46.413 54.3339C46.201 54.1604 46.0262 53.9459 45.8992 53.7031C44.0026 50.4252 41.0217 48.625 37.5 48.625C33.9783 48.625 30.9975 50.4277 29.1008 53.7031C28.9738 53.9459 28.799 54.1604 28.587 54.3339C28.3749 54.5073 28.13 54.6361 27.8669 54.7124C27.6038 54.7887 27.328 54.8111 27.056 54.778C26.784 54.745 26.5216 54.6573 26.2844 54.5202C26.0472 54.3831 25.8402 54.1994 25.6759 53.9803C25.5115 53.7611 25.3932 53.5109 25.328 53.2448C25.2628 52.9788 25.2522 52.7022 25.2966 52.4319C25.3411 52.1616 25.4398 51.9031 25.5867 51.6719C28.1994 47.1549 32.5412 44.5625 37.5 44.5625C42.4588 44.5625 46.8006 47.1523 49.4133 51.6719Z" fill="#684C9E"/>
</svg>
