<svg width="81" height="98" viewBox="0 0 81 98" fill="none" xmlns="http://www.w3.org/2000/svg">
<path d="M80.9823 36.6088C80.2541 58.1694 43.4156 95.1416 40.5014 98.0005C37.6109 95.1416 0.745856 58.1694 0.0177462 36.6088C-0.659204 16.4402 18.1236 0.0894775 40.5014 0.000488281C62.8764 0.0894775 81.6592 16.4624 80.9823 36.6088Z" fill="#EDEAF3"/>
<path d="M58.7812 21.1875H42.5312V13.0625C42.5312 12.5238 42.3172 12.0071 41.9363 11.6262C41.5554 11.2453 41.0387 11.0312 40.5 11.0312C39.9613 11.0312 39.4446 11.2453 39.0637 11.6262C38.6828 12.0071 38.4688 12.5238 38.4688 13.0625V21.1875H22.2188C20.0639 21.1875 17.9972 22.0435 16.4735 23.5673C14.9498 25.091 14.0938 27.1576 14.0938 29.3125V57.75C14.0938 59.9049 14.9498 61.9715 16.4735 63.4952C17.9972 65.019 20.0639 65.875 22.2188 65.875H58.7812C60.9361 65.875 63.0028 65.019 64.5265 63.4952C66.0502 61.9715 66.9062 59.9049 66.9062 57.75V29.3125C66.9062 27.1576 66.0502 25.091 64.5265 23.5673C63.0028 22.0435 60.9361 21.1875 58.7812 21.1875ZM62.8438 57.75C62.8438 58.8274 62.4157 59.8608 61.6539 60.6226C60.892 61.3845 59.8587 61.8125 58.7812 61.8125H22.2188C21.1413 61.8125 20.108 61.3845 19.3461 60.6226C18.5843 59.8608 18.1562 58.8274 18.1562 57.75V29.3125C18.1562 28.2351 18.5843 27.2017 19.3461 26.4399C20.108 25.678 21.1413 25.25 22.2188 25.25H58.7812C59.8587 25.25 60.892 25.678 61.6539 26.4399C62.4157 27.2017 62.8438 28.2351 62.8438 29.3125V57.75ZM49.6406 43.5312H31.3594C29.4739 43.5312 27.6656 44.2803 26.3323 45.6135C24.999 46.9468 24.25 48.7551 24.25 50.6406C24.25 52.5261 24.999 54.3344 26.3323 55.6677C27.6656 57.001 29.4739 57.75 31.3594 57.75H49.6406C51.5261 57.75 53.3344 57.001 54.6677 55.6677C56.001 54.3344 56.75 52.5261 56.75 50.6406C56.75 48.7551 56.001 46.9468 54.6677 45.6135C53.3344 44.2803 51.5261 43.5312 49.6406 43.5312ZM42.5312 47.5938V53.6875H38.4688V47.5938H42.5312ZM28.3125 50.6406C28.3125 49.8325 28.6335 49.0576 29.2049 48.4862C29.7763 47.9148 30.5513 47.5938 31.3594 47.5938H34.4062V53.6875H31.3594C30.5513 53.6875 29.7763 53.3665 29.2049 52.7951C28.6335 52.2237 28.3125 51.4487 28.3125 50.6406ZM49.6406 53.6875H46.5938V47.5938H49.6406C50.4487 47.5938 51.2237 47.9148 51.7951 48.4862C52.3665 49.0576 52.6875 49.8325 52.6875 50.6406C52.6875 51.4487 52.3665 52.2237 51.7951 52.7951C51.2237 53.3665 50.4487 53.6875 49.6406 53.6875ZM26.2812 36.4219C26.2812 35.8193 26.4599 35.2302 26.7947 34.7291C27.1295 34.2281 27.6054 33.8375 28.1621 33.6069C28.7189 33.3763 29.3315 33.316 29.9225 33.4335C30.5136 33.5511 31.0565 33.8413 31.4826 34.2674C31.9087 34.6935 32.1989 35.2364 32.3165 35.8275C32.434 36.4185 32.3737 37.0311 32.1431 37.5879C31.9125 38.1446 31.5219 38.6205 31.0209 38.9553C30.5198 39.2901 29.9307 39.4688 29.3281 39.4688C28.52 39.4688 27.7451 39.1477 27.1737 38.5763C26.6023 38.0049 26.2813 37.23 26.2812 36.4219ZM48.625 36.4219C48.625 35.8193 48.8037 35.2302 49.1385 34.7291C49.4733 34.2281 49.9491 33.8375 50.5059 33.6069C51.0626 33.3763 51.6753 33.316 52.2663 33.4335C52.8573 33.5511 53.4002 33.8413 53.8263 34.2674C54.2525 34.6935 54.5426 35.2364 54.6602 35.8275C54.7778 36.4185 54.7174 37.0311 54.4868 37.5879C54.2562 38.1446 53.8657 38.6205 53.3646 38.9553C52.8636 39.2901 52.2745 39.4688 51.6719 39.4688C50.8638 39.4688 50.0888 39.1477 49.5174 38.5763C48.946 38.0049 48.625 37.23 48.625 36.4219Z" fill="#684C9E"/>
</svg>
