<svg width="75" height="99" viewBox="0 0 75 99" fill="none" xmlns="http://www.w3.org/2000/svg">
<path d="M74.9836 36.9704C74.3094 58.7443 40.1997 96.0821 37.5013 98.9692C34.8249 96.0821 0.690607 58.7443 0.0164317 36.9704C-0.610374 16.6024 16.7812 0.0900421 37.5013 0.000167847C58.2188 0.0900421 75.6104 16.6249 74.9836 36.9704Z" fill="#EDEAF3"/>
<path d="M28.3594 45.5938C27.7568 45.5938 27.1677 45.4151 26.6666 45.0803C26.1656 44.7455 25.7751 44.2696 25.5444 43.7129C25.3138 43.1561 25.2535 42.5435 25.3711 41.9525C25.4886 41.3614 25.7788 40.8185 26.2049 40.3924C26.631 39.9663 27.1739 39.6761 27.765 39.5585C28.356 39.441 28.9686 39.5013 29.5254 39.7319C30.0821 39.9625 30.558 40.3531 30.8928 40.8541C31.2276 41.3552 31.4063 41.9443 31.4063 42.5469C31.4063 43.355 31.0853 44.1299 30.5139 44.7013C29.9425 45.2727 29.1675 45.5938 28.3594 45.5938ZM46.6406 39.5C46.038 39.5 45.4489 39.6787 44.9479 40.0135C44.4468 40.3483 44.0563 40.8241 43.8257 41.3809C43.5951 41.9376 43.5347 42.5503 43.6523 43.1413C43.7699 43.7323 44.0601 44.2752 44.4862 44.7013C44.9123 45.1275 45.4552 45.4176 46.0462 45.5352C46.6373 45.6528 47.2499 45.5924 47.8066 45.3618C48.3634 45.1312 48.8392 44.7407 49.174 44.2396C49.5088 43.7386 49.6875 43.1495 49.6875 42.5469C49.6875 41.7388 49.3665 40.9638 48.7951 40.3924C48.2237 39.821 47.4487 39.5 46.6406 39.5ZM63.9063 39.5C63.9063 44.7227 62.3576 49.828 59.456 54.1705C56.5545 58.513 52.4304 61.8976 47.6052 63.8962C42.7801 65.8948 37.4707 66.4178 32.3484 65.3989C27.2261 64.38 22.521 61.865 18.828 58.172C15.135 54.4791 12.62 49.7739 11.6012 44.6516C10.5823 39.5293 11.1052 34.2199 13.1038 29.3948C15.1024 24.5697 18.487 20.4456 22.8295 17.544C27.172 14.6424 32.2773 13.0938 37.5 13.0938C44.5011 13.1011 51.2134 15.8856 56.1639 20.8361C61.1144 25.7867 63.8989 32.4989 63.9063 39.5ZM59.8438 39.5C59.8438 35.0808 58.5333 30.7609 56.0782 27.0865C53.623 23.4121 50.1334 20.5482 46.0506 18.8571C41.9678 17.1659 37.4752 16.7234 33.141 17.5856C28.8067 18.4477 24.8254 20.5758 21.7006 23.7006C18.5758 26.8254 16.4477 30.8067 15.5856 35.141C14.7235 39.4752 15.1659 43.9678 16.8571 48.0506C18.5482 52.1334 21.4121 55.623 25.0865 58.0781C28.7609 60.5333 33.0808 61.8438 37.5 61.8438C43.4239 61.837 49.1032 59.4808 53.292 55.292C57.4808 51.1032 59.837 45.4239 59.8438 39.5ZM48.5602 27.6527L37.5 35.0287L26.4399 27.6654C25.9914 27.3664 25.4425 27.2579 24.9139 27.3636C24.3854 27.4693 23.9205 27.7806 23.6215 28.2291C23.3225 28.6776 23.2139 29.2265 23.3196 29.755C23.4253 30.2836 23.7367 30.7485 24.1852 31.0475L36.3727 39.1725C36.7065 39.3952 37.0987 39.514 37.5 39.514C37.9013 39.514 38.2936 39.3952 38.6274 39.1725L50.8149 31.0475C51.2633 30.7485 51.5747 30.2836 51.6804 29.755C51.7861 29.2265 51.6775 28.6776 51.3785 28.2291C51.0795 27.7806 50.6146 27.4693 50.0861 27.3636C49.5575 27.2579 49.0087 27.3664 48.5602 27.6654V27.6527ZM44.7186 52.0277C42.5781 50.6033 40.5317 49.6562 37.5 49.6562C34.4684 49.6562 32.4219 50.6033 30.2815 52.0277C29.8432 52.3304 29.5414 52.7931 29.441 53.3161C29.3405 53.8391 29.4495 54.3806 29.7445 54.8241C30.0395 55.2675 30.4968 55.5774 31.018 55.6869C31.5392 55.7965 32.0825 55.6969 32.5311 55.4098C34.1815 54.3129 35.4688 53.7188 37.5 53.7188C39.5313 53.7188 40.8186 54.3129 42.469 55.4098C42.6909 55.5631 42.9411 55.6706 43.2051 55.7261C43.4691 55.7817 43.7414 55.7841 44.0063 55.7332C44.2712 55.6823 44.5233 55.5792 44.7479 55.4299C44.9725 55.2805 45.1652 55.0879 45.3146 54.8634C45.4639 54.6388 45.5671 54.3867 45.618 54.1218C45.6689 53.8569 45.6666 53.5846 45.6111 53.3206C45.5556 53.0566 45.4481 52.8064 45.2949 52.5844C45.1416 52.3624 44.9457 52.1732 44.7186 52.0277Z" fill="#684C9E"/>
</svg>
