<svg width="75" height="99" viewBox="0 0 75 99" fill="none" xmlns="http://www.w3.org/2000/svg">
<path d="M74.9836 36.9704C74.3094 58.7443 40.1997 96.0821 37.5013 98.9692C34.8249 96.0821 0.690607 58.7443 0.0164317 36.9704C-0.610374 16.6024 16.7812 0.0900421 37.5013 0.000167847C58.2188 0.0900421 75.6104 16.6249 74.9836 36.9704Z" fill="#EDEAF3"/>
<path d="M67.9688 36.4375H60.8797L48.8191 19.8295C48.4537 19.3277 47.9781 18.9163 47.4288 18.627C46.8796 18.3376 46.2714 18.178 45.6508 18.1603C45.0303 18.1427 44.414 18.2675 43.8492 18.5251C43.2844 18.7828 42.7862 19.1664 42.3928 19.6466L39.1301 23.4298L39.0793 23.4882C38.8902 23.7257 38.6501 23.9175 38.3766 24.0494C38.1032 24.1812 37.8036 24.2497 37.5 24.2497C37.1964 24.2497 36.8968 24.1812 36.6234 24.0494C36.3499 23.9175 36.1098 23.7257 35.9207 23.4882L35.8699 23.4298L32.6072 19.6466C32.2138 19.1664 31.7156 18.7828 31.1508 18.5251C30.586 18.2675 29.9697 18.1427 29.3492 18.1603C28.7286 18.178 28.1204 18.3376 27.5712 18.627C27.0219 18.9163 26.5463 19.3277 26.1809 19.8295L14.1203 36.4375H7.03125C6.49253 36.4375 5.97587 36.6515 5.59494 37.0324C5.21401 37.4133 5 37.93 5 38.4687C5 39.0074 5.21401 39.5241 5.59494 39.905C5.97587 40.286 6.49253 40.5 7.03125 40.5H67.9688C68.5075 40.5 69.0241 40.286 69.4051 39.905C69.786 39.5241 70 39.0074 70 38.4687C70 37.93 69.786 37.4133 69.4051 37.0324C69.0241 36.6515 68.5075 36.4375 67.9688 36.4375ZM29.4613 22.2187L29.5096 22.2771L32.7723 26.0578C33.3437 26.7604 34.0645 27.3268 34.8823 27.7159C35.7001 28.1049 36.5944 28.3067 37.5 28.3067C38.4056 28.3067 39.2999 28.1049 40.1177 27.7159C40.9355 27.3268 41.6563 26.7604 42.2277 26.0578L45.4904 22.2771C45.5057 22.2568 45.5158 22.239 45.5336 22.2187L55.8574 36.4375H19.14L29.4613 22.2187ZM50.7031 44.5625C48.455 44.5629 46.286 45.3918 44.6105 46.8907C42.935 48.3896 41.8707 50.4533 41.6209 52.6875H33.3791C33.1287 50.4554 32.0653 48.3936 30.3917 46.8956C28.7181 45.3975 26.5515 44.5682 24.3054 44.5657C22.0593 44.5633 19.8909 45.3879 18.2141 46.8823C16.5372 48.3766 15.4693 50.4361 15.214 52.6677C14.9588 54.8992 15.5341 57.1466 16.8303 58.981C18.1264 60.8154 20.0526 62.1084 22.2412 62.6132C24.4299 63.1179 26.7278 62.7992 28.6964 61.7178C30.665 60.6363 32.1666 58.8679 32.9145 56.75H42.0855C42.6441 58.3299 43.6263 59.7259 44.9247 60.7853C46.2231 61.8447 47.7878 62.5268 49.4477 62.7571C51.1076 62.9873 52.7988 62.7567 54.3365 62.0907C55.8743 61.4246 57.1993 60.3486 58.1668 58.9803C59.1343 57.612 59.707 56.0041 59.8224 54.3323C59.9377 52.6605 59.5913 50.9891 58.8209 49.5009C58.0505 48.0127 56.8858 46.765 55.4541 45.894C54.0225 45.023 52.3789 44.5624 50.7031 44.5625ZM24.2969 58.7812C23.2925 58.7812 22.3107 58.4834 21.4756 57.9254C20.6405 57.3674 19.9897 56.5743 19.6053 55.6464C19.2209 54.7185 19.1204 53.6975 19.3163 52.7124C19.5123 51.7273 19.9959 50.8225 20.7061 50.1123C21.4163 49.4021 22.3211 48.9185 23.3062 48.7225C24.2912 48.5266 25.3123 48.6272 26.2402 49.0115C27.1681 49.3959 27.9612 50.0467 28.5192 50.8818C29.0772 51.7169 29.375 52.6987 29.375 53.7031C29.375 54.37 29.2437 55.0303 28.9885 55.6464C28.7333 56.2625 28.3592 56.8223 27.8877 57.2939C27.4161 57.7654 26.8563 58.1395 26.2402 58.3947C25.6241 58.6499 24.9637 58.7812 24.2969 58.7812ZM50.7031 58.7812C49.6988 58.7812 48.717 58.4834 47.8819 57.9254C47.0468 57.3674 46.3959 56.5743 46.0116 55.6464C45.6272 54.7185 45.5266 53.6975 45.7226 52.7124C45.9185 51.7273 46.4022 50.8225 47.1123 50.1123C47.8225 49.4021 48.7274 48.9185 49.7124 48.7225C50.6975 48.5266 51.7185 48.6272 52.6464 49.0115C53.5743 49.3959 54.3674 50.0467 54.9254 50.8818C55.4834 51.7169 55.7812 52.6987 55.7812 53.7031C55.7812 55.0499 55.2462 56.3415 54.2939 57.2939C53.3416 58.2462 52.0499 58.7812 50.7031 58.7812Z" fill="#684C9E"/>
</svg>
