<svg width="75" height="99" viewBox="0 0 75 99" fill="none" xmlns="http://www.w3.org/2000/svg">
<path d="M74.9836 36.9704C74.3094 58.7443 40.1997 96.0821 37.5013 98.9692C34.8249 96.0821 0.690607 58.7443 0.0164317 36.9704C-0.610374 16.6024 16.7812 0.0900421 37.5013 0.000167847C58.2188 0.0900421 75.6104 16.6249 74.9836 36.9704Z" fill="#EDEAF3"/>
<path d="M49.6875 44.6093C49.6875 45.212 49.5088 45.801 49.174 46.3021C48.8392 46.8031 48.3634 47.1937 47.8066 47.4243C47.2499 47.6549 46.6373 47.7152 46.0462 47.5977C45.4552 47.4801 44.9123 47.1899 44.4862 46.7638C44.0601 46.3377 43.7699 45.7948 43.6523 45.2038C43.5347 44.6127 43.5951 44.0001 43.8257 43.4433C44.0563 42.8866 44.4468 42.4107 44.9479 42.076C45.4489 41.7412 46.038 41.5625 46.6406 41.5625C47.4487 41.5625 48.2237 41.8835 48.7951 42.4549C49.3665 43.0263 49.6875 43.8013 49.6875 44.6093ZM28.3594 41.5625C27.7568 41.5625 27.1677 41.7412 26.6666 42.076C26.1656 42.4107 25.7751 42.8866 25.5444 43.4433C25.3138 44.0001 25.2535 44.6127 25.3711 45.2038C25.4886 45.7948 25.7788 46.3377 26.2049 46.7638C26.631 47.1899 27.1739 47.4801 27.765 47.5977C28.356 47.7152 28.9686 47.6549 29.5254 47.4243C30.0821 47.1937 30.558 46.8031 30.8928 46.3021C31.2276 45.801 31.4063 45.212 31.4063 44.6093C31.4063 43.8013 31.0853 43.0263 30.5139 42.4549C29.9425 41.8835 29.1675 41.5625 28.3594 41.5625ZM65.9375 47.6562V53.75C65.9375 54.8274 65.5095 55.8607 64.7476 56.6226C63.9858 57.3844 62.9525 57.8125 61.875 57.8125H13.125C12.0476 57.8125 11.0143 57.3844 10.2524 56.6226C9.49052 55.8607 9.06251 54.8274 9.06251 53.75V47.9431C9.05889 44.0274 9.85414 40.1521 11.3996 36.5543C12.9451 32.9565 15.2083 29.7118 18.0508 27.0187L11.6879 20.6558C11.3068 20.2747 11.0926 19.7577 11.0926 19.2187C11.0926 18.6797 11.3068 18.1627 11.6879 17.7816C12.069 17.4005 12.586 17.1863 13.125 17.1863C13.664 17.1863 14.181 17.4005 14.5621 17.7816L21.2043 24.4238C25.9735 21.0455 31.672 19.2271 37.5165 19.2184C43.361 19.2098 49.0648 21.0114 53.844 24.3755L60.4455 17.774C60.8267 17.3928 61.3436 17.1787 61.8826 17.1787C62.4216 17.1787 62.9386 17.3928 63.3197 17.774C63.7009 18.1551 63.915 18.6721 63.915 19.2111C63.915 19.7501 63.7009 20.2671 63.3197 20.6482L57.0051 26.9628C57.1955 27.1431 57.3859 27.3259 57.5738 27.5138C60.2333 30.1494 62.3423 33.2873 63.7781 36.7453C65.2139 40.2032 65.9479 43.9121 65.9375 47.6562ZM61.875 47.6562C61.875 41.1916 59.3069 34.9917 54.7357 30.4205C50.1645 25.8493 43.9647 23.2812 37.5 23.2812H37.4137C24.0201 23.3269 13.125 34.3896 13.125 47.9431V53.75H61.875V47.6562Z" fill="#684C9E"/>
</svg>
