<svg width="75" height="99" viewBox="0 0 75 99" fill="none" xmlns="http://www.w3.org/2000/svg">
<path d="M74.9836 36.9704C74.3094 58.7443 40.1997 96.0821 37.5013 98.9692C34.8249 96.0821 0.690607 58.7443 0.0164317 36.9704C-0.610374 16.6024 16.7812 0.0900421 37.5013 0.000167847C58.2188 0.0900421 75.6104 16.6249 74.9836 36.9704Z" fill="#EDEAF3"/>
<path d="M34.771 43.097C37.4933 41.2845 39.5602 38.6442 40.6659 35.5662C41.7716 32.4883 41.8574 29.1362 40.9107 26.0058C39.9639 22.8753 38.0349 20.1326 35.4088 18.1832C32.7828 16.2339 29.5991 15.1814 26.3286 15.1814C23.0581 15.1814 19.8744 16.2339 17.2483 18.1832C14.6222 20.1326 12.6932 22.8753 11.7465 26.0058C10.7997 29.1362 10.8855 32.4883 11.9912 35.5662C13.0969 38.6442 15.1638 41.2845 17.8862 43.097C12.9617 44.912 8.75599 48.2706 5.89674 52.6718C5.74646 52.8951 5.64208 53.1461 5.58966 53.4101C5.53725 53.6742 5.53783 53.946 5.59139 54.2098C5.64495 54.4736 5.75041 54.7241 5.90165 54.9468C6.05288 55.1695 6.24688 55.36 6.47235 55.507C6.69782 55.6541 6.95027 55.7549 7.21504 55.8035C7.4798 55.8521 7.75159 55.8477 8.01461 55.7903C8.27763 55.733 8.52663 55.624 8.74713 55.4696C8.96764 55.3152 9.15526 55.1185 9.29908 54.8909C11.1434 52.0542 13.6672 49.7232 16.6411 48.1095C19.6151 46.4958 22.945 45.6506 26.3286 45.6506C29.7121 45.6506 33.0421 46.4958 36.016 48.1095C38.99 49.7232 41.5137 52.0542 43.3581 54.8909C43.656 55.3337 44.1162 55.6414 44.6392 55.7476C45.1622 55.8538 45.706 55.7499 46.153 55.4583C46.6001 55.1668 46.9144 54.711 47.028 54.1896C47.1417 53.6681 47.0455 53.1229 46.7604 52.6718C43.9012 48.2706 39.6955 44.912 34.771 43.097ZM15.1567 30.422C15.1567 28.2124 15.8119 26.0524 17.0395 24.2152C18.2671 22.378 20.0119 20.9461 22.0533 20.1005C24.0947 19.2549 26.341 19.0337 28.5081 19.4647C30.6752 19.8958 32.6659 20.9598 34.2283 22.5222C35.7907 24.0847 36.8547 26.0753 37.2858 28.2424C37.7169 30.4096 37.4956 32.6559 36.65 34.6972C35.8045 36.7386 34.3725 38.4834 32.5353 39.711C30.6981 40.9386 28.5382 41.5938 26.3286 41.5938C23.3666 41.5905 20.527 40.4124 18.4326 38.318C16.3382 36.2235 15.1601 33.3839 15.1567 30.422ZM68.5126 55.4825C68.0614 55.7767 67.5118 55.8797 66.9847 55.7687C66.4576 55.6578 65.9961 55.342 65.7018 54.8909C63.8597 52.0525 61.3363 49.7205 58.3617 48.1075C55.3871 46.4945 52.0561 45.6518 48.6723 45.6563C48.1336 45.6563 47.6169 45.4423 47.236 45.0614C46.8551 44.6805 46.6411 44.1638 46.6411 43.6251C46.6411 43.0864 46.8551 42.5697 47.236 42.1888C47.6169 41.8078 48.1336 41.5938 48.6723 41.5938C50.3176 41.5923 51.9421 41.2274 53.43 40.5252C54.9179 39.823 56.2323 38.8008 57.2793 37.5318C58.3263 36.2627 59.0801 34.7781 59.4869 33.1839C59.8936 31.5897 59.9432 29.9254 59.6322 28.3098C59.3211 26.6943 58.6571 25.1673 57.6875 23.8382C56.718 22.509 55.4668 21.4103 54.0234 20.6207C52.58 19.8312 50.9801 19.3701 49.3379 19.2706C47.6956 19.171 46.0517 19.4354 44.5235 20.0448C44.2743 20.1525 44.0061 20.2092 43.7347 20.2115C43.4632 20.2138 43.1941 20.1616 42.9431 20.0582C42.6922 19.9547 42.4645 19.8019 42.2736 19.609C42.0826 19.416 41.9323 19.1867 41.8315 18.9347C41.7307 18.6827 41.6814 18.413 41.6866 18.1416C41.6918 17.8702 41.7513 17.6026 41.8617 17.3545C41.972 17.1065 42.131 16.8832 42.3291 16.6976C42.5273 16.5121 42.7606 16.3681 43.0153 16.2743C46.5128 14.8795 50.4029 14.8293 53.9351 16.1334C57.4674 17.4375 60.3916 20.0036 62.1436 23.3365C63.8955 26.6694 64.3511 30.5331 63.4225 34.1821C62.4938 37.8311 60.2468 41.007 57.1147 43.097C62.0392 44.912 66.2449 48.2706 69.1042 52.6718C69.3984 53.123 69.5013 53.6725 69.3904 54.1996C69.2795 54.7267 68.9637 55.1882 68.5126 55.4825Z" fill="#684C9E"/>
</svg>
