<svg width="52" height="36" viewBox="0 0 52 36" fill="none" xmlns="http://www.w3.org/2000/svg">
<path d="M30.1477 24.5605C30.1477 18.5045 31.986 13.4129 35.6626 9.28587C39.3392 5.11396 44.6891 2.01867 51.7124 0V5.24854C43.4165 7.76066 39.2685 11.5288 39.2685 16.5531C39.2685 17.4951 39.622 18.3026 40.3291 18.9755C41.0361 19.6035 42.2852 20.3661 44.0764 21.2633C47.2345 22.8334 48.8135 25.0763 48.8135 27.9922C48.8135 30.4146 48.0122 32.2538 46.4096 33.5099C44.807 34.7659 42.7801 35.394 40.3291 35.394C37.3124 35.394 34.8613 34.3846 32.9759 32.366C31.0905 30.3024 30.1477 27.7006 30.1477 24.5605ZM0.452148 24.5605C0.452148 18.5045 2.29045 13.4129 5.96704 9.28587C9.64364 5.11396 14.9936 2.01867 22.0168 0V5.24854C13.7209 7.76066 9.57294 11.5288 9.57294 16.5531C9.57294 17.4951 9.92645 18.3026 10.6335 18.9755C11.3405 19.6035 12.5896 20.3661 14.3808 21.2633C17.5389 22.8334 19.1179 25.0763 19.1179 27.9922C19.1179 30.4146 18.3166 32.2538 16.714 33.5099C15.1114 34.7659 13.0846 35.394 10.6335 35.394C7.6168 35.394 5.16573 34.3846 3.2803 32.366C1.39487 30.3024 0.452148 27.7006 0.452148 24.5605Z" fill="#684C9E"/>
</svg>
