<svg width="741" height="1001" viewBox="0 0 741 1001" fill="none" xmlns="http://www.w3.org/2000/svg">
<g opacity="0.3">
<path d="M720.307 624.791C714.007 415.894 395.428 57.6905 370.23 30C345.257 57.6905 26.4528 415.894 20.1532 624.791C14.3036 820.175 176.743 978.565 370.23 979.451C563.717 978.565 726.157 819.954 720.307 624.791Z" stroke="#6F50AC" stroke-width="40" stroke-miterlimit="10"/>
<path d="M639.087 708.75C634.362 549.253 390.928 275.671 371.804 254.405C352.681 275.671 109.247 549.253 104.522 708.75C100.022 857.836 223.989 979.009 371.804 979.674C519.62 979.009 643.586 857.836 639.087 708.75Z" stroke="#6F50AC" stroke-width="40" stroke-miterlimit="10"/>
<path d="M542.35 808.211C539.425 706.532 384.185 532.193 372.036 518.68C359.887 532.193 204.647 706.532 201.722 808.211C198.797 903.245 277.992 980.557 372.036 981C466.305 980.557 545.274 903.467 542.35 808.211Z" stroke="#6F50AC" stroke-width="40" stroke-miterlimit="10"/>
<path d="M542.35 315.322C539.425 417.002 384.185 591.341 372.036 604.854C359.887 591.341 204.647 417.002 201.722 315.322C198.797 220.289 277.992 142.977 372.036 142.534C466.305 142.977 545.274 220.067 542.35 315.322Z" stroke="#6F50AC" stroke-width="40" stroke-miterlimit="10"/>
</g>
</svg>
